G04*
G04 #@! TF.GenerationSoftware,Altium Limited,Altium Designer,20.2.5 (213)*
G04*
G04 Layer_Color=16711935*
%FSLAX25Y25*%
%MOIN*%
G70*
G04*
G04 #@! TF.SameCoordinates,D46C28A9-7DA0-4B25-B7FC-F21E02E80399*
G04*
G04*
G04 #@! TF.FilePolarity,Negative*
G04*
G01*
G75*
%ADD40C,0.06800*%
%ADD41R,0.06800X0.06800*%
%ADD42C,0.15800*%
G04:AMPARAMS|DCode=43|XSize=158mil|YSize=158mil|CornerRadius=41.5mil|HoleSize=0mil|Usage=FLASHONLY|Rotation=180.000|XOffset=0mil|YOffset=0mil|HoleType=Round|Shape=RoundedRectangle|*
%AMROUNDEDRECTD43*
21,1,0.15800,0.07500,0,0,180.0*
21,1,0.07500,0.15800,0,0,180.0*
1,1,0.08300,-0.03750,0.03750*
1,1,0.08300,0.03750,0.03750*
1,1,0.08300,0.03750,-0.03750*
1,1,0.08300,-0.03750,-0.03750*
%
%ADD43ROUNDEDRECTD43*%
%ADD44C,0.10800*%
%ADD45C,0.07800*%
%ADD46R,0.07800X0.07800*%
D40*
X90000Y20000D02*
D03*
X100000D02*
D03*
X70000D02*
D03*
X60000D02*
D03*
X50000D02*
D03*
X40000D02*
D03*
X30000D02*
D03*
D41*
X110000D02*
D03*
X20000D02*
D03*
D42*
X90000Y180000D02*
D03*
X60000D02*
D03*
X30000D02*
D03*
D43*
X120000D02*
D03*
D44*
X22378Y151347D02*
D03*
X46000Y95441D02*
D03*
X22378Y103315D02*
D03*
X69622D02*
D03*
X112000Y52701D02*
D03*
X151370D02*
D03*
X112000Y159000D02*
D03*
X92315Y159000D02*
D03*
D45*
X150000Y185000D02*
D03*
X150000Y195000D02*
D03*
D46*
X150000Y205000D02*
D03*
M02*
