G04*
G04 #@! TF.GenerationSoftware,Altium Limited,Altium Designer,20.2.5 (213)*
G04*
G04 Layer_Color=2752767*
%FSLAX25Y25*%
%MOIN*%
G70*
G04*
G04 #@! TF.SameCoordinates,D46C28A9-7DA0-4B25-B7FC-F21E02E80399*
G04*
G04*
G04 #@! TF.FilePolarity,Positive*
G04*
G01*
G75*
%ADD58C,0.00200*%
%ADD61C,0.00267*%
D58*
X89200Y19200D02*
Y20800D01*
X90800D01*
Y19200D01*
X89200D01*
X99200D02*
Y20800D01*
X100800D01*
Y19200D01*
X99200D01*
X109200D02*
Y20800D01*
X110800D01*
Y19200D01*
X109200D01*
X22378Y150547D02*
X21578Y152146D01*
X23178D01*
X22378Y150547D01*
X46000Y94641D02*
X45200Y96241D01*
X46800D01*
X46000Y94641D01*
X22378Y102515D02*
X21578Y104115D01*
X23178D01*
X22378Y102515D01*
X69622D02*
X68822Y104115D01*
X70422D01*
X69622Y102515D01*
X150000Y184200D02*
X150400Y184600D01*
X150800D01*
X150400Y185000D01*
X150800Y185400D01*
X150400D01*
X150000Y185800D01*
X149600Y185400D01*
X149200D01*
X149600Y185000D01*
X149200Y184600D01*
X149600D01*
X150000Y184200D01*
X150000Y194200D02*
X150400Y194600D01*
X150800D01*
X150400Y195000D01*
X150800Y195400D01*
X150400D01*
X150000Y195800D01*
X149600Y195400D01*
X149200D01*
X149600Y195000D01*
X149200Y194600D01*
X149600D01*
X150000Y194200D01*
X150000Y204200D02*
X150400Y204600D01*
X150800D01*
X150400Y205000D01*
X150800Y205400D01*
X150400D01*
X150000Y205800D01*
X149600Y205400D01*
X149200D01*
X149600Y205000D01*
X149200Y204600D01*
X149600D01*
X150000Y204200D01*
X69200Y19200D02*
Y20800D01*
X70800D01*
Y19200D01*
X69200D01*
X59200D02*
Y20800D01*
X60800D01*
Y19200D01*
X59200D01*
X49200D02*
Y20800D01*
X50800D01*
Y19200D01*
X49200D01*
X39200D02*
Y20800D01*
X40800D01*
Y19200D01*
X39200D01*
X29200D02*
Y20800D01*
X30800D01*
Y19200D01*
X29200D01*
X19200D02*
Y20800D01*
X20800D01*
Y19200D01*
X19200D01*
X112000Y51901D02*
X112400Y52301D01*
X112800D01*
X112400Y52701D01*
X112800Y53101D01*
X112400D01*
X112000Y53501D01*
X111600Y53101D01*
X111200D01*
X111600Y52701D01*
X111200Y52301D01*
X111600D01*
X112000Y51901D01*
X151370D02*
X151770Y52301D01*
X152170D01*
X151770Y52701D01*
X152170Y53101D01*
X151770D01*
X151370Y53501D01*
X150970Y53101D01*
X150570D01*
X150970Y52701D01*
X150570Y52301D01*
X150970D01*
X151370Y51901D01*
X112000Y158200D02*
X112400Y158600D01*
X112800D01*
X112400Y159000D01*
X112800Y159400D01*
X112400D01*
X112000Y159800D01*
X111600Y159400D01*
X111200D01*
X111600Y159000D01*
X111200Y158600D01*
X111600D01*
X112000Y158200D01*
X92315Y158200D02*
X92715Y158600D01*
X93115D01*
X92715Y159000D01*
X93115Y159400D01*
X92715D01*
X92315Y159800D01*
X91915Y159400D01*
X91515D01*
X91915Y159000D01*
X91515Y158600D01*
X91915D01*
X92315Y158200D01*
D61*
X90800Y180000D02*
G03*
X90800Y180000I-800J0D01*
G01*
X120800D02*
G03*
X120800Y180000I-800J0D01*
G01*
X60800D02*
G03*
X60800Y180000I-800J0D01*
G01*
X30800D02*
G03*
X30800Y180000I-800J0D01*
G01*
M02*
