G04*
G04 #@! TF.GenerationSoftware,Altium Limited,Altium Designer,20.2.5 (213)*
G04*
G04 Layer_Color=8388736*
%FSLAX25Y25*%
%MOIN*%
G70*
G04*
G04 #@! TF.SameCoordinates,D46C28A9-7DA0-4B25-B7FC-F21E02E80399*
G04*
G04*
G04 #@! TF.FilePolarity,Negative*
G04*
G01*
G75*
%ADD27O,0.03162X0.08280*%
%ADD28R,0.05200X0.05200*%
%ADD29R,0.05800X0.04800*%
%ADD30O,0.12800X0.05800*%
%ADD31R,0.03000X0.04200*%
%ADD32R,0.03700X0.05800*%
%ADD33R,0.04800X0.05800*%
%ADD34R,0.04000X0.04000*%
%ADD35R,0.07600X0.05800*%
%ADD36R,0.06800X0.05800*%
%ADD37R,0.05800X0.07600*%
%ADD38R,0.03300X0.08300*%
%ADD39O,0.05800X0.12800*%
%ADD40C,0.06800*%
%ADD41R,0.06800X0.06800*%
%ADD42C,0.15800*%
G04:AMPARAMS|DCode=43|XSize=158mil|YSize=158mil|CornerRadius=41.5mil|HoleSize=0mil|Usage=FLASHONLY|Rotation=180.000|XOffset=0mil|YOffset=0mil|HoleType=Round|Shape=RoundedRectangle|*
%AMROUNDEDRECTD43*
21,1,0.15800,0.07500,0,0,180.0*
21,1,0.07500,0.15800,0,0,180.0*
1,1,0.08300,-0.03750,0.03750*
1,1,0.08300,0.03750,0.03750*
1,1,0.08300,0.03750,-0.03750*
1,1,0.08300,-0.03750,-0.03750*
%
%ADD43ROUNDEDRECTD43*%
%ADD44C,0.10800*%
%ADD45C,0.07800*%
%ADD46R,0.07800X0.07800*%
D27*
X67500Y55252D02*
D03*
X62500D02*
D03*
X57500D02*
D03*
X52500D02*
D03*
X67500Y36748D02*
D03*
X62500D02*
D03*
X57500D02*
D03*
X52500D02*
D03*
D28*
X28400Y80000D02*
D03*
X43600D02*
D03*
D29*
X124000Y32000D02*
D03*
Y24000D02*
D03*
X140000Y96000D02*
D03*
Y88000D02*
D03*
D30*
X111000Y33000D02*
D03*
Y43000D02*
D03*
X81000D02*
D03*
Y33000D02*
D03*
D31*
X106260Y103400D02*
D03*
X113740Y103400D02*
D03*
X110000Y112000D02*
D03*
X90260Y103200D02*
D03*
X97740Y103200D02*
D03*
X94000Y111800D02*
D03*
D32*
X114528Y122000D02*
D03*
X105472D02*
D03*
D33*
X114000Y95700D02*
D03*
X106000D02*
D03*
X98000Y95500D02*
D03*
X90000D02*
D03*
X106000Y87500D02*
D03*
X98000D02*
D03*
X89000D02*
D03*
X81000D02*
D03*
X72000Y64000D02*
D03*
X80000D02*
D03*
X70000Y26000D02*
D03*
X62000D02*
D03*
D34*
X126000Y87200D02*
D03*
Y92800D02*
D03*
Y104800D02*
D03*
Y99200D02*
D03*
X132000Y104800D02*
D03*
Y99200D02*
D03*
Y87200D02*
D03*
Y92800D02*
D03*
D35*
X134000Y63000D02*
D03*
Y77000D02*
D03*
X136000Y187000D02*
D03*
Y173000D02*
D03*
X165000Y188000D02*
D03*
Y202000D02*
D03*
D36*
X90000Y67000D02*
D03*
Y53000D02*
D03*
X98000Y67000D02*
D03*
Y53000D02*
D03*
D37*
X54000Y73000D02*
D03*
X68000D02*
D03*
D38*
X18800Y54000D02*
D03*
Y34000D02*
D03*
X33200D02*
D03*
Y54000D02*
D03*
D39*
X154000Y131000D02*
D03*
Y161000D02*
D03*
X134000D02*
D03*
X144000D02*
D03*
Y131000D02*
D03*
X133906Y130999D02*
D03*
D40*
X90000Y20000D02*
D03*
X100000D02*
D03*
X70000D02*
D03*
X60000D02*
D03*
X50000D02*
D03*
X40000D02*
D03*
X30000D02*
D03*
D41*
X110000D02*
D03*
X20000D02*
D03*
D42*
X90000Y180000D02*
D03*
X60000D02*
D03*
X30000D02*
D03*
D43*
X120000D02*
D03*
D44*
X22378Y151347D02*
D03*
X46000Y95441D02*
D03*
X22378Y103315D02*
D03*
X69622D02*
D03*
X112000Y52701D02*
D03*
X151370D02*
D03*
X112000Y159000D02*
D03*
X92315Y159000D02*
D03*
D45*
X150000Y185000D02*
D03*
X150000Y195000D02*
D03*
D46*
X150000Y205000D02*
D03*
M02*
