G04*
G04 #@! TF.GenerationSoftware,Altium Limited,Altium Designer,20.2.5 (213)*
G04*
G04 Layer_Physical_Order=1*
G04 Layer_Color=255*
%FSLAX25Y25*%
%MOIN*%
G70*
G04*
G04 #@! TF.SameCoordinates,D46C28A9-7DA0-4B25-B7FC-F21E02E80399*
G04*
G04*
G04 #@! TF.FilePolarity,Positive*
G04*
G01*
G75*
%ADD13C,0.01000*%
%ADD14O,0.02362X0.07480*%
%ADD15R,0.04400X0.04400*%
%ADD16R,0.05000X0.04000*%
%ADD17O,0.12000X0.05000*%
%ADD18R,0.02200X0.03400*%
%ADD19R,0.02900X0.05000*%
%ADD20R,0.04000X0.05000*%
%ADD21R,0.03200X0.03200*%
%ADD22R,0.06800X0.05000*%
%ADD23R,0.06000X0.05000*%
%ADD24R,0.05000X0.06800*%
%ADD25R,0.02500X0.07500*%
%ADD26O,0.05000X0.12000*%
%ADD47C,0.02000*%
%ADD48C,0.04000*%
%ADD49C,0.01500*%
%ADD50C,0.06000*%
%ADD51C,0.06000*%
%ADD52R,0.06000X0.06000*%
%ADD53C,0.15000*%
G04:AMPARAMS|DCode=54|XSize=150mil|YSize=150mil|CornerRadius=37.5mil|HoleSize=0mil|Usage=FLASHONLY|Rotation=180.000|XOffset=0mil|YOffset=0mil|HoleType=Round|Shape=RoundedRectangle|*
%AMROUNDEDRECTD54*
21,1,0.15000,0.07500,0,0,180.0*
21,1,0.07500,0.15000,0,0,180.0*
1,1,0.07500,-0.03750,0.03750*
1,1,0.07500,0.03750,0.03750*
1,1,0.07500,0.03750,-0.03750*
1,1,0.07500,-0.03750,-0.03750*
%
%ADD54ROUNDEDRECTD54*%
%ADD55C,0.10000*%
%ADD56C,0.07000*%
%ADD57R,0.07000X0.07000*%
D13*
X114000Y95700D02*
X117000D01*
X114000Y92200D02*
Y95700D01*
X113740Y103400D02*
X115840D01*
X112000Y52701D02*
X118000D01*
X112000D02*
Y58701D01*
X106000Y52701D02*
X112000D01*
X98000Y53000D02*
Y56500D01*
Y53000D02*
X102000D01*
X98000Y49500D02*
Y53000D01*
X90000D02*
Y56500D01*
X86000Y53000D02*
X90000D01*
Y49500D02*
Y53000D01*
X81000Y43000D02*
Y46500D01*
Y43000D02*
X88000D01*
X18800Y54000D02*
Y58750D01*
Y54000D02*
X21050D01*
X18800Y49250D02*
Y54000D01*
X16550D02*
X18800D01*
Y34000D02*
Y38750D01*
Y34000D02*
X21050D01*
X18800Y29250D02*
Y34000D01*
X16550D02*
X18800D01*
X20000Y20000D02*
Y24000D01*
Y16000D02*
Y20000D01*
X16000D02*
X20000D01*
X9144Y144000D02*
Y146571D01*
X8858Y147428D01*
X8572Y147713D01*
X8001Y147999D01*
X7144D01*
X6573Y147713D01*
X6287Y147428D01*
X6001Y146571D01*
Y144000D01*
X12000D01*
X6001Y151056D02*
X6287Y150484D01*
X6858Y149913D01*
X7430Y149627D01*
X8286Y149342D01*
X9715D01*
X10572Y149627D01*
X11143Y149913D01*
X11714Y150484D01*
X12000Y151056D01*
Y152198D01*
X11714Y152770D01*
X11143Y153341D01*
X10572Y153627D01*
X9715Y153912D01*
X8286D01*
X7430Y153627D01*
X6858Y153341D01*
X6287Y152770D01*
X6001Y152198D01*
Y151056D01*
Y155312D02*
X12000Y156740D01*
X6001Y158168D02*
X12000Y156740D01*
X6001Y158168D02*
X12000Y159597D01*
X6001Y161025D02*
X12000Y159597D01*
X6001Y165938D02*
Y162225D01*
X12000D01*
Y165938D01*
X8858Y162225D02*
Y164510D01*
X6001Y166938D02*
X12000D01*
X6001D02*
Y169509D01*
X6287Y170366D01*
X6573Y170651D01*
X7144Y170937D01*
X7715D01*
X8286Y170651D01*
X8572Y170366D01*
X8858Y169509D01*
Y166938D01*
Y168938D02*
X12000Y170937D01*
X7430Y181278D02*
X6858Y180992D01*
X6287Y180421D01*
X6001Y179850D01*
Y178707D01*
X6287Y178136D01*
X6858Y177564D01*
X7430Y177279D01*
X8286Y176993D01*
X9715D01*
X10572Y177279D01*
X11143Y177564D01*
X11714Y178136D01*
X12000Y178707D01*
Y179850D01*
X11714Y180421D01*
X11143Y180992D01*
X10572Y181278D01*
X6001Y184677D02*
X6287Y184106D01*
X6858Y183534D01*
X7430Y183249D01*
X8286Y182963D01*
X9715D01*
X10572Y183249D01*
X11143Y183534D01*
X11714Y184106D01*
X12000Y184677D01*
Y185820D01*
X11714Y186391D01*
X11143Y186962D01*
X10572Y187248D01*
X9715Y187533D01*
X8286D01*
X7430Y187248D01*
X6858Y186962D01*
X6287Y186391D01*
X6001Y185820D01*
Y184677D01*
Y188933D02*
X12000D01*
X6001D02*
X12000Y192932D01*
X6001D02*
X12000D01*
X6001Y196589D02*
X12000D01*
X6001Y194589D02*
Y198588D01*
Y199302D02*
X12000D01*
X6001D02*
Y201873D01*
X6287Y202730D01*
X6573Y203016D01*
X7144Y203302D01*
X7715D01*
X8286Y203016D01*
X8572Y202730D01*
X8858Y201873D01*
Y199302D01*
Y201302D02*
X12000Y203302D01*
X6001Y206358D02*
X6287Y205787D01*
X6858Y205216D01*
X7430Y204930D01*
X8286Y204644D01*
X9715D01*
X10572Y204930D01*
X11143Y205216D01*
X11714Y205787D01*
X12000Y206358D01*
Y207501D01*
X11714Y208072D01*
X11143Y208643D01*
X10572Y208929D01*
X9715Y209215D01*
X8286D01*
X7430Y208929D01*
X6858Y208643D01*
X6287Y208072D01*
X6001Y207501D01*
Y206358D01*
Y210614D02*
X12000D01*
Y214042D01*
D14*
X67500Y55252D02*
D03*
X62500D02*
D03*
X57500D02*
D03*
X52500D02*
D03*
X67500Y36748D02*
D03*
X62500D02*
D03*
X57500D02*
D03*
X52500D02*
D03*
D15*
X28400Y80000D02*
D03*
X43600D02*
D03*
D16*
X124000Y32000D02*
D03*
Y24000D02*
D03*
X140000Y96000D02*
D03*
Y88000D02*
D03*
D17*
X111000Y33000D02*
D03*
Y43000D02*
D03*
X81000D02*
D03*
Y33000D02*
D03*
D18*
X106260Y103400D02*
D03*
X113740Y103400D02*
D03*
X110000Y112000D02*
D03*
X90260Y103200D02*
D03*
X97740Y103200D02*
D03*
X94000Y111800D02*
D03*
D19*
X114528Y122000D02*
D03*
X105472D02*
D03*
D20*
X114000Y95700D02*
D03*
X106000D02*
D03*
X98000Y95500D02*
D03*
X90000D02*
D03*
X106000Y87500D02*
D03*
X98000D02*
D03*
X89000D02*
D03*
X81000D02*
D03*
X72000Y64000D02*
D03*
X80000D02*
D03*
X70000Y26000D02*
D03*
X62000D02*
D03*
D21*
X126000Y87200D02*
D03*
Y92800D02*
D03*
Y104800D02*
D03*
Y99200D02*
D03*
X132000Y104800D02*
D03*
Y99200D02*
D03*
Y87200D02*
D03*
Y92800D02*
D03*
D22*
X134000Y63000D02*
D03*
Y77000D02*
D03*
X136000Y187000D02*
D03*
Y173000D02*
D03*
X165000Y188000D02*
D03*
Y202000D02*
D03*
D23*
X90000Y67000D02*
D03*
Y53000D02*
D03*
X98000Y67000D02*
D03*
Y53000D02*
D03*
D24*
X54000Y73000D02*
D03*
X68000D02*
D03*
D25*
X18800Y54000D02*
D03*
Y34000D02*
D03*
X33200D02*
D03*
Y54000D02*
D03*
D26*
X154000Y131000D02*
D03*
Y161000D02*
D03*
X134000D02*
D03*
X144000D02*
D03*
Y131000D02*
D03*
X133906Y130999D02*
D03*
D47*
X161500Y134500D02*
G03*
X161071Y137000I-7500J0D01*
G01*
X149000Y121910D02*
G03*
X161500Y127500I5000J5590D01*
G01*
X146000Y120272D02*
G03*
X149000Y121910I-2000J7228D01*
G01*
X161370Y52701D02*
G03*
X149956Y62600I-10000J0D01*
G01*
X146807Y65749D02*
G03*
X142565Y67506I-4243J-4243D01*
G01*
X141471Y54115D02*
G03*
X161370Y52701I9900J-1414D01*
G01*
X146810Y65746D02*
G03*
X142565Y67506I-4245J-4240D01*
G01*
X120844Y39000D02*
G03*
X122000Y43000I-6344J4000D01*
G01*
X118229Y49507D02*
G03*
X119000Y52701I-6229J3194D01*
G01*
X122000Y43000D02*
G03*
X118229Y49507I-7500J0D01*
G01*
D02*
G03*
X119000Y52701I-6229J3194D01*
G01*
X121500Y16000D02*
G03*
X124817Y17000I0J6000D01*
G01*
X121500Y16000D02*
G03*
X124817Y17000I0J6000D01*
G01*
X102243Y79257D02*
G03*
X102873Y80000I-4243J4243D01*
G01*
X102240Y79255D02*
G03*
X102873Y80000I-4240J4245D01*
G01*
X119000Y52701D02*
G03*
X105456Y50216I-7000J0D01*
G01*
X119000Y52701D02*
G03*
X105456Y50216I-7000J0D01*
G01*
X52093Y64600D02*
G03*
X51500Y62000I5407J-2600D01*
G01*
X105456Y50216D02*
G03*
X103000Y49000I2044J-7216D01*
G01*
D02*
G03*
X102401Y48500I4500J-6000D01*
G01*
D02*
G03*
X100075Y44061I5099J-5500D01*
G01*
X84243Y53460D02*
G03*
X85000Y54386I-4243J4243D01*
G01*
X84240Y53457D02*
G03*
X85000Y54386I-4240J4245D01*
G01*
X87664Y39800D02*
G03*
X89000Y43000I-3164J3200D01*
G01*
D02*
G03*
X84500Y47500I-4500J0D01*
G01*
X31155Y68760D02*
G03*
X35400Y67000I4245J4240D01*
G01*
X31157Y68757D02*
G03*
X35400Y67000I4243J4243D01*
G01*
X16729Y84000D02*
G03*
X18135Y81779I5649J2022D01*
G01*
X16729Y84000D02*
G03*
X18138Y81777I5649J2022D01*
G01*
X52093Y64600D02*
G03*
X51500Y62000I5407J-2600D01*
G01*
Y60831D02*
G03*
X49319Y57811I1000J-3020D01*
G01*
X95757Y39743D02*
G03*
X94000Y35500I4243J-4243D01*
G01*
X95760Y39745D02*
G03*
X94000Y35500I4240J-4245D01*
G01*
X92000Y33000D02*
G03*
X87664Y39800I-7500J0D01*
G01*
X95000Y13755D02*
G03*
X102000Y12254I5000J6245D01*
G01*
X82792Y16529D02*
G03*
X95000Y13755I7208J3471D01*
G01*
X90090Y27999D02*
G03*
X92000Y33000I-5590J5001D01*
G01*
X94000Y26928D02*
G03*
X90090Y27999I-4000J-6928D01*
G01*
X55000Y13755D02*
G03*
X59499Y12016I5000J6245D01*
G01*
X24112Y14584D02*
G03*
X35000Y13755I5888J5416D01*
G01*
D02*
G03*
X45000Y13755I5000J6245D01*
G01*
D02*
G03*
X55000Y13755I5000J6245D01*
G01*
X72278Y8500D02*
G03*
X76523Y10260I0J6000D01*
G01*
X72278Y8500D02*
G03*
X76521Y10257I0J6000D01*
G01*
X61255Y10260D02*
G03*
X65500Y8500I4245J4240D01*
G01*
X61257Y10257D02*
G03*
X65500Y8500I4243J4243D01*
G01*
X25757Y32543D02*
G03*
X24000Y28300I4243J-4243D01*
G01*
X25760Y32545D02*
G03*
X24000Y28300I4240J-4245D01*
G01*
Y25499D02*
G03*
X15391Y25000I-4000J-5499D01*
G01*
X24000Y25291D02*
G03*
X23755Y25000I6000J-5291D01*
G01*
X15391D02*
G03*
X15000Y24609I4609J-5000D01*
G01*
Y15391D02*
G03*
X15391Y15000I5000J4609D01*
G01*
X23755D02*
G03*
X24112Y14584I6245J5000D01*
G01*
X15391Y15000D02*
G03*
X24112Y14584I4609J5000D01*
G01*
X15000Y24609D02*
G03*
X15000Y15391I5000J-4609D01*
G01*
X168994Y137000D02*
X172000Y133994D01*
X166166Y137000D02*
X172000Y131166D01*
X161071Y137000D02*
X172000D01*
X163337D02*
X172000Y128337D01*
X161486Y127050D02*
X171437Y137000D01*
X161500Y133180D02*
X172000Y122680D01*
X161303Y136205D02*
X172000Y125509D01*
X161500Y132720D02*
X165780Y137000D01*
X161500Y129892D02*
X168608Y137000D01*
X161435Y135484D02*
X162951Y137000D01*
X161500Y127500D02*
Y134500D01*
X151688Y120365D02*
X172000Y100053D01*
X148042Y121183D02*
X172000Y97225D01*
X147500Y101750D02*
X172000Y126250D01*
X147500Y98921D02*
X172000Y123421D01*
X154835Y120047D02*
X172000Y102882D01*
X147500Y90436D02*
X172000Y114936D01*
X147500Y101926D02*
X172000Y77426D01*
X161500Y130352D02*
X172000Y119852D01*
X161500Y127524D02*
X172000Y117024D01*
X161103Y125092D02*
X172000Y114195D01*
X160154Y123213D02*
X172000Y111367D01*
X158801Y121738D02*
X172000Y108538D01*
X157058Y120652D02*
X172000Y105710D01*
X146000Y117220D02*
X149960Y121181D01*
X146000Y103078D02*
X172000Y129078D01*
X146000Y108735D02*
X172000Y134735D01*
X146000Y105907D02*
X172000Y131907D01*
X146000Y114392D02*
X151906Y120298D01*
X147500Y96093D02*
X172000Y120593D01*
X146000Y111564D02*
X154450Y120013D01*
X146000Y120049D02*
X146319Y120367D01*
X146000Y103000D02*
Y120272D01*
Y103426D02*
X146426Y103000D01*
X147500Y101926D01*
X146000Y103000D02*
X147500D01*
X146000Y111911D02*
X172000Y85911D01*
X147500Y84779D02*
X172000Y109279D01*
X146000Y109082D02*
X172000Y83082D01*
X147500Y81951D02*
X172000Y106451D01*
X146000Y106254D02*
X172000Y80254D01*
X142400Y74022D02*
X172000Y103622D01*
X146097Y120299D02*
X172000Y94396D01*
X147500Y93264D02*
X172000Y117764D01*
X146000Y117568D02*
X172000Y91568D01*
X147500Y95000D02*
Y103000D01*
Y87608D02*
X172000Y112108D01*
X146000Y114739D02*
X172000Y88739D01*
X147500Y93440D02*
X172000Y68940D01*
X147500Y90612D02*
X172000Y66112D01*
X147500Y99097D02*
X172000Y74597D01*
X147500Y96269D02*
X172000Y71769D01*
X150865Y62688D02*
X172000Y83823D01*
X153481Y62476D02*
X172000Y80995D01*
X147538Y65018D02*
X172000Y89480D01*
X147500Y89000D02*
Y95000D01*
Y81000D02*
Y89000D01*
Y95000D01*
X148952Y63604D02*
X172000Y86652D01*
X147500Y87783D02*
X172000Y63283D01*
X146810Y65746D02*
X149956Y62600D01*
X155597Y61764D02*
X172000Y78166D01*
X147500Y82127D02*
X172000Y57627D01*
X147500Y84955D02*
X172000Y60455D01*
X158840Y59349D02*
X172000Y72510D01*
X160026Y57708D02*
X172000Y69681D01*
X157366Y60704D02*
X172000Y75338D01*
X160895Y55747D02*
X172000Y66853D01*
X161347Y53372D02*
X172000Y64024D01*
X161252Y54232D02*
X172000Y43485D01*
X161282Y51374D02*
X172000Y40656D01*
X161069Y50265D02*
X172000Y61196D01*
X144155Y67292D02*
X172000Y95137D01*
X146068Y66377D02*
X172000Y92309D01*
X142400Y71194D02*
X172000Y100794D01*
X142400Y68365D02*
X172000Y97965D01*
X146549Y81000D02*
X147500Y81951D01*
X142400Y81000D02*
X147500D01*
X142400Y76851D02*
X146549Y81000D01*
X142400Y70500D02*
Y81000D01*
Y79679D02*
X143721Y81000D01*
X142400Y69500D02*
Y70500D01*
Y67506D02*
Y69500D01*
Y70500D01*
X145798Y81000D02*
X172000Y54798D01*
X142970Y81000D02*
X172000Y51970D01*
X142400Y78741D02*
X172000Y49141D01*
X142400Y73084D02*
X152902Y62583D01*
X142400Y75913D02*
X172000Y46313D01*
X142400Y70256D02*
X150044Y62612D01*
X134529Y55500D02*
X143510Y46518D01*
X140086Y55500D02*
X141471Y54115D01*
X137357Y55500D02*
X141455Y51402D01*
X130005Y39000D02*
X141595Y50590D01*
X119400Y98200D02*
Y99400D01*
Y93800D02*
Y98200D01*
X118000Y97706D02*
X119400Y99106D01*
Y93800D02*
Y98200D01*
X118000Y94877D02*
X119400Y96277D01*
X118000Y94656D02*
X119400Y93256D01*
X118000Y97484D02*
X119400Y96084D01*
Y99400D02*
Y102915D01*
Y99400D02*
Y102915D01*
X117666Y100200D02*
X119400Y101934D01*
Y98200D02*
Y99400D01*
Y98200D02*
Y99400D01*
X116840Y101473D02*
X119400Y98913D01*
Y92600D02*
Y93800D01*
Y92600D02*
Y93800D01*
Y92600D02*
Y93800D01*
X118000Y92049D02*
X119400Y93449D01*
X120742Y80600D02*
X125600Y75742D01*
Y72750D02*
Y80600D01*
X119400Y81942D02*
X120742Y80600D01*
X119400Y86200D02*
Y92600D01*
Y86200D02*
Y92600D01*
X118000Y91200D02*
Y100200D01*
Y91828D02*
X119400Y90428D01*
Y80600D02*
Y86200D01*
X117151Y91200D02*
X118000Y92049D01*
X116840Y105031D02*
X117062Y105253D01*
X116840Y104301D02*
X119400Y101741D01*
X116840Y105475D02*
X119400Y102915D01*
X116840Y100200D02*
Y105475D01*
Y102203D02*
X118476Y103839D01*
X116840Y100200D02*
X118000D01*
X113000Y91200D02*
X118000D01*
X113000Y88200D02*
Y91200D01*
Y88200D02*
Y91200D01*
Y89877D02*
X114323Y91200D01*
X115799D02*
X119400Y87599D01*
X113000Y91171D02*
X119400Y84771D01*
X113000Y84220D02*
X119400Y90620D01*
X113000Y85514D02*
X125600Y72914D01*
X113000Y82686D02*
X122935Y72750D01*
X113000Y88342D02*
X119400Y81942D01*
X113000Y81392D02*
X119400Y87792D01*
X113000Y80000D02*
Y88200D01*
Y87049D02*
X117151Y91200D01*
X111608Y80000D02*
X113000Y81392D01*
X110015Y72750D02*
X119400Y82135D01*
X107186Y72750D02*
X119400Y84964D01*
X123571Y80600D02*
X125600Y78571D01*
X124157Y72750D02*
X125600Y74193D01*
X118500Y72750D02*
X125600Y79850D01*
X121329Y72750D02*
X125600Y77021D01*
Y55500D02*
X140086D01*
X125600Y55943D02*
X126043Y55500D01*
X119654Y48448D02*
X126706Y55500D01*
X123622Y60750D02*
X125600Y58772D01*
X120793Y60750D02*
X125600Y55943D01*
X119400Y80600D02*
X125400D01*
X125600Y55500D02*
Y60750D01*
X118964Y53414D02*
X125600Y60051D01*
X118513Y50135D02*
X125600Y57222D01*
X121757Y44894D02*
X132363Y55500D01*
X121965Y42273D02*
X135191Y55500D01*
X121520Y39000D02*
X138020Y55500D01*
X124348Y39000D02*
X140467Y55119D01*
X127177Y39000D02*
X141383Y53206D01*
X118870Y51359D02*
X131230Y39000D01*
X120917Y46882D02*
X129535Y55500D01*
X121988Y42584D02*
X125573Y39000D01*
X120844D02*
X123000D01*
X121482Y40262D02*
X122745Y39000D01*
X120844D02*
X123000D01*
X112843Y72750D02*
X120693Y80600D01*
X115672Y72750D02*
X123522Y80600D01*
X107200Y80000D02*
X114450Y72750D01*
X110029Y80000D02*
X117279Y72750D01*
X106000D02*
X125600D01*
X112857Y80000D02*
X120107Y72750D01*
X106000Y60750D02*
X125600D01*
X106000Y72750D02*
Y74500D01*
X111042Y59635D02*
X112157Y60750D01*
X106000Y74392D02*
X111608Y80000D01*
X109480Y60750D02*
X110659Y59571D01*
X112308Y60750D02*
X113525Y59532D01*
X106000Y60250D02*
X106500Y60750D01*
X117237Y57345D02*
X120642Y60750D01*
X118356Y55635D02*
X123471Y60750D01*
X115704Y58640D02*
X117814Y60750D01*
X113721Y59486D02*
X114986Y60750D01*
X106651D02*
X108588Y58813D01*
X106000Y59500D02*
Y60750D01*
X160707Y49120D02*
X172000Y37828D01*
X159752Y47247D02*
X172000Y34999D01*
X158491Y45680D02*
X172000Y32171D01*
X156944Y44398D02*
X172000Y29342D01*
X158225Y27622D02*
X172000Y41397D01*
X159428Y25997D02*
X172000Y38568D01*
X156750Y28975D02*
X172000Y44225D01*
X156627Y29083D02*
X156998Y28757D01*
X157391Y28456D01*
X155644Y29740D02*
X156627Y29083D01*
X158227Y27620D02*
X158528Y27228D01*
X158854Y26856D01*
X157391Y28456D02*
X158227Y27620D01*
X160972Y19056D02*
X172000Y30083D01*
Y0D02*
Y137000D01*
X160353Y24093D02*
X172000Y35740D01*
X160937Y21849D02*
X172000Y32912D01*
X160716Y22964D02*
X160946Y21804D01*
X160405Y23967D02*
X172000Y12372D01*
X159685Y14940D02*
X172000Y27255D01*
X159510Y25874D02*
X159729Y25430D01*
X159976Y25002D01*
X158854Y26856D02*
X159510Y25874D01*
X160429Y23910D02*
X160557Y23432D01*
X160716Y22964D01*
X159976Y25002D02*
X160429Y23910D01*
X150562Y31273D02*
X172000Y52711D01*
X152980Y30862D02*
X172000Y49882D01*
X147441Y30980D02*
X172000Y55539D01*
X128872Y55500D02*
X153737Y30635D01*
X153202Y30786D02*
X153680Y30658D01*
X154772Y30206D01*
X152734Y30945D02*
X153202Y30786D01*
X149409Y31273D02*
X150591D01*
X151081Y31208D01*
X126043Y55500D02*
X150271Y31273D01*
X151081Y31208D02*
X151575Y31176D01*
X152734Y30945D01*
X148919Y31208D02*
X149409Y31273D01*
X155013Y30067D02*
X172000Y47054D01*
X155094Y43420D02*
X172000Y26514D01*
X131700Y55500D02*
X172000Y15200D01*
X152871Y42814D02*
X172000Y23686D01*
X150072Y42785D02*
X172000Y20857D01*
X147574Y0D02*
X172000Y24426D01*
X145188Y44841D02*
X172000Y18029D01*
X131500Y17867D02*
X172000Y58367D01*
X131500Y20696D02*
X153806Y43002D01*
X154772Y30206D02*
X155200Y29959D01*
X155644Y29740D01*
X131500Y23524D02*
X150699Y42723D01*
X161043Y20230D02*
Y20820D01*
Y19639D02*
Y20230D01*
X160946Y21804D02*
X160979Y21311D01*
X161043Y20820D01*
X160979Y19148D02*
X161043Y19639D01*
X160946Y18655D02*
X160979Y19148D01*
X160716Y17496D02*
X160946Y18655D01*
X160557Y17027D02*
X160716Y17496D01*
X160429Y16549D02*
X160557Y17027D01*
X159976Y15458D02*
X160429Y16549D01*
X159729Y15029D02*
X159976Y15458D01*
X159510Y14586D02*
X159729Y15029D01*
X158854Y13603D02*
X159510Y14586D01*
X161043Y20500D02*
X172000Y9543D01*
X160799Y17916D02*
X172000Y6715D01*
X160109Y15777D02*
X172000Y3886D01*
X159095Y13963D02*
X172000Y1058D01*
X164544Y0D02*
X172000Y7456D01*
X158888Y0D02*
X172000Y13113D01*
X158528Y13231D02*
X158854Y13603D01*
X158227Y12839D02*
X158528Y13231D01*
X157809Y12421D02*
X170230Y0D01*
X167373D02*
X172000Y4627D01*
X170201Y0D02*
X172000Y1799D01*
X161716Y0D02*
X172000Y10284D01*
X157391Y12003D02*
X158227Y12839D01*
X156998Y11702D02*
X157391Y12003D01*
X156627Y11376D02*
X156998Y11702D01*
X155644Y10719D02*
X156627Y11376D01*
X155200Y10501D02*
X155644Y10719D01*
X154772Y10253D02*
X155200Y10501D01*
X153680Y9801D02*
X154772Y10253D01*
X153202Y9673D02*
X153680Y9801D01*
X152734Y9514D02*
X153202Y9673D01*
X151575Y9283D02*
X152734Y9514D01*
X151081Y9251D02*
X151575Y9283D01*
X150591Y9187D02*
X151081Y9251D01*
X149409Y9187D02*
X150591D01*
X153231Y0D02*
X172000Y18769D01*
X156059Y0D02*
X172000Y15941D01*
X150402Y0D02*
X172000Y21598D01*
X154452Y10121D02*
X164573Y0D01*
X156266Y11135D02*
X167401Y0D01*
X152314Y9430D02*
X161744Y0D01*
X131500Y18931D02*
X150431Y0D01*
X144745D02*
X155290Y10545D01*
X131500Y21759D02*
X153259Y0D01*
X146263Y9824D02*
X156088Y0D01*
X149730Y9187D02*
X158916Y0D01*
X141917D02*
X151174Y9257D01*
X148425Y31176D02*
X148919Y31208D01*
X147266Y30945D02*
X148425Y31176D01*
X146798Y30786D02*
X147266Y30945D01*
X146320Y30658D02*
X146798Y30786D01*
X145228Y30206D02*
X146320Y30658D01*
X144800Y29959D02*
X145228Y30206D01*
X144356Y29740D02*
X144800Y29959D01*
X143373Y29083D02*
X144356Y29740D01*
X143002Y28757D02*
X143373Y29083D01*
X142609Y28456D02*
X143002Y28757D01*
X141773Y27620D02*
X142609Y28456D01*
X141472Y27228D02*
X141773Y27620D01*
X141146Y26856D02*
X141472Y27228D01*
X140490Y25874D02*
X141146Y26856D01*
X140271Y25430D02*
X140490Y25874D01*
X140024Y25002D02*
X140271Y25430D01*
X139571Y23910D02*
X140024Y25002D01*
X139443Y23432D02*
X139571Y23910D01*
X139284Y22964D02*
X139443Y23432D01*
X139054Y21804D02*
X139284Y22964D01*
X139021Y21311D02*
X139054Y21804D01*
X138957Y20230D02*
Y20820D01*
X139021Y19148D02*
X139054Y18655D01*
X139284Y17496D01*
X138957Y19639D02*
X139021Y19148D01*
X131500Y37666D02*
X142307Y48474D01*
X118832Y54226D02*
X143734Y29324D01*
X117965Y60750D02*
X147686Y31029D01*
X115136Y60750D02*
X145548Y30338D01*
X131500Y32010D02*
X144721Y45231D01*
X131500Y29181D02*
X146363Y44044D01*
X131500Y34838D02*
X143367Y46705D01*
X123000Y39000D02*
X131500D01*
X131230D02*
X131500Y38730D01*
X121352Y46049D02*
X128401Y39000D01*
X131500Y38730D02*
X142191Y28038D01*
X131500Y35901D02*
X140905Y26496D01*
X131500Y31000D02*
Y39000D01*
Y33073D02*
X139891Y24682D01*
X131500Y30244D02*
X139201Y22544D01*
X131500Y26353D02*
X148324Y43176D01*
X138957Y20820D02*
X139021Y21311D01*
X131500Y24588D02*
X139595Y16493D01*
X116461Y0D02*
X139250Y22788D01*
X131500Y25000D02*
Y31000D01*
Y27416D02*
X138957Y19959D01*
X131500Y25000D02*
Y31000D01*
X138957Y19639D02*
Y20230D01*
X131500Y17000D02*
Y25000D01*
X119289Y0D02*
X138957Y19667D01*
X141472Y13231D02*
X141773Y12839D01*
X142609Y12003D01*
X140490Y14586D02*
X141146Y13603D01*
X141472Y13231D01*
X143002Y11702D02*
X143373Y11376D01*
X144356Y10719D01*
X142609Y12003D02*
X143002Y11702D01*
X139284Y17496D02*
X139443Y17027D01*
X139571Y16549D01*
X130633Y17000D02*
X131500Y17867D01*
X140024Y15458D02*
X140271Y15029D01*
X140490Y14586D01*
X139571Y16549D02*
X140024Y15458D01*
X146798Y9673D02*
X147266Y9514D01*
X148425Y9283D01*
X146320Y9801D02*
X146798Y9673D01*
X148425Y9283D02*
X148919Y9251D01*
X149409Y9187D01*
X139088Y0D02*
X148381Y9292D01*
X144356Y10719D02*
X144800Y10501D01*
X133432Y0D02*
X144233Y10802D01*
X130603Y0D02*
X142608Y12004D01*
X144800Y10501D02*
X145228Y10253D01*
X146320Y9801D01*
X136260Y0D02*
X146137Y9877D01*
X127774Y17000D02*
X144774Y0D01*
X130602Y17000D02*
X147602Y0D01*
X122118D02*
X139368Y17250D01*
X124817Y17000D02*
X131500D01*
X127775Y0D02*
X141254Y13480D01*
X122941Y16176D02*
X139117Y0D01*
X118000Y12853D02*
X121147Y16000D01*
X118000D02*
X121500D01*
X118000Y15681D02*
X118319Y16000D01*
X118000Y12000D02*
Y16000D01*
X117147Y12000D02*
X118000Y12853D01*
X120289Y16000D02*
X136289Y0D01*
X124945Y17000D02*
X141946Y0D01*
X113633D02*
X130633Y17000D01*
X118000Y15460D02*
X133460Y0D01*
X124946D02*
X140163Y15216D01*
X118000Y12632D02*
X130632Y0D01*
X110804D02*
X127804Y17000D01*
X115803Y12000D02*
X127803Y0D01*
X107976D02*
X124976Y17000D01*
X110146Y12000D02*
X122146Y0D01*
X112975Y12000D02*
X124975Y0D01*
X107318Y12000D02*
X119318Y0D01*
X102535Y112950D02*
X103900Y111584D01*
Y110100D02*
Y114315D01*
X100160Y110100D02*
X103900D01*
X102110D02*
X103900Y111890D01*
X102873Y80000D02*
X105000D01*
X113000D01*
X102873D02*
X105000D01*
X101121Y111535D02*
X102556Y110100D01*
X100160Y106900D02*
Y110100D01*
X100100Y106900D02*
Y110515D01*
X100160Y108150D02*
X102110Y110100D01*
X103280Y74500D02*
X108780Y80000D01*
X104372D02*
X111622Y72750D01*
X102264Y79279D02*
X108793Y72750D01*
X103000Y54421D02*
X109329Y60750D01*
X105073Y59500D02*
X106987Y57586D01*
X100850Y77865D02*
X104215Y74500D01*
X105250Y59500D02*
X106000Y60250D01*
X100451Y74500D02*
X105951Y80000D01*
X103000Y57250D02*
X105250Y59500D01*
X102244D02*
X105798Y55946D01*
X100422Y57500D02*
X102422Y59500D01*
X100100Y110515D02*
X103900Y114315D01*
X99436Y76451D02*
X101386Y74500D01*
X97688Y74702D02*
X102240Y79255D01*
X97623Y74500D02*
X103123Y80000D01*
X98022Y75036D02*
X98558Y74500D01*
X98000Y59500D02*
X106000D01*
X97475Y74500D02*
X106000D01*
X97475Y74500D02*
X98000D01*
X46500Y64600D02*
X52093D01*
X90000Y59500D02*
X98000D01*
X87000Y59500D02*
X98000D01*
X87000Y58220D02*
X88280Y59500D01*
X97593Y57500D02*
X99593Y59500D01*
X99416D02*
X101416Y57500D01*
X96588Y59500D02*
X98588Y57500D01*
X93759Y59500D02*
X95759Y57500D01*
X94765D02*
X96765Y59500D01*
X91936Y57500D02*
X93937Y59500D01*
X89108Y57500D02*
X91108Y59500D01*
X90931D02*
X92931Y57500D01*
X88102Y59500D02*
X90102Y57500D01*
X87000Y57774D02*
X87274Y57500D01*
X87000D02*
Y59500D01*
X86280Y57500D02*
X87000Y58220D01*
X103000Y55916D02*
X105091Y53825D01*
X103000Y51593D02*
X105066Y53659D01*
X95000Y57500D02*
X103000D01*
Y49000D02*
Y57500D01*
Y53088D02*
X105254Y50834D01*
X103704Y49468D02*
X105215Y50979D01*
X103000Y50259D02*
X103759Y49500D01*
X93000Y57500D02*
X95000D01*
X93000D02*
X95000D01*
X101931Y48500D02*
X102162Y48269D01*
X99102Y48500D02*
X100950Y46653D01*
X95000Y48500D02*
X102401D01*
X96274D02*
X100173Y44601D01*
X93445Y48500D02*
X98980Y42965D01*
X90617Y48500D02*
X97566Y41551D01*
X93000Y48500D02*
X95000D01*
X95760Y39745D02*
X100075Y44061D01*
X93000Y48500D02*
X95000D01*
X85997Y57500D02*
X87000D01*
X93000D01*
X85000Y48500D02*
X93000D01*
X83536Y52753D02*
X85000Y51289D01*
Y48500D02*
Y54386D01*
X78283Y47500D02*
X84240Y53457D01*
X80707Y49924D02*
X83132Y47500D01*
X81937D02*
X85000Y50564D01*
X79293Y48510D02*
X80303Y47500D01*
X88313Y45391D02*
X91422Y48500D01*
X88993Y43243D02*
X94250Y48500D01*
X87789D02*
X96152Y40137D01*
X86900Y46807D02*
X88593Y48500D01*
X84758Y47493D02*
X85765Y48500D01*
X82121Y51339D02*
X86365Y47096D01*
X79108Y47500D02*
X85000Y53392D01*
X78283Y47500D02*
X84500D01*
X21200Y72800D02*
X27115D01*
X31155Y68760D01*
X35400Y67000D02*
X46500D01*
Y64600D02*
Y67000D01*
X32133Y62750D02*
X36383Y67000D01*
X15519Y84000D02*
X21200Y78319D01*
Y72800D02*
Y78715D01*
Y75491D02*
X23891Y72800D01*
X18138Y81777D02*
X21200Y78715D01*
X43833Y67000D02*
X50527Y60306D01*
X41004Y67000D02*
X49415Y58589D01*
X35347Y67000D02*
X48347Y54000D01*
X37789Y62750D02*
X42039Y67000D01*
X39450Y61582D02*
X44868Y67000D01*
X34961Y62750D02*
X39211Y67000D01*
X23891Y72800D02*
X33941Y62750D01*
X26719Y72800D02*
X36769Y62750D01*
X17819Y59750D02*
X28992Y70923D01*
X29304Y62750D02*
X33778Y67224D01*
X22050Y58324D02*
X31872Y68147D01*
X20647Y59750D02*
X30406Y69509D01*
X12691Y84000D02*
X21200Y75491D01*
X9862Y84000D02*
X31112Y62750D01*
X2000Y84000D02*
X16729Y84000D01*
X7034Y84000D02*
X28284Y62750D01*
X2000Y66558D02*
X17703Y82261D01*
X4205Y84000D02*
X26950Y61255D01*
X2000Y63730D02*
X19092Y80822D01*
X2000Y72215D02*
X13785Y84000D01*
X2000Y69387D02*
X16613Y84000D01*
X2000Y75044D02*
X10956Y84000D01*
X2000Y80701D02*
X5299Y84000D01*
X2000Y77872D02*
X8128Y84000D01*
X2000Y83529D02*
X2471Y84000D01*
X2000Y58073D02*
X21200Y77273D01*
X2000Y80548D02*
X26950Y55598D01*
X2000Y83377D02*
X26950Y58427D01*
X2000Y52416D02*
X22384Y72800D01*
X2000Y46760D02*
X27578Y72337D01*
X2000Y49588D02*
X25212Y72800D01*
X2000Y77720D02*
X19970Y59750D01*
X2000Y74892D02*
X17142Y59750D01*
X2000Y60902D02*
X20506Y79408D01*
X2000Y72063D02*
X15550Y58513D01*
X2000Y69235D02*
X15550Y55685D01*
X2000Y55245D02*
X21200Y74445D01*
X49061Y64600D02*
X51502Y62159D01*
X40353Y54000D02*
X50953Y64600D01*
X43182Y54000D02*
X51509Y62327D01*
X51500Y60831D02*
Y62000D01*
X49319Y54000D02*
Y57811D01*
X39450Y58754D02*
X46500Y65804D01*
X39450Y55925D02*
X48125Y64600D01*
X38176Y67000D02*
X49319Y55857D01*
X26950Y62750D02*
X39450D01*
X36769D02*
X39450Y60069D01*
X26950Y60396D02*
X29304Y62750D01*
X39450Y60069D02*
X45519Y54000D01*
X46010D02*
X49319Y57309D01*
X39450Y57241D02*
X42691Y54000D01*
X39450Y54412D02*
X39862Y54000D01*
X48838D02*
X49319Y54480D01*
X39450Y54000D02*
X49319D01*
X39450D02*
Y62750D01*
X27200Y45250D02*
Y48000D01*
X26950Y45250D02*
Y62750D01*
Y46254D02*
X27200Y46504D01*
Y42750D02*
Y45250D01*
X26950Y47113D02*
X27200Y46863D01*
X22050Y55496D02*
X26950Y60396D01*
X22050Y48250D02*
Y59750D01*
X15550D02*
X22050D01*
Y57670D02*
X26950Y52770D01*
X22050Y54842D02*
X26950Y49942D01*
X22050Y49839D02*
X26950Y54739D01*
X22050Y52667D02*
X26950Y57567D01*
X2000Y63578D02*
X15550Y50028D01*
X2000Y66406D02*
X15550Y52856D01*
X22050Y52013D02*
X26950Y47113D01*
X22050Y49185D02*
X27200Y44035D01*
X17618Y39750D02*
X26950Y49082D01*
X20156Y48250D02*
X26950Y41456D01*
X20446Y39750D02*
X26950Y46254D01*
X15550Y48250D02*
X22050D01*
X15550D02*
Y59750D01*
X2000Y57921D02*
X20171Y39750D01*
X2000Y43931D02*
X15550Y57481D01*
X2000Y41103D02*
X15550Y54653D01*
Y39750D02*
X22050D01*
X2000Y55093D02*
X17343Y39750D01*
X89757Y38350D02*
X99907Y48500D01*
X90992Y36756D02*
X101032Y46796D01*
X88138Y39559D02*
X97079Y48500D01*
X88595Y44865D02*
X94862Y38598D01*
X91797Y34733D02*
X94238Y37174D01*
X87830Y39973D02*
X88393Y39411D01*
X88836Y41796D02*
X94091Y36541D01*
X91939Y32047D02*
X94000Y34108D01*
X92000Y32975D02*
X94000Y30975D01*
X90911Y36893D02*
X94000Y33803D01*
X90691Y27970D02*
X94000Y31279D01*
X81477Y15214D02*
X96691Y0D01*
X86890Y12629D02*
X99519Y0D01*
X94570Y13434D02*
X108004Y0D01*
X82520D02*
X95745Y13225D01*
X91591Y30556D02*
X94000Y28146D01*
Y26928D02*
Y35500D01*
X90634Y28684D02*
X91451Y27867D01*
X92975Y27426D02*
X94000Y28451D01*
X76523Y10260D02*
X82740Y16477D01*
X80063Y13799D02*
X93862Y0D01*
X71206D02*
X84978Y13772D01*
X54804Y13603D02*
X68406Y0D01*
X74035D02*
X86732Y12698D01*
X52996Y12582D02*
X65578Y0D01*
X22050Y38525D02*
X27200Y43675D01*
X44013Y13079D02*
X57093Y0D01*
X42922D02*
X55996Y13074D01*
X34918Y13690D02*
X48607Y0D01*
X68378D02*
X83590Y15213D01*
X23261Y14033D02*
X37293Y0D01*
X33138Y12641D02*
X45779Y0D01*
X34437D02*
X47014Y12578D01*
X31608Y0D02*
X45205Y13597D01*
X18192Y13445D02*
X31637Y0D01*
X21165Y13300D02*
X34465Y0D01*
X2000Y26808D02*
X28808Y0D01*
X20294D02*
X32801Y12506D01*
X23123Y0D02*
X36124Y13002D01*
X14638Y0D02*
X27159Y12521D01*
X102000Y12000D02*
X118000D01*
X105147Y0D02*
X117147Y12000D01*
X98731Y12101D02*
X110833Y0D01*
X101516Y12145D02*
X113661Y0D01*
X102319D02*
X114319Y12000D01*
X104490D02*
X116490Y0D01*
X99490D02*
X111490Y12000D01*
X93834Y0D02*
X105834Y12000D01*
X96662Y0D02*
X108662Y12000D01*
X92705Y12471D02*
X105176Y0D01*
X91005D02*
X103005Y12000D01*
X79691Y0D02*
X91927Y12235D01*
X85348Y0D02*
X97689Y12341D01*
X78649Y12385D02*
X91034Y0D01*
X88177D02*
X100179Y12002D01*
X90340Y12007D02*
X102347Y0D01*
X76863D02*
X88934Y12071D01*
X75762Y9615D02*
X85377Y0D01*
X77234Y10971D02*
X88205Y0D01*
X73841Y8707D02*
X82548Y0D01*
X68392Y8500D02*
X76892Y0D01*
X71220Y8500D02*
X79720Y0D01*
X65563Y8500D02*
X74063Y0D01*
X65500Y8500D02*
X72278D01*
X65549Y0D02*
X74460Y8911D01*
X59194Y12041D02*
X71235Y0D01*
X59892D02*
X68392Y8500D01*
X62721Y0D02*
X71221Y8500D01*
X57064Y0D02*
X65564Y8500D01*
X59499Y12016D02*
X61255Y10260D01*
X50717Y12032D02*
X62749Y0D01*
X48579D02*
X60047Y11468D01*
X54236Y0D02*
X63196Y8960D01*
X51407Y0D02*
X61466Y10059D01*
X42008Y12256D02*
X54264Y0D01*
X47530Y12391D02*
X59921Y0D01*
X40093D02*
X52491Y12398D01*
X39414Y12021D02*
X51436Y0D01*
X45750D02*
X58003Y12253D01*
X2000Y0D02*
X172000D01*
X27819Y12303D02*
X40122Y0D01*
X30900Y12051D02*
X42950Y0D01*
X25951D02*
X38165Y12213D01*
X28780Y0D02*
X40822Y12042D01*
X37265Y0D02*
X49296Y12031D01*
X17466Y0D02*
X29483Y12017D01*
X26950Y33735D02*
Y42750D01*
X22050Y37871D02*
X26568Y33353D01*
X17328Y48250D02*
X26950Y38628D01*
X22050Y35697D02*
X26950Y40597D01*
X25760Y32545D02*
X26950Y33735D01*
X22050Y30040D02*
X26950Y34940D01*
X22050Y32868D02*
X26950Y37768D01*
X22050Y35043D02*
X25197Y31896D01*
X22050Y32214D02*
X24250Y30014D01*
X22050Y29386D02*
X24000Y27436D01*
Y25499D02*
Y28300D01*
X22159Y26448D02*
X23607Y25000D01*
X21476Y26638D02*
X24073Y29235D01*
X22050Y28250D02*
Y39750D01*
X20357Y28250D02*
X22159Y26448D01*
X17529Y28250D02*
X19046Y26733D01*
X20779Y25000D01*
X19839D02*
X21476Y26638D01*
X18681Y26671D02*
X20260Y28250D01*
X2000Y49436D02*
X15550Y35886D01*
X2000Y29789D02*
X20461Y48250D01*
X2000Y60749D02*
X26950Y35799D01*
X2000Y26961D02*
X26950Y51911D01*
X15550Y28250D02*
X22050D01*
X2000Y40950D02*
X16899Y26052D01*
X2000Y32617D02*
X17633Y48250D01*
X2000Y38274D02*
X15550Y51824D01*
X2000Y35446D02*
X15550Y48996D01*
X2000Y52264D02*
X15550Y38714D01*
X2000Y43779D02*
X15550Y30229D01*
Y28250D02*
Y39750D01*
X2000Y46607D02*
X15550Y33057D01*
X2000Y21304D02*
X15550Y34854D01*
X2000Y15647D02*
X15550Y29197D01*
X2000Y24132D02*
X15550Y37682D01*
X17010Y25000D02*
X18681Y26671D01*
X2000Y12818D02*
X17432Y28250D01*
X2000Y38122D02*
X15122Y25000D01*
X2000Y35293D02*
X14033Y23261D01*
X2000Y0D02*
Y84000D01*
Y18475D02*
X15550Y32025D01*
X2000Y29637D02*
X13445Y18192D01*
X2000Y32465D02*
X13300Y21165D01*
X23498Y25831D02*
X24000Y26333D01*
X15391Y25000D02*
X23755D01*
X22667D02*
X23498Y25831D01*
X16899Y26052D02*
X17950Y25000D01*
X15000D02*
X15391D01*
X15000Y15391D02*
Y24609D01*
Y25000D01*
X15391Y15000D02*
X23755D01*
X22294D02*
X23261Y14033D01*
X22771Y13790D02*
X23856Y14876D01*
X19465Y15000D02*
X21165Y13300D01*
X15000Y15000D02*
X15391D01*
X16637D02*
X18192Y13445D01*
X15000Y15000D02*
Y15391D01*
X17150Y13826D02*
X18324Y15000D01*
X19380Y13228D02*
X21152Y15000D01*
X17150Y13826D02*
X18324Y15000D01*
X14033Y23261D02*
X15000Y22294D01*
X13445Y18192D02*
X15000Y16637D01*
X13300Y21165D02*
X15000Y19465D01*
X13362Y18524D02*
X15000Y20162D01*
X6152Y0D02*
X19380Y13228D01*
X8981Y0D02*
X22771Y13790D01*
X2000Y1505D02*
X15446Y14950D01*
X13329Y21319D02*
X15000Y22990D01*
X2000Y9990D02*
X13329Y21319D01*
X14169Y16502D02*
X15000Y17333D01*
X2000Y7162D02*
X13362Y18524D01*
X2000Y4333D02*
X14169Y16502D01*
X2000Y21151D02*
X23151Y0D01*
X2000Y18323D02*
X20323Y0D01*
X2000Y23980D02*
X25980Y0D01*
X3324D02*
X17150Y13826D01*
X11809Y0D02*
X25321Y13511D01*
X2000Y15495D02*
X17494Y0D01*
X2000Y12666D02*
X14666Y0D01*
X3324D02*
X17150Y13826D01*
X2000Y9838D02*
X11838Y0D01*
X2000Y4181D02*
X6181Y0D01*
X2000Y1352D02*
X3352Y0D01*
X2000Y7009D02*
X9009Y0D01*
X123500Y24000D02*
X124000D01*
X121500Y22000D02*
X123500Y24000D01*
X112000Y22000D02*
X121500D01*
X110000Y20000D02*
X112000Y22000D01*
X123000Y33000D02*
X124000Y32000D01*
X111000Y33000D02*
X123000D01*
X100000Y20000D02*
Y35500D01*
X107500Y43000D01*
X111958Y52876D02*
X114917Y53583D01*
X111850Y52850D02*
X111958Y52876D01*
X97840Y96160D02*
Y103600D01*
X87300Y112300D02*
X94000D01*
X132000Y87600D02*
X139600D01*
X131600Y87200D02*
X132000Y87600D01*
X80000Y67000D02*
X90000D01*
X98250Y66750D02*
X129350D01*
X133100Y63000D01*
X98000Y67000D02*
X98250Y66750D01*
X47463Y62750D02*
X52500Y57713D01*
X25050Y62750D02*
X47463D01*
X18800Y56500D02*
X25050Y62750D01*
X133147Y18647D02*
Y39848D01*
X119392Y4892D02*
X133147Y18647D01*
X35108Y4892D02*
X119392D01*
X20000Y20000D02*
X35108Y4892D01*
X114917Y53583D02*
X131917Y36583D01*
X124000Y142000D02*
X136500D01*
X110000Y128000D02*
X124000Y142000D01*
X110000Y116000D02*
Y128000D01*
X136500Y142000D02*
X144000Y134500D01*
X131600Y87200D02*
X132000D01*
X126000D02*
X131600D01*
X67500Y55252D02*
Y57811D01*
Y52595D02*
Y55252D01*
X33200Y34000D02*
Y48000D01*
Y31500D02*
Y34000D01*
X90000Y53000D02*
X98000D01*
X89500D02*
X90000D01*
X18800Y54000D02*
Y56500D01*
Y34000D02*
Y54000D01*
Y21200D02*
Y34000D01*
Y21200D02*
X20000Y20000D01*
X106160Y103300D02*
X106260Y103400D01*
X90160Y103600D02*
X90260Y103700D01*
X105472Y120950D02*
Y122000D01*
X105022Y120500D02*
X105472Y120950D01*
X131400Y105400D02*
X132000Y104800D01*
X131400Y105400D02*
Y106135D01*
X117035Y120500D02*
X131400Y106135D01*
X71000Y63000D02*
X72000Y64000D01*
X62431Y36679D02*
X62500Y36748D01*
X62000Y25500D02*
Y26000D01*
X60765Y24265D02*
X62000Y25500D01*
X60000Y20000D02*
X65500Y14500D01*
X142565Y61506D02*
X151370Y52701D01*
X133957Y77000D02*
X134000D01*
X132457Y78500D02*
X133957Y77000D01*
X139600Y87600D02*
X140000Y88000D01*
X132457Y78500D02*
Y86743D01*
X132000Y87200D02*
X132457Y86743D01*
X114528Y120950D02*
X114978Y120500D01*
X144000Y131000D02*
Y134500D01*
X110000Y116000D02*
X114800D01*
X140000Y96000D02*
Y121406D01*
X133906Y127499D02*
Y130999D01*
X133100Y63000D02*
X134000D01*
X135494Y61506D01*
X142565D01*
X114978Y120500D02*
X117035D01*
X114528Y120950D02*
Y122000D01*
X101600Y120500D02*
X105022D01*
X94000Y112900D02*
X101600Y120500D01*
X94000Y112300D02*
Y112900D01*
X22378Y86022D02*
X28400Y80000D01*
X71000Y61311D02*
Y63000D01*
X110000Y112000D02*
Y116000D01*
X114800D02*
X126000Y104800D01*
X52500Y55252D02*
Y57713D01*
X67500Y57811D02*
X71000Y61311D01*
X85000Y48500D02*
X89500Y53000D01*
X85000Y44386D02*
Y48500D01*
X67500Y45203D02*
X80000Y57702D01*
X70000Y26000D02*
X70000Y26000D01*
X98150Y52850D02*
X111850D01*
X66181Y51168D02*
Y51276D01*
X78500Y31614D02*
X79886Y33000D01*
X78500Y20722D02*
Y31614D01*
X79886Y33000D02*
X81000D01*
X72278Y14500D02*
X78500Y20722D01*
X65500Y14500D02*
X72278D01*
X70000Y20000D02*
X70000Y20000D01*
X70000Y20000D02*
Y26000D01*
X70000Y26000D02*
Y31591D01*
X67500Y34091D02*
X70000Y31591D01*
X60000Y20000D02*
X60765Y20765D01*
Y24265D01*
X62000Y26000D02*
X62431Y26431D01*
Y36679D01*
X133906Y127499D02*
X140000Y121406D01*
X98000Y53000D02*
X98150Y52850D01*
X83614Y43000D02*
X85000Y44386D01*
X81000Y43000D02*
X83614D01*
X90000Y67000D02*
X98000D01*
X33200Y48000D02*
Y54000D01*
X66181Y51276D02*
X67500Y52595D01*
X113840Y95860D02*
Y103140D01*
X97840Y96160D02*
X98000Y96000D01*
X33200Y48000D02*
X63013D01*
X66181Y51168D01*
X22378Y86022D02*
Y103315D01*
X30000Y28300D02*
X33200Y31500D01*
X30000Y20000D02*
Y28300D01*
X57500Y27500D02*
Y36748D01*
X50000Y20000D02*
X57500Y27500D01*
X52431Y36679D02*
X52500Y36748D01*
X52431Y32431D02*
Y36679D01*
X40000Y20000D02*
X52431Y32431D01*
X106000Y87700D02*
Y95700D01*
X113840Y95860D02*
X114000Y95700D01*
X106000D02*
X106160Y95860D01*
Y103300D01*
X97740Y103700D02*
X97840Y103600D01*
X90000Y96000D02*
X90160Y96160D01*
X62500Y55252D02*
Y76935D01*
X64507Y78943D01*
X93443D01*
X90000Y88000D02*
Y95500D01*
Y96000D01*
X90160Y96160D02*
Y103600D01*
X93443Y78943D02*
X98000Y83500D01*
Y87500D01*
X68000Y72100D02*
Y73000D01*
Y72100D02*
X69500Y70600D01*
X80000Y67000D02*
Y69500D01*
X69500Y70600D02*
X78900D01*
X80000Y69500D01*
X67500Y34091D02*
Y36748D01*
Y45203D01*
X80000Y57702D02*
Y64000D01*
Y67000D01*
X35400Y73000D02*
X54000D01*
X28400Y80000D02*
X35400Y73000D01*
X43600Y80000D02*
X55500D01*
X69622Y94122D01*
Y103315D01*
X63057Y82443D02*
X75943D01*
X81000Y87500D01*
X69622Y103315D02*
X78315D01*
X87300Y112300D01*
X57500Y55252D02*
Y62000D01*
X59000Y63500D01*
Y78385D01*
X63057Y82443D01*
D48*
X134600Y172500D02*
X137000D01*
X156000Y179900D02*
X164100Y188000D01*
X154000Y177900D02*
X156000Y179900D01*
X150900Y185000D02*
X156000Y179900D01*
X150000Y185000D02*
X150900D01*
X154000Y161000D02*
Y177900D01*
X164100Y188000D02*
X165000D01*
X134191Y172091D02*
X134600Y172500D01*
X134191Y161191D02*
Y172091D01*
X134000Y161000D02*
X134191Y161191D01*
D49*
X126000Y70000D02*
X155681D01*
X122150Y73850D02*
X126000Y70000D01*
X122150Y73850D02*
Y96840D01*
X155681Y70000D02*
X165633Y60049D01*
X133147Y39848D02*
X135998Y42699D01*
X165633Y49172D02*
Y60049D01*
X159160Y42699D02*
X165633Y49172D01*
X135998Y42699D02*
X159160D01*
X115590Y103400D02*
X122150Y96840D01*
X113740Y103400D02*
X115590D01*
X126000Y92800D02*
Y99200D01*
X132000Y92800D02*
Y99200D01*
X97740Y103700D02*
Y104300D01*
X110390Y107350D02*
X113740Y104000D01*
X100790Y107350D02*
X110390D01*
X113740Y103400D02*
Y104000D01*
X97740Y104300D02*
X100790Y107350D01*
D50*
X120000Y179594D02*
Y180000D01*
X136000Y196000D02*
X144485D01*
X145294Y195191D01*
X150400Y204600D02*
X162500D01*
X165000Y202100D01*
X150000Y205000D02*
X150400Y204600D01*
X165000Y202000D02*
Y202100D01*
X55000Y205000D02*
X150000D01*
X145294Y195191D02*
X149809D01*
X76000Y196000D02*
X136000D01*
Y187000D02*
Y196000D01*
X149809Y195191D02*
X150000Y195000D01*
X30000Y180000D02*
X55000Y205000D01*
X112765Y159765D02*
Y172360D01*
X60000Y180000D02*
X76000Y196000D01*
X90000Y180000D02*
X120000D01*
X112765Y172360D02*
X120000Y179594D01*
X60000Y159000D02*
Y180000D01*
X30000Y177565D02*
Y180000D01*
X22378Y169943D02*
X30000Y177565D01*
X22378Y151347D02*
Y169943D01*
X46000Y145000D02*
X60000Y159000D01*
X46000Y95441D02*
Y145000D01*
X60000Y159000D02*
X92315D01*
X112000Y159000D02*
X112765Y159765D01*
D51*
X90000Y20000D02*
D03*
X100000D02*
D03*
X70000D02*
D03*
X60000D02*
D03*
X50000D02*
D03*
X40000D02*
D03*
X30000D02*
D03*
D52*
X110000D02*
D03*
X20000D02*
D03*
D53*
X90000Y180000D02*
D03*
X60000D02*
D03*
X30000D02*
D03*
D54*
X120000D02*
D03*
D55*
X22378Y151347D02*
D03*
X46000Y95441D02*
D03*
X22378Y103315D02*
D03*
X69622D02*
D03*
X112000Y52701D02*
D03*
X151370D02*
D03*
X112000Y159000D02*
D03*
X92315Y159000D02*
D03*
D56*
X150000Y185000D02*
D03*
X150000Y195000D02*
D03*
D57*
X150000Y205000D02*
D03*
M02*
