G04*
G04 #@! TF.GenerationSoftware,Altium Limited,Altium Designer,20.2.5 (213)*
G04*
G04 Layer_Color=128*
%FSLAX25Y25*%
%MOIN*%
G70*
G04*
G04 #@! TF.SameCoordinates,D46C28A9-7DA0-4B25-B7FC-F21E02E80399*
G04*
G04*
G04 #@! TF.FilePolarity,Positive*
G04*
G01*
G75*
%ADD58C,0.00200*%
D58*
X88200Y20000D02*
X91800D01*
X90000Y18200D02*
Y21800D01*
X98200Y20000D02*
X101800D01*
X100000Y18200D02*
Y21800D01*
X108200Y20000D02*
X111800D01*
X110000Y18200D02*
Y21800D01*
X86000Y180000D02*
X94000D01*
X90000Y176000D02*
Y184000D01*
X116000Y180000D02*
X124000D01*
X120000Y176000D02*
Y184000D01*
X56000Y180000D02*
X64000D01*
X60000Y176000D02*
Y184000D01*
X26000Y180000D02*
X34000D01*
X30000Y176000D02*
Y184000D01*
X19378Y151347D02*
X25378D01*
X22378Y148346D02*
Y154347D01*
X43000Y95441D02*
X49000D01*
X46000Y92441D02*
Y98441D01*
X19378Y103315D02*
X25378D01*
X22378Y100315D02*
Y106315D01*
X66622Y103315D02*
X72622D01*
X69622Y100315D02*
Y106315D01*
X148000Y185000D02*
X152000D01*
X150000Y183000D02*
Y187000D01*
X148000Y195000D02*
X152000D01*
X150000Y193000D02*
Y197000D01*
X148000Y205000D02*
X152000D01*
X150000Y203000D02*
Y207000D01*
X68200Y20000D02*
X71800D01*
X70000Y18200D02*
Y21800D01*
X58200Y20000D02*
X61800D01*
X60000Y18200D02*
Y21800D01*
X48200Y20000D02*
X51800D01*
X50000Y18200D02*
Y21800D01*
X38200Y20000D02*
X41800D01*
X40000Y18200D02*
Y21800D01*
X28200Y20000D02*
X31800D01*
X30000Y18200D02*
Y21800D01*
X18200Y20000D02*
X21800D01*
X20000Y18200D02*
Y21800D01*
X110000Y52701D02*
X114000D01*
X112000Y50701D02*
Y54701D01*
X149370Y52701D02*
X153370D01*
X151370Y50701D02*
Y54701D01*
X110000Y159000D02*
X114000D01*
X112000Y157000D02*
Y161000D01*
X90315Y159000D02*
X94315D01*
X92315Y157000D02*
Y161000D01*
M02*
