G04*
G04 #@! TF.GenerationSoftware,Altium Limited,Altium Designer,20.2.5 (213)*
G04*
G04 Layer_Color=8421504*
%FSLAX25Y25*%
%MOIN*%
G70*
G04*
G04 #@! TF.SameCoordinates,D46C28A9-7DA0-4B25-B7FC-F21E02E80399*
G04*
G04*
G04 #@! TF.FilePolarity,Positive*
G04*
G01*
G75*
%ADD14O,0.02362X0.07480*%
%ADD15R,0.04400X0.04400*%
%ADD16R,0.05000X0.04000*%
%ADD17O,0.12000X0.05000*%
%ADD18R,0.02200X0.03400*%
%ADD19R,0.02900X0.05000*%
%ADD20R,0.04000X0.05000*%
%ADD21R,0.03200X0.03200*%
%ADD22R,0.06800X0.05000*%
%ADD23R,0.06000X0.05000*%
%ADD24R,0.05000X0.06800*%
%ADD25R,0.02500X0.07500*%
%ADD26O,0.05000X0.12000*%
D14*
X67500Y55252D02*
D03*
X62500D02*
D03*
X57500D02*
D03*
X52500D02*
D03*
X67500Y36748D02*
D03*
X62500D02*
D03*
X57500D02*
D03*
X52500D02*
D03*
D15*
X28400Y80000D02*
D03*
X43600D02*
D03*
D16*
X124000Y32000D02*
D03*
Y24000D02*
D03*
X140000Y96000D02*
D03*
Y88000D02*
D03*
D17*
X111000Y33000D02*
D03*
Y43000D02*
D03*
X81000D02*
D03*
Y33000D02*
D03*
D18*
X106260Y103400D02*
D03*
X113740Y103400D02*
D03*
X110000Y112000D02*
D03*
X90260Y103200D02*
D03*
X97740Y103200D02*
D03*
X94000Y111800D02*
D03*
D19*
X114528Y122000D02*
D03*
X105472D02*
D03*
D20*
X114000Y95700D02*
D03*
X106000D02*
D03*
X98000Y95500D02*
D03*
X90000D02*
D03*
X106000Y87500D02*
D03*
X98000D02*
D03*
X89000D02*
D03*
X81000D02*
D03*
X72000Y64000D02*
D03*
X80000D02*
D03*
X70000Y26000D02*
D03*
X62000D02*
D03*
D21*
X126000Y87200D02*
D03*
Y92800D02*
D03*
Y104800D02*
D03*
Y99200D02*
D03*
X132000Y104800D02*
D03*
Y99200D02*
D03*
Y87200D02*
D03*
Y92800D02*
D03*
D22*
X134000Y63000D02*
D03*
Y77000D02*
D03*
X136000Y187000D02*
D03*
Y173000D02*
D03*
X165000Y188000D02*
D03*
Y202000D02*
D03*
D23*
X90000Y67000D02*
D03*
Y53000D02*
D03*
X98000Y67000D02*
D03*
Y53000D02*
D03*
D24*
X54000Y73000D02*
D03*
X68000D02*
D03*
D25*
X18800Y54000D02*
D03*
Y34000D02*
D03*
X33200D02*
D03*
Y54000D02*
D03*
D26*
X154000Y131000D02*
D03*
Y161000D02*
D03*
X134000D02*
D03*
X144000D02*
D03*
Y131000D02*
D03*
X133906Y130999D02*
D03*
M02*
