G04*
G04 #@! TF.GenerationSoftware,Altium Limited,Altium Designer,20.2.5 (213)*
G04*
G04 Layer_Physical_Order=2*
G04 Layer_Color=16711680*
%FSLAX25Y25*%
%MOIN*%
G70*
G04*
G04 #@! TF.SameCoordinates,D46C28A9-7DA0-4B25-B7FC-F21E02E80399*
G04*
G04*
G04 #@! TF.FilePolarity,Positive*
G04*
G01*
G75*
%ADD51C,0.06000*%
%ADD52R,0.06000X0.06000*%
%ADD53C,0.15000*%
G04:AMPARAMS|DCode=54|XSize=150mil|YSize=150mil|CornerRadius=37.5mil|HoleSize=0mil|Usage=FLASHONLY|Rotation=180.000|XOffset=0mil|YOffset=0mil|HoleType=Round|Shape=RoundedRectangle|*
%AMROUNDEDRECTD54*
21,1,0.15000,0.07500,0,0,180.0*
21,1,0.07500,0.15000,0,0,180.0*
1,1,0.07500,-0.03750,0.03750*
1,1,0.07500,0.03750,0.03750*
1,1,0.07500,0.03750,-0.03750*
1,1,0.07500,-0.03750,-0.03750*
%
%ADD54ROUNDEDRECTD54*%
%ADD55C,0.10000*%
%ADD56C,0.07000*%
%ADD57R,0.07000X0.07000*%
D51*
X90000Y20000D02*
D03*
X100000D02*
D03*
X70000D02*
D03*
X60000D02*
D03*
X50000D02*
D03*
X40000D02*
D03*
X30000D02*
D03*
D52*
X110000D02*
D03*
X20000D02*
D03*
D53*
X90000Y180000D02*
D03*
X60000D02*
D03*
X30000D02*
D03*
D54*
X120000D02*
D03*
D55*
X22378Y151347D02*
D03*
X46000Y95441D02*
D03*
X22378Y103315D02*
D03*
X69622D02*
D03*
X112000Y52701D02*
D03*
X151370D02*
D03*
X112000Y159000D02*
D03*
X92315Y159000D02*
D03*
D56*
X150000Y185000D02*
D03*
X150000Y195000D02*
D03*
D57*
X150000Y205000D02*
D03*
M02*
