G04*
G04 #@! TF.GenerationSoftware,Altium Limited,Altium Designer,20.2.5 (213)*
G04*
G04 Layer_Color=65535*
%FSLAX25Y25*%
%MOIN*%
G70*
G04*
G04 #@! TF.SameCoordinates,D46C28A9-7DA0-4B25-B7FC-F21E02E80399*
G04*
G04*
G04 #@! TF.FilePolarity,Positive*
G04*
G01*
G75*
%ADD10C,0.00800*%
%ADD11C,0.00400*%
%ADD12C,0.00984*%
%ADD13C,0.01000*%
G36*
X119500Y24608D02*
X119494D01*
X119472D01*
X119439D01*
X119395Y24613D01*
X119345Y24619D01*
X119289Y24630D01*
X119234Y24641D01*
X119173Y24663D01*
X119167D01*
X119161Y24668D01*
X119128Y24680D01*
X119078Y24702D01*
X119012Y24735D01*
X118934Y24780D01*
X118845Y24835D01*
X118756Y24896D01*
X118662Y24974D01*
X118656D01*
X118651Y24985D01*
X118618Y25013D01*
X118568Y25063D01*
X118496Y25135D01*
X118412Y25218D01*
X118312Y25323D01*
X118201Y25451D01*
X118085Y25590D01*
X118079Y25595D01*
X118063Y25618D01*
X118035Y25651D01*
X118001Y25690D01*
X117957Y25740D01*
X117907Y25801D01*
X117852Y25862D01*
X117791Y25934D01*
X117657Y26073D01*
X117524Y26212D01*
X117458Y26278D01*
X117391Y26339D01*
X117330Y26395D01*
X117269Y26439D01*
X117263D01*
X117258Y26450D01*
X117241Y26461D01*
X117219Y26472D01*
X117158Y26511D01*
X117086Y26555D01*
X116997Y26594D01*
X116903Y26633D01*
X116797Y26656D01*
X116697Y26667D01*
X116692D01*
X116686D01*
X116653Y26661D01*
X116597Y26656D01*
X116536Y26639D01*
X116459Y26617D01*
X116381Y26578D01*
X116303Y26528D01*
X116226Y26461D01*
X116214Y26450D01*
X116192Y26422D01*
X116165Y26384D01*
X116126Y26322D01*
X116092Y26245D01*
X116059Y26156D01*
X116037Y26050D01*
X116031Y25934D01*
Y25901D01*
X116037Y25878D01*
X116042Y25812D01*
X116059Y25734D01*
X116081Y25651D01*
X116120Y25556D01*
X116170Y25468D01*
X116237Y25385D01*
X116248Y25373D01*
X116276Y25351D01*
X116320Y25318D01*
X116386Y25285D01*
X116464Y25246D01*
X116564Y25212D01*
X116675Y25190D01*
X116803Y25179D01*
X116753Y24696D01*
X116747D01*
X116730Y24702D01*
X116703D01*
X116664Y24707D01*
X116620Y24719D01*
X116570Y24730D01*
X116508Y24746D01*
X116447Y24763D01*
X116314Y24807D01*
X116181Y24874D01*
X116114Y24913D01*
X116048Y24963D01*
X115987Y25013D01*
X115931Y25068D01*
X115926Y25074D01*
X115920Y25085D01*
X115904Y25101D01*
X115887Y25129D01*
X115865Y25163D01*
X115843Y25201D01*
X115815Y25246D01*
X115787Y25301D01*
X115759Y25362D01*
X115732Y25429D01*
X115709Y25501D01*
X115687Y25579D01*
X115671Y25662D01*
X115654Y25751D01*
X115648Y25845D01*
X115643Y25945D01*
Y26000D01*
X115648Y26039D01*
X115654Y26084D01*
X115659Y26139D01*
X115671Y26200D01*
X115682Y26261D01*
X115720Y26406D01*
X115776Y26550D01*
X115809Y26622D01*
X115848Y26694D01*
X115898Y26761D01*
X115954Y26822D01*
X115959Y26827D01*
X115965Y26839D01*
X115987Y26850D01*
X116009Y26872D01*
X116037Y26900D01*
X116076Y26927D01*
X116114Y26955D01*
X116165Y26989D01*
X116270Y27044D01*
X116403Y27099D01*
X116470Y27122D01*
X116547Y27133D01*
X116625Y27144D01*
X116708Y27149D01*
X116719D01*
X116747D01*
X116792Y27144D01*
X116853Y27138D01*
X116919Y27127D01*
X116997Y27105D01*
X117080Y27083D01*
X117163Y27049D01*
X117174Y27044D01*
X117202Y27033D01*
X117247Y27011D01*
X117308Y26977D01*
X117374Y26933D01*
X117458Y26877D01*
X117541Y26811D01*
X117635Y26733D01*
X117646Y26722D01*
X117680Y26694D01*
X117707Y26667D01*
X117735Y26639D01*
X117768Y26605D01*
X117813Y26561D01*
X117857Y26517D01*
X117907Y26461D01*
X117963Y26406D01*
X118024Y26339D01*
X118085Y26267D01*
X118157Y26189D01*
X118229Y26101D01*
X118307Y26012D01*
X118312Y26006D01*
X118323Y25995D01*
X118340Y25973D01*
X118362Y25945D01*
X118396Y25912D01*
X118429Y25873D01*
X118501Y25784D01*
X118584Y25690D01*
X118667Y25601D01*
X118740Y25523D01*
X118767Y25490D01*
X118795Y25462D01*
X118801Y25457D01*
X118817Y25440D01*
X118840Y25418D01*
X118873Y25390D01*
X118912Y25362D01*
X118950Y25329D01*
X119045Y25262D01*
Y27155D01*
X119500D01*
Y24608D01*
D02*
G37*
G36*
Y23742D02*
X118701Y23237D01*
X118695D01*
X118684Y23226D01*
X118667Y23214D01*
X118645Y23198D01*
X118584Y23159D01*
X118507Y23109D01*
X118423Y23048D01*
X118334Y22987D01*
X118251Y22926D01*
X118174Y22870D01*
X118168Y22865D01*
X118146Y22848D01*
X118113Y22820D01*
X118074Y22782D01*
X117990Y22698D01*
X117952Y22654D01*
X117918Y22610D01*
X117913Y22604D01*
X117907Y22593D01*
X117896Y22571D01*
X117879Y22537D01*
X117863Y22504D01*
X117846Y22465D01*
X117818Y22376D01*
Y22371D01*
X117813Y22360D01*
Y22337D01*
X117807Y22310D01*
X117802Y22271D01*
Y22227D01*
X117796Y22165D01*
Y21511D01*
X119500D01*
Y21000D01*
X115659D01*
Y22782D01*
X115665Y22826D01*
Y22876D01*
X115671Y22992D01*
X115687Y23114D01*
X115704Y23248D01*
X115732Y23370D01*
X115748Y23431D01*
X115765Y23481D01*
Y23486D01*
X115770Y23492D01*
X115787Y23525D01*
X115809Y23575D01*
X115848Y23636D01*
X115898Y23703D01*
X115965Y23775D01*
X116042Y23842D01*
X116131Y23908D01*
X116137D01*
X116142Y23914D01*
X116175Y23936D01*
X116231Y23958D01*
X116303Y23991D01*
X116386Y24019D01*
X116486Y24047D01*
X116592Y24064D01*
X116708Y24069D01*
X116714D01*
X116725D01*
X116747D01*
X116775Y24064D01*
X116814D01*
X116853Y24058D01*
X116947Y24036D01*
X117058Y24002D01*
X117174Y23958D01*
X117291Y23892D01*
X117347Y23847D01*
X117402Y23803D01*
X117408Y23797D01*
X117413Y23792D01*
X117430Y23775D01*
X117446Y23753D01*
X117469Y23725D01*
X117491Y23692D01*
X117519Y23647D01*
X117552Y23603D01*
X117580Y23548D01*
X117607Y23486D01*
X117641Y23420D01*
X117668Y23348D01*
X117691Y23264D01*
X117719Y23181D01*
X117735Y23087D01*
X117752Y22987D01*
X117757Y22998D01*
X117768Y23020D01*
X117791Y23054D01*
X117813Y23098D01*
X117874Y23198D01*
X117913Y23248D01*
X117946Y23292D01*
X117957Y23303D01*
X117985Y23331D01*
X118029Y23375D01*
X118085Y23431D01*
X118162Y23492D01*
X118246Y23564D01*
X118346Y23636D01*
X118457Y23714D01*
X119500Y24374D01*
Y23742D01*
D02*
G37*
G36*
X98691Y36000D02*
X98219D01*
Y39003D01*
X98213Y38997D01*
X98186Y38975D01*
X98152Y38941D01*
X98097Y38903D01*
X98036Y38853D01*
X97958Y38797D01*
X97869Y38736D01*
X97769Y38675D01*
X97764D01*
X97758Y38669D01*
X97725Y38647D01*
X97670Y38620D01*
X97603Y38586D01*
X97525Y38547D01*
X97442Y38509D01*
X97359Y38470D01*
X97276Y38436D01*
Y38892D01*
X97281D01*
X97292Y38903D01*
X97314Y38908D01*
X97342Y38925D01*
X97376Y38941D01*
X97414Y38964D01*
X97509Y39019D01*
X97620Y39080D01*
X97731Y39158D01*
X97847Y39247D01*
X97964Y39341D01*
X97969Y39347D01*
X97975Y39352D01*
X97992Y39369D01*
X98014Y39386D01*
X98064Y39441D01*
X98130Y39508D01*
X98197Y39585D01*
X98269Y39674D01*
X98330Y39763D01*
X98386Y39857D01*
X98691D01*
Y36000D01*
D02*
G37*
G36*
X96582Y39386D02*
X95316D01*
Y36000D01*
X94806D01*
Y39386D01*
X93540D01*
Y39841D01*
X96582D01*
Y39386D01*
D02*
G37*
G36*
X91426Y39902D02*
X91476D01*
X91526Y39896D01*
X91592Y39885D01*
X91659Y39874D01*
X91803Y39846D01*
X91970Y39802D01*
X92131Y39735D01*
X92214Y39696D01*
X92297Y39652D01*
X92303Y39646D01*
X92314Y39641D01*
X92336Y39624D01*
X92369Y39608D01*
X92403Y39580D01*
X92447Y39546D01*
X92541Y39469D01*
X92641Y39369D01*
X92752Y39247D01*
X92858Y39102D01*
X92947Y38941D01*
Y38936D01*
X92958Y38919D01*
X92969Y38897D01*
X92980Y38864D01*
X93002Y38819D01*
X93019Y38770D01*
X93041Y38708D01*
X93063Y38642D01*
X93080Y38570D01*
X93102Y38492D01*
X93124Y38403D01*
X93141Y38314D01*
X93163Y38120D01*
X93174Y37909D01*
Y37904D01*
Y37881D01*
Y37854D01*
X93169Y37809D01*
Y37759D01*
X93163Y37698D01*
X93152Y37632D01*
X93146Y37560D01*
X93119Y37399D01*
X93074Y37221D01*
X93013Y37043D01*
X92980Y36955D01*
X92936Y36866D01*
Y36860D01*
X92924Y36844D01*
X92913Y36821D01*
X92891Y36788D01*
X92869Y36749D01*
X92841Y36710D01*
X92763Y36605D01*
X92669Y36494D01*
X92558Y36377D01*
X92425Y36266D01*
X92269Y36167D01*
X92264D01*
X92253Y36155D01*
X92225Y36144D01*
X92192Y36128D01*
X92153Y36111D01*
X92109Y36094D01*
X92053Y36072D01*
X91992Y36050D01*
X91925Y36028D01*
X91853Y36005D01*
X91692Y35972D01*
X91520Y35945D01*
X91337Y35933D01*
X91282D01*
X91248Y35939D01*
X91198D01*
X91143Y35950D01*
X91082Y35956D01*
X91010Y35967D01*
X90860Y36000D01*
X90699Y36044D01*
X90532Y36111D01*
X90449Y36150D01*
X90366Y36194D01*
X90360Y36200D01*
X90349Y36205D01*
X90327Y36222D01*
X90294Y36244D01*
X90260Y36266D01*
X90222Y36300D01*
X90127Y36383D01*
X90022Y36483D01*
X89911Y36605D01*
X89811Y36744D01*
X89716Y36905D01*
Y36910D01*
X89705Y36927D01*
X89694Y36949D01*
X89683Y36982D01*
X89666Y37027D01*
X89650Y37077D01*
X89628Y37132D01*
X89611Y37193D01*
X89589Y37265D01*
X89567Y37337D01*
X89533Y37504D01*
X89511Y37676D01*
X89500Y37865D01*
Y37870D01*
Y37876D01*
Y37909D01*
X89506Y37959D01*
Y38026D01*
X89517Y38103D01*
X89528Y38198D01*
X89544Y38303D01*
X89567Y38414D01*
X89589Y38531D01*
X89622Y38653D01*
X89666Y38775D01*
X89716Y38903D01*
X89772Y39025D01*
X89844Y39147D01*
X89922Y39258D01*
X90011Y39363D01*
X90016Y39369D01*
X90033Y39386D01*
X90066Y39413D01*
X90105Y39447D01*
X90155Y39491D01*
X90216Y39535D01*
X90288Y39585D01*
X90371Y39635D01*
X90460Y39685D01*
X90560Y39735D01*
X90671Y39780D01*
X90788Y39824D01*
X90915Y39857D01*
X91049Y39885D01*
X91187Y39902D01*
X91337Y39907D01*
X91387D01*
X91426Y39902D01*
D02*
G37*
G36*
X106028Y116852D02*
X106072Y116846D01*
X106128Y116841D01*
X106189Y116830D01*
X106250Y116818D01*
X106394Y116779D01*
X106538Y116724D01*
X106611Y116691D01*
X106683Y116652D01*
X106749Y116602D01*
X106810Y116546D01*
X106816Y116541D01*
X106827Y116535D01*
X106838Y116513D01*
X106860Y116491D01*
X106888Y116463D01*
X106916Y116424D01*
X106944Y116385D01*
X106977Y116335D01*
X107032Y116230D01*
X107088Y116097D01*
X107110Y116030D01*
X107121Y115953D01*
X107132Y115875D01*
X107138Y115792D01*
Y115780D01*
Y115753D01*
X107132Y115708D01*
X107127Y115647D01*
X107116Y115581D01*
X107093Y115503D01*
X107071Y115420D01*
X107038Y115337D01*
X107032Y115325D01*
X107021Y115298D01*
X106999Y115253D01*
X106966Y115192D01*
X106921Y115126D01*
X106866Y115042D01*
X106799Y114959D01*
X106722Y114865D01*
X106710Y114854D01*
X106683Y114820D01*
X106655Y114793D01*
X106627Y114765D01*
X106594Y114732D01*
X106550Y114687D01*
X106505Y114643D01*
X106450Y114593D01*
X106394Y114537D01*
X106327Y114476D01*
X106255Y114415D01*
X106178Y114343D01*
X106089Y114271D01*
X106000Y114193D01*
X105994Y114188D01*
X105983Y114177D01*
X105961Y114160D01*
X105933Y114138D01*
X105900Y114104D01*
X105861Y114071D01*
X105772Y113999D01*
X105678Y113916D01*
X105589Y113832D01*
X105512Y113760D01*
X105478Y113733D01*
X105451Y113705D01*
X105445Y113699D01*
X105428Y113683D01*
X105406Y113660D01*
X105378Y113627D01*
X105351Y113588D01*
X105317Y113549D01*
X105251Y113455D01*
X107143D01*
Y113000D01*
X104596D01*
Y113005D01*
Y113028D01*
Y113061D01*
X104601Y113105D01*
X104607Y113155D01*
X104618Y113211D01*
X104629Y113266D01*
X104651Y113327D01*
Y113333D01*
X104657Y113339D01*
X104668Y113372D01*
X104690Y113422D01*
X104724Y113488D01*
X104768Y113566D01*
X104824Y113655D01*
X104885Y113744D01*
X104962Y113838D01*
Y113844D01*
X104973Y113849D01*
X105001Y113882D01*
X105051Y113932D01*
X105123Y114005D01*
X105206Y114088D01*
X105312Y114188D01*
X105439Y114299D01*
X105578Y114415D01*
X105584Y114421D01*
X105606Y114437D01*
X105639Y114465D01*
X105678Y114498D01*
X105728Y114543D01*
X105789Y114593D01*
X105850Y114648D01*
X105922Y114709D01*
X106061Y114843D01*
X106200Y114976D01*
X106266Y115042D01*
X106327Y115109D01*
X106383Y115170D01*
X106427Y115231D01*
Y115237D01*
X106439Y115242D01*
X106450Y115259D01*
X106461Y115281D01*
X106500Y115342D01*
X106544Y115414D01*
X106583Y115503D01*
X106622Y115597D01*
X106644Y115703D01*
X106655Y115803D01*
Y115808D01*
Y115814D01*
X106649Y115847D01*
X106644Y115903D01*
X106627Y115964D01*
X106605Y116041D01*
X106566Y116119D01*
X106516Y116197D01*
X106450Y116274D01*
X106439Y116286D01*
X106411Y116308D01*
X106372Y116335D01*
X106311Y116374D01*
X106233Y116408D01*
X106144Y116441D01*
X106039Y116463D01*
X105922Y116469D01*
X105889D01*
X105867Y116463D01*
X105800Y116458D01*
X105723Y116441D01*
X105639Y116419D01*
X105545Y116380D01*
X105456Y116330D01*
X105373Y116263D01*
X105362Y116252D01*
X105340Y116225D01*
X105306Y116180D01*
X105273Y116114D01*
X105234Y116036D01*
X105201Y115936D01*
X105179Y115825D01*
X105168Y115697D01*
X104685Y115747D01*
Y115753D01*
X104690Y115770D01*
Y115797D01*
X104696Y115836D01*
X104707Y115880D01*
X104718Y115930D01*
X104735Y115991D01*
X104751Y116052D01*
X104796Y116186D01*
X104862Y116319D01*
X104901Y116385D01*
X104951Y116452D01*
X105001Y116513D01*
X105057Y116569D01*
X105062Y116574D01*
X105073Y116580D01*
X105090Y116596D01*
X105118Y116613D01*
X105151Y116635D01*
X105190Y116657D01*
X105234Y116685D01*
X105290Y116713D01*
X105351Y116741D01*
X105417Y116769D01*
X105490Y116791D01*
X105567Y116813D01*
X105650Y116830D01*
X105739Y116846D01*
X105833Y116852D01*
X105933Y116857D01*
X105989D01*
X106028Y116852D01*
D02*
G37*
G36*
X102426Y116902D02*
X102476D01*
X102526Y116896D01*
X102592Y116885D01*
X102659Y116874D01*
X102803Y116846D01*
X102970Y116802D01*
X103131Y116735D01*
X103214Y116696D01*
X103297Y116652D01*
X103303Y116646D01*
X103314Y116641D01*
X103336Y116624D01*
X103369Y116607D01*
X103403Y116580D01*
X103447Y116546D01*
X103541Y116469D01*
X103641Y116369D01*
X103752Y116247D01*
X103858Y116102D01*
X103947Y115942D01*
Y115936D01*
X103958Y115919D01*
X103969Y115897D01*
X103980Y115864D01*
X104002Y115819D01*
X104019Y115770D01*
X104041Y115708D01*
X104063Y115642D01*
X104080Y115570D01*
X104102Y115492D01*
X104124Y115409D01*
X104141Y115320D01*
X104163Y115126D01*
X104174Y114920D01*
Y114915D01*
Y114898D01*
Y114876D01*
Y114843D01*
X104169Y114798D01*
Y114748D01*
X104163Y114693D01*
X104157Y114637D01*
X104141Y114504D01*
X104113Y114360D01*
X104080Y114210D01*
X104030Y114066D01*
Y114060D01*
X104024Y114049D01*
X104013Y114027D01*
X104002Y114005D01*
X103985Y113971D01*
X103969Y113932D01*
X103924Y113844D01*
X103863Y113738D01*
X103786Y113627D01*
X103697Y113516D01*
X103597Y113405D01*
X103602D01*
X103614Y113394D01*
X103630Y113383D01*
X103658Y113366D01*
X103686Y113344D01*
X103725Y113322D01*
X103808Y113272D01*
X103908Y113211D01*
X104019Y113150D01*
X104135Y113100D01*
X104246Y113050D01*
X104096Y112700D01*
X104091D01*
X104080Y112706D01*
X104058Y112717D01*
X104024Y112728D01*
X103985Y112745D01*
X103941Y112767D01*
X103891Y112789D01*
X103835Y112817D01*
X103713Y112883D01*
X103575Y112961D01*
X103425Y113061D01*
X103270Y113172D01*
X103264D01*
X103253Y113161D01*
X103225Y113150D01*
X103197Y113133D01*
X103153Y113117D01*
X103109Y113094D01*
X103053Y113078D01*
X102992Y113056D01*
X102925Y113033D01*
X102853Y113011D01*
X102692Y112972D01*
X102515Y112944D01*
X102420Y112939D01*
X102326Y112933D01*
X102276D01*
X102237Y112939D01*
X102193D01*
X102137Y112944D01*
X102076Y112956D01*
X102010Y112967D01*
X101865Y112995D01*
X101704Y113039D01*
X101538Y113100D01*
X101460Y113139D01*
X101377Y113183D01*
X101371Y113189D01*
X101360Y113194D01*
X101338Y113211D01*
X101310Y113227D01*
X101271Y113255D01*
X101233Y113289D01*
X101138Y113366D01*
X101033Y113466D01*
X100927Y113588D01*
X100822Y113727D01*
X100727Y113888D01*
Y113894D01*
X100716Y113910D01*
X100705Y113932D01*
X100694Y113966D01*
X100678Y114010D01*
X100655Y114060D01*
X100633Y114121D01*
X100617Y114188D01*
X100594Y114260D01*
X100572Y114338D01*
X100556Y114421D01*
X100533Y114515D01*
X100511Y114709D01*
X100500Y114915D01*
Y114920D01*
Y114943D01*
Y114970D01*
X100506Y115009D01*
Y115059D01*
X100511Y115120D01*
X100517Y115187D01*
X100528Y115259D01*
X100556Y115420D01*
X100594Y115592D01*
X100650Y115775D01*
X100727Y115953D01*
X100733Y115958D01*
X100739Y115975D01*
X100750Y115997D01*
X100772Y116030D01*
X100794Y116069D01*
X100822Y116114D01*
X100900Y116219D01*
X100988Y116330D01*
X101105Y116447D01*
X101233Y116563D01*
X101382Y116663D01*
X101388Y116669D01*
X101405Y116674D01*
X101427Y116685D01*
X101460Y116702D01*
X101499Y116718D01*
X101543Y116741D01*
X101599Y116763D01*
X101660Y116785D01*
X101732Y116807D01*
X101804Y116830D01*
X101965Y116868D01*
X102143Y116896D01*
X102237Y116907D01*
X102387D01*
X102426Y116902D01*
D02*
G37*
G36*
X90438Y112500D02*
X89967D01*
Y115503D01*
X89961Y115497D01*
X89934Y115475D01*
X89900Y115442D01*
X89845Y115403D01*
X89784Y115353D01*
X89706Y115297D01*
X89617Y115236D01*
X89517Y115175D01*
X89512D01*
X89506Y115170D01*
X89473Y115147D01*
X89417Y115120D01*
X89351Y115086D01*
X89273Y115048D01*
X89190Y115009D01*
X89107Y114970D01*
X89023Y114936D01*
Y115392D01*
X89029D01*
X89040Y115403D01*
X89062Y115408D01*
X89090Y115425D01*
X89123Y115442D01*
X89162Y115464D01*
X89256Y115519D01*
X89367Y115580D01*
X89478Y115658D01*
X89595Y115747D01*
X89711Y115841D01*
X89717Y115847D01*
X89723Y115852D01*
X89739Y115869D01*
X89761Y115885D01*
X89811Y115941D01*
X89878Y116008D01*
X89945Y116085D01*
X90017Y116174D01*
X90078Y116263D01*
X90133Y116357D01*
X90438D01*
Y112500D01*
D02*
G37*
G36*
X86426Y116402D02*
X86476D01*
X86526Y116396D01*
X86592Y116385D01*
X86659Y116374D01*
X86803Y116346D01*
X86970Y116302D01*
X87131Y116235D01*
X87214Y116196D01*
X87297Y116152D01*
X87303Y116146D01*
X87314Y116141D01*
X87336Y116124D01*
X87369Y116107D01*
X87403Y116080D01*
X87447Y116047D01*
X87541Y115969D01*
X87641Y115869D01*
X87752Y115747D01*
X87858Y115602D01*
X87947Y115442D01*
Y115436D01*
X87958Y115419D01*
X87969Y115397D01*
X87980Y115364D01*
X88002Y115319D01*
X88019Y115269D01*
X88041Y115208D01*
X88063Y115142D01*
X88080Y115070D01*
X88102Y114992D01*
X88124Y114909D01*
X88141Y114820D01*
X88163Y114626D01*
X88174Y114420D01*
Y114415D01*
Y114398D01*
Y114376D01*
Y114343D01*
X88169Y114298D01*
Y114248D01*
X88163Y114193D01*
X88157Y114137D01*
X88141Y114004D01*
X88113Y113860D01*
X88080Y113710D01*
X88030Y113566D01*
Y113560D01*
X88024Y113549D01*
X88013Y113527D01*
X88002Y113505D01*
X87985Y113471D01*
X87969Y113432D01*
X87924Y113344D01*
X87863Y113238D01*
X87786Y113127D01*
X87697Y113016D01*
X87597Y112905D01*
X87602D01*
X87613Y112894D01*
X87630Y112883D01*
X87658Y112866D01*
X87686Y112844D01*
X87725Y112822D01*
X87808Y112772D01*
X87908Y112711D01*
X88019Y112650D01*
X88135Y112600D01*
X88246Y112550D01*
X88096Y112200D01*
X88091D01*
X88080Y112206D01*
X88058Y112217D01*
X88024Y112228D01*
X87985Y112245D01*
X87941Y112267D01*
X87891Y112289D01*
X87836Y112317D01*
X87713Y112383D01*
X87575Y112461D01*
X87425Y112561D01*
X87269Y112672D01*
X87264D01*
X87253Y112661D01*
X87225Y112650D01*
X87197Y112633D01*
X87153Y112617D01*
X87108Y112594D01*
X87053Y112578D01*
X86992Y112556D01*
X86925Y112533D01*
X86853Y112511D01*
X86692Y112472D01*
X86515Y112444D01*
X86420Y112439D01*
X86326Y112433D01*
X86276D01*
X86237Y112439D01*
X86193D01*
X86137Y112444D01*
X86076Y112456D01*
X86010Y112467D01*
X85865Y112495D01*
X85704Y112539D01*
X85538Y112600D01*
X85460Y112639D01*
X85377Y112683D01*
X85371Y112689D01*
X85360Y112694D01*
X85338Y112711D01*
X85310Y112727D01*
X85272Y112755D01*
X85233Y112789D01*
X85138Y112866D01*
X85033Y112966D01*
X84927Y113088D01*
X84822Y113227D01*
X84728Y113388D01*
Y113394D01*
X84716Y113410D01*
X84705Y113432D01*
X84694Y113466D01*
X84678Y113510D01*
X84655Y113560D01*
X84633Y113621D01*
X84617Y113688D01*
X84594Y113760D01*
X84572Y113838D01*
X84556Y113921D01*
X84533Y114015D01*
X84511Y114209D01*
X84500Y114415D01*
Y114420D01*
Y114443D01*
Y114470D01*
X84506Y114509D01*
Y114559D01*
X84511Y114620D01*
X84517Y114687D01*
X84528Y114759D01*
X84556Y114920D01*
X84594Y115092D01*
X84650Y115275D01*
X84728Y115453D01*
X84733Y115458D01*
X84739Y115475D01*
X84750Y115497D01*
X84772Y115530D01*
X84794Y115569D01*
X84822Y115614D01*
X84900Y115719D01*
X84988Y115830D01*
X85105Y115947D01*
X85233Y116063D01*
X85382Y116163D01*
X85388Y116169D01*
X85405Y116174D01*
X85427Y116185D01*
X85460Y116202D01*
X85499Y116218D01*
X85543Y116241D01*
X85599Y116263D01*
X85660Y116285D01*
X85732Y116307D01*
X85804Y116330D01*
X85965Y116368D01*
X86143Y116396D01*
X86237Y116407D01*
X86387D01*
X86426Y116402D01*
D02*
G37*
G36*
X126459Y123352D02*
X126531Y123341D01*
X126620Y123324D01*
X126720Y123296D01*
X126820Y123263D01*
X126919Y123219D01*
X126925D01*
X126930Y123213D01*
X126964Y123196D01*
X127014Y123163D01*
X127069Y123124D01*
X127136Y123069D01*
X127202Y123008D01*
X127269Y122935D01*
X127324Y122852D01*
X127330Y122841D01*
X127347Y122813D01*
X127369Y122763D01*
X127397Y122702D01*
X127424Y122630D01*
X127447Y122547D01*
X127463Y122453D01*
X127469Y122358D01*
Y122347D01*
Y122314D01*
X127463Y122269D01*
X127452Y122208D01*
X127436Y122136D01*
X127408Y122058D01*
X127374Y121981D01*
X127330Y121903D01*
X127324Y121892D01*
X127308Y121870D01*
X127275Y121831D01*
X127230Y121787D01*
X127175Y121737D01*
X127108Y121681D01*
X127030Y121631D01*
X126936Y121581D01*
X126942D01*
X126953Y121576D01*
X126969Y121570D01*
X126991Y121565D01*
X127052Y121542D01*
X127130Y121509D01*
X127219Y121465D01*
X127308Y121409D01*
X127391Y121337D01*
X127469Y121254D01*
X127474Y121243D01*
X127497Y121209D01*
X127530Y121154D01*
X127563Y121082D01*
X127596Y120993D01*
X127630Y120887D01*
X127652Y120765D01*
X127657Y120632D01*
Y120627D01*
Y120610D01*
Y120582D01*
X127652Y120549D01*
X127646Y120504D01*
X127635Y120455D01*
X127624Y120399D01*
X127613Y120338D01*
X127569Y120205D01*
X127535Y120133D01*
X127502Y120066D01*
X127458Y119994D01*
X127408Y119922D01*
X127352Y119850D01*
X127286Y119783D01*
X127280Y119778D01*
X127269Y119766D01*
X127247Y119750D01*
X127219Y119728D01*
X127186Y119700D01*
X127141Y119672D01*
X127091Y119639D01*
X127030Y119611D01*
X126969Y119578D01*
X126897Y119544D01*
X126825Y119517D01*
X126742Y119489D01*
X126653Y119467D01*
X126559Y119450D01*
X126464Y119439D01*
X126359Y119433D01*
X126309D01*
X126276Y119439D01*
X126231Y119445D01*
X126181Y119450D01*
X126126Y119461D01*
X126065Y119472D01*
X125931Y119506D01*
X125793Y119561D01*
X125721Y119594D01*
X125654Y119633D01*
X125587Y119683D01*
X125521Y119733D01*
X125515Y119739D01*
X125504Y119750D01*
X125487Y119766D01*
X125471Y119789D01*
X125443Y119816D01*
X125415Y119855D01*
X125382Y119894D01*
X125349Y119944D01*
X125315Y120000D01*
X125282Y120055D01*
X125221Y120188D01*
X125171Y120344D01*
X125154Y120427D01*
X125143Y120516D01*
X125615Y120577D01*
Y120571D01*
X125621Y120560D01*
X125626Y120538D01*
X125632Y120510D01*
X125637Y120477D01*
X125648Y120438D01*
X125676Y120355D01*
X125715Y120255D01*
X125765Y120160D01*
X125821Y120072D01*
X125887Y119994D01*
X125898Y119988D01*
X125920Y119966D01*
X125965Y119938D01*
X126020Y119911D01*
X126087Y119877D01*
X126170Y119850D01*
X126265Y119827D01*
X126364Y119822D01*
X126398D01*
X126420Y119827D01*
X126481Y119833D01*
X126559Y119850D01*
X126647Y119877D01*
X126742Y119916D01*
X126836Y119972D01*
X126925Y120050D01*
X126936Y120061D01*
X126964Y120094D01*
X126997Y120144D01*
X127041Y120210D01*
X127086Y120294D01*
X127119Y120388D01*
X127147Y120499D01*
X127158Y120621D01*
Y120627D01*
Y120638D01*
Y120654D01*
X127152Y120677D01*
X127147Y120738D01*
X127130Y120810D01*
X127108Y120899D01*
X127069Y120987D01*
X127014Y121076D01*
X126942Y121159D01*
X126930Y121171D01*
X126903Y121193D01*
X126858Y121226D01*
X126797Y121265D01*
X126720Y121304D01*
X126625Y121337D01*
X126520Y121359D01*
X126403Y121370D01*
X126353D01*
X126314Y121365D01*
X126265Y121359D01*
X126209Y121348D01*
X126142Y121337D01*
X126070Y121320D01*
X126126Y121737D01*
X126153D01*
X126176Y121731D01*
X126248D01*
X126309Y121742D01*
X126381Y121753D01*
X126464Y121770D01*
X126559Y121798D01*
X126647Y121837D01*
X126742Y121887D01*
X126747D01*
X126753Y121892D01*
X126781Y121914D01*
X126820Y121953D01*
X126864Y122003D01*
X126908Y122075D01*
X126947Y122158D01*
X126975Y122253D01*
X126986Y122308D01*
Y122369D01*
Y122375D01*
Y122380D01*
Y122414D01*
X126975Y122458D01*
X126964Y122519D01*
X126942Y122586D01*
X126914Y122658D01*
X126869Y122730D01*
X126808Y122797D01*
X126803Y122802D01*
X126775Y122825D01*
X126736Y122852D01*
X126686Y122886D01*
X126620Y122913D01*
X126542Y122941D01*
X126453Y122963D01*
X126353Y122969D01*
X126309D01*
X126259Y122958D01*
X126192Y122947D01*
X126120Y122924D01*
X126048Y122897D01*
X125970Y122852D01*
X125898Y122797D01*
X125893Y122791D01*
X125870Y122763D01*
X125837Y122724D01*
X125798Y122669D01*
X125759Y122597D01*
X125721Y122508D01*
X125687Y122403D01*
X125665Y122281D01*
X125193Y122364D01*
Y122369D01*
X125199Y122386D01*
X125204Y122408D01*
X125210Y122441D01*
X125221Y122480D01*
X125238Y122525D01*
X125271Y122630D01*
X125327Y122752D01*
X125393Y122874D01*
X125476Y122991D01*
X125582Y123096D01*
X125587Y123102D01*
X125599Y123108D01*
X125615Y123119D01*
X125637Y123135D01*
X125665Y123157D01*
X125704Y123180D01*
X125743Y123202D01*
X125793Y123230D01*
X125904Y123274D01*
X126031Y123318D01*
X126181Y123346D01*
X126259Y123357D01*
X126398D01*
X126459Y123352D01*
D02*
G37*
G36*
X120626Y120721D02*
Y120715D01*
Y120699D01*
Y120677D01*
Y120643D01*
X120620Y120599D01*
Y120554D01*
X120609Y120449D01*
X120598Y120327D01*
X120576Y120199D01*
X120542Y120083D01*
X120503Y119972D01*
Y119966D01*
X120498Y119961D01*
X120481Y119927D01*
X120454Y119883D01*
X120415Y119822D01*
X120359Y119761D01*
X120298Y119694D01*
X120220Y119628D01*
X120132Y119572D01*
X120121Y119567D01*
X120087Y119550D01*
X120037Y119528D01*
X119965Y119506D01*
X119876Y119478D01*
X119776Y119456D01*
X119666Y119439D01*
X119543Y119433D01*
X119493D01*
X119460Y119439D01*
X119416Y119445D01*
X119371Y119450D01*
X119255Y119472D01*
X119133Y119506D01*
X119005Y119555D01*
X118938Y119589D01*
X118877Y119628D01*
X118822Y119672D01*
X118766Y119722D01*
X118761Y119728D01*
X118755Y119733D01*
X118744Y119755D01*
X118728Y119778D01*
X118705Y119805D01*
X118683Y119844D01*
X118661Y119888D01*
X118633Y119938D01*
X118611Y119994D01*
X118589Y120061D01*
X118567Y120127D01*
X118544Y120205D01*
X118533Y120288D01*
X118517Y120382D01*
X118511Y120477D01*
Y120582D01*
X118972Y120649D01*
Y120643D01*
Y120632D01*
Y120610D01*
X118977Y120577D01*
X118983Y120543D01*
Y120504D01*
X119000Y120410D01*
X119016Y120310D01*
X119050Y120210D01*
X119083Y120122D01*
X119105Y120083D01*
X119133Y120050D01*
X119138Y120044D01*
X119160Y120027D01*
X119194Y120000D01*
X119238Y119972D01*
X119299Y119938D01*
X119366Y119916D01*
X119449Y119894D01*
X119538Y119888D01*
X119571D01*
X119604Y119894D01*
X119654Y119900D01*
X119704Y119911D01*
X119760Y119922D01*
X119815Y119944D01*
X119871Y119972D01*
X119876Y119977D01*
X119893Y119988D01*
X119915Y120011D01*
X119949Y120033D01*
X119976Y120072D01*
X120010Y120110D01*
X120037Y120155D01*
X120060Y120210D01*
Y120216D01*
X120071Y120238D01*
X120076Y120277D01*
X120087Y120327D01*
X120098Y120394D01*
X120104Y120477D01*
X120115Y120577D01*
Y120693D01*
Y123341D01*
X120626D01*
Y120721D01*
D02*
G37*
G36*
X123290Y123335D02*
X123340D01*
X123456Y123329D01*
X123578Y123313D01*
X123711Y123296D01*
X123834Y123268D01*
X123895Y123252D01*
X123945Y123235D01*
X123950D01*
X123956Y123230D01*
X123989Y123213D01*
X124039Y123191D01*
X124100Y123152D01*
X124167Y123102D01*
X124239Y123035D01*
X124305Y122958D01*
X124372Y122869D01*
Y122863D01*
X124377Y122858D01*
X124400Y122825D01*
X124422Y122769D01*
X124455Y122697D01*
X124483Y122614D01*
X124511Y122514D01*
X124527Y122408D01*
X124533Y122292D01*
Y122286D01*
Y122275D01*
Y122253D01*
X124527Y122225D01*
Y122186D01*
X124522Y122147D01*
X124499Y122053D01*
X124466Y121942D01*
X124422Y121826D01*
X124355Y121709D01*
X124311Y121653D01*
X124267Y121598D01*
X124261Y121592D01*
X124255Y121587D01*
X124239Y121570D01*
X124216Y121554D01*
X124189Y121531D01*
X124155Y121509D01*
X124111Y121481D01*
X124067Y121448D01*
X124011Y121420D01*
X123950Y121393D01*
X123883Y121359D01*
X123811Y121332D01*
X123728Y121309D01*
X123645Y121282D01*
X123550Y121265D01*
X123451Y121248D01*
X123462Y121243D01*
X123484Y121232D01*
X123517Y121209D01*
X123562Y121187D01*
X123661Y121126D01*
X123711Y121087D01*
X123756Y121054D01*
X123767Y121043D01*
X123795Y121015D01*
X123839Y120971D01*
X123895Y120915D01*
X123956Y120838D01*
X124028Y120754D01*
X124100Y120654D01*
X124178Y120543D01*
X124838Y119500D01*
X124205D01*
X123700Y120299D01*
Y120305D01*
X123689Y120316D01*
X123678Y120333D01*
X123661Y120355D01*
X123623Y120416D01*
X123573Y120493D01*
X123512Y120577D01*
X123451Y120666D01*
X123390Y120749D01*
X123334Y120826D01*
X123328Y120832D01*
X123312Y120854D01*
X123284Y120887D01*
X123245Y120926D01*
X123162Y121010D01*
X123118Y121048D01*
X123073Y121082D01*
X123068Y121087D01*
X123056Y121093D01*
X123034Y121104D01*
X123001Y121121D01*
X122968Y121137D01*
X122929Y121154D01*
X122840Y121182D01*
X122835D01*
X122824Y121187D01*
X122801D01*
X122774Y121193D01*
X122735Y121198D01*
X122690D01*
X122629Y121204D01*
X121974D01*
Y119500D01*
X121464D01*
Y123341D01*
X123245D01*
X123290Y123335D01*
D02*
G37*
G36*
X112025Y103352D02*
X112070Y103346D01*
X112125Y103341D01*
X112186Y103330D01*
X112247Y103318D01*
X112392Y103279D01*
X112536Y103224D01*
X112608Y103191D01*
X112680Y103152D01*
X112747Y103102D01*
X112808Y103047D01*
X112813Y103041D01*
X112824Y103035D01*
X112836Y103013D01*
X112858Y102991D01*
X112885Y102963D01*
X112913Y102924D01*
X112941Y102885D01*
X112974Y102836D01*
X113030Y102730D01*
X113085Y102597D01*
X113108Y102530D01*
X113119Y102453D01*
X113130Y102375D01*
X113135Y102292D01*
Y102281D01*
Y102253D01*
X113130Y102208D01*
X113124Y102147D01*
X113113Y102081D01*
X113091Y102003D01*
X113069Y101920D01*
X113035Y101837D01*
X113030Y101825D01*
X113019Y101798D01*
X112997Y101753D01*
X112963Y101692D01*
X112919Y101626D01*
X112863Y101542D01*
X112797Y101459D01*
X112719Y101365D01*
X112708Y101354D01*
X112680Y101320D01*
X112652Y101293D01*
X112625Y101265D01*
X112591Y101232D01*
X112547Y101187D01*
X112503Y101143D01*
X112447Y101093D01*
X112392Y101037D01*
X112325Y100976D01*
X112253Y100915D01*
X112175Y100843D01*
X112086Y100771D01*
X111998Y100693D01*
X111992Y100688D01*
X111981Y100677D01*
X111959Y100660D01*
X111931Y100638D01*
X111898Y100604D01*
X111859Y100571D01*
X111770Y100499D01*
X111676Y100416D01*
X111587Y100332D01*
X111509Y100260D01*
X111476Y100233D01*
X111448Y100205D01*
X111443Y100199D01*
X111426Y100183D01*
X111404Y100161D01*
X111376Y100127D01*
X111348Y100088D01*
X111315Y100049D01*
X111248Y99955D01*
X113141D01*
Y99500D01*
X110593D01*
Y99506D01*
Y99528D01*
Y99561D01*
X110599Y99605D01*
X110605Y99655D01*
X110616Y99711D01*
X110627Y99766D01*
X110649Y99827D01*
Y99833D01*
X110654Y99839D01*
X110666Y99872D01*
X110688Y99922D01*
X110721Y99988D01*
X110766Y100066D01*
X110821Y100155D01*
X110882Y100244D01*
X110960Y100338D01*
Y100344D01*
X110971Y100349D01*
X110999Y100382D01*
X111048Y100432D01*
X111121Y100505D01*
X111204Y100588D01*
X111309Y100688D01*
X111437Y100799D01*
X111576Y100915D01*
X111581Y100921D01*
X111603Y100937D01*
X111637Y100965D01*
X111676Y100998D01*
X111726Y101043D01*
X111787Y101093D01*
X111848Y101148D01*
X111920Y101209D01*
X112059Y101343D01*
X112197Y101476D01*
X112264Y101542D01*
X112325Y101609D01*
X112381Y101670D01*
X112425Y101731D01*
Y101737D01*
X112436Y101742D01*
X112447Y101759D01*
X112458Y101781D01*
X112497Y101842D01*
X112541Y101914D01*
X112580Y102003D01*
X112619Y102097D01*
X112641Y102203D01*
X112652Y102303D01*
Y102308D01*
Y102314D01*
X112647Y102347D01*
X112641Y102403D01*
X112625Y102464D01*
X112602Y102541D01*
X112564Y102619D01*
X112514Y102697D01*
X112447Y102775D01*
X112436Y102786D01*
X112408Y102808D01*
X112369Y102836D01*
X112308Y102874D01*
X112231Y102908D01*
X112142Y102941D01*
X112036Y102963D01*
X111920Y102969D01*
X111887D01*
X111864Y102963D01*
X111798Y102958D01*
X111720Y102941D01*
X111637Y102919D01*
X111542Y102880D01*
X111454Y102830D01*
X111370Y102763D01*
X111359Y102752D01*
X111337Y102725D01*
X111304Y102680D01*
X111270Y102614D01*
X111232Y102536D01*
X111198Y102436D01*
X111176Y102325D01*
X111165Y102197D01*
X110682Y102247D01*
Y102253D01*
X110688Y102269D01*
Y102297D01*
X110693Y102336D01*
X110704Y102380D01*
X110715Y102430D01*
X110732Y102491D01*
X110749Y102552D01*
X110793Y102686D01*
X110860Y102819D01*
X110899Y102885D01*
X110949Y102952D01*
X110999Y103013D01*
X111054Y103069D01*
X111060Y103074D01*
X111071Y103080D01*
X111087Y103096D01*
X111115Y103113D01*
X111148Y103135D01*
X111187Y103157D01*
X111232Y103185D01*
X111287Y103213D01*
X111348Y103241D01*
X111415Y103269D01*
X111487Y103291D01*
X111565Y103313D01*
X111648Y103330D01*
X111737Y103346D01*
X111831Y103352D01*
X111931Y103357D01*
X111986D01*
X112025Y103352D01*
D02*
G37*
G36*
X109450Y99500D02*
X108978D01*
Y102503D01*
X108973Y102497D01*
X108945Y102475D01*
X108912Y102442D01*
X108856Y102403D01*
X108795Y102353D01*
X108718Y102297D01*
X108629Y102236D01*
X108529Y102175D01*
X108523D01*
X108518Y102170D01*
X108484Y102147D01*
X108429Y102120D01*
X108362Y102086D01*
X108285Y102048D01*
X108201Y102009D01*
X108118Y101970D01*
X108035Y101936D01*
Y102392D01*
X108040D01*
X108052Y102403D01*
X108074Y102408D01*
X108101Y102425D01*
X108135Y102442D01*
X108174Y102464D01*
X108268Y102519D01*
X108379Y102580D01*
X108490Y102658D01*
X108607Y102747D01*
X108723Y102841D01*
X108729Y102847D01*
X108734Y102852D01*
X108751Y102869D01*
X108773Y102885D01*
X108823Y102941D01*
X108890Y103008D01*
X108956Y103085D01*
X109028Y103174D01*
X109089Y103263D01*
X109145Y103357D01*
X109450D01*
Y99500D01*
D02*
G37*
G36*
X105826Y103335D02*
X105876D01*
X105992Y103330D01*
X106115Y103313D01*
X106248Y103296D01*
X106370Y103269D01*
X106431Y103252D01*
X106481Y103235D01*
X106486D01*
X106492Y103230D01*
X106525Y103213D01*
X106575Y103191D01*
X106636Y103152D01*
X106703Y103102D01*
X106775Y103035D01*
X106842Y102958D01*
X106908Y102869D01*
Y102863D01*
X106914Y102858D01*
X106936Y102824D01*
X106958Y102769D01*
X106992Y102697D01*
X107019Y102614D01*
X107047Y102514D01*
X107064Y102408D01*
X107069Y102292D01*
Y102286D01*
Y102275D01*
Y102253D01*
X107064Y102225D01*
Y102186D01*
X107058Y102147D01*
X107036Y102053D01*
X107002Y101942D01*
X106958Y101825D01*
X106892Y101709D01*
X106847Y101653D01*
X106803Y101598D01*
X106797Y101592D01*
X106792Y101587D01*
X106775Y101570D01*
X106753Y101553D01*
X106725Y101531D01*
X106692Y101509D01*
X106647Y101481D01*
X106603Y101448D01*
X106547Y101420D01*
X106486Y101393D01*
X106420Y101359D01*
X106348Y101331D01*
X106264Y101309D01*
X106181Y101282D01*
X106087Y101265D01*
X105987Y101248D01*
X105998Y101243D01*
X106020Y101232D01*
X106053Y101209D01*
X106098Y101187D01*
X106198Y101126D01*
X106248Y101087D01*
X106292Y101054D01*
X106303Y101043D01*
X106331Y101015D01*
X106375Y100971D01*
X106431Y100915D01*
X106492Y100838D01*
X106564Y100754D01*
X106636Y100654D01*
X106714Y100543D01*
X107374Y99500D01*
X106742D01*
X106237Y100299D01*
Y100305D01*
X106226Y100316D01*
X106214Y100332D01*
X106198Y100355D01*
X106159Y100416D01*
X106109Y100493D01*
X106048Y100577D01*
X105987Y100665D01*
X105926Y100749D01*
X105870Y100826D01*
X105865Y100832D01*
X105848Y100854D01*
X105820Y100888D01*
X105781Y100926D01*
X105698Y101010D01*
X105654Y101049D01*
X105610Y101082D01*
X105604Y101087D01*
X105593Y101093D01*
X105571Y101104D01*
X105537Y101121D01*
X105504Y101137D01*
X105465Y101154D01*
X105376Y101182D01*
X105371D01*
X105360Y101187D01*
X105338D01*
X105310Y101193D01*
X105271Y101198D01*
X105227D01*
X105166Y101204D01*
X104511D01*
Y99500D01*
X104000D01*
Y103341D01*
X105781D01*
X105826Y103335D01*
D02*
G37*
G36*
X95936Y99500D02*
X95464D01*
Y102503D01*
X95459Y102497D01*
X95431Y102475D01*
X95398Y102442D01*
X95342Y102403D01*
X95281Y102353D01*
X95203Y102297D01*
X95115Y102236D01*
X95015Y102175D01*
X95009D01*
X95004Y102170D01*
X94970Y102147D01*
X94915Y102120D01*
X94848Y102086D01*
X94770Y102048D01*
X94687Y102009D01*
X94604Y101970D01*
X94521Y101936D01*
Y102392D01*
X94526D01*
X94537Y102403D01*
X94560Y102408D01*
X94587Y102425D01*
X94621Y102442D01*
X94660Y102464D01*
X94754Y102519D01*
X94865Y102580D01*
X94976Y102658D01*
X95092Y102747D01*
X95209Y102841D01*
X95214Y102847D01*
X95220Y102852D01*
X95237Y102869D01*
X95259Y102885D01*
X95309Y102941D01*
X95376Y103008D01*
X95442Y103085D01*
X95514Y103174D01*
X95575Y103263D01*
X95631Y103357D01*
X95936D01*
Y99500D01*
D02*
G37*
G36*
X92950D02*
X92478D01*
Y102503D01*
X92473Y102497D01*
X92445Y102475D01*
X92412Y102442D01*
X92356Y102403D01*
X92295Y102353D01*
X92217Y102297D01*
X92129Y102236D01*
X92029Y102175D01*
X92023D01*
X92018Y102170D01*
X91984Y102147D01*
X91929Y102120D01*
X91862Y102086D01*
X91785Y102048D01*
X91701Y102009D01*
X91618Y101970D01*
X91535Y101936D01*
Y102392D01*
X91540D01*
X91552Y102403D01*
X91574Y102408D01*
X91601Y102425D01*
X91635Y102442D01*
X91674Y102464D01*
X91768Y102519D01*
X91879Y102580D01*
X91990Y102658D01*
X92106Y102747D01*
X92223Y102841D01*
X92229Y102847D01*
X92234Y102852D01*
X92251Y102869D01*
X92273Y102885D01*
X92323Y102941D01*
X92390Y103008D01*
X92456Y103085D01*
X92528Y103174D01*
X92589Y103263D01*
X92645Y103357D01*
X92950D01*
Y99500D01*
D02*
G37*
G36*
X89326Y103335D02*
X89376D01*
X89492Y103330D01*
X89614Y103313D01*
X89748Y103296D01*
X89870Y103269D01*
X89931Y103252D01*
X89981Y103235D01*
X89986D01*
X89992Y103230D01*
X90025Y103213D01*
X90075Y103191D01*
X90136Y103152D01*
X90203Y103102D01*
X90275Y103035D01*
X90342Y102958D01*
X90408Y102869D01*
Y102863D01*
X90414Y102858D01*
X90436Y102824D01*
X90458Y102769D01*
X90491Y102697D01*
X90519Y102614D01*
X90547Y102514D01*
X90564Y102408D01*
X90569Y102292D01*
Y102286D01*
Y102275D01*
Y102253D01*
X90564Y102225D01*
Y102186D01*
X90558Y102147D01*
X90536Y102053D01*
X90503Y101942D01*
X90458Y101825D01*
X90391Y101709D01*
X90347Y101653D01*
X90303Y101598D01*
X90297Y101592D01*
X90292Y101587D01*
X90275Y101570D01*
X90253Y101553D01*
X90225Y101531D01*
X90192Y101509D01*
X90147Y101481D01*
X90103Y101448D01*
X90048Y101420D01*
X89986Y101393D01*
X89920Y101359D01*
X89848Y101331D01*
X89764Y101309D01*
X89681Y101282D01*
X89587Y101265D01*
X89487Y101248D01*
X89498Y101243D01*
X89520Y101232D01*
X89553Y101209D01*
X89598Y101187D01*
X89698Y101126D01*
X89748Y101087D01*
X89792Y101054D01*
X89803Y101043D01*
X89831Y101015D01*
X89875Y100971D01*
X89931Y100915D01*
X89992Y100838D01*
X90064Y100754D01*
X90136Y100654D01*
X90214Y100543D01*
X90874Y99500D01*
X90242D01*
X89737Y100299D01*
Y100305D01*
X89726Y100316D01*
X89714Y100332D01*
X89698Y100355D01*
X89659Y100416D01*
X89609Y100493D01*
X89548Y100577D01*
X89487Y100665D01*
X89426Y100749D01*
X89370Y100826D01*
X89365Y100832D01*
X89348Y100854D01*
X89320Y100888D01*
X89282Y100926D01*
X89198Y101010D01*
X89154Y101049D01*
X89109Y101082D01*
X89104Y101087D01*
X89093Y101093D01*
X89071Y101104D01*
X89037Y101121D01*
X89004Y101137D01*
X88965Y101154D01*
X88876Y101182D01*
X88871D01*
X88860Y101187D01*
X88837D01*
X88810Y101193D01*
X88771Y101198D01*
X88727D01*
X88665Y101204D01*
X88011D01*
Y99500D01*
X87500D01*
Y103341D01*
X89282D01*
X89326Y103335D01*
D02*
G37*
G36*
X115945Y90352D02*
X115973D01*
X116012Y90346D01*
X116106Y90329D01*
X116211Y90307D01*
X116328Y90268D01*
X116445Y90219D01*
X116561Y90152D01*
X116567D01*
X116572Y90141D01*
X116589Y90130D01*
X116611Y90113D01*
X116667Y90069D01*
X116739Y90008D01*
X116811Y89924D01*
X116894Y89824D01*
X116966Y89708D01*
X117033Y89575D01*
Y89569D01*
X117038Y89558D01*
X117050Y89536D01*
X117061Y89508D01*
X117072Y89469D01*
X117088Y89419D01*
X117099Y89364D01*
X117116Y89303D01*
X117133Y89231D01*
X117149Y89147D01*
X117160Y89059D01*
X117172Y88964D01*
X117183Y88859D01*
X117194Y88748D01*
X117199Y88626D01*
Y88498D01*
Y88492D01*
Y88465D01*
Y88426D01*
Y88376D01*
X117194Y88315D01*
Y88243D01*
X117188Y88160D01*
X117177Y88076D01*
X117160Y87888D01*
X117133Y87688D01*
X117094Y87499D01*
X117066Y87405D01*
X117038Y87321D01*
Y87316D01*
X117033Y87305D01*
X117022Y87283D01*
X117011Y87249D01*
X116994Y87216D01*
X116972Y87172D01*
X116916Y87077D01*
X116850Y86972D01*
X116772Y86861D01*
X116672Y86755D01*
X116561Y86661D01*
X116556D01*
X116544Y86650D01*
X116528Y86639D01*
X116506Y86628D01*
X116472Y86611D01*
X116439Y86589D01*
X116395Y86567D01*
X116350Y86550D01*
X116245Y86506D01*
X116117Y86467D01*
X115978Y86444D01*
X115823Y86433D01*
X115779D01*
X115751Y86439D01*
X115712D01*
X115668Y86444D01*
X115562Y86467D01*
X115446Y86494D01*
X115323Y86539D01*
X115201Y86600D01*
X115140Y86639D01*
X115085Y86683D01*
X115079Y86689D01*
X115074Y86694D01*
X115057Y86711D01*
X115040Y86727D01*
X115018Y86755D01*
X114990Y86789D01*
X114935Y86866D01*
X114879Y86966D01*
X114824Y87088D01*
X114779Y87227D01*
X114746Y87388D01*
X115201Y87427D01*
Y87421D01*
X115207Y87410D01*
Y87399D01*
X115212Y87377D01*
X115229Y87316D01*
X115251Y87249D01*
X115279Y87172D01*
X115318Y87094D01*
X115362Y87022D01*
X115418Y86961D01*
X115423Y86955D01*
X115446Y86939D01*
X115484Y86916D01*
X115529Y86894D01*
X115590Y86866D01*
X115662Y86844D01*
X115745Y86827D01*
X115834Y86822D01*
X115873D01*
X115912Y86827D01*
X115962Y86833D01*
X116023Y86844D01*
X116084Y86861D01*
X116150Y86883D01*
X116211Y86916D01*
X116217Y86922D01*
X116239Y86933D01*
X116272Y86955D01*
X116306Y86988D01*
X116350Y87027D01*
X116395Y87072D01*
X116439Y87122D01*
X116483Y87183D01*
X116489Y87188D01*
X116500Y87216D01*
X116522Y87255D01*
X116544Y87305D01*
X116572Y87371D01*
X116600Y87449D01*
X116628Y87538D01*
X116655Y87638D01*
Y87643D01*
X116661Y87649D01*
Y87665D01*
X116667Y87688D01*
X116678Y87743D01*
X116694Y87815D01*
X116705Y87904D01*
X116717Y87998D01*
X116722Y88104D01*
X116728Y88215D01*
Y88221D01*
Y88237D01*
Y88265D01*
Y88309D01*
X116722Y88298D01*
X116700Y88270D01*
X116667Y88232D01*
X116628Y88176D01*
X116572Y88121D01*
X116506Y88060D01*
X116428Y87998D01*
X116339Y87943D01*
X116328Y87937D01*
X116295Y87921D01*
X116245Y87899D01*
X116184Y87876D01*
X116101Y87849D01*
X116012Y87826D01*
X115912Y87810D01*
X115806Y87804D01*
X115762D01*
X115729Y87810D01*
X115684Y87815D01*
X115640Y87821D01*
X115584Y87832D01*
X115529Y87849D01*
X115401Y87888D01*
X115334Y87915D01*
X115268Y87949D01*
X115196Y87987D01*
X115129Y88037D01*
X115063Y88087D01*
X115001Y88148D01*
X114996Y88154D01*
X114985Y88165D01*
X114974Y88182D01*
X114952Y88209D01*
X114924Y88248D01*
X114896Y88287D01*
X114868Y88337D01*
X114841Y88393D01*
X114807Y88454D01*
X114779Y88520D01*
X114752Y88598D01*
X114724Y88676D01*
X114702Y88764D01*
X114691Y88859D01*
X114680Y88953D01*
X114674Y89059D01*
Y89064D01*
Y89086D01*
Y89114D01*
X114680Y89153D01*
X114685Y89203D01*
X114691Y89264D01*
X114702Y89325D01*
X114718Y89397D01*
X114757Y89541D01*
X114785Y89619D01*
X114818Y89702D01*
X114857Y89780D01*
X114907Y89852D01*
X114957Y89930D01*
X115018Y89996D01*
X115024Y90002D01*
X115035Y90013D01*
X115051Y90030D01*
X115079Y90052D01*
X115113Y90080D01*
X115157Y90113D01*
X115201Y90141D01*
X115257Y90180D01*
X115312Y90213D01*
X115379Y90241D01*
X115529Y90302D01*
X115606Y90324D01*
X115695Y90341D01*
X115784Y90352D01*
X115878Y90357D01*
X115917D01*
X115945Y90352D01*
D02*
G37*
G36*
X112826Y90335D02*
X112876D01*
X112993Y90329D01*
X113115Y90313D01*
X113248Y90296D01*
X113370Y90268D01*
X113431Y90252D01*
X113481Y90235D01*
X113486D01*
X113492Y90230D01*
X113525Y90213D01*
X113575Y90191D01*
X113636Y90152D01*
X113703Y90102D01*
X113775Y90035D01*
X113842Y89958D01*
X113908Y89869D01*
Y89863D01*
X113914Y89858D01*
X113936Y89824D01*
X113958Y89769D01*
X113991Y89697D01*
X114019Y89613D01*
X114047Y89514D01*
X114064Y89408D01*
X114069Y89292D01*
Y89286D01*
Y89275D01*
Y89253D01*
X114064Y89225D01*
Y89186D01*
X114058Y89147D01*
X114036Y89053D01*
X114003Y88942D01*
X113958Y88826D01*
X113892Y88709D01*
X113847Y88653D01*
X113803Y88598D01*
X113797Y88592D01*
X113792Y88587D01*
X113775Y88570D01*
X113753Y88554D01*
X113725Y88531D01*
X113692Y88509D01*
X113647Y88481D01*
X113603Y88448D01*
X113548Y88420D01*
X113486Y88393D01*
X113420Y88359D01*
X113348Y88332D01*
X113264Y88309D01*
X113181Y88282D01*
X113087Y88265D01*
X112987Y88248D01*
X112998Y88243D01*
X113020Y88232D01*
X113054Y88209D01*
X113098Y88187D01*
X113198Y88126D01*
X113248Y88087D01*
X113292Y88054D01*
X113303Y88043D01*
X113331Y88015D01*
X113375Y87971D01*
X113431Y87915D01*
X113492Y87837D01*
X113564Y87754D01*
X113636Y87654D01*
X113714Y87543D01*
X114374Y86500D01*
X113742D01*
X113237Y87299D01*
Y87305D01*
X113225Y87316D01*
X113215Y87332D01*
X113198Y87355D01*
X113159Y87416D01*
X113109Y87493D01*
X113048Y87577D01*
X112987Y87665D01*
X112926Y87749D01*
X112870Y87826D01*
X112865Y87832D01*
X112848Y87854D01*
X112820Y87888D01*
X112782Y87926D01*
X112698Y88010D01*
X112654Y88048D01*
X112610Y88082D01*
X112604Y88087D01*
X112593Y88093D01*
X112571Y88104D01*
X112537Y88121D01*
X112504Y88137D01*
X112465Y88154D01*
X112376Y88182D01*
X112371D01*
X112360Y88187D01*
X112338D01*
X112310Y88193D01*
X112271Y88198D01*
X112226D01*
X112165Y88204D01*
X111511D01*
Y86500D01*
X111000D01*
Y90341D01*
X112782D01*
X112826Y90335D01*
D02*
G37*
G36*
X69826Y88835D02*
X69876D01*
X69992Y88829D01*
X70114Y88813D01*
X70248Y88796D01*
X70370Y88768D01*
X70431Y88752D01*
X70481Y88735D01*
X70486D01*
X70492Y88730D01*
X70525Y88713D01*
X70575Y88691D01*
X70636Y88652D01*
X70703Y88602D01*
X70775Y88535D01*
X70842Y88458D01*
X70908Y88369D01*
Y88363D01*
X70914Y88358D01*
X70936Y88324D01*
X70958Y88269D01*
X70991Y88197D01*
X71019Y88113D01*
X71047Y88014D01*
X71064Y87908D01*
X71069Y87792D01*
Y87786D01*
Y87775D01*
Y87753D01*
X71064Y87725D01*
Y87686D01*
X71058Y87647D01*
X71036Y87553D01*
X71003Y87442D01*
X70958Y87326D01*
X70891Y87209D01*
X70847Y87153D01*
X70803Y87098D01*
X70797Y87092D01*
X70792Y87087D01*
X70775Y87070D01*
X70753Y87054D01*
X70725Y87031D01*
X70692Y87009D01*
X70647Y86981D01*
X70603Y86948D01*
X70547Y86920D01*
X70486Y86893D01*
X70420Y86859D01*
X70348Y86831D01*
X70264Y86809D01*
X70181Y86782D01*
X70087Y86765D01*
X69987Y86748D01*
X69998Y86743D01*
X70020Y86732D01*
X70053Y86709D01*
X70098Y86687D01*
X70198Y86626D01*
X70248Y86587D01*
X70292Y86554D01*
X70303Y86543D01*
X70331Y86515D01*
X70375Y86471D01*
X70431Y86415D01*
X70492Y86338D01*
X70564Y86254D01*
X70636Y86154D01*
X70714Y86043D01*
X71374Y85000D01*
X70742D01*
X70237Y85799D01*
Y85805D01*
X70226Y85816D01*
X70214Y85833D01*
X70198Y85855D01*
X70159Y85916D01*
X70109Y85993D01*
X70048Y86077D01*
X69987Y86165D01*
X69926Y86249D01*
X69870Y86326D01*
X69865Y86332D01*
X69848Y86354D01*
X69820Y86387D01*
X69782Y86426D01*
X69698Y86510D01*
X69654Y86549D01*
X69609Y86582D01*
X69604Y86587D01*
X69593Y86593D01*
X69571Y86604D01*
X69537Y86621D01*
X69504Y86637D01*
X69465Y86654D01*
X69376Y86682D01*
X69371D01*
X69360Y86687D01*
X69337D01*
X69310Y86693D01*
X69271Y86698D01*
X69226D01*
X69165Y86704D01*
X68511D01*
Y85000D01*
X68000D01*
Y88841D01*
X69782D01*
X69826Y88835D01*
D02*
G37*
G36*
X73006Y88852D02*
X73050Y88846D01*
X73101Y88841D01*
X73156Y88835D01*
X73211Y88818D01*
X73345Y88785D01*
X73478Y88735D01*
X73544Y88702D01*
X73611Y88663D01*
X73672Y88613D01*
X73733Y88563D01*
X73739Y88558D01*
X73744Y88552D01*
X73761Y88535D01*
X73783Y88513D01*
X73805Y88480D01*
X73833Y88447D01*
X73888Y88363D01*
X73944Y88258D01*
X73994Y88136D01*
X74033Y87997D01*
X74038Y87925D01*
X74044Y87847D01*
Y87842D01*
Y87836D01*
Y87803D01*
X74038Y87753D01*
X74027Y87692D01*
X74011Y87614D01*
X73983Y87536D01*
X73950Y87459D01*
X73900Y87381D01*
X73894Y87370D01*
X73872Y87348D01*
X73839Y87314D01*
X73794Y87270D01*
X73733Y87220D01*
X73661Y87170D01*
X73578Y87120D01*
X73478Y87076D01*
X73483D01*
X73494Y87070D01*
X73511Y87065D01*
X73533Y87054D01*
X73600Y87026D01*
X73678Y86987D01*
X73761Y86931D01*
X73850Y86870D01*
X73933Y86793D01*
X74011Y86704D01*
Y86698D01*
X74016Y86693D01*
X74038Y86659D01*
X74072Y86604D01*
X74105Y86532D01*
X74138Y86443D01*
X74172Y86338D01*
X74194Y86221D01*
X74199Y86093D01*
Y86088D01*
Y86071D01*
Y86043D01*
X74194Y86010D01*
X74188Y85971D01*
X74183Y85921D01*
X74172Y85866D01*
X74155Y85805D01*
X74116Y85677D01*
X74088Y85605D01*
X74050Y85538D01*
X74011Y85466D01*
X73966Y85400D01*
X73911Y85333D01*
X73850Y85266D01*
X73844Y85261D01*
X73833Y85250D01*
X73816Y85233D01*
X73789Y85216D01*
X73750Y85189D01*
X73711Y85161D01*
X73661Y85133D01*
X73606Y85100D01*
X73544Y85067D01*
X73472Y85039D01*
X73395Y85011D01*
X73317Y84983D01*
X73228Y84967D01*
X73134Y84950D01*
X73039Y84939D01*
X72934Y84933D01*
X72878D01*
X72840Y84939D01*
X72790Y84944D01*
X72734Y84950D01*
X72673Y84961D01*
X72606Y84978D01*
X72457Y85017D01*
X72379Y85044D01*
X72307Y85072D01*
X72229Y85111D01*
X72151Y85155D01*
X72079Y85205D01*
X72013Y85266D01*
X72007Y85272D01*
X71996Y85283D01*
X71979Y85300D01*
X71957Y85327D01*
X71935Y85361D01*
X71902Y85400D01*
X71874Y85444D01*
X71841Y85500D01*
X71807Y85555D01*
X71780Y85622D01*
X71724Y85760D01*
X71702Y85844D01*
X71685Y85927D01*
X71674Y86016D01*
X71669Y86104D01*
Y86110D01*
Y86121D01*
Y86143D01*
X71674Y86165D01*
Y86199D01*
X71680Y86238D01*
X71691Y86326D01*
X71713Y86426D01*
X71746Y86526D01*
X71796Y86632D01*
X71857Y86732D01*
Y86737D01*
X71868Y86743D01*
X71890Y86770D01*
X71935Y86815D01*
X71996Y86870D01*
X72074Y86926D01*
X72168Y86987D01*
X72273Y87037D01*
X72401Y87076D01*
X72396D01*
X72390Y87081D01*
X72373Y87087D01*
X72351Y87098D01*
X72301Y87120D01*
X72235Y87153D01*
X72162Y87198D01*
X72090Y87253D01*
X72024Y87314D01*
X71963Y87381D01*
X71957Y87392D01*
X71940Y87414D01*
X71918Y87459D01*
X71896Y87514D01*
X71868Y87586D01*
X71846Y87670D01*
X71829Y87764D01*
X71824Y87864D01*
Y87869D01*
Y87880D01*
Y87903D01*
X71829Y87936D01*
X71835Y87969D01*
X71841Y88014D01*
X71863Y88108D01*
X71896Y88219D01*
X71952Y88336D01*
X71985Y88397D01*
X72024Y88458D01*
X72074Y88513D01*
X72124Y88569D01*
X72129Y88574D01*
X72140Y88580D01*
X72157Y88596D01*
X72179Y88613D01*
X72207Y88635D01*
X72246Y88657D01*
X72290Y88685D01*
X72335Y88713D01*
X72390Y88741D01*
X72451Y88768D01*
X72518Y88791D01*
X72590Y88813D01*
X72745Y88846D01*
X72834Y88852D01*
X72923Y88857D01*
X72973D01*
X73006Y88852D01*
D02*
G37*
G36*
X122079Y81155D02*
X123000D01*
Y80684D01*
X122079D01*
Y79013D01*
X121646D01*
X119159Y80773D01*
Y81155D01*
X121646D01*
Y81677D01*
X122079D01*
Y81155D01*
D02*
G37*
G36*
X123000Y78242D02*
X122201Y77737D01*
X122195D01*
X122184Y77725D01*
X122168Y77714D01*
X122145Y77698D01*
X122084Y77659D01*
X122006Y77609D01*
X121923Y77548D01*
X121835Y77487D01*
X121751Y77426D01*
X121674Y77370D01*
X121668Y77365D01*
X121646Y77348D01*
X121613Y77320D01*
X121574Y77282D01*
X121490Y77198D01*
X121451Y77154D01*
X121418Y77109D01*
X121413Y77104D01*
X121407Y77093D01*
X121396Y77071D01*
X121379Y77037D01*
X121363Y77004D01*
X121346Y76965D01*
X121318Y76876D01*
Y76871D01*
X121313Y76860D01*
Y76837D01*
X121307Y76810D01*
X121302Y76771D01*
Y76727D01*
X121296Y76666D01*
Y76011D01*
X123000D01*
Y75500D01*
X119159D01*
Y77282D01*
X119165Y77326D01*
Y77376D01*
X119170Y77492D01*
X119187Y77614D01*
X119204Y77748D01*
X119231Y77870D01*
X119248Y77931D01*
X119265Y77981D01*
Y77986D01*
X119270Y77992D01*
X119287Y78025D01*
X119309Y78075D01*
X119348Y78136D01*
X119398Y78203D01*
X119465Y78275D01*
X119542Y78342D01*
X119631Y78408D01*
X119637D01*
X119642Y78414D01*
X119676Y78436D01*
X119731Y78458D01*
X119803Y78491D01*
X119886Y78519D01*
X119986Y78547D01*
X120092Y78564D01*
X120208Y78569D01*
X120214D01*
X120225D01*
X120247D01*
X120275Y78564D01*
X120314D01*
X120353Y78558D01*
X120447Y78536D01*
X120558Y78503D01*
X120675Y78458D01*
X120791Y78391D01*
X120847Y78347D01*
X120902Y78303D01*
X120908Y78297D01*
X120913Y78292D01*
X120930Y78275D01*
X120947Y78253D01*
X120969Y78225D01*
X120991Y78192D01*
X121019Y78147D01*
X121052Y78103D01*
X121080Y78048D01*
X121107Y77986D01*
X121141Y77920D01*
X121168Y77848D01*
X121191Y77764D01*
X121219Y77681D01*
X121235Y77587D01*
X121252Y77487D01*
X121257Y77498D01*
X121268Y77520D01*
X121291Y77553D01*
X121313Y77598D01*
X121374Y77698D01*
X121413Y77748D01*
X121446Y77792D01*
X121457Y77803D01*
X121485Y77831D01*
X121529Y77875D01*
X121585Y77931D01*
X121662Y77992D01*
X121746Y78064D01*
X121846Y78136D01*
X121957Y78214D01*
X123000Y78874D01*
Y78242D01*
D02*
G37*
G36*
X127500Y113984D02*
X124497D01*
X124503Y113978D01*
X124525Y113951D01*
X124558Y113917D01*
X124597Y113862D01*
X124647Y113801D01*
X124703Y113723D01*
X124764Y113634D01*
X124825Y113534D01*
Y113529D01*
X124830Y113523D01*
X124853Y113490D01*
X124880Y113434D01*
X124914Y113368D01*
X124952Y113290D01*
X124991Y113207D01*
X125030Y113124D01*
X125064Y113040D01*
X124608D01*
Y113046D01*
X124597Y113057D01*
X124592Y113079D01*
X124575Y113107D01*
X124558Y113140D01*
X124536Y113179D01*
X124481Y113274D01*
X124420Y113384D01*
X124342Y113496D01*
X124253Y113612D01*
X124159Y113729D01*
X124153Y113734D01*
X124148Y113740D01*
X124131Y113756D01*
X124115Y113778D01*
X124059Y113829D01*
X123992Y113895D01*
X123915Y113962D01*
X123826Y114034D01*
X123737Y114095D01*
X123643Y114150D01*
Y114456D01*
X127500D01*
Y113984D01*
D02*
G37*
G36*
X125674Y112169D02*
X125718D01*
X125824Y112163D01*
X125946Y112147D01*
X126074Y112130D01*
X126207Y112102D01*
X126340Y112069D01*
X126346D01*
X126357Y112064D01*
X126373Y112058D01*
X126396Y112053D01*
X126457Y112030D01*
X126534Y111997D01*
X126623Y111964D01*
X126712Y111919D01*
X126806Y111864D01*
X126895Y111808D01*
X126906Y111803D01*
X126934Y111781D01*
X126973Y111747D01*
X127023Y111703D01*
X127078Y111653D01*
X127134Y111592D01*
X127195Y111531D01*
X127245Y111459D01*
X127250Y111448D01*
X127267Y111425D01*
X127289Y111387D01*
X127317Y111331D01*
X127350Y111264D01*
X127378Y111187D01*
X127411Y111098D01*
X127439Y110998D01*
Y110987D01*
X127445Y110970D01*
X127450Y110954D01*
X127456Y110898D01*
X127467Y110820D01*
X127478Y110732D01*
X127489Y110626D01*
X127495Y110510D01*
X127500Y110382D01*
Y109000D01*
X123659D01*
Y110476D01*
X123665Y110576D01*
X123670Y110687D01*
X123682Y110798D01*
X123698Y110909D01*
X123715Y111003D01*
Y111009D01*
X123721Y111020D01*
Y111037D01*
X123732Y111059D01*
X123748Y111120D01*
X123776Y111198D01*
X123815Y111287D01*
X123865Y111381D01*
X123920Y111475D01*
X123992Y111564D01*
X123998Y111570D01*
X124004Y111575D01*
X124020Y111592D01*
X124037Y111614D01*
X124092Y111670D01*
X124170Y111736D01*
X124264Y111808D01*
X124375Y111886D01*
X124503Y111958D01*
X124647Y112019D01*
X124653D01*
X124664Y112025D01*
X124686Y112036D01*
X124720Y112041D01*
X124758Y112058D01*
X124803Y112069D01*
X124853Y112080D01*
X124914Y112097D01*
X124975Y112114D01*
X125047Y112125D01*
X125202Y112152D01*
X125374Y112169D01*
X125563Y112175D01*
X125569D01*
X125580D01*
X125607D01*
X125635D01*
X125674Y112169D01*
D02*
G37*
G36*
X133500Y113113D02*
X133494D01*
X133472D01*
X133439D01*
X133395Y113119D01*
X133345Y113124D01*
X133289Y113135D01*
X133234Y113146D01*
X133173Y113169D01*
X133167D01*
X133161Y113174D01*
X133128Y113185D01*
X133078Y113207D01*
X133012Y113241D01*
X132934Y113285D01*
X132845Y113341D01*
X132756Y113402D01*
X132662Y113479D01*
X132656D01*
X132651Y113490D01*
X132618Y113518D01*
X132568Y113568D01*
X132495Y113640D01*
X132412Y113724D01*
X132312Y113829D01*
X132201Y113957D01*
X132085Y114095D01*
X132079Y114101D01*
X132063Y114123D01*
X132035Y114156D01*
X132001Y114195D01*
X131957Y114245D01*
X131907Y114306D01*
X131852Y114367D01*
X131791Y114439D01*
X131657Y114578D01*
X131524Y114717D01*
X131458Y114784D01*
X131391Y114845D01*
X131330Y114900D01*
X131269Y114945D01*
X131263D01*
X131258Y114956D01*
X131241Y114967D01*
X131219Y114978D01*
X131158Y115017D01*
X131086Y115061D01*
X130997Y115100D01*
X130903Y115139D01*
X130797Y115161D01*
X130697Y115172D01*
X130692D01*
X130686D01*
X130653Y115167D01*
X130597Y115161D01*
X130536Y115144D01*
X130459Y115122D01*
X130381Y115083D01*
X130303Y115033D01*
X130226Y114967D01*
X130214Y114956D01*
X130192Y114928D01*
X130165Y114889D01*
X130126Y114828D01*
X130092Y114750D01*
X130059Y114662D01*
X130037Y114556D01*
X130031Y114439D01*
Y114406D01*
X130037Y114384D01*
X130042Y114317D01*
X130059Y114240D01*
X130081Y114156D01*
X130120Y114062D01*
X130170Y113973D01*
X130237Y113890D01*
X130248Y113879D01*
X130275Y113857D01*
X130320Y113823D01*
X130386Y113790D01*
X130464Y113751D01*
X130564Y113718D01*
X130675Y113696D01*
X130803Y113685D01*
X130753Y113202D01*
X130747D01*
X130730Y113207D01*
X130703D01*
X130664Y113213D01*
X130620Y113224D01*
X130570Y113235D01*
X130508Y113252D01*
X130447Y113268D01*
X130314Y113313D01*
X130181Y113379D01*
X130114Y113418D01*
X130048Y113468D01*
X129987Y113518D01*
X129931Y113574D01*
X129926Y113579D01*
X129920Y113590D01*
X129904Y113607D01*
X129887Y113635D01*
X129865Y113668D01*
X129843Y113707D01*
X129815Y113751D01*
X129787Y113807D01*
X129759Y113868D01*
X129732Y113934D01*
X129709Y114007D01*
X129687Y114084D01*
X129671Y114168D01*
X129654Y114256D01*
X129648Y114351D01*
X129643Y114451D01*
Y114506D01*
X129648Y114545D01*
X129654Y114589D01*
X129659Y114645D01*
X129671Y114706D01*
X129682Y114767D01*
X129720Y114911D01*
X129776Y115056D01*
X129809Y115128D01*
X129848Y115200D01*
X129898Y115267D01*
X129954Y115328D01*
X129959Y115333D01*
X129965Y115344D01*
X129987Y115355D01*
X130009Y115377D01*
X130037Y115405D01*
X130076Y115433D01*
X130114Y115461D01*
X130165Y115494D01*
X130270Y115550D01*
X130403Y115605D01*
X130470Y115627D01*
X130547Y115638D01*
X130625Y115649D01*
X130708Y115655D01*
X130719D01*
X130747D01*
X130792Y115649D01*
X130853Y115644D01*
X130919Y115633D01*
X130997Y115611D01*
X131080Y115588D01*
X131163Y115555D01*
X131175Y115550D01*
X131202Y115538D01*
X131247Y115516D01*
X131308Y115483D01*
X131374Y115438D01*
X131458Y115383D01*
X131541Y115316D01*
X131635Y115239D01*
X131646Y115228D01*
X131680Y115200D01*
X131707Y115172D01*
X131735Y115144D01*
X131768Y115111D01*
X131813Y115067D01*
X131857Y115022D01*
X131907Y114967D01*
X131963Y114911D01*
X132024Y114845D01*
X132085Y114772D01*
X132157Y114695D01*
X132229Y114606D01*
X132307Y114517D01*
X132312Y114512D01*
X132323Y114500D01*
X132340Y114478D01*
X132362Y114451D01*
X132396Y114417D01*
X132429Y114378D01*
X132501Y114290D01*
X132584Y114195D01*
X132668Y114107D01*
X132740Y114029D01*
X132767Y113996D01*
X132795Y113968D01*
X132801Y113962D01*
X132817Y113946D01*
X132840Y113923D01*
X132873Y113896D01*
X132912Y113868D01*
X132950Y113835D01*
X133045Y113768D01*
Y115661D01*
X133500D01*
Y113113D01*
D02*
G37*
G36*
X131674Y112669D02*
X131719D01*
X131824Y112663D01*
X131946Y112647D01*
X132074Y112630D01*
X132207Y112602D01*
X132340Y112569D01*
X132346D01*
X132357Y112564D01*
X132373Y112558D01*
X132396Y112552D01*
X132457Y112530D01*
X132534Y112497D01*
X132623Y112464D01*
X132712Y112419D01*
X132806Y112364D01*
X132895Y112308D01*
X132906Y112303D01*
X132934Y112280D01*
X132973Y112247D01*
X133023Y112203D01*
X133078Y112153D01*
X133134Y112092D01*
X133195Y112031D01*
X133245Y111959D01*
X133250Y111948D01*
X133267Y111925D01*
X133289Y111887D01*
X133317Y111831D01*
X133350Y111764D01*
X133378Y111687D01*
X133411Y111598D01*
X133439Y111498D01*
Y111487D01*
X133444Y111470D01*
X133450Y111454D01*
X133456Y111398D01*
X133467Y111320D01*
X133478Y111232D01*
X133489Y111126D01*
X133494Y111010D01*
X133500Y110882D01*
Y109500D01*
X129659D01*
Y110976D01*
X129665Y111076D01*
X129671Y111187D01*
X129682Y111298D01*
X129698Y111409D01*
X129715Y111504D01*
Y111509D01*
X129720Y111520D01*
Y111537D01*
X129732Y111559D01*
X129748Y111620D01*
X129776Y111698D01*
X129815Y111787D01*
X129865Y111881D01*
X129920Y111975D01*
X129992Y112064D01*
X129998Y112070D01*
X130003Y112075D01*
X130020Y112092D01*
X130037Y112114D01*
X130092Y112170D01*
X130170Y112236D01*
X130264Y112308D01*
X130375Y112386D01*
X130503Y112458D01*
X130647Y112519D01*
X130653D01*
X130664Y112525D01*
X130686Y112536D01*
X130719Y112541D01*
X130758Y112558D01*
X130803Y112569D01*
X130853Y112580D01*
X130914Y112597D01*
X130975Y112614D01*
X131047Y112625D01*
X131202Y112652D01*
X131374Y112669D01*
X131563Y112675D01*
X131569D01*
X131580D01*
X131607D01*
X131635D01*
X131674Y112669D01*
D02*
G37*
G36*
X145087Y92188D02*
X145098Y92177D01*
X145120Y92155D01*
X145153Y92133D01*
X145192Y92099D01*
X145237Y92055D01*
X145292Y92011D01*
X145359Y91961D01*
X145425Y91911D01*
X145503Y91850D01*
X145592Y91789D01*
X145681Y91728D01*
X145781Y91661D01*
X145886Y91594D01*
X146002Y91528D01*
X146119Y91461D01*
X146125Y91456D01*
X146147Y91445D01*
X146180Y91428D01*
X146230Y91400D01*
X146291Y91372D01*
X146358Y91339D01*
X146435Y91300D01*
X146524Y91261D01*
X146624Y91217D01*
X146724Y91167D01*
X146835Y91123D01*
X146951Y91078D01*
X147190Y90989D01*
X147445Y90906D01*
X147451D01*
X147468Y90901D01*
X147495Y90895D01*
X147529Y90884D01*
X147573Y90873D01*
X147629Y90862D01*
X147690Y90845D01*
X147756Y90834D01*
X147834Y90817D01*
X147917Y90801D01*
X148095Y90773D01*
X148289Y90745D01*
X148500Y90729D01*
Y90246D01*
X148495D01*
X148478D01*
X148456D01*
X148422Y90251D01*
X148378D01*
X148322Y90257D01*
X148261Y90262D01*
X148195Y90268D01*
X148117Y90279D01*
X148039Y90290D01*
X147945Y90307D01*
X147851Y90324D01*
X147751Y90340D01*
X147640Y90362D01*
X147412Y90418D01*
X147407D01*
X147384Y90423D01*
X147351Y90434D01*
X147301Y90451D01*
X147246Y90468D01*
X147179Y90490D01*
X147101Y90512D01*
X147018Y90545D01*
X146924Y90579D01*
X146829Y90612D01*
X146619Y90695D01*
X146397Y90795D01*
X146175Y90906D01*
X146169Y90912D01*
X146147Y90923D01*
X146119Y90939D01*
X146075Y90962D01*
X146025Y90989D01*
X145964Y91028D01*
X145897Y91067D01*
X145825Y91111D01*
X145664Y91217D01*
X145498Y91328D01*
X145325Y91456D01*
X145165Y91589D01*
Y89707D01*
X144709D01*
Y92194D01*
X145081D01*
X145087Y92188D01*
D02*
G37*
G36*
X148500Y88742D02*
X147701Y88237D01*
X147695D01*
X147684Y88226D01*
X147668Y88214D01*
X147645Y88198D01*
X147584Y88159D01*
X147506Y88109D01*
X147423Y88048D01*
X147335Y87987D01*
X147251Y87926D01*
X147174Y87870D01*
X147168Y87865D01*
X147146Y87848D01*
X147113Y87820D01*
X147074Y87782D01*
X146990Y87698D01*
X146951Y87654D01*
X146918Y87609D01*
X146913Y87604D01*
X146907Y87593D01*
X146896Y87571D01*
X146879Y87537D01*
X146863Y87504D01*
X146846Y87465D01*
X146818Y87376D01*
Y87371D01*
X146813Y87360D01*
Y87337D01*
X146807Y87310D01*
X146802Y87271D01*
Y87226D01*
X146796Y87165D01*
Y86511D01*
X148500D01*
Y86000D01*
X144659D01*
Y87782D01*
X144665Y87826D01*
Y87876D01*
X144670Y87992D01*
X144687Y88115D01*
X144704Y88248D01*
X144731Y88370D01*
X144748Y88431D01*
X144765Y88481D01*
Y88486D01*
X144770Y88492D01*
X144787Y88525D01*
X144809Y88575D01*
X144848Y88636D01*
X144898Y88703D01*
X144965Y88775D01*
X145042Y88842D01*
X145131Y88908D01*
X145137D01*
X145142Y88914D01*
X145176Y88936D01*
X145231Y88958D01*
X145303Y88991D01*
X145386Y89019D01*
X145486Y89047D01*
X145592Y89064D01*
X145708Y89069D01*
X145714D01*
X145725D01*
X145747D01*
X145775Y89064D01*
X145814D01*
X145853Y89058D01*
X145947Y89036D01*
X146058Y89003D01*
X146175Y88958D01*
X146291Y88892D01*
X146347Y88847D01*
X146402Y88803D01*
X146408Y88797D01*
X146413Y88792D01*
X146430Y88775D01*
X146447Y88753D01*
X146469Y88725D01*
X146491Y88692D01*
X146519Y88647D01*
X146552Y88603D01*
X146580Y88547D01*
X146607Y88486D01*
X146641Y88420D01*
X146669Y88348D01*
X146691Y88264D01*
X146719Y88181D01*
X146735Y88087D01*
X146752Y87987D01*
X146757Y87998D01*
X146768Y88020D01*
X146791Y88054D01*
X146813Y88098D01*
X146874Y88198D01*
X146913Y88248D01*
X146946Y88292D01*
X146957Y88303D01*
X146985Y88331D01*
X147029Y88375D01*
X147085Y88431D01*
X147162Y88492D01*
X147246Y88564D01*
X147346Y88636D01*
X147457Y88714D01*
X148500Y89374D01*
Y88742D01*
D02*
G37*
G36*
X126790Y82216D02*
X126834Y82210D01*
X126884Y82205D01*
X126945Y82194D01*
X127006Y82183D01*
X127151Y82149D01*
X127301Y82094D01*
X127378Y82061D01*
X127451Y82016D01*
X127528Y81972D01*
X127600Y81916D01*
X127606Y81911D01*
X127623Y81900D01*
X127645Y81877D01*
X127673Y81850D01*
X127706Y81811D01*
X127750Y81766D01*
X127789Y81711D01*
X127833Y81650D01*
X127878Y81583D01*
X127917Y81506D01*
X127956Y81422D01*
X127995Y81334D01*
X128022Y81239D01*
X128044Y81134D01*
X128061Y81023D01*
X128067Y80906D01*
Y80856D01*
X128061Y80817D01*
X128056Y80773D01*
X128050Y80723D01*
X128044Y80662D01*
X128028Y80601D01*
X127995Y80462D01*
X127945Y80323D01*
X127911Y80251D01*
X127872Y80179D01*
X127828Y80112D01*
X127778Y80046D01*
X127772Y80040D01*
X127767Y80029D01*
X127745Y80018D01*
X127723Y79996D01*
X127695Y79968D01*
X127661Y79940D01*
X127617Y79907D01*
X127567Y79879D01*
X127517Y79846D01*
X127456Y79813D01*
X127323Y79752D01*
X127167Y79702D01*
X127084Y79685D01*
X126996Y79674D01*
X126957Y80168D01*
X126962D01*
X126973D01*
X126990Y80174D01*
X127018Y80179D01*
X127079Y80196D01*
X127162Y80218D01*
X127245Y80251D01*
X127340Y80296D01*
X127423Y80351D01*
X127500Y80418D01*
X127506Y80429D01*
X127528Y80451D01*
X127556Y80496D01*
X127589Y80557D01*
X127623Y80623D01*
X127650Y80706D01*
X127673Y80801D01*
X127678Y80906D01*
Y80940D01*
X127673Y80962D01*
X127667Y81028D01*
X127645Y81106D01*
X127617Y81200D01*
X127573Y81295D01*
X127506Y81395D01*
X127467Y81439D01*
X127423Y81483D01*
X127417Y81489D01*
X127412Y81494D01*
X127395Y81506D01*
X127378Y81522D01*
X127317Y81561D01*
X127240Y81605D01*
X127145Y81644D01*
X127029Y81683D01*
X126890Y81711D01*
X126818Y81722D01*
X126740D01*
X126735D01*
X126724D01*
X126701D01*
X126674Y81717D01*
X126640D01*
X126601Y81711D01*
X126513Y81694D01*
X126407Y81666D01*
X126302Y81628D01*
X126202Y81572D01*
X126107Y81494D01*
X126102D01*
X126096Y81483D01*
X126069Y81456D01*
X126030Y81406D01*
X125985Y81339D01*
X125946Y81250D01*
X125908Y81150D01*
X125880Y81034D01*
X125869Y80967D01*
Y80862D01*
X125874Y80817D01*
X125880Y80762D01*
X125897Y80695D01*
X125913Y80629D01*
X125941Y80557D01*
X125974Y80484D01*
X125980Y80479D01*
X125991Y80457D01*
X126019Y80423D01*
X126046Y80379D01*
X126085Y80335D01*
X126135Y80290D01*
X126185Y80240D01*
X126246Y80201D01*
X126185Y79757D01*
X124209Y80129D01*
Y82038D01*
X124659D01*
Y80501D01*
X125697Y80296D01*
X125691Y80301D01*
X125686Y80312D01*
X125674Y80329D01*
X125658Y80357D01*
X125641Y80390D01*
X125619Y80429D01*
X125575Y80518D01*
X125530Y80629D01*
X125491Y80751D01*
X125464Y80884D01*
X125452Y80951D01*
Y81073D01*
X125458Y81106D01*
X125464Y81150D01*
X125469Y81200D01*
X125480Y81256D01*
X125497Y81317D01*
X125536Y81450D01*
X125564Y81522D01*
X125602Y81594D01*
X125641Y81666D01*
X125686Y81739D01*
X125741Y81805D01*
X125802Y81872D01*
X125808Y81877D01*
X125819Y81889D01*
X125836Y81905D01*
X125863Y81927D01*
X125902Y81955D01*
X125941Y81983D01*
X125991Y82016D01*
X126046Y82050D01*
X126107Y82077D01*
X126174Y82111D01*
X126252Y82138D01*
X126329Y82166D01*
X126413Y82188D01*
X126507Y82205D01*
X126601Y82216D01*
X126701Y82222D01*
X126707D01*
X126724D01*
X126751D01*
X126790Y82216D01*
D02*
G37*
G36*
X128000Y78742D02*
X127201Y78237D01*
X127195D01*
X127184Y78225D01*
X127167Y78214D01*
X127145Y78198D01*
X127084Y78159D01*
X127006Y78109D01*
X126923Y78048D01*
X126834Y77987D01*
X126751Y77926D01*
X126674Y77870D01*
X126668Y77865D01*
X126646Y77848D01*
X126612Y77820D01*
X126574Y77782D01*
X126490Y77698D01*
X126452Y77654D01*
X126418Y77609D01*
X126413Y77604D01*
X126407Y77593D01*
X126396Y77571D01*
X126379Y77537D01*
X126363Y77504D01*
X126346Y77465D01*
X126318Y77376D01*
Y77371D01*
X126313Y77360D01*
Y77337D01*
X126307Y77310D01*
X126302Y77271D01*
Y77227D01*
X126296Y77166D01*
Y76511D01*
X128000D01*
Y76000D01*
X124159D01*
Y77782D01*
X124165Y77826D01*
Y77876D01*
X124170Y77992D01*
X124187Y78114D01*
X124204Y78248D01*
X124232Y78370D01*
X124248Y78431D01*
X124265Y78481D01*
Y78486D01*
X124270Y78492D01*
X124287Y78525D01*
X124309Y78575D01*
X124348Y78636D01*
X124398Y78703D01*
X124465Y78775D01*
X124542Y78842D01*
X124631Y78908D01*
X124637D01*
X124642Y78914D01*
X124676Y78936D01*
X124731Y78958D01*
X124803Y78991D01*
X124886Y79019D01*
X124986Y79047D01*
X125092Y79064D01*
X125208Y79069D01*
X125214D01*
X125225D01*
X125247D01*
X125275Y79064D01*
X125314D01*
X125353Y79058D01*
X125447Y79036D01*
X125558Y79002D01*
X125674Y78958D01*
X125791Y78891D01*
X125847Y78847D01*
X125902Y78803D01*
X125908Y78797D01*
X125913Y78792D01*
X125930Y78775D01*
X125946Y78753D01*
X125969Y78725D01*
X125991Y78692D01*
X126019Y78647D01*
X126052Y78603D01*
X126080Y78548D01*
X126107Y78486D01*
X126141Y78420D01*
X126169Y78348D01*
X126191Y78264D01*
X126218Y78181D01*
X126235Y78087D01*
X126252Y77987D01*
X126257Y77998D01*
X126268Y78020D01*
X126291Y78053D01*
X126313Y78098D01*
X126374Y78198D01*
X126413Y78248D01*
X126446Y78292D01*
X126457Y78303D01*
X126485Y78331D01*
X126529Y78375D01*
X126585Y78431D01*
X126662Y78492D01*
X126746Y78564D01*
X126846Y78636D01*
X126957Y78714D01*
X128000Y79374D01*
Y78742D01*
D02*
G37*
G36*
X127000Y66942D02*
X123997D01*
X124003Y66936D01*
X124025Y66909D01*
X124058Y66875D01*
X124097Y66820D01*
X124147Y66759D01*
X124203Y66681D01*
X124264Y66592D01*
X124325Y66492D01*
Y66487D01*
X124330Y66481D01*
X124353Y66448D01*
X124380Y66393D01*
X124414Y66326D01*
X124452Y66248D01*
X124491Y66165D01*
X124530Y66082D01*
X124564Y65999D01*
X124108D01*
Y66004D01*
X124097Y66015D01*
X124092Y66037D01*
X124075Y66065D01*
X124058Y66098D01*
X124036Y66137D01*
X123981Y66232D01*
X123920Y66343D01*
X123842Y66454D01*
X123753Y66570D01*
X123659Y66687D01*
X123653Y66692D01*
X123648Y66698D01*
X123631Y66715D01*
X123615Y66737D01*
X123559Y66787D01*
X123492Y66853D01*
X123415Y66920D01*
X123326Y66992D01*
X123237Y67053D01*
X123143Y67109D01*
Y67414D01*
X127000D01*
Y66942D01*
D02*
G37*
G36*
Y64705D02*
X126201Y64200D01*
X126195D01*
X126184Y64189D01*
X126168Y64178D01*
X126145Y64161D01*
X126084Y64123D01*
X126006Y64073D01*
X125923Y64012D01*
X125835Y63951D01*
X125751Y63889D01*
X125674Y63834D01*
X125668Y63828D01*
X125646Y63812D01*
X125612Y63784D01*
X125574Y63745D01*
X125490Y63662D01*
X125452Y63618D01*
X125418Y63573D01*
X125413Y63568D01*
X125407Y63557D01*
X125396Y63534D01*
X125379Y63501D01*
X125363Y63468D01*
X125346Y63429D01*
X125318Y63340D01*
Y63335D01*
X125313Y63323D01*
Y63301D01*
X125307Y63274D01*
X125302Y63235D01*
Y63190D01*
X125296Y63129D01*
Y62474D01*
X127000D01*
Y61964D01*
X123159D01*
Y63745D01*
X123165Y63790D01*
Y63840D01*
X123170Y63956D01*
X123187Y64078D01*
X123204Y64211D01*
X123231Y64334D01*
X123248Y64395D01*
X123265Y64445D01*
Y64450D01*
X123270Y64456D01*
X123287Y64489D01*
X123309Y64539D01*
X123348Y64600D01*
X123398Y64666D01*
X123465Y64739D01*
X123542Y64805D01*
X123631Y64872D01*
X123637D01*
X123642Y64877D01*
X123676Y64900D01*
X123731Y64922D01*
X123803Y64955D01*
X123886Y64983D01*
X123986Y65011D01*
X124092Y65027D01*
X124208Y65033D01*
X124214D01*
X124225D01*
X124247D01*
X124275Y65027D01*
X124314D01*
X124353Y65022D01*
X124447Y65000D01*
X124558Y64966D01*
X124674Y64922D01*
X124791Y64855D01*
X124847Y64811D01*
X124902Y64766D01*
X124908Y64761D01*
X124913Y64755D01*
X124930Y64739D01*
X124946Y64717D01*
X124969Y64689D01*
X124991Y64655D01*
X125019Y64611D01*
X125052Y64567D01*
X125080Y64511D01*
X125107Y64450D01*
X125141Y64384D01*
X125169Y64311D01*
X125191Y64228D01*
X125218Y64145D01*
X125235Y64051D01*
X125252Y63951D01*
X125257Y63962D01*
X125268Y63984D01*
X125291Y64017D01*
X125313Y64062D01*
X125374Y64161D01*
X125413Y64211D01*
X125446Y64256D01*
X125457Y64267D01*
X125485Y64295D01*
X125529Y64339D01*
X125585Y64395D01*
X125662Y64456D01*
X125746Y64528D01*
X125846Y64600D01*
X125957Y64678D01*
X127000Y65338D01*
Y64705D01*
D02*
G37*
G36*
X125901Y61120D02*
X125945D01*
X126051Y61109D01*
X126173Y61098D01*
X126301Y61076D01*
X126417Y61042D01*
X126528Y61004D01*
X126534D01*
X126539Y60998D01*
X126573Y60981D01*
X126617Y60954D01*
X126678Y60915D01*
X126739Y60859D01*
X126806Y60798D01*
X126872Y60720D01*
X126928Y60632D01*
X126933Y60621D01*
X126950Y60587D01*
X126972Y60537D01*
X126995Y60465D01*
X127022Y60376D01*
X127044Y60277D01*
X127061Y60166D01*
X127067Y60043D01*
Y59993D01*
X127061Y59960D01*
X127056Y59916D01*
X127050Y59871D01*
X127028Y59755D01*
X126995Y59633D01*
X126944Y59505D01*
X126911Y59439D01*
X126872Y59377D01*
X126828Y59322D01*
X126778Y59266D01*
X126772Y59261D01*
X126767Y59255D01*
X126745Y59244D01*
X126723Y59228D01*
X126695Y59205D01*
X126656Y59183D01*
X126611Y59161D01*
X126562Y59133D01*
X126506Y59111D01*
X126439Y59089D01*
X126373Y59067D01*
X126295Y59044D01*
X126212Y59033D01*
X126118Y59017D01*
X126023Y59011D01*
X125918D01*
X125851Y59472D01*
X125857D01*
X125868D01*
X125890D01*
X125923Y59477D01*
X125957Y59483D01*
X125996D01*
X126090Y59500D01*
X126190Y59516D01*
X126290Y59549D01*
X126378Y59583D01*
X126417Y59605D01*
X126451Y59633D01*
X126456Y59638D01*
X126473Y59661D01*
X126500Y59694D01*
X126528Y59738D01*
X126562Y59799D01*
X126584Y59866D01*
X126606Y59949D01*
X126611Y60038D01*
Y60071D01*
X126606Y60104D01*
X126600Y60154D01*
X126589Y60204D01*
X126578Y60260D01*
X126556Y60315D01*
X126528Y60371D01*
X126523Y60376D01*
X126512Y60393D01*
X126489Y60415D01*
X126467Y60449D01*
X126428Y60476D01*
X126390Y60510D01*
X126345Y60537D01*
X126290Y60560D01*
X126284D01*
X126262Y60571D01*
X126223Y60576D01*
X126173Y60587D01*
X126106Y60598D01*
X126023Y60604D01*
X125923Y60615D01*
X125807D01*
X123159D01*
Y61126D01*
X125779D01*
X125785D01*
X125801D01*
X125823D01*
X125857D01*
X125901Y61120D01*
D02*
G37*
G36*
X88404Y76402D02*
X88454Y76396D01*
X88515Y76390D01*
X88576Y76385D01*
X88648Y76368D01*
X88798Y76335D01*
X88964Y76285D01*
X89047Y76252D01*
X89125Y76213D01*
X89203Y76163D01*
X89281Y76113D01*
X89286Y76108D01*
X89297Y76102D01*
X89319Y76085D01*
X89347Y76058D01*
X89375Y76030D01*
X89414Y75991D01*
X89453Y75947D01*
X89497Y75902D01*
X89541Y75847D01*
X89586Y75780D01*
X89636Y75713D01*
X89680Y75641D01*
X89719Y75558D01*
X89763Y75475D01*
X89797Y75386D01*
X89830Y75286D01*
X89331Y75170D01*
Y75175D01*
X89325Y75186D01*
X89314Y75208D01*
X89303Y75236D01*
X89292Y75269D01*
X89275Y75314D01*
X89231Y75403D01*
X89175Y75503D01*
X89109Y75602D01*
X89025Y75697D01*
X88937Y75780D01*
X88925Y75791D01*
X88892Y75813D01*
X88836Y75841D01*
X88764Y75880D01*
X88670Y75913D01*
X88565Y75947D01*
X88437Y75969D01*
X88298Y75974D01*
X88254D01*
X88226Y75969D01*
X88187D01*
X88143Y75963D01*
X88037Y75947D01*
X87921Y75924D01*
X87799Y75885D01*
X87671Y75830D01*
X87555Y75758D01*
X87549D01*
X87543Y75747D01*
X87505Y75719D01*
X87455Y75675D01*
X87394Y75608D01*
X87321Y75525D01*
X87255Y75430D01*
X87194Y75314D01*
X87138Y75186D01*
Y75181D01*
X87133Y75170D01*
X87127Y75153D01*
X87122Y75125D01*
X87111Y75092D01*
X87099Y75053D01*
X87083Y74959D01*
X87061Y74848D01*
X87038Y74726D01*
X87027Y74592D01*
X87022Y74448D01*
Y74442D01*
Y74426D01*
Y74398D01*
Y74365D01*
X87027Y74326D01*
Y74276D01*
X87033Y74221D01*
X87038Y74159D01*
X87055Y74026D01*
X87083Y73882D01*
X87116Y73738D01*
X87160Y73593D01*
Y73588D01*
X87166Y73577D01*
X87177Y73560D01*
X87188Y73532D01*
X87221Y73466D01*
X87271Y73388D01*
X87332Y73299D01*
X87410Y73205D01*
X87499Y73122D01*
X87604Y73044D01*
X87610D01*
X87621Y73038D01*
X87638Y73027D01*
X87660Y73016D01*
X87688Y73005D01*
X87721Y72988D01*
X87799Y72955D01*
X87899Y72922D01*
X88010Y72894D01*
X88132Y72872D01*
X88259Y72866D01*
X88298D01*
X88332Y72872D01*
X88370D01*
X88409Y72877D01*
X88509Y72900D01*
X88626Y72927D01*
X88742Y72972D01*
X88864Y73033D01*
X88925Y73066D01*
X88981Y73111D01*
X88986Y73116D01*
X88992Y73122D01*
X89009Y73138D01*
X89031Y73155D01*
X89053Y73183D01*
X89081Y73216D01*
X89114Y73249D01*
X89142Y73294D01*
X89175Y73344D01*
X89214Y73399D01*
X89247Y73455D01*
X89281Y73521D01*
X89308Y73593D01*
X89336Y73671D01*
X89364Y73754D01*
X89386Y73843D01*
X89897Y73715D01*
Y73710D01*
X89891Y73688D01*
X89880Y73654D01*
X89863Y73610D01*
X89847Y73560D01*
X89824Y73499D01*
X89797Y73432D01*
X89763Y73360D01*
X89686Y73205D01*
X89586Y73049D01*
X89525Y72972D01*
X89464Y72894D01*
X89397Y72827D01*
X89319Y72761D01*
X89314Y72755D01*
X89303Y72744D01*
X89275Y72733D01*
X89247Y72711D01*
X89203Y72683D01*
X89158Y72655D01*
X89097Y72628D01*
X89036Y72600D01*
X88964Y72567D01*
X88886Y72539D01*
X88803Y72511D01*
X88714Y72483D01*
X88620Y72461D01*
X88520Y72450D01*
X88415Y72439D01*
X88304Y72433D01*
X88243D01*
X88198Y72439D01*
X88148D01*
X88087Y72444D01*
X88021Y72456D01*
X87943Y72467D01*
X87782Y72494D01*
X87616Y72539D01*
X87449Y72600D01*
X87371Y72639D01*
X87294Y72683D01*
X87288Y72689D01*
X87277Y72694D01*
X87255Y72711D01*
X87233Y72733D01*
X87199Y72755D01*
X87160Y72789D01*
X87116Y72827D01*
X87072Y72872D01*
X87027Y72922D01*
X86977Y72972D01*
X86877Y73099D01*
X86783Y73249D01*
X86700Y73416D01*
Y73421D01*
X86689Y73438D01*
X86683Y73466D01*
X86667Y73499D01*
X86655Y73543D01*
X86639Y73599D01*
X86616Y73660D01*
X86600Y73726D01*
X86583Y73799D01*
X86561Y73882D01*
X86533Y74054D01*
X86511Y74248D01*
X86500Y74448D01*
Y74454D01*
Y74476D01*
Y74509D01*
X86506Y74548D01*
Y74603D01*
X86511Y74659D01*
X86517Y74731D01*
X86528Y74803D01*
X86555Y74964D01*
X86594Y75142D01*
X86650Y75319D01*
X86727Y75491D01*
X86733Y75497D01*
X86739Y75514D01*
X86750Y75536D01*
X86772Y75564D01*
X86794Y75602D01*
X86822Y75647D01*
X86894Y75747D01*
X86988Y75858D01*
X87099Y75969D01*
X87227Y76080D01*
X87377Y76174D01*
X87382Y76180D01*
X87399Y76185D01*
X87421Y76196D01*
X87449Y76213D01*
X87493Y76230D01*
X87538Y76246D01*
X87593Y76268D01*
X87654Y76291D01*
X87721Y76313D01*
X87793Y76335D01*
X87949Y76368D01*
X88126Y76396D01*
X88309Y76407D01*
X88365D01*
X88404Y76402D01*
D02*
G37*
G36*
X92106Y72500D02*
X91634D01*
Y75503D01*
X91628Y75497D01*
X91601Y75475D01*
X91567Y75441D01*
X91512Y75403D01*
X91451Y75353D01*
X91373Y75297D01*
X91284Y75236D01*
X91184Y75175D01*
X91179D01*
X91173Y75170D01*
X91140Y75147D01*
X91084Y75120D01*
X91018Y75086D01*
X90940Y75047D01*
X90857Y75009D01*
X90773Y74970D01*
X90690Y74936D01*
Y75392D01*
X90696D01*
X90707Y75403D01*
X90729Y75408D01*
X90757Y75425D01*
X90790Y75441D01*
X90829Y75464D01*
X90923Y75519D01*
X91034Y75580D01*
X91145Y75658D01*
X91262Y75747D01*
X91378Y75841D01*
X91384Y75847D01*
X91390Y75852D01*
X91406Y75869D01*
X91428Y75885D01*
X91478Y75941D01*
X91545Y76008D01*
X91611Y76085D01*
X91684Y76174D01*
X91745Y76263D01*
X91800Y76357D01*
X92106D01*
Y72500D01*
D02*
G37*
G36*
X97404Y76402D02*
X97454Y76396D01*
X97515Y76390D01*
X97576Y76385D01*
X97648Y76368D01*
X97798Y76335D01*
X97964Y76285D01*
X98048Y76252D01*
X98125Y76213D01*
X98203Y76163D01*
X98281Y76113D01*
X98286Y76108D01*
X98297Y76102D01*
X98319Y76085D01*
X98347Y76058D01*
X98375Y76030D01*
X98414Y75991D01*
X98453Y75947D01*
X98497Y75902D01*
X98541Y75847D01*
X98586Y75780D01*
X98636Y75713D01*
X98680Y75641D01*
X98719Y75558D01*
X98763Y75475D01*
X98797Y75386D01*
X98830Y75286D01*
X98330Y75170D01*
Y75175D01*
X98325Y75186D01*
X98314Y75208D01*
X98303Y75236D01*
X98292Y75269D01*
X98275Y75314D01*
X98231Y75403D01*
X98175Y75503D01*
X98109Y75602D01*
X98025Y75697D01*
X97936Y75780D01*
X97925Y75791D01*
X97892Y75813D01*
X97837Y75841D01*
X97764Y75880D01*
X97670Y75913D01*
X97565Y75947D01*
X97437Y75969D01*
X97298Y75974D01*
X97254D01*
X97226Y75969D01*
X97187D01*
X97143Y75963D01*
X97037Y75947D01*
X96921Y75924D01*
X96799Y75885D01*
X96671Y75830D01*
X96554Y75758D01*
X96549D01*
X96543Y75747D01*
X96504Y75719D01*
X96455Y75675D01*
X96394Y75608D01*
X96321Y75525D01*
X96255Y75430D01*
X96194Y75314D01*
X96138Y75186D01*
Y75181D01*
X96133Y75170D01*
X96127Y75153D01*
X96122Y75125D01*
X96110Y75092D01*
X96099Y75053D01*
X96083Y74959D01*
X96061Y74848D01*
X96038Y74726D01*
X96027Y74592D01*
X96022Y74448D01*
Y74442D01*
Y74426D01*
Y74398D01*
Y74365D01*
X96027Y74326D01*
Y74276D01*
X96033Y74221D01*
X96038Y74159D01*
X96055Y74026D01*
X96083Y73882D01*
X96116Y73738D01*
X96161Y73593D01*
Y73588D01*
X96166Y73577D01*
X96177Y73560D01*
X96188Y73532D01*
X96222Y73466D01*
X96272Y73388D01*
X96333Y73299D01*
X96410Y73205D01*
X96499Y73122D01*
X96604Y73044D01*
X96610D01*
X96621Y73038D01*
X96638Y73027D01*
X96660Y73016D01*
X96688Y73005D01*
X96721Y72988D01*
X96799Y72955D01*
X96899Y72922D01*
X97010Y72894D01*
X97132Y72872D01*
X97259Y72866D01*
X97298D01*
X97332Y72872D01*
X97370D01*
X97409Y72877D01*
X97509Y72900D01*
X97626Y72927D01*
X97742Y72972D01*
X97864Y73033D01*
X97925Y73066D01*
X97981Y73111D01*
X97986Y73116D01*
X97992Y73122D01*
X98009Y73138D01*
X98031Y73155D01*
X98053Y73183D01*
X98081Y73216D01*
X98114Y73249D01*
X98142Y73294D01*
X98175Y73344D01*
X98214Y73399D01*
X98247Y73455D01*
X98281Y73521D01*
X98308Y73593D01*
X98336Y73671D01*
X98364Y73754D01*
X98386Y73843D01*
X98897Y73715D01*
Y73710D01*
X98891Y73688D01*
X98880Y73654D01*
X98863Y73610D01*
X98847Y73560D01*
X98825Y73499D01*
X98797Y73432D01*
X98763Y73360D01*
X98686Y73205D01*
X98586Y73049D01*
X98525Y72972D01*
X98464Y72894D01*
X98397Y72827D01*
X98319Y72761D01*
X98314Y72755D01*
X98303Y72744D01*
X98275Y72733D01*
X98247Y72711D01*
X98203Y72683D01*
X98159Y72655D01*
X98097Y72628D01*
X98036Y72600D01*
X97964Y72567D01*
X97887Y72539D01*
X97803Y72511D01*
X97714Y72483D01*
X97620Y72461D01*
X97520Y72450D01*
X97415Y72439D01*
X97304Y72433D01*
X97243D01*
X97198Y72439D01*
X97148D01*
X97087Y72444D01*
X97021Y72456D01*
X96943Y72467D01*
X96782Y72494D01*
X96615Y72539D01*
X96449Y72600D01*
X96371Y72639D01*
X96294Y72683D01*
X96288Y72689D01*
X96277Y72694D01*
X96255Y72711D01*
X96233Y72733D01*
X96199Y72755D01*
X96161Y72789D01*
X96116Y72827D01*
X96072Y72872D01*
X96027Y72922D01*
X95977Y72972D01*
X95877Y73099D01*
X95783Y73249D01*
X95700Y73416D01*
Y73421D01*
X95689Y73438D01*
X95683Y73466D01*
X95666Y73499D01*
X95655Y73543D01*
X95639Y73599D01*
X95617Y73660D01*
X95600Y73726D01*
X95583Y73799D01*
X95561Y73882D01*
X95533Y74054D01*
X95511Y74248D01*
X95500Y74448D01*
Y74454D01*
Y74476D01*
Y74509D01*
X95506Y74548D01*
Y74603D01*
X95511Y74659D01*
X95517Y74731D01*
X95528Y74803D01*
X95556Y74964D01*
X95594Y75142D01*
X95650Y75319D01*
X95727Y75491D01*
X95733Y75497D01*
X95739Y75514D01*
X95750Y75536D01*
X95772Y75564D01*
X95794Y75602D01*
X95822Y75647D01*
X95894Y75747D01*
X95988Y75858D01*
X96099Y75969D01*
X96227Y76080D01*
X96377Y76174D01*
X96382Y76180D01*
X96399Y76185D01*
X96421Y76196D01*
X96449Y76213D01*
X96493Y76230D01*
X96538Y76246D01*
X96593Y76268D01*
X96654Y76291D01*
X96721Y76313D01*
X96793Y76335D01*
X96949Y76368D01*
X97126Y76396D01*
X97309Y76407D01*
X97365D01*
X97404Y76402D01*
D02*
G37*
G36*
X100695Y76352D02*
X100739Y76346D01*
X100795Y76341D01*
X100856Y76329D01*
X100917Y76318D01*
X101061Y76279D01*
X101205Y76224D01*
X101277Y76191D01*
X101350Y76152D01*
X101416Y76102D01*
X101477Y76047D01*
X101483Y76041D01*
X101494Y76035D01*
X101505Y76013D01*
X101527Y75991D01*
X101555Y75963D01*
X101583Y75924D01*
X101611Y75885D01*
X101644Y75836D01*
X101699Y75730D01*
X101755Y75597D01*
X101777Y75530D01*
X101788Y75453D01*
X101799Y75375D01*
X101805Y75292D01*
Y75281D01*
Y75253D01*
X101799Y75208D01*
X101794Y75147D01*
X101783Y75081D01*
X101760Y75003D01*
X101738Y74920D01*
X101705Y74836D01*
X101699Y74826D01*
X101688Y74798D01*
X101666Y74753D01*
X101633Y74692D01*
X101588Y74626D01*
X101533Y74542D01*
X101466Y74459D01*
X101389Y74365D01*
X101377Y74354D01*
X101350Y74320D01*
X101322Y74293D01*
X101294Y74265D01*
X101261Y74232D01*
X101216Y74187D01*
X101172Y74143D01*
X101117Y74093D01*
X101061Y74037D01*
X100995Y73976D01*
X100922Y73915D01*
X100845Y73843D01*
X100756Y73771D01*
X100667Y73693D01*
X100662Y73688D01*
X100650Y73677D01*
X100628Y73660D01*
X100601Y73638D01*
X100567Y73604D01*
X100528Y73571D01*
X100440Y73499D01*
X100345Y73416D01*
X100256Y73333D01*
X100179Y73260D01*
X100145Y73233D01*
X100118Y73205D01*
X100112Y73199D01*
X100095Y73183D01*
X100073Y73160D01*
X100046Y73127D01*
X100018Y73088D01*
X99984Y73049D01*
X99918Y72955D01*
X101810D01*
Y72500D01*
X99263D01*
Y72506D01*
Y72528D01*
Y72561D01*
X99268Y72605D01*
X99274Y72655D01*
X99285Y72711D01*
X99296Y72766D01*
X99318Y72827D01*
Y72833D01*
X99324Y72838D01*
X99335Y72872D01*
X99357Y72922D01*
X99391Y72988D01*
X99435Y73066D01*
X99490Y73155D01*
X99551Y73244D01*
X99629Y73338D01*
Y73344D01*
X99640Y73349D01*
X99668Y73382D01*
X99718Y73432D01*
X99790Y73505D01*
X99873Y73588D01*
X99979Y73688D01*
X100107Y73799D01*
X100245Y73915D01*
X100251Y73921D01*
X100273Y73937D01*
X100306Y73965D01*
X100345Y73998D01*
X100395Y74043D01*
X100456Y74093D01*
X100517Y74148D01*
X100589Y74209D01*
X100728Y74343D01*
X100867Y74476D01*
X100934Y74542D01*
X100995Y74609D01*
X101050Y74670D01*
X101094Y74731D01*
Y74737D01*
X101105Y74742D01*
X101117Y74759D01*
X101128Y74781D01*
X101166Y74842D01*
X101211Y74914D01*
X101250Y75003D01*
X101289Y75097D01*
X101311Y75203D01*
X101322Y75303D01*
Y75308D01*
Y75314D01*
X101316Y75347D01*
X101311Y75403D01*
X101294Y75464D01*
X101272Y75541D01*
X101233Y75619D01*
X101183Y75697D01*
X101117Y75775D01*
X101105Y75786D01*
X101078Y75808D01*
X101039Y75836D01*
X100978Y75874D01*
X100900Y75908D01*
X100811Y75941D01*
X100706Y75963D01*
X100589Y75969D01*
X100556D01*
X100534Y75963D01*
X100467Y75958D01*
X100390Y75941D01*
X100306Y75919D01*
X100212Y75880D01*
X100123Y75830D01*
X100040Y75763D01*
X100029Y75752D01*
X100007Y75725D01*
X99973Y75680D01*
X99940Y75613D01*
X99901Y75536D01*
X99868Y75436D01*
X99846Y75325D01*
X99835Y75197D01*
X99352Y75247D01*
Y75253D01*
X99357Y75269D01*
Y75297D01*
X99363Y75336D01*
X99374Y75380D01*
X99385Y75430D01*
X99402Y75491D01*
X99418Y75552D01*
X99463Y75686D01*
X99529Y75819D01*
X99568Y75885D01*
X99618Y75952D01*
X99668Y76013D01*
X99724Y76069D01*
X99729Y76074D01*
X99740Y76080D01*
X99757Y76096D01*
X99785Y76113D01*
X99818Y76135D01*
X99857Y76157D01*
X99901Y76185D01*
X99957Y76213D01*
X100018Y76241D01*
X100084Y76268D01*
X100156Y76291D01*
X100234Y76313D01*
X100317Y76329D01*
X100406Y76346D01*
X100501Y76352D01*
X100601Y76357D01*
X100656D01*
X100695Y76352D01*
D02*
G37*
G36*
X80995Y72852D02*
X81067Y72841D01*
X81156Y72824D01*
X81256Y72796D01*
X81356Y72763D01*
X81456Y72719D01*
X81461D01*
X81467Y72713D01*
X81500Y72696D01*
X81550Y72663D01*
X81605Y72624D01*
X81672Y72569D01*
X81739Y72508D01*
X81805Y72435D01*
X81861Y72352D01*
X81866Y72341D01*
X81883Y72313D01*
X81905Y72263D01*
X81933Y72202D01*
X81961Y72130D01*
X81983Y72047D01*
X81999Y71953D01*
X82005Y71858D01*
Y71847D01*
Y71814D01*
X81999Y71769D01*
X81989Y71708D01*
X81972Y71636D01*
X81944Y71559D01*
X81911Y71481D01*
X81866Y71403D01*
X81861Y71392D01*
X81844Y71370D01*
X81811Y71331D01*
X81766Y71287D01*
X81711Y71237D01*
X81644Y71181D01*
X81567Y71131D01*
X81472Y71081D01*
X81478D01*
X81489Y71076D01*
X81506Y71070D01*
X81528Y71065D01*
X81589Y71042D01*
X81666Y71009D01*
X81755Y70965D01*
X81844Y70909D01*
X81927Y70837D01*
X82005Y70754D01*
X82011Y70743D01*
X82033Y70709D01*
X82066Y70654D01*
X82099Y70582D01*
X82133Y70493D01*
X82166Y70388D01*
X82188Y70265D01*
X82194Y70132D01*
Y70127D01*
Y70110D01*
Y70082D01*
X82188Y70049D01*
X82183Y70004D01*
X82172Y69955D01*
X82161Y69899D01*
X82149Y69838D01*
X82105Y69705D01*
X82072Y69633D01*
X82038Y69566D01*
X81994Y69494D01*
X81944Y69422D01*
X81889Y69350D01*
X81822Y69283D01*
X81816Y69278D01*
X81805Y69266D01*
X81783Y69250D01*
X81755Y69227D01*
X81722Y69200D01*
X81678Y69172D01*
X81628Y69139D01*
X81567Y69111D01*
X81506Y69078D01*
X81433Y69044D01*
X81361Y69017D01*
X81278Y68989D01*
X81189Y68967D01*
X81095Y68950D01*
X81001Y68939D01*
X80895Y68933D01*
X80845D01*
X80812Y68939D01*
X80767Y68945D01*
X80717Y68950D01*
X80662Y68961D01*
X80601Y68972D01*
X80468Y69006D01*
X80329Y69061D01*
X80257Y69094D01*
X80190Y69133D01*
X80124Y69183D01*
X80057Y69233D01*
X80051Y69239D01*
X80040Y69250D01*
X80024Y69266D01*
X80007Y69289D01*
X79979Y69316D01*
X79952Y69355D01*
X79918Y69394D01*
X79885Y69444D01*
X79852Y69499D01*
X79818Y69555D01*
X79757Y69688D01*
X79707Y69844D01*
X79691Y69927D01*
X79680Y70016D01*
X80151Y70077D01*
Y70071D01*
X80157Y70060D01*
X80163Y70038D01*
X80168Y70010D01*
X80174Y69977D01*
X80185Y69938D01*
X80212Y69855D01*
X80251Y69755D01*
X80301Y69661D01*
X80357Y69572D01*
X80423Y69494D01*
X80435Y69488D01*
X80457Y69466D01*
X80501Y69438D01*
X80557Y69411D01*
X80623Y69377D01*
X80706Y69350D01*
X80801Y69327D01*
X80901Y69322D01*
X80934D01*
X80956Y69327D01*
X81017Y69333D01*
X81095Y69350D01*
X81184Y69377D01*
X81278Y69416D01*
X81372Y69472D01*
X81461Y69550D01*
X81472Y69561D01*
X81500Y69594D01*
X81533Y69644D01*
X81578Y69710D01*
X81622Y69794D01*
X81655Y69888D01*
X81683Y69999D01*
X81694Y70121D01*
Y70127D01*
Y70138D01*
Y70154D01*
X81689Y70177D01*
X81683Y70238D01*
X81666Y70310D01*
X81644Y70399D01*
X81605Y70487D01*
X81550Y70576D01*
X81478Y70660D01*
X81467Y70671D01*
X81439Y70693D01*
X81395Y70726D01*
X81334Y70765D01*
X81256Y70804D01*
X81161Y70837D01*
X81056Y70859D01*
X80940Y70870D01*
X80889D01*
X80851Y70865D01*
X80801Y70859D01*
X80745Y70848D01*
X80679Y70837D01*
X80607Y70820D01*
X80662Y71237D01*
X80690D01*
X80712Y71231D01*
X80784D01*
X80845Y71242D01*
X80917Y71253D01*
X81001Y71270D01*
X81095Y71298D01*
X81184Y71337D01*
X81278Y71386D01*
X81284D01*
X81289Y71392D01*
X81317Y71414D01*
X81356Y71453D01*
X81400Y71503D01*
X81445Y71575D01*
X81483Y71658D01*
X81511Y71753D01*
X81522Y71808D01*
Y71869D01*
Y71875D01*
Y71880D01*
Y71914D01*
X81511Y71958D01*
X81500Y72019D01*
X81478Y72086D01*
X81450Y72158D01*
X81406Y72230D01*
X81345Y72297D01*
X81339Y72302D01*
X81311Y72325D01*
X81273Y72352D01*
X81223Y72386D01*
X81156Y72413D01*
X81078Y72441D01*
X80989Y72463D01*
X80889Y72469D01*
X80845D01*
X80795Y72458D01*
X80729Y72447D01*
X80656Y72424D01*
X80584Y72397D01*
X80507Y72352D01*
X80435Y72297D01*
X80429Y72291D01*
X80407Y72263D01*
X80373Y72224D01*
X80335Y72169D01*
X80296Y72097D01*
X80257Y72008D01*
X80224Y71903D01*
X80201Y71781D01*
X79730Y71864D01*
Y71869D01*
X79735Y71886D01*
X79741Y71908D01*
X79746Y71942D01*
X79757Y71980D01*
X79774Y72025D01*
X79807Y72130D01*
X79863Y72252D01*
X79929Y72374D01*
X80013Y72491D01*
X80118Y72596D01*
X80124Y72602D01*
X80135Y72607D01*
X80151Y72619D01*
X80174Y72635D01*
X80201Y72657D01*
X80240Y72680D01*
X80279Y72702D01*
X80329Y72730D01*
X80440Y72774D01*
X80568Y72818D01*
X80717Y72846D01*
X80795Y72857D01*
X80934D01*
X80995Y72852D01*
D02*
G37*
G36*
X77826Y72835D02*
X77876D01*
X77992Y72830D01*
X78114Y72813D01*
X78248Y72796D01*
X78370Y72768D01*
X78431Y72752D01*
X78481Y72735D01*
X78486D01*
X78492Y72730D01*
X78525Y72713D01*
X78575Y72691D01*
X78636Y72652D01*
X78703Y72602D01*
X78775Y72535D01*
X78842Y72458D01*
X78908Y72369D01*
Y72363D01*
X78914Y72358D01*
X78936Y72325D01*
X78958Y72269D01*
X78991Y72197D01*
X79019Y72114D01*
X79047Y72014D01*
X79064Y71908D01*
X79069Y71792D01*
Y71786D01*
Y71775D01*
Y71753D01*
X79064Y71725D01*
Y71686D01*
X79058Y71647D01*
X79036Y71553D01*
X79002Y71442D01*
X78958Y71325D01*
X78891Y71209D01*
X78847Y71153D01*
X78803Y71098D01*
X78797Y71092D01*
X78792Y71087D01*
X78775Y71070D01*
X78753Y71053D01*
X78725Y71031D01*
X78692Y71009D01*
X78647Y70981D01*
X78603Y70948D01*
X78548Y70920D01*
X78486Y70893D01*
X78420Y70859D01*
X78348Y70832D01*
X78264Y70809D01*
X78181Y70782D01*
X78087Y70765D01*
X77987Y70748D01*
X77998Y70743D01*
X78020Y70732D01*
X78053Y70709D01*
X78098Y70687D01*
X78198Y70626D01*
X78248Y70587D01*
X78292Y70554D01*
X78303Y70543D01*
X78331Y70515D01*
X78375Y70471D01*
X78431Y70415D01*
X78492Y70337D01*
X78564Y70254D01*
X78636Y70154D01*
X78714Y70043D01*
X79374Y69000D01*
X78742D01*
X78237Y69799D01*
Y69805D01*
X78225Y69816D01*
X78214Y69832D01*
X78198Y69855D01*
X78159Y69916D01*
X78109Y69993D01*
X78048Y70077D01*
X77987Y70165D01*
X77926Y70249D01*
X77870Y70326D01*
X77865Y70332D01*
X77848Y70354D01*
X77820Y70388D01*
X77782Y70426D01*
X77698Y70510D01*
X77654Y70548D01*
X77609Y70582D01*
X77604Y70587D01*
X77593Y70593D01*
X77571Y70604D01*
X77537Y70621D01*
X77504Y70637D01*
X77465Y70654D01*
X77376Y70682D01*
X77371D01*
X77360Y70687D01*
X77337D01*
X77310Y70693D01*
X77271Y70698D01*
X77227D01*
X77166Y70704D01*
X76511D01*
Y69000D01*
X76000D01*
Y72841D01*
X77782D01*
X77826Y72835D01*
D02*
G37*
G36*
X53626Y80221D02*
Y80215D01*
Y80199D01*
Y80177D01*
Y80143D01*
X53620Y80099D01*
Y80054D01*
X53609Y79949D01*
X53598Y79827D01*
X53576Y79699D01*
X53542Y79583D01*
X53504Y79472D01*
Y79466D01*
X53498Y79461D01*
X53481Y79427D01*
X53454Y79383D01*
X53415Y79322D01*
X53359Y79261D01*
X53298Y79194D01*
X53220Y79128D01*
X53132Y79072D01*
X53121Y79067D01*
X53087Y79050D01*
X53037Y79028D01*
X52965Y79006D01*
X52876Y78978D01*
X52776Y78956D01*
X52666Y78939D01*
X52543Y78933D01*
X52493D01*
X52460Y78939D01*
X52416Y78944D01*
X52371Y78950D01*
X52255Y78972D01*
X52133Y79006D01*
X52005Y79056D01*
X51938Y79089D01*
X51877Y79128D01*
X51822Y79172D01*
X51766Y79222D01*
X51761Y79228D01*
X51755Y79233D01*
X51744Y79255D01*
X51727Y79277D01*
X51705Y79305D01*
X51683Y79344D01*
X51661Y79388D01*
X51633Y79439D01*
X51611Y79494D01*
X51589Y79561D01*
X51567Y79627D01*
X51544Y79705D01*
X51533Y79788D01*
X51517Y79882D01*
X51511Y79977D01*
Y80082D01*
X51972Y80149D01*
Y80143D01*
Y80132D01*
Y80110D01*
X51977Y80077D01*
X51983Y80043D01*
Y80005D01*
X51999Y79910D01*
X52016Y79810D01*
X52049Y79710D01*
X52083Y79622D01*
X52105Y79583D01*
X52133Y79549D01*
X52138Y79544D01*
X52161Y79527D01*
X52194Y79500D01*
X52238Y79472D01*
X52299Y79439D01*
X52366Y79416D01*
X52449Y79394D01*
X52538Y79388D01*
X52571D01*
X52604Y79394D01*
X52654Y79400D01*
X52704Y79411D01*
X52760Y79422D01*
X52815Y79444D01*
X52871Y79472D01*
X52876Y79477D01*
X52893Y79488D01*
X52915Y79511D01*
X52949Y79533D01*
X52976Y79572D01*
X53010Y79611D01*
X53037Y79655D01*
X53060Y79710D01*
Y79716D01*
X53071Y79738D01*
X53076Y79777D01*
X53087Y79827D01*
X53098Y79894D01*
X53104Y79977D01*
X53115Y80077D01*
Y80193D01*
Y82841D01*
X53626D01*
Y80221D01*
D02*
G37*
G36*
X59503Y82852D02*
X59548Y82846D01*
X59603Y82841D01*
X59664Y82829D01*
X59725Y82818D01*
X59869Y82780D01*
X60014Y82724D01*
X60086Y82691D01*
X60158Y82652D01*
X60225Y82602D01*
X60286Y82547D01*
X60291Y82541D01*
X60302Y82535D01*
X60313Y82513D01*
X60336Y82491D01*
X60363Y82463D01*
X60391Y82424D01*
X60419Y82385D01*
X60452Y82336D01*
X60508Y82230D01*
X60563Y82097D01*
X60585Y82030D01*
X60597Y81953D01*
X60608Y81875D01*
X60613Y81792D01*
Y81781D01*
Y81753D01*
X60608Y81708D01*
X60602Y81647D01*
X60591Y81581D01*
X60569Y81503D01*
X60546Y81420D01*
X60513Y81336D01*
X60508Y81326D01*
X60497Y81298D01*
X60474Y81253D01*
X60441Y81192D01*
X60397Y81126D01*
X60341Y81042D01*
X60274Y80959D01*
X60197Y80865D01*
X60186Y80854D01*
X60158Y80820D01*
X60130Y80793D01*
X60102Y80765D01*
X60069Y80732D01*
X60025Y80687D01*
X59980Y80643D01*
X59925Y80593D01*
X59869Y80537D01*
X59803Y80476D01*
X59731Y80415D01*
X59653Y80343D01*
X59564Y80271D01*
X59475Y80193D01*
X59470Y80188D01*
X59459Y80177D01*
X59437Y80160D01*
X59409Y80138D01*
X59376Y80104D01*
X59337Y80071D01*
X59248Y79999D01*
X59153Y79916D01*
X59065Y79833D01*
X58987Y79760D01*
X58954Y79733D01*
X58926Y79705D01*
X58920Y79699D01*
X58904Y79683D01*
X58881Y79660D01*
X58854Y79627D01*
X58826Y79588D01*
X58793Y79549D01*
X58726Y79455D01*
X60619D01*
Y79000D01*
X58071D01*
Y79006D01*
Y79028D01*
Y79061D01*
X58077Y79105D01*
X58082Y79155D01*
X58093Y79211D01*
X58104Y79266D01*
X58127Y79327D01*
Y79333D01*
X58132Y79339D01*
X58143Y79372D01*
X58166Y79422D01*
X58199Y79488D01*
X58243Y79566D01*
X58299Y79655D01*
X58360Y79744D01*
X58438Y79838D01*
Y79844D01*
X58449Y79849D01*
X58476Y79882D01*
X58526Y79932D01*
X58599Y80005D01*
X58682Y80088D01*
X58787Y80188D01*
X58915Y80299D01*
X59053Y80415D01*
X59059Y80421D01*
X59081Y80437D01*
X59115Y80465D01*
X59153Y80498D01*
X59203Y80543D01*
X59264Y80593D01*
X59325Y80648D01*
X59398Y80709D01*
X59536Y80843D01*
X59675Y80976D01*
X59742Y81042D01*
X59803Y81109D01*
X59858Y81170D01*
X59903Y81231D01*
Y81237D01*
X59914Y81242D01*
X59925Y81259D01*
X59936Y81281D01*
X59975Y81342D01*
X60019Y81414D01*
X60058Y81503D01*
X60097Y81597D01*
X60119Y81703D01*
X60130Y81803D01*
Y81808D01*
Y81814D01*
X60125Y81847D01*
X60119Y81903D01*
X60102Y81964D01*
X60080Y82041D01*
X60041Y82119D01*
X59992Y82197D01*
X59925Y82275D01*
X59914Y82286D01*
X59886Y82308D01*
X59847Y82336D01*
X59786Y82374D01*
X59708Y82408D01*
X59620Y82441D01*
X59514Y82463D01*
X59398Y82469D01*
X59364D01*
X59342Y82463D01*
X59276Y82458D01*
X59198Y82441D01*
X59115Y82419D01*
X59020Y82380D01*
X58931Y82330D01*
X58848Y82263D01*
X58837Y82252D01*
X58815Y82225D01*
X58782Y82180D01*
X58748Y82113D01*
X58710Y82036D01*
X58676Y81936D01*
X58654Y81825D01*
X58643Y81697D01*
X58160Y81747D01*
Y81753D01*
X58166Y81769D01*
Y81797D01*
X58171Y81836D01*
X58182Y81880D01*
X58193Y81930D01*
X58210Y81991D01*
X58227Y82052D01*
X58271Y82186D01*
X58338Y82319D01*
X58376Y82385D01*
X58426Y82452D01*
X58476Y82513D01*
X58532Y82569D01*
X58537Y82574D01*
X58548Y82580D01*
X58565Y82596D01*
X58593Y82613D01*
X58626Y82635D01*
X58665Y82657D01*
X58710Y82685D01*
X58765Y82713D01*
X58826Y82741D01*
X58893Y82768D01*
X58965Y82791D01*
X59042Y82813D01*
X59126Y82829D01*
X59215Y82846D01*
X59309Y82852D01*
X59409Y82857D01*
X59464D01*
X59503Y82852D01*
D02*
G37*
G36*
X56290Y82835D02*
X56340D01*
X56456Y82829D01*
X56578Y82813D01*
X56712Y82796D01*
X56834Y82768D01*
X56895Y82752D01*
X56945Y82735D01*
X56950D01*
X56956Y82730D01*
X56989Y82713D01*
X57039Y82691D01*
X57100Y82652D01*
X57166Y82602D01*
X57239Y82535D01*
X57305Y82458D01*
X57372Y82369D01*
Y82363D01*
X57377Y82358D01*
X57400Y82324D01*
X57422Y82269D01*
X57455Y82197D01*
X57483Y82113D01*
X57511Y82014D01*
X57527Y81908D01*
X57533Y81792D01*
Y81786D01*
Y81775D01*
Y81753D01*
X57527Y81725D01*
Y81686D01*
X57522Y81647D01*
X57499Y81553D01*
X57466Y81442D01*
X57422Y81326D01*
X57355Y81209D01*
X57311Y81153D01*
X57266Y81098D01*
X57261Y81092D01*
X57255Y81087D01*
X57239Y81070D01*
X57217Y81054D01*
X57189Y81031D01*
X57155Y81009D01*
X57111Y80981D01*
X57067Y80948D01*
X57011Y80920D01*
X56950Y80893D01*
X56884Y80859D01*
X56811Y80831D01*
X56728Y80809D01*
X56645Y80782D01*
X56551Y80765D01*
X56451Y80748D01*
X56462Y80743D01*
X56484Y80732D01*
X56517Y80709D01*
X56562Y80687D01*
X56661Y80626D01*
X56712Y80587D01*
X56756Y80554D01*
X56767Y80543D01*
X56795Y80515D01*
X56839Y80471D01*
X56895Y80415D01*
X56956Y80338D01*
X57028Y80254D01*
X57100Y80154D01*
X57178Y80043D01*
X57838Y79000D01*
X57205D01*
X56700Y79799D01*
Y79805D01*
X56689Y79816D01*
X56678Y79833D01*
X56661Y79855D01*
X56623Y79916D01*
X56573Y79993D01*
X56512Y80077D01*
X56451Y80165D01*
X56389Y80249D01*
X56334Y80326D01*
X56328Y80332D01*
X56312Y80354D01*
X56284Y80388D01*
X56245Y80426D01*
X56162Y80510D01*
X56118Y80549D01*
X56073Y80582D01*
X56068Y80587D01*
X56057Y80593D01*
X56034Y80604D01*
X56001Y80621D01*
X55968Y80637D01*
X55929Y80654D01*
X55840Y80682D01*
X55835D01*
X55823Y80687D01*
X55801D01*
X55774Y80693D01*
X55735Y80698D01*
X55690D01*
X55629Y80704D01*
X54974D01*
Y79000D01*
X54464D01*
Y82841D01*
X56245D01*
X56290Y82835D01*
D02*
G37*
G36*
X53519Y53121D02*
Y53115D01*
Y53093D01*
Y53065D01*
Y53026D01*
X53514Y52976D01*
Y52921D01*
X53508Y52854D01*
X53503Y52788D01*
X53486Y52638D01*
X53464Y52482D01*
X53430Y52333D01*
X53408Y52260D01*
X53386Y52194D01*
Y52188D01*
X53380Y52177D01*
X53369Y52161D01*
X53358Y52138D01*
X53325Y52077D01*
X53275Y51999D01*
X53208Y51911D01*
X53131Y51822D01*
X53031Y51727D01*
X52909Y51644D01*
X52903D01*
X52892Y51633D01*
X52875Y51628D01*
X52848Y51611D01*
X52814Y51594D01*
X52770Y51578D01*
X52725Y51561D01*
X52670Y51539D01*
X52609Y51517D01*
X52542Y51500D01*
X52470Y51483D01*
X52387Y51467D01*
X52304Y51456D01*
X52215Y51445D01*
X52015Y51433D01*
X51965D01*
X51926Y51439D01*
X51882D01*
X51826Y51445D01*
X51765Y51450D01*
X51704Y51456D01*
X51566Y51478D01*
X51416Y51511D01*
X51271Y51556D01*
X51133Y51617D01*
X51127D01*
X51116Y51628D01*
X51099Y51639D01*
X51077Y51650D01*
X51016Y51694D01*
X50944Y51755D01*
X50861Y51833D01*
X50783Y51922D01*
X50705Y52033D01*
X50644Y52155D01*
Y52161D01*
X50639Y52172D01*
X50633Y52194D01*
X50622Y52222D01*
X50611Y52255D01*
X50600Y52299D01*
X50583Y52349D01*
X50572Y52410D01*
X50561Y52477D01*
X50544Y52549D01*
X50533Y52627D01*
X50522Y52710D01*
X50511Y52804D01*
X50506Y52904D01*
X50500Y53010D01*
Y53121D01*
Y55341D01*
X51011D01*
Y53121D01*
Y53115D01*
Y53098D01*
Y53071D01*
Y53037D01*
X51016Y52999D01*
Y52949D01*
X51022Y52843D01*
X51033Y52721D01*
X51050Y52599D01*
X51072Y52482D01*
X51083Y52432D01*
X51099Y52382D01*
X51105Y52371D01*
X51116Y52344D01*
X51144Y52305D01*
X51177Y52249D01*
X51216Y52194D01*
X51271Y52133D01*
X51338Y52072D01*
X51416Y52022D01*
X51427Y52016D01*
X51455Y51999D01*
X51504Y51983D01*
X51571Y51961D01*
X51649Y51933D01*
X51749Y51916D01*
X51854Y51900D01*
X51971Y51894D01*
X52026D01*
X52060Y51900D01*
X52109D01*
X52160Y51905D01*
X52282Y51927D01*
X52415Y51955D01*
X52542Y51999D01*
X52665Y52061D01*
X52720Y52099D01*
X52770Y52144D01*
X52776Y52149D01*
X52781Y52155D01*
X52792Y52172D01*
X52809Y52194D01*
X52825Y52227D01*
X52848Y52260D01*
X52870Y52310D01*
X52892Y52360D01*
X52914Y52421D01*
X52931Y52493D01*
X52953Y52577D01*
X52970Y52666D01*
X52986Y52765D01*
X52997Y52871D01*
X53009Y52993D01*
Y53121D01*
Y55341D01*
X53519D01*
Y53121D01*
D02*
G37*
G36*
X55950Y51500D02*
X55478D01*
Y54502D01*
X55473Y54497D01*
X55445Y54475D01*
X55412Y54441D01*
X55356Y54403D01*
X55295Y54353D01*
X55217Y54297D01*
X55129Y54236D01*
X55029Y54175D01*
X55023D01*
X55018Y54170D01*
X54984Y54147D01*
X54929Y54120D01*
X54862Y54086D01*
X54785Y54048D01*
X54701Y54009D01*
X54618Y53970D01*
X54535Y53936D01*
Y54391D01*
X54540D01*
X54552Y54403D01*
X54574Y54408D01*
X54601Y54425D01*
X54635Y54441D01*
X54674Y54464D01*
X54768Y54519D01*
X54879Y54580D01*
X54990Y54658D01*
X55107Y54747D01*
X55223Y54841D01*
X55229Y54847D01*
X55234Y54852D01*
X55251Y54869D01*
X55273Y54886D01*
X55323Y54941D01*
X55389Y55008D01*
X55456Y55085D01*
X55528Y55174D01*
X55589Y55263D01*
X55645Y55357D01*
X55950D01*
Y51500D01*
D02*
G37*
G36*
X31501Y90352D02*
X31573Y90341D01*
X31661Y90324D01*
X31761Y90296D01*
X31861Y90263D01*
X31961Y90219D01*
X31967D01*
X31972Y90213D01*
X32006Y90196D01*
X32056Y90163D01*
X32111Y90124D01*
X32178Y90069D01*
X32244Y90008D01*
X32311Y89935D01*
X32366Y89852D01*
X32372Y89841D01*
X32388Y89813D01*
X32411Y89763D01*
X32438Y89702D01*
X32466Y89630D01*
X32489Y89547D01*
X32505Y89453D01*
X32511Y89358D01*
Y89347D01*
Y89314D01*
X32505Y89269D01*
X32494Y89208D01*
X32477Y89136D01*
X32450Y89059D01*
X32416Y88981D01*
X32372Y88903D01*
X32366Y88892D01*
X32350Y88870D01*
X32316Y88831D01*
X32272Y88787D01*
X32217Y88737D01*
X32150Y88681D01*
X32072Y88631D01*
X31978Y88581D01*
X31983D01*
X31995Y88576D01*
X32011Y88570D01*
X32033Y88565D01*
X32094Y88542D01*
X32172Y88509D01*
X32261Y88465D01*
X32350Y88409D01*
X32433Y88337D01*
X32511Y88254D01*
X32516Y88243D01*
X32538Y88209D01*
X32572Y88154D01*
X32605Y88082D01*
X32638Y87993D01*
X32672Y87888D01*
X32694Y87765D01*
X32699Y87632D01*
Y87627D01*
Y87610D01*
Y87582D01*
X32694Y87549D01*
X32688Y87505D01*
X32677Y87455D01*
X32666Y87399D01*
X32655Y87338D01*
X32611Y87205D01*
X32577Y87133D01*
X32544Y87066D01*
X32500Y86994D01*
X32450Y86922D01*
X32394Y86850D01*
X32327Y86783D01*
X32322Y86778D01*
X32311Y86766D01*
X32289Y86750D01*
X32261Y86727D01*
X32228Y86700D01*
X32183Y86672D01*
X32133Y86639D01*
X32072Y86611D01*
X32011Y86578D01*
X31939Y86544D01*
X31867Y86517D01*
X31784Y86489D01*
X31695Y86467D01*
X31600Y86450D01*
X31506Y86439D01*
X31401Y86433D01*
X31351D01*
X31317Y86439D01*
X31273Y86444D01*
X31223Y86450D01*
X31168Y86461D01*
X31106Y86472D01*
X30973Y86506D01*
X30835Y86561D01*
X30762Y86594D01*
X30696Y86633D01*
X30629Y86683D01*
X30563Y86733D01*
X30557Y86739D01*
X30546Y86750D01*
X30529Y86766D01*
X30513Y86789D01*
X30485Y86816D01*
X30457Y86855D01*
X30424Y86894D01*
X30391Y86944D01*
X30357Y86999D01*
X30324Y87055D01*
X30263Y87188D01*
X30213Y87344D01*
X30196Y87427D01*
X30185Y87516D01*
X30657Y87577D01*
Y87571D01*
X30663Y87560D01*
X30668Y87538D01*
X30674Y87510D01*
X30679Y87477D01*
X30690Y87438D01*
X30718Y87355D01*
X30757Y87255D01*
X30807Y87160D01*
X30862Y87072D01*
X30929Y86994D01*
X30940Y86988D01*
X30962Y86966D01*
X31007Y86939D01*
X31062Y86911D01*
X31129Y86877D01*
X31212Y86850D01*
X31306Y86827D01*
X31406Y86822D01*
X31440D01*
X31462Y86827D01*
X31523Y86833D01*
X31600Y86850D01*
X31689Y86877D01*
X31784Y86916D01*
X31878Y86972D01*
X31967Y87050D01*
X31978Y87061D01*
X32006Y87094D01*
X32039Y87144D01*
X32083Y87210D01*
X32128Y87294D01*
X32161Y87388D01*
X32189Y87499D01*
X32200Y87621D01*
Y87627D01*
Y87638D01*
Y87654D01*
X32194Y87677D01*
X32189Y87738D01*
X32172Y87810D01*
X32150Y87899D01*
X32111Y87987D01*
X32056Y88076D01*
X31983Y88160D01*
X31972Y88171D01*
X31945Y88193D01*
X31900Y88226D01*
X31839Y88265D01*
X31761Y88304D01*
X31667Y88337D01*
X31562Y88359D01*
X31445Y88370D01*
X31395D01*
X31356Y88365D01*
X31306Y88359D01*
X31251Y88348D01*
X31184Y88337D01*
X31112Y88320D01*
X31168Y88737D01*
X31195D01*
X31218Y88731D01*
X31290D01*
X31351Y88742D01*
X31423Y88753D01*
X31506Y88770D01*
X31600Y88798D01*
X31689Y88836D01*
X31784Y88886D01*
X31789D01*
X31795Y88892D01*
X31822Y88914D01*
X31861Y88953D01*
X31906Y89003D01*
X31950Y89075D01*
X31989Y89158D01*
X32017Y89253D01*
X32028Y89308D01*
Y89369D01*
Y89375D01*
Y89380D01*
Y89414D01*
X32017Y89458D01*
X32006Y89519D01*
X31983Y89586D01*
X31956Y89658D01*
X31911Y89730D01*
X31850Y89797D01*
X31845Y89802D01*
X31817Y89824D01*
X31778Y89852D01*
X31728Y89885D01*
X31661Y89913D01*
X31584Y89941D01*
X31495Y89963D01*
X31395Y89969D01*
X31351D01*
X31301Y89958D01*
X31234Y89947D01*
X31162Y89924D01*
X31090Y89897D01*
X31012Y89852D01*
X30940Y89797D01*
X30934Y89791D01*
X30912Y89763D01*
X30879Y89724D01*
X30840Y89669D01*
X30801Y89597D01*
X30762Y89508D01*
X30729Y89403D01*
X30707Y89281D01*
X30235Y89364D01*
Y89369D01*
X30241Y89386D01*
X30246Y89408D01*
X30252Y89442D01*
X30263Y89480D01*
X30280Y89525D01*
X30313Y89630D01*
X30368Y89752D01*
X30435Y89874D01*
X30518Y89991D01*
X30624Y90096D01*
X30629Y90102D01*
X30640Y90108D01*
X30657Y90119D01*
X30679Y90135D01*
X30707Y90157D01*
X30746Y90180D01*
X30785Y90202D01*
X30835Y90230D01*
X30946Y90274D01*
X31073Y90318D01*
X31223Y90346D01*
X31301Y90357D01*
X31440D01*
X31501Y90352D01*
D02*
G37*
G36*
X28076Y90335D02*
X28187Y90329D01*
X28298Y90318D01*
X28409Y90302D01*
X28504Y90285D01*
X28509D01*
X28520Y90280D01*
X28537D01*
X28559Y90268D01*
X28620Y90252D01*
X28698Y90224D01*
X28787Y90185D01*
X28881Y90135D01*
X28975Y90080D01*
X29064Y90008D01*
X29070Y90002D01*
X29075Y89996D01*
X29092Y89980D01*
X29114Y89963D01*
X29169Y89908D01*
X29236Y89830D01*
X29308Y89736D01*
X29386Y89625D01*
X29458Y89497D01*
X29519Y89353D01*
Y89347D01*
X29525Y89336D01*
X29536Y89314D01*
X29541Y89281D01*
X29558Y89242D01*
X29569Y89197D01*
X29580Y89147D01*
X29597Y89086D01*
X29614Y89025D01*
X29625Y88953D01*
X29652Y88798D01*
X29669Y88626D01*
X29675Y88437D01*
Y88431D01*
Y88420D01*
Y88393D01*
Y88365D01*
X29669Y88326D01*
Y88282D01*
X29664Y88176D01*
X29647Y88054D01*
X29630Y87926D01*
X29602Y87793D01*
X29569Y87660D01*
Y87654D01*
X29564Y87643D01*
X29558Y87627D01*
X29553Y87604D01*
X29530Y87543D01*
X29497Y87466D01*
X29464Y87377D01*
X29419Y87288D01*
X29364Y87194D01*
X29308Y87105D01*
X29303Y87094D01*
X29280Y87066D01*
X29247Y87027D01*
X29203Y86977D01*
X29153Y86922D01*
X29092Y86866D01*
X29031Y86805D01*
X28959Y86755D01*
X28948Y86750D01*
X28925Y86733D01*
X28887Y86711D01*
X28831Y86683D01*
X28764Y86650D01*
X28687Y86622D01*
X28598Y86589D01*
X28498Y86561D01*
X28487D01*
X28470Y86555D01*
X28454Y86550D01*
X28398Y86544D01*
X28320Y86533D01*
X28232Y86522D01*
X28126Y86511D01*
X28010Y86506D01*
X27882Y86500D01*
X26500D01*
Y90341D01*
X27976D01*
X28076Y90335D01*
D02*
G37*
G36*
X27684Y58500D02*
X27212D01*
Y61502D01*
X27206Y61497D01*
X27179Y61475D01*
X27145Y61441D01*
X27090Y61403D01*
X27029Y61353D01*
X26951Y61297D01*
X26862Y61236D01*
X26762Y61175D01*
X26757D01*
X26751Y61170D01*
X26718Y61147D01*
X26662Y61120D01*
X26596Y61086D01*
X26518Y61048D01*
X26435Y61009D01*
X26352Y60970D01*
X26269Y60936D01*
Y61392D01*
X26274D01*
X26285Y61403D01*
X26307Y61408D01*
X26335Y61425D01*
X26368Y61441D01*
X26407Y61464D01*
X26502Y61519D01*
X26612Y61580D01*
X26724Y61658D01*
X26840Y61747D01*
X26957Y61841D01*
X26962Y61847D01*
X26968Y61852D01*
X26984Y61869D01*
X27007Y61885D01*
X27057Y61941D01*
X27123Y62008D01*
X27190Y62085D01*
X27262Y62174D01*
X27323Y62263D01*
X27378Y62357D01*
X27684D01*
Y58500D01*
D02*
G37*
G36*
X24048Y62335D02*
X24093D01*
X24193Y62324D01*
X24304Y62313D01*
X24420Y62291D01*
X24537Y62263D01*
X24642Y62224D01*
X24648D01*
X24653Y62218D01*
X24687Y62202D01*
X24737Y62174D01*
X24792Y62135D01*
X24859Y62085D01*
X24931Y62024D01*
X24997Y61947D01*
X25058Y61863D01*
X25064Y61852D01*
X25081Y61819D01*
X25109Y61774D01*
X25136Y61708D01*
X25164Y61630D01*
X25192Y61547D01*
X25208Y61453D01*
X25214Y61358D01*
Y61347D01*
Y61319D01*
X25208Y61269D01*
X25197Y61208D01*
X25181Y61136D01*
X25153Y61059D01*
X25120Y60981D01*
X25075Y60898D01*
X25070Y60887D01*
X25053Y60864D01*
X25020Y60820D01*
X24975Y60776D01*
X24920Y60720D01*
X24853Y60659D01*
X24770Y60603D01*
X24676Y60548D01*
X24681D01*
X24692Y60542D01*
X24709Y60537D01*
X24731Y60526D01*
X24798Y60504D01*
X24875Y60465D01*
X24959Y60415D01*
X25053Y60354D01*
X25136Y60282D01*
X25214Y60193D01*
X25220Y60182D01*
X25242Y60148D01*
X25275Y60098D01*
X25308Y60032D01*
X25342Y59943D01*
X25375Y59849D01*
X25397Y59738D01*
X25403Y59615D01*
Y59610D01*
Y59604D01*
Y59571D01*
X25397Y59516D01*
X25386Y59449D01*
X25375Y59371D01*
X25353Y59288D01*
X25325Y59199D01*
X25286Y59110D01*
X25280Y59099D01*
X25264Y59072D01*
X25242Y59033D01*
X25208Y58977D01*
X25164Y58922D01*
X25120Y58861D01*
X25064Y58800D01*
X25003Y58750D01*
X24997Y58744D01*
X24975Y58728D01*
X24936Y58705D01*
X24886Y58683D01*
X24825Y58650D01*
X24753Y58617D01*
X24676Y58589D01*
X24581Y58561D01*
X24570D01*
X24537Y58550D01*
X24481Y58544D01*
X24409Y58533D01*
X24320Y58522D01*
X24215Y58511D01*
X24098Y58506D01*
X23965Y58500D01*
X22500D01*
Y62341D01*
X24010D01*
X24048Y62335D01*
D02*
G37*
G36*
X64950Y30500D02*
X64478D01*
Y33503D01*
X64473Y33497D01*
X64445Y33475D01*
X64412Y33441D01*
X64356Y33403D01*
X64295Y33353D01*
X64218Y33297D01*
X64129Y33236D01*
X64029Y33175D01*
X64023D01*
X64018Y33169D01*
X63984Y33147D01*
X63929Y33120D01*
X63862Y33086D01*
X63785Y33047D01*
X63701Y33009D01*
X63618Y32970D01*
X63535Y32936D01*
Y33392D01*
X63540D01*
X63551Y33403D01*
X63574Y33408D01*
X63601Y33425D01*
X63635Y33441D01*
X63674Y33464D01*
X63768Y33519D01*
X63879Y33580D01*
X63990Y33658D01*
X64107Y33747D01*
X64223Y33841D01*
X64229Y33847D01*
X64234Y33852D01*
X64251Y33869D01*
X64273Y33885D01*
X64323Y33941D01*
X64389Y34008D01*
X64456Y34085D01*
X64528Y34174D01*
X64589Y34263D01*
X64645Y34357D01*
X64950D01*
Y30500D01*
D02*
G37*
G36*
X61326Y34335D02*
X61376D01*
X61492Y34330D01*
X61615Y34313D01*
X61748Y34296D01*
X61870Y34269D01*
X61931Y34252D01*
X61981Y34235D01*
X61986D01*
X61992Y34230D01*
X62025Y34213D01*
X62075Y34191D01*
X62136Y34152D01*
X62203Y34102D01*
X62275Y34035D01*
X62342Y33958D01*
X62408Y33869D01*
Y33863D01*
X62414Y33858D01*
X62436Y33825D01*
X62458Y33769D01*
X62491Y33697D01*
X62519Y33613D01*
X62547Y33514D01*
X62564Y33408D01*
X62569Y33292D01*
Y33286D01*
Y33275D01*
Y33253D01*
X62564Y33225D01*
Y33186D01*
X62558Y33147D01*
X62536Y33053D01*
X62502Y32942D01*
X62458Y32825D01*
X62392Y32709D01*
X62347Y32653D01*
X62303Y32598D01*
X62297Y32592D01*
X62292Y32587D01*
X62275Y32570D01*
X62253Y32553D01*
X62225Y32531D01*
X62192Y32509D01*
X62147Y32481D01*
X62103Y32448D01*
X62047Y32420D01*
X61986Y32392D01*
X61920Y32359D01*
X61848Y32331D01*
X61764Y32309D01*
X61681Y32282D01*
X61587Y32265D01*
X61487Y32248D01*
X61498Y32243D01*
X61520Y32232D01*
X61554Y32209D01*
X61598Y32187D01*
X61698Y32126D01*
X61748Y32087D01*
X61792Y32054D01*
X61803Y32043D01*
X61831Y32015D01*
X61875Y31971D01*
X61931Y31915D01*
X61992Y31837D01*
X62064Y31754D01*
X62136Y31654D01*
X62214Y31543D01*
X62874Y30500D01*
X62242D01*
X61737Y31299D01*
Y31305D01*
X61725Y31316D01*
X61714Y31332D01*
X61698Y31355D01*
X61659Y31416D01*
X61609Y31493D01*
X61548Y31577D01*
X61487Y31666D01*
X61426Y31749D01*
X61370Y31826D01*
X61365Y31832D01*
X61348Y31854D01*
X61320Y31888D01*
X61282Y31926D01*
X61198Y32010D01*
X61154Y32048D01*
X61110Y32082D01*
X61104Y32087D01*
X61093Y32093D01*
X61071Y32104D01*
X61037Y32121D01*
X61004Y32137D01*
X60965Y32154D01*
X60876Y32182D01*
X60871D01*
X60860Y32187D01*
X60838D01*
X60810Y32193D01*
X60771Y32198D01*
X60726D01*
X60666Y32204D01*
X60011D01*
Y30500D01*
X59500D01*
Y34341D01*
X61282D01*
X61326Y34335D01*
D02*
G37*
G36*
X128851Y175188D02*
X128884D01*
X128973Y175172D01*
X129079Y175155D01*
X129190Y175127D01*
X129312Y175088D01*
X129428Y175033D01*
X129434D01*
X129439Y175027D01*
X129456Y175016D01*
X129478Y175005D01*
X129534Y174972D01*
X129606Y174922D01*
X129684Y174861D01*
X129761Y174789D01*
X129839Y174700D01*
X129906Y174606D01*
Y174600D01*
X129911Y174594D01*
X129922Y174578D01*
X129928Y174556D01*
X129956Y174500D01*
X129983Y174428D01*
X130017Y174334D01*
X130039Y174228D01*
X130061Y174112D01*
X130067Y173984D01*
Y173956D01*
X130061Y173928D01*
Y173884D01*
X130055Y173834D01*
X130044Y173778D01*
X130028Y173712D01*
X130011Y173645D01*
X129989Y173568D01*
X129961Y173490D01*
X129928Y173412D01*
X129883Y173329D01*
X129833Y173251D01*
X129778Y173174D01*
X129711Y173096D01*
X129634Y173024D01*
X129628Y173018D01*
X129612Y173007D01*
X129589Y172991D01*
X129551Y172968D01*
X129500Y172935D01*
X129445Y172907D01*
X129373Y172874D01*
X129295Y172841D01*
X129201Y172802D01*
X129095Y172768D01*
X128979Y172741D01*
X128851Y172713D01*
X128707Y172685D01*
X128551Y172669D01*
X128385Y172657D01*
X128207Y172652D01*
X128202D01*
X128196D01*
X128180D01*
X128157D01*
X128102Y172657D01*
X128024D01*
X127935Y172663D01*
X127830Y172674D01*
X127713Y172685D01*
X127586Y172702D01*
X127458Y172724D01*
X127319Y172752D01*
X127186Y172785D01*
X127053Y172824D01*
X126925Y172874D01*
X126803Y172929D01*
X126687Y172991D01*
X126587Y173063D01*
X126581Y173068D01*
X126570Y173079D01*
X126548Y173101D01*
X126515Y173129D01*
X126481Y173162D01*
X126448Y173207D01*
X126404Y173262D01*
X126365Y173318D01*
X126326Y173384D01*
X126281Y173457D01*
X126248Y173540D01*
X126209Y173623D01*
X126182Y173717D01*
X126159Y173817D01*
X126148Y173923D01*
X126143Y174034D01*
Y174078D01*
X126148Y174112D01*
Y174150D01*
X126154Y174195D01*
X126176Y174300D01*
X126204Y174417D01*
X126248Y174539D01*
X126315Y174661D01*
X126354Y174722D01*
X126398Y174777D01*
X126404Y174783D01*
X126409Y174789D01*
X126426Y174805D01*
X126443Y174822D01*
X126470Y174850D01*
X126504Y174872D01*
X126581Y174933D01*
X126681Y174994D01*
X126803Y175049D01*
X126942Y175100D01*
X127097Y175133D01*
X127136Y174661D01*
X127131D01*
X127125Y174655D01*
X127092Y174650D01*
X127042Y174633D01*
X126981Y174611D01*
X126914Y174589D01*
X126848Y174556D01*
X126787Y174517D01*
X126737Y174478D01*
X126725Y174467D01*
X126703Y174445D01*
X126670Y174406D01*
X126631Y174350D01*
X126598Y174278D01*
X126565Y174200D01*
X126542Y174106D01*
X126531Y174006D01*
Y173967D01*
X126537Y173923D01*
X126548Y173873D01*
X126565Y173806D01*
X126587Y173740D01*
X126614Y173673D01*
X126659Y173607D01*
X126664Y173595D01*
X126687Y173568D01*
X126725Y173529D01*
X126781Y173479D01*
X126848Y173423D01*
X126925Y173362D01*
X127025Y173307D01*
X127136Y173251D01*
X127142D01*
X127153Y173246D01*
X127170Y173240D01*
X127192Y173229D01*
X127225Y173224D01*
X127264Y173212D01*
X127308Y173201D01*
X127364Y173190D01*
X127425Y173174D01*
X127491Y173162D01*
X127564Y173151D01*
X127641Y173146D01*
X127730Y173135D01*
X127819Y173129D01*
X127919Y173124D01*
X128019D01*
X128013Y173129D01*
X127980Y173151D01*
X127935Y173190D01*
X127880Y173240D01*
X127813Y173296D01*
X127752Y173368D01*
X127691Y173446D01*
X127636Y173534D01*
Y173540D01*
X127630Y173546D01*
X127613Y173579D01*
X127597Y173629D01*
X127569Y173695D01*
X127547Y173773D01*
X127530Y173862D01*
X127514Y173956D01*
X127508Y174056D01*
Y174100D01*
X127514Y174134D01*
X127519Y174178D01*
X127525Y174223D01*
X127536Y174278D01*
X127552Y174334D01*
X127591Y174461D01*
X127619Y174528D01*
X127658Y174594D01*
X127697Y174661D01*
X127741Y174733D01*
X127797Y174800D01*
X127858Y174861D01*
X127863Y174866D01*
X127874Y174877D01*
X127891Y174894D01*
X127919Y174911D01*
X127958Y174938D01*
X127997Y174966D01*
X128046Y174994D01*
X128102Y175027D01*
X128163Y175061D01*
X128229Y175088D01*
X128307Y175116D01*
X128385Y175144D01*
X128468Y175161D01*
X128563Y175177D01*
X128657Y175188D01*
X128757Y175194D01*
X128762D01*
X128773D01*
X128790D01*
X128818D01*
X128851Y175188D01*
D02*
G37*
G36*
X130000Y171742D02*
X129201Y171237D01*
X129195D01*
X129184Y171226D01*
X129167Y171214D01*
X129145Y171198D01*
X129084Y171159D01*
X129007Y171109D01*
X128923Y171048D01*
X128834Y170987D01*
X128751Y170926D01*
X128674Y170870D01*
X128668Y170865D01*
X128646Y170848D01*
X128612Y170820D01*
X128574Y170782D01*
X128490Y170698D01*
X128452Y170654D01*
X128418Y170609D01*
X128413Y170604D01*
X128407Y170593D01*
X128396Y170571D01*
X128379Y170537D01*
X128363Y170504D01*
X128346Y170465D01*
X128318Y170376D01*
Y170371D01*
X128313Y170360D01*
Y170338D01*
X128307Y170310D01*
X128302Y170271D01*
Y170227D01*
X128296Y170166D01*
Y169511D01*
X130000D01*
Y169000D01*
X126159D01*
Y170782D01*
X126165Y170826D01*
Y170876D01*
X126171Y170993D01*
X126187Y171115D01*
X126204Y171248D01*
X126232Y171370D01*
X126248Y171431D01*
X126265Y171481D01*
Y171486D01*
X126270Y171492D01*
X126287Y171525D01*
X126309Y171575D01*
X126348Y171636D01*
X126398Y171703D01*
X126465Y171775D01*
X126542Y171842D01*
X126631Y171908D01*
X126637D01*
X126642Y171914D01*
X126675Y171936D01*
X126731Y171958D01*
X126803Y171992D01*
X126886Y172019D01*
X126986Y172047D01*
X127092Y172064D01*
X127208Y172069D01*
X127214D01*
X127225D01*
X127247D01*
X127275Y172064D01*
X127314D01*
X127353Y172058D01*
X127447Y172036D01*
X127558Y172002D01*
X127674Y171958D01*
X127791Y171892D01*
X127847Y171847D01*
X127902Y171803D01*
X127908Y171797D01*
X127913Y171792D01*
X127930Y171775D01*
X127946Y171753D01*
X127969Y171725D01*
X127991Y171692D01*
X128019Y171647D01*
X128052Y171603D01*
X128080Y171547D01*
X128107Y171486D01*
X128141Y171420D01*
X128168Y171348D01*
X128191Y171264D01*
X128218Y171181D01*
X128235Y171087D01*
X128252Y170987D01*
X128257Y170998D01*
X128268Y171020D01*
X128291Y171054D01*
X128313Y171098D01*
X128374Y171198D01*
X128413Y171248D01*
X128446Y171292D01*
X128457Y171303D01*
X128485Y171331D01*
X128529Y171375D01*
X128585Y171431D01*
X128662Y171492D01*
X128746Y171564D01*
X128846Y171636D01*
X128957Y171714D01*
X130000Y172374D01*
Y171742D01*
D02*
G37*
G36*
X149024Y144000D02*
X148553D01*
Y147002D01*
X148547Y146997D01*
X148519Y146975D01*
X148486Y146941D01*
X148430Y146903D01*
X148369Y146853D01*
X148292Y146797D01*
X148203Y146736D01*
X148103Y146675D01*
X148098D01*
X148092Y146670D01*
X148059Y146647D01*
X148003Y146620D01*
X147936Y146586D01*
X147859Y146547D01*
X147775Y146509D01*
X147692Y146470D01*
X147609Y146436D01*
Y146892D01*
X147615D01*
X147626Y146903D01*
X147648Y146908D01*
X147676Y146925D01*
X147709Y146941D01*
X147748Y146964D01*
X147842Y147019D01*
X147953Y147080D01*
X148064Y147158D01*
X148181Y147247D01*
X148297Y147341D01*
X148303Y147347D01*
X148308Y147352D01*
X148325Y147369D01*
X148347Y147386D01*
X148397Y147441D01*
X148464Y147508D01*
X148530Y147585D01*
X148602Y147674D01*
X148664Y147763D01*
X148719Y147857D01*
X149024D01*
Y144000D01*
D02*
G37*
G36*
X145400Y147835D02*
X145450D01*
X145567Y147829D01*
X145689Y147813D01*
X145822Y147796D01*
X145944Y147768D01*
X146005Y147752D01*
X146055Y147735D01*
X146061D01*
X146066Y147730D01*
X146099Y147713D01*
X146149Y147691D01*
X146210Y147652D01*
X146277Y147602D01*
X146349Y147535D01*
X146416Y147458D01*
X146482Y147369D01*
Y147363D01*
X146488Y147358D01*
X146510Y147325D01*
X146532Y147269D01*
X146566Y147197D01*
X146593Y147114D01*
X146621Y147014D01*
X146638Y146908D01*
X146643Y146792D01*
Y146786D01*
Y146775D01*
Y146753D01*
X146638Y146725D01*
Y146686D01*
X146632Y146647D01*
X146610Y146553D01*
X146577Y146442D01*
X146532Y146326D01*
X146466Y146209D01*
X146421Y146153D01*
X146377Y146098D01*
X146371Y146092D01*
X146366Y146087D01*
X146349Y146070D01*
X146327Y146054D01*
X146299Y146031D01*
X146266Y146009D01*
X146222Y145981D01*
X146177Y145948D01*
X146122Y145920D01*
X146061Y145893D01*
X145994Y145859D01*
X145922Y145832D01*
X145839Y145809D01*
X145755Y145782D01*
X145661Y145765D01*
X145561Y145748D01*
X145572Y145743D01*
X145594Y145732D01*
X145628Y145709D01*
X145672Y145687D01*
X145772Y145626D01*
X145822Y145587D01*
X145866Y145554D01*
X145877Y145543D01*
X145905Y145515D01*
X145950Y145471D01*
X146005Y145415D01*
X146066Y145338D01*
X146138Y145254D01*
X146210Y145154D01*
X146288Y145043D01*
X146949Y144000D01*
X146316D01*
X145811Y144799D01*
Y144805D01*
X145800Y144816D01*
X145789Y144833D01*
X145772Y144855D01*
X145733Y144916D01*
X145683Y144993D01*
X145622Y145077D01*
X145561Y145166D01*
X145500Y145249D01*
X145445Y145326D01*
X145439Y145332D01*
X145422Y145354D01*
X145395Y145387D01*
X145356Y145426D01*
X145273Y145510D01*
X145228Y145548D01*
X145184Y145582D01*
X145178Y145587D01*
X145167Y145593D01*
X145145Y145604D01*
X145112Y145621D01*
X145078Y145637D01*
X145039Y145654D01*
X144951Y145682D01*
X144945D01*
X144934Y145687D01*
X144912D01*
X144884Y145693D01*
X144845Y145698D01*
X144801D01*
X144740Y145704D01*
X144085D01*
Y144000D01*
X143574D01*
Y147841D01*
X145356D01*
X145400Y147835D01*
D02*
G37*
G36*
X143041Y147386D02*
X141776D01*
Y144000D01*
X141265D01*
Y147386D01*
X140000D01*
Y147841D01*
X143041D01*
Y147386D01*
D02*
G37*
G36*
X156780Y193163D02*
X156846D01*
X156918Y193157D01*
X156996Y193152D01*
X157174Y193135D01*
X157357Y193107D01*
X157534Y193074D01*
X157618Y193052D01*
X157701Y193024D01*
X157706D01*
X157718Y193019D01*
X157740Y193008D01*
X157767Y192997D01*
X157806Y192985D01*
X157845Y192963D01*
X157940Y192919D01*
X158039Y192863D01*
X158150Y192791D01*
X158250Y192708D01*
X158345Y192608D01*
Y192603D01*
X158356Y192597D01*
X158367Y192580D01*
X158378Y192558D01*
X158395Y192530D01*
X158417Y192503D01*
X158456Y192419D01*
X158494Y192320D01*
X158533Y192203D01*
X158555Y192064D01*
X158567Y191914D01*
Y191859D01*
X158561Y191820D01*
X158555Y191776D01*
X158544Y191720D01*
X158533Y191659D01*
X158517Y191592D01*
X158494Y191526D01*
X158472Y191454D01*
X158439Y191382D01*
X158400Y191309D01*
X158356Y191237D01*
X158300Y191165D01*
X158239Y191098D01*
X158173Y191037D01*
X158167Y191032D01*
X158150Y191021D01*
X158123Y191004D01*
X158078Y190976D01*
X158028Y190949D01*
X157962Y190921D01*
X157884Y190882D01*
X157795Y190849D01*
X157695Y190815D01*
X157579Y190782D01*
X157451Y190749D01*
X157307Y190721D01*
X157151Y190693D01*
X156985Y190677D01*
X156802Y190666D01*
X156607Y190660D01*
X156602D01*
X156580D01*
X156541D01*
X156497D01*
X156435Y190666D01*
X156369D01*
X156297Y190671D01*
X156213Y190677D01*
X156041Y190693D01*
X155858Y190721D01*
X155675Y190754D01*
X155592Y190777D01*
X155508Y190799D01*
X155503D01*
X155492Y190804D01*
X155470Y190815D01*
X155442Y190826D01*
X155403Y190838D01*
X155364Y190860D01*
X155270Y190904D01*
X155170Y190960D01*
X155065Y191032D01*
X154959Y191115D01*
X154870Y191215D01*
Y191221D01*
X154859Y191226D01*
X154848Y191243D01*
X154837Y191265D01*
X154815Y191293D01*
X154798Y191326D01*
X154754Y191409D01*
X154715Y191509D01*
X154676Y191626D01*
X154654Y191764D01*
X154643Y191914D01*
Y191964D01*
X154648Y192025D01*
X154659Y192097D01*
X154676Y192181D01*
X154698Y192270D01*
X154726Y192364D01*
X154770Y192453D01*
Y192458D01*
X154776Y192464D01*
X154793Y192491D01*
X154820Y192536D01*
X154859Y192591D01*
X154915Y192652D01*
X154976Y192719D01*
X155048Y192780D01*
X155131Y192841D01*
X155142Y192847D01*
X155170Y192869D01*
X155220Y192891D01*
X155292Y192930D01*
X155375Y192963D01*
X155470Y193008D01*
X155581Y193046D01*
X155703Y193080D01*
X155708D01*
X155719Y193085D01*
X155736Y193091D01*
X155764Y193096D01*
X155797Y193102D01*
X155836Y193107D01*
X155886Y193119D01*
X155941Y193124D01*
X156002Y193135D01*
X156069Y193141D01*
X156147Y193146D01*
X156225Y193157D01*
X156313Y193163D01*
X156402D01*
X156502Y193169D01*
X156607D01*
X156613D01*
X156635D01*
X156674D01*
X156719D01*
X156780Y193163D01*
D02*
G37*
G36*
X158500Y188978D02*
X155498D01*
X155503Y188973D01*
X155525Y188945D01*
X155559Y188912D01*
X155597Y188856D01*
X155647Y188795D01*
X155703Y188717D01*
X155764Y188629D01*
X155825Y188529D01*
Y188523D01*
X155830Y188518D01*
X155853Y188484D01*
X155880Y188429D01*
X155914Y188362D01*
X155953Y188285D01*
X155991Y188201D01*
X156030Y188118D01*
X156064Y188035D01*
X155608D01*
Y188040D01*
X155597Y188051D01*
X155592Y188074D01*
X155575Y188101D01*
X155559Y188135D01*
X155536Y188174D01*
X155481Y188268D01*
X155420Y188379D01*
X155342Y188490D01*
X155253Y188607D01*
X155159Y188723D01*
X155153Y188729D01*
X155148Y188734D01*
X155131Y188751D01*
X155114Y188773D01*
X155059Y188823D01*
X154992Y188890D01*
X154915Y188956D01*
X154826Y189028D01*
X154737Y189089D01*
X154643Y189145D01*
Y189450D01*
X158500D01*
Y188978D01*
D02*
G37*
G36*
Y186742D02*
X157701Y186237D01*
X157695D01*
X157684Y186225D01*
X157668Y186214D01*
X157645Y186198D01*
X157584Y186159D01*
X157507Y186109D01*
X157423Y186048D01*
X157334Y185987D01*
X157251Y185926D01*
X157174Y185870D01*
X157168Y185865D01*
X157146Y185848D01*
X157113Y185820D01*
X157074Y185782D01*
X156990Y185698D01*
X156951Y185654D01*
X156918Y185609D01*
X156913Y185604D01*
X156907Y185593D01*
X156896Y185571D01*
X156879Y185537D01*
X156863Y185504D01*
X156846Y185465D01*
X156818Y185376D01*
Y185371D01*
X156813Y185360D01*
Y185338D01*
X156807Y185310D01*
X156802Y185271D01*
Y185227D01*
X156796Y185166D01*
Y184511D01*
X158500D01*
Y184000D01*
X154659D01*
Y185782D01*
X154665Y185826D01*
Y185876D01*
X154671Y185993D01*
X154687Y186115D01*
X154704Y186248D01*
X154732Y186370D01*
X154748Y186431D01*
X154765Y186481D01*
Y186486D01*
X154770Y186492D01*
X154787Y186525D01*
X154809Y186575D01*
X154848Y186636D01*
X154898Y186703D01*
X154965Y186775D01*
X155042Y186842D01*
X155131Y186908D01*
X155137D01*
X155142Y186914D01*
X155175Y186936D01*
X155231Y186958D01*
X155303Y186992D01*
X155386Y187019D01*
X155486Y187047D01*
X155592Y187064D01*
X155708Y187069D01*
X155714D01*
X155725D01*
X155747D01*
X155775Y187064D01*
X155814D01*
X155853Y187058D01*
X155947Y187036D01*
X156058Y187003D01*
X156175Y186958D01*
X156291Y186892D01*
X156347Y186847D01*
X156402Y186803D01*
X156408Y186797D01*
X156413Y186792D01*
X156430Y186775D01*
X156447Y186753D01*
X156469Y186725D01*
X156491Y186692D01*
X156519Y186647D01*
X156552Y186603D01*
X156580Y186548D01*
X156607Y186486D01*
X156641Y186420D01*
X156668Y186348D01*
X156691Y186264D01*
X156719Y186181D01*
X156735Y186087D01*
X156752Y185987D01*
X156757Y185998D01*
X156768Y186020D01*
X156791Y186054D01*
X156813Y186098D01*
X156874Y186198D01*
X156913Y186248D01*
X156946Y186292D01*
X156957Y186303D01*
X156985Y186331D01*
X157029Y186375D01*
X157085Y186431D01*
X157162Y186492D01*
X157246Y186564D01*
X157346Y186636D01*
X157457Y186714D01*
X158500Y187374D01*
Y186742D01*
D02*
G37*
%LPC*%
G36*
X116714Y23548D02*
X116708D01*
X116703D01*
X116669Y23542D01*
X116620Y23536D01*
X116553Y23525D01*
X116486Y23497D01*
X116409Y23464D01*
X116337Y23414D01*
X116264Y23348D01*
X116259Y23336D01*
X116237Y23309D01*
X116209Y23264D01*
X116175Y23192D01*
X116142Y23109D01*
X116114Y22998D01*
X116092Y22870D01*
X116087Y22720D01*
Y21511D01*
X117358D01*
Y22654D01*
X117352Y22720D01*
X117347Y22798D01*
X117341Y22887D01*
X117330Y22976D01*
X117313Y23065D01*
X117291Y23142D01*
X117286Y23153D01*
X117274Y23176D01*
X117258Y23209D01*
X117236Y23253D01*
X117202Y23303D01*
X117163Y23353D01*
X117113Y23403D01*
X117058Y23442D01*
X117052Y23448D01*
X117030Y23459D01*
X116997Y23475D01*
X116953Y23497D01*
X116903Y23514D01*
X116847Y23531D01*
X116780Y23542D01*
X116714Y23548D01*
D02*
G37*
G36*
X91337Y39469D02*
X91287D01*
X91248Y39463D01*
X91198Y39458D01*
X91148Y39447D01*
X91087Y39435D01*
X91021Y39424D01*
X90876Y39380D01*
X90799Y39347D01*
X90721Y39313D01*
X90638Y39269D01*
X90560Y39219D01*
X90482Y39164D01*
X90410Y39097D01*
X90405Y39091D01*
X90394Y39080D01*
X90377Y39058D01*
X90349Y39025D01*
X90321Y38986D01*
X90288Y38936D01*
X90255Y38875D01*
X90216Y38803D01*
X90183Y38725D01*
X90144Y38631D01*
X90110Y38531D01*
X90083Y38420D01*
X90055Y38298D01*
X90038Y38159D01*
X90027Y38015D01*
X90022Y37859D01*
Y37854D01*
Y37832D01*
Y37793D01*
X90027Y37743D01*
X90033Y37687D01*
X90044Y37621D01*
X90055Y37543D01*
X90066Y37465D01*
X90110Y37288D01*
X90144Y37199D01*
X90177Y37104D01*
X90222Y37016D01*
X90272Y36927D01*
X90327Y36844D01*
X90394Y36766D01*
X90399Y36760D01*
X90410Y36749D01*
X90432Y36727D01*
X90460Y36705D01*
X90499Y36672D01*
X90543Y36638D01*
X90593Y36605D01*
X90649Y36566D01*
X90715Y36527D01*
X90788Y36494D01*
X90865Y36461D01*
X90949Y36427D01*
X91037Y36405D01*
X91126Y36383D01*
X91226Y36372D01*
X91331Y36366D01*
X91359D01*
X91387Y36372D01*
X91426D01*
X91476Y36377D01*
X91531Y36388D01*
X91598Y36400D01*
X91664Y36416D01*
X91742Y36439D01*
X91814Y36466D01*
X91898Y36494D01*
X91975Y36533D01*
X92053Y36583D01*
X92131Y36633D01*
X92208Y36694D01*
X92281Y36766D01*
X92286Y36771D01*
X92297Y36783D01*
X92314Y36810D01*
X92342Y36844D01*
X92369Y36882D01*
X92397Y36932D01*
X92430Y36994D01*
X92469Y37060D01*
X92502Y37138D01*
X92536Y37227D01*
X92564Y37321D01*
X92597Y37421D01*
X92619Y37532D01*
X92636Y37654D01*
X92647Y37782D01*
X92652Y37915D01*
Y37920D01*
Y37937D01*
Y37959D01*
Y37993D01*
X92647Y38031D01*
Y38081D01*
X92641Y38131D01*
X92630Y38192D01*
X92614Y38320D01*
X92586Y38453D01*
X92547Y38597D01*
X92491Y38731D01*
Y38736D01*
X92486Y38747D01*
X92475Y38764D01*
X92464Y38786D01*
X92425Y38853D01*
X92375Y38930D01*
X92308Y39019D01*
X92225Y39108D01*
X92131Y39197D01*
X92025Y39274D01*
X92020D01*
X92014Y39286D01*
X91997Y39291D01*
X91970Y39308D01*
X91942Y39319D01*
X91909Y39336D01*
X91825Y39374D01*
X91725Y39408D01*
X91609Y39441D01*
X91476Y39463D01*
X91337Y39469D01*
D02*
G37*
G36*
X102337Y116469D02*
X102282D01*
X102243Y116463D01*
X102193Y116458D01*
X102137Y116447D01*
X102076Y116435D01*
X102010Y116419D01*
X101932Y116397D01*
X101860Y116374D01*
X101782Y116341D01*
X101699Y116302D01*
X101621Y116258D01*
X101543Y116202D01*
X101466Y116147D01*
X101394Y116075D01*
X101388Y116069D01*
X101377Y116058D01*
X101360Y116036D01*
X101338Y116003D01*
X101305Y115964D01*
X101277Y115914D01*
X101244Y115853D01*
X101210Y115786D01*
X101172Y115708D01*
X101138Y115620D01*
X101110Y115525D01*
X101083Y115420D01*
X101055Y115309D01*
X101038Y115187D01*
X101027Y115053D01*
X101022Y114915D01*
Y114904D01*
Y114881D01*
Y114843D01*
X101027Y114793D01*
X101033Y114732D01*
X101044Y114659D01*
X101055Y114576D01*
X101066Y114493D01*
X101110Y114304D01*
X101138Y114210D01*
X101177Y114116D01*
X101216Y114021D01*
X101266Y113932D01*
X101321Y113844D01*
X101388Y113766D01*
X101394Y113760D01*
X101405Y113749D01*
X101427Y113727D01*
X101455Y113705D01*
X101493Y113672D01*
X101538Y113638D01*
X101588Y113605D01*
X101649Y113566D01*
X101710Y113527D01*
X101782Y113494D01*
X101860Y113461D01*
X101943Y113427D01*
X102037Y113405D01*
X102132Y113383D01*
X102232Y113372D01*
X102337Y113366D01*
X102387D01*
X102437Y113372D01*
X102504Y113377D01*
X102587Y113389D01*
X102670Y113411D01*
X102764Y113433D01*
X102853Y113466D01*
X102842Y113472D01*
X102814Y113494D01*
X102764Y113522D01*
X102703Y113555D01*
X102626Y113588D01*
X102542Y113627D01*
X102448Y113660D01*
X102348Y113688D01*
X102476Y114055D01*
X102481D01*
X102498Y114049D01*
X102520Y114043D01*
X102548Y114032D01*
X102587Y114021D01*
X102631Y114005D01*
X102731Y113966D01*
X102848Y113910D01*
X102970Y113849D01*
X103086Y113777D01*
X103203Y113688D01*
X103208Y113694D01*
X103225Y113705D01*
X103247Y113733D01*
X103275Y113766D01*
X103308Y113810D01*
X103347Y113860D01*
X103386Y113921D01*
X103430Y113994D01*
X103469Y114077D01*
X103508Y114171D01*
X103547Y114271D01*
X103580Y114376D01*
X103614Y114498D01*
X103636Y114626D01*
X103647Y114765D01*
X103652Y114915D01*
Y114920D01*
Y114937D01*
Y114959D01*
Y114992D01*
X103647Y115037D01*
Y115081D01*
X103641Y115137D01*
X103630Y115192D01*
X103614Y115320D01*
X103586Y115459D01*
X103547Y115597D01*
X103491Y115731D01*
Y115736D01*
X103486Y115747D01*
X103475Y115764D01*
X103464Y115786D01*
X103425Y115853D01*
X103375Y115930D01*
X103308Y116019D01*
X103225Y116108D01*
X103131Y116197D01*
X103025Y116274D01*
X103020D01*
X103014Y116286D01*
X102998Y116291D01*
X102970Y116308D01*
X102942Y116319D01*
X102909Y116335D01*
X102825Y116374D01*
X102726Y116408D01*
X102609Y116441D01*
X102476Y116463D01*
X102337Y116469D01*
D02*
G37*
G36*
X86337Y115969D02*
X86282D01*
X86243Y115963D01*
X86193Y115958D01*
X86137Y115947D01*
X86076Y115935D01*
X86010Y115919D01*
X85932Y115897D01*
X85860Y115874D01*
X85782Y115841D01*
X85699Y115802D01*
X85621Y115758D01*
X85543Y115702D01*
X85466Y115647D01*
X85394Y115575D01*
X85388Y115569D01*
X85377Y115558D01*
X85360Y115536D01*
X85338Y115503D01*
X85305Y115464D01*
X85277Y115414D01*
X85244Y115353D01*
X85210Y115286D01*
X85172Y115208D01*
X85138Y115120D01*
X85110Y115025D01*
X85083Y114920D01*
X85055Y114809D01*
X85038Y114687D01*
X85027Y114553D01*
X85022Y114415D01*
Y114404D01*
Y114381D01*
Y114343D01*
X85027Y114293D01*
X85033Y114232D01*
X85044Y114159D01*
X85055Y114076D01*
X85066Y113993D01*
X85110Y113804D01*
X85138Y113710D01*
X85177Y113616D01*
X85216Y113521D01*
X85266Y113432D01*
X85321Y113344D01*
X85388Y113266D01*
X85394Y113260D01*
X85405Y113249D01*
X85427Y113227D01*
X85455Y113205D01*
X85493Y113172D01*
X85538Y113138D01*
X85588Y113105D01*
X85649Y113066D01*
X85710Y113027D01*
X85782Y112994D01*
X85860Y112961D01*
X85943Y112927D01*
X86037Y112905D01*
X86132Y112883D01*
X86232Y112872D01*
X86337Y112866D01*
X86387D01*
X86437Y112872D01*
X86503Y112877D01*
X86587Y112889D01*
X86670Y112911D01*
X86764Y112933D01*
X86853Y112966D01*
X86842Y112972D01*
X86814Y112994D01*
X86764Y113022D01*
X86703Y113055D01*
X86626Y113088D01*
X86542Y113127D01*
X86448Y113160D01*
X86348Y113188D01*
X86476Y113555D01*
X86481D01*
X86498Y113549D01*
X86520Y113543D01*
X86548Y113532D01*
X86587Y113521D01*
X86631Y113505D01*
X86731Y113466D01*
X86848Y113410D01*
X86970Y113349D01*
X87086Y113277D01*
X87203Y113188D01*
X87208Y113194D01*
X87225Y113205D01*
X87247Y113233D01*
X87275Y113266D01*
X87308Y113310D01*
X87347Y113360D01*
X87386Y113421D01*
X87430Y113494D01*
X87469Y113577D01*
X87508Y113671D01*
X87547Y113771D01*
X87580Y113876D01*
X87613Y113998D01*
X87636Y114126D01*
X87647Y114265D01*
X87652Y114415D01*
Y114420D01*
Y114437D01*
Y114459D01*
Y114492D01*
X87647Y114537D01*
Y114581D01*
X87641Y114637D01*
X87630Y114692D01*
X87613Y114820D01*
X87586Y114959D01*
X87547Y115097D01*
X87491Y115231D01*
Y115236D01*
X87486Y115247D01*
X87475Y115264D01*
X87464Y115286D01*
X87425Y115353D01*
X87375Y115430D01*
X87308Y115519D01*
X87225Y115608D01*
X87131Y115697D01*
X87025Y115775D01*
X87020D01*
X87014Y115786D01*
X86997Y115791D01*
X86970Y115808D01*
X86942Y115819D01*
X86909Y115835D01*
X86826Y115874D01*
X86725Y115908D01*
X86609Y115941D01*
X86476Y115963D01*
X86337Y115969D01*
D02*
G37*
G36*
X123184Y122913D02*
X121974D01*
Y121642D01*
X123118D01*
X123184Y121648D01*
X123262Y121653D01*
X123351Y121659D01*
X123440Y121670D01*
X123528Y121687D01*
X123606Y121709D01*
X123617Y121714D01*
X123639Y121725D01*
X123673Y121742D01*
X123717Y121764D01*
X123767Y121798D01*
X123817Y121837D01*
X123867Y121887D01*
X123906Y121942D01*
X123911Y121948D01*
X123922Y121970D01*
X123939Y122003D01*
X123961Y122047D01*
X123978Y122097D01*
X123995Y122153D01*
X124006Y122220D01*
X124011Y122286D01*
Y122292D01*
Y122297D01*
X124006Y122330D01*
X124000Y122380D01*
X123989Y122447D01*
X123961Y122514D01*
X123928Y122591D01*
X123878Y122663D01*
X123811Y122736D01*
X123800Y122741D01*
X123773Y122763D01*
X123728Y122791D01*
X123656Y122825D01*
X123573Y122858D01*
X123462Y122886D01*
X123334Y122908D01*
X123184Y122913D01*
D02*
G37*
G36*
X105720Y102913D02*
X104511D01*
Y101642D01*
X105654D01*
X105720Y101648D01*
X105798Y101653D01*
X105887Y101659D01*
X105976Y101670D01*
X106065Y101687D01*
X106142Y101709D01*
X106153Y101714D01*
X106176Y101725D01*
X106209Y101742D01*
X106253Y101764D01*
X106303Y101798D01*
X106353Y101837D01*
X106403Y101886D01*
X106442Y101942D01*
X106448Y101948D01*
X106459Y101970D01*
X106475Y102003D01*
X106498Y102048D01*
X106514Y102097D01*
X106531Y102153D01*
X106542Y102219D01*
X106547Y102286D01*
Y102292D01*
Y102297D01*
X106542Y102331D01*
X106536Y102380D01*
X106525Y102447D01*
X106498Y102514D01*
X106464Y102591D01*
X106414Y102664D01*
X106348Y102736D01*
X106337Y102741D01*
X106309Y102763D01*
X106264Y102791D01*
X106192Y102824D01*
X106109Y102858D01*
X105998Y102885D01*
X105870Y102908D01*
X105720Y102913D01*
D02*
G37*
G36*
X89220D02*
X88011D01*
Y101642D01*
X89154D01*
X89220Y101648D01*
X89298Y101653D01*
X89387Y101659D01*
X89476Y101670D01*
X89565Y101687D01*
X89642Y101709D01*
X89653Y101714D01*
X89676Y101725D01*
X89709Y101742D01*
X89753Y101764D01*
X89803Y101798D01*
X89853Y101837D01*
X89903Y101886D01*
X89942Y101942D01*
X89948Y101948D01*
X89959Y101970D01*
X89975Y102003D01*
X89998Y102048D01*
X90014Y102097D01*
X90031Y102153D01*
X90042Y102219D01*
X90048Y102286D01*
Y102292D01*
Y102297D01*
X90042Y102331D01*
X90036Y102380D01*
X90025Y102447D01*
X89998Y102514D01*
X89964Y102591D01*
X89914Y102664D01*
X89848Y102736D01*
X89837Y102741D01*
X89809Y102763D01*
X89764Y102791D01*
X89692Y102824D01*
X89609Y102858D01*
X89498Y102885D01*
X89370Y102908D01*
X89220Y102913D01*
D02*
G37*
G36*
X115995Y89969D02*
X115906D01*
X115884Y89963D01*
X115823Y89958D01*
X115751Y89935D01*
X115662Y89908D01*
X115568Y89858D01*
X115473Y89797D01*
X115429Y89752D01*
X115384Y89708D01*
Y89702D01*
X115373Y89697D01*
X115362Y89680D01*
X115351Y89663D01*
X115312Y89608D01*
X115273Y89530D01*
X115229Y89436D01*
X115190Y89319D01*
X115168Y89186D01*
X115157Y89042D01*
Y89036D01*
Y89025D01*
Y89009D01*
X115163Y88981D01*
Y88948D01*
X115168Y88914D01*
X115185Y88831D01*
X115212Y88737D01*
X115246Y88637D01*
X115301Y88537D01*
X115373Y88448D01*
X115384Y88437D01*
X115412Y88415D01*
X115462Y88376D01*
X115523Y88337D01*
X115606Y88293D01*
X115701Y88254D01*
X115806Y88232D01*
X115923Y88221D01*
X115956D01*
X115978Y88226D01*
X116039Y88232D01*
X116112Y88248D01*
X116200Y88276D01*
X116289Y88315D01*
X116378Y88370D01*
X116461Y88448D01*
X116472Y88459D01*
X116495Y88492D01*
X116528Y88542D01*
X116572Y88614D01*
X116611Y88703D01*
X116644Y88809D01*
X116667Y88937D01*
X116678Y89081D01*
Y89086D01*
Y89097D01*
Y89120D01*
X116672Y89147D01*
Y89186D01*
X116667Y89225D01*
X116650Y89314D01*
X116628Y89419D01*
X116589Y89530D01*
X116533Y89636D01*
X116461Y89730D01*
Y89736D01*
X116450Y89741D01*
X116422Y89769D01*
X116378Y89808D01*
X116317Y89852D01*
X116239Y89891D01*
X116150Y89930D01*
X116051Y89958D01*
X115995Y89969D01*
D02*
G37*
G36*
X112721Y89913D02*
X111511D01*
Y88642D01*
X112654D01*
X112721Y88648D01*
X112798Y88653D01*
X112887Y88659D01*
X112976Y88670D01*
X113065Y88687D01*
X113142Y88709D01*
X113153Y88714D01*
X113176Y88726D01*
X113209Y88742D01*
X113253Y88764D01*
X113303Y88798D01*
X113353Y88836D01*
X113403Y88886D01*
X113442Y88942D01*
X113448Y88948D01*
X113459Y88970D01*
X113475Y89003D01*
X113497Y89047D01*
X113514Y89097D01*
X113531Y89153D01*
X113542Y89219D01*
X113548Y89286D01*
Y89292D01*
Y89297D01*
X113542Y89331D01*
X113536Y89380D01*
X113525Y89447D01*
X113497Y89514D01*
X113464Y89591D01*
X113414Y89663D01*
X113348Y89736D01*
X113337Y89741D01*
X113309Y89763D01*
X113264Y89791D01*
X113192Y89824D01*
X113109Y89858D01*
X112998Y89885D01*
X112870Y89908D01*
X112721Y89913D01*
D02*
G37*
G36*
X69721Y88413D02*
X68511D01*
Y87142D01*
X69654D01*
X69721Y87148D01*
X69798Y87153D01*
X69887Y87159D01*
X69976Y87170D01*
X70065Y87187D01*
X70142Y87209D01*
X70153Y87214D01*
X70176Y87226D01*
X70209Y87242D01*
X70253Y87264D01*
X70303Y87298D01*
X70353Y87336D01*
X70403Y87387D01*
X70442Y87442D01*
X70448Y87448D01*
X70459Y87470D01*
X70475Y87503D01*
X70498Y87547D01*
X70514Y87597D01*
X70531Y87653D01*
X70542Y87720D01*
X70547Y87786D01*
Y87792D01*
Y87797D01*
X70542Y87831D01*
X70536Y87880D01*
X70525Y87947D01*
X70498Y88014D01*
X70464Y88091D01*
X70414Y88164D01*
X70348Y88236D01*
X70337Y88241D01*
X70309Y88263D01*
X70264Y88291D01*
X70192Y88324D01*
X70109Y88358D01*
X69998Y88385D01*
X69870Y88408D01*
X69721Y88413D01*
D02*
G37*
G36*
X72934Y88469D02*
X72890D01*
X72840Y88458D01*
X72773Y88447D01*
X72701Y88424D01*
X72623Y88397D01*
X72551Y88352D01*
X72479Y88291D01*
X72473Y88286D01*
X72451Y88263D01*
X72423Y88225D01*
X72396Y88175D01*
X72362Y88113D01*
X72335Y88041D01*
X72312Y87964D01*
X72307Y87875D01*
Y87869D01*
Y87864D01*
X72312Y87831D01*
X72318Y87781D01*
X72329Y87720D01*
X72351Y87647D01*
X72379Y87575D01*
X72423Y87498D01*
X72479Y87431D01*
X72484Y87425D01*
X72512Y87403D01*
X72551Y87375D01*
X72601Y87348D01*
X72668Y87314D01*
X72745Y87287D01*
X72834Y87264D01*
X72934Y87259D01*
X72945D01*
X72978Y87264D01*
X73028Y87270D01*
X73095Y87281D01*
X73167Y87303D01*
X73239Y87331D01*
X73317Y87375D01*
X73383Y87431D01*
X73389Y87436D01*
X73411Y87464D01*
X73439Y87498D01*
X73472Y87547D01*
X73506Y87608D01*
X73533Y87681D01*
X73556Y87764D01*
X73561Y87853D01*
Y87858D01*
Y87864D01*
Y87897D01*
X73550Y87947D01*
X73539Y88008D01*
X73517Y88075D01*
X73483Y88147D01*
X73439Y88219D01*
X73378Y88291D01*
X73372Y88297D01*
X73345Y88319D01*
X73306Y88347D01*
X73256Y88380D01*
X73189Y88413D01*
X73117Y88441D01*
X73028Y88463D01*
X72934Y88469D01*
D02*
G37*
G36*
X72917Y86876D02*
X72884D01*
X72862Y86870D01*
X72801Y86865D01*
X72723Y86848D01*
X72634Y86820D01*
X72545Y86782D01*
X72451Y86726D01*
X72368Y86654D01*
X72357Y86643D01*
X72335Y86615D01*
X72301Y86565D01*
X72262Y86504D01*
X72218Y86421D01*
X72185Y86326D01*
X72162Y86221D01*
X72151Y86104D01*
Y86093D01*
Y86071D01*
X72157Y86032D01*
X72162Y85982D01*
X72174Y85921D01*
X72190Y85855D01*
X72212Y85788D01*
X72240Y85716D01*
X72246Y85710D01*
X72257Y85683D01*
X72279Y85649D01*
X72312Y85611D01*
X72351Y85561D01*
X72401Y85511D01*
X72457Y85466D01*
X72523Y85422D01*
X72534Y85416D01*
X72557Y85405D01*
X72595Y85388D01*
X72645Y85372D01*
X72706Y85355D01*
X72778Y85338D01*
X72856Y85327D01*
X72934Y85322D01*
X72967D01*
X72989Y85327D01*
X73056Y85333D01*
X73134Y85350D01*
X73223Y85377D01*
X73317Y85411D01*
X73406Y85466D01*
X73494Y85538D01*
X73506Y85549D01*
X73528Y85577D01*
X73567Y85627D01*
X73606Y85688D01*
X73644Y85766D01*
X73683Y85860D01*
X73705Y85971D01*
X73716Y86088D01*
Y86093D01*
Y86104D01*
Y86121D01*
X73711Y86143D01*
X73705Y86204D01*
X73689Y86288D01*
X73661Y86371D01*
X73622Y86465D01*
X73567Y86560D01*
X73489Y86648D01*
X73478Y86659D01*
X73450Y86682D01*
X73400Y86721D01*
X73334Y86765D01*
X73250Y86804D01*
X73150Y86843D01*
X73039Y86865D01*
X72917Y86876D01*
D02*
G37*
G36*
X121646Y80684D02*
X119925D01*
X121646Y79474D01*
Y80684D01*
D02*
G37*
G36*
X120214Y78048D02*
X120208D01*
X120203D01*
X120169Y78042D01*
X120120Y78036D01*
X120053Y78025D01*
X119986Y77997D01*
X119909Y77964D01*
X119836Y77914D01*
X119764Y77848D01*
X119759Y77837D01*
X119737Y77809D01*
X119709Y77764D01*
X119676Y77692D01*
X119642Y77609D01*
X119615Y77498D01*
X119592Y77370D01*
X119587Y77220D01*
Y76011D01*
X120858D01*
Y77154D01*
X120852Y77220D01*
X120847Y77298D01*
X120841Y77387D01*
X120830Y77476D01*
X120813Y77565D01*
X120791Y77642D01*
X120785Y77653D01*
X120774Y77676D01*
X120758Y77709D01*
X120736Y77753D01*
X120702Y77803D01*
X120663Y77853D01*
X120614Y77903D01*
X120558Y77942D01*
X120552Y77948D01*
X120530Y77959D01*
X120497Y77975D01*
X120452Y77997D01*
X120403Y78014D01*
X120347Y78031D01*
X120281Y78042D01*
X120214Y78048D01*
D02*
G37*
G36*
X125552Y111653D02*
X125546D01*
X125524D01*
X125496D01*
X125452Y111647D01*
X125402D01*
X125347Y111642D01*
X125280Y111636D01*
X125213Y111631D01*
X125064Y111603D01*
X124908Y111570D01*
X124764Y111520D01*
X124692Y111486D01*
X124631Y111453D01*
X124625D01*
X124614Y111442D01*
X124597Y111431D01*
X124575Y111420D01*
X124520Y111375D01*
X124453Y111320D01*
X124381Y111248D01*
X124309Y111164D01*
X124248Y111070D01*
X124198Y110970D01*
X124192Y110959D01*
X124187Y110931D01*
X124170Y110881D01*
X124153Y110809D01*
X124142Y110721D01*
X124126Y110609D01*
X124120Y110543D01*
Y110471D01*
X124115Y110399D01*
Y109511D01*
X127045D01*
Y110421D01*
X127039Y110460D01*
X127034Y110543D01*
X127028Y110637D01*
X127017Y110737D01*
X127000Y110837D01*
X126978Y110920D01*
X126973Y110931D01*
X126967Y110959D01*
X126951Y110998D01*
X126928Y111048D01*
X126895Y111103D01*
X126862Y111159D01*
X126823Y111214D01*
X126778Y111270D01*
X126767Y111275D01*
X126745Y111298D01*
X126706Y111331D01*
X126651Y111370D01*
X126579Y111414D01*
X126496Y111464D01*
X126401Y111509D01*
X126296Y111548D01*
X126290D01*
X126279Y111553D01*
X126262Y111558D01*
X126240Y111564D01*
X126212Y111570D01*
X126174Y111581D01*
X126135Y111592D01*
X126090Y111603D01*
X125979Y111620D01*
X125852Y111636D01*
X125707Y111647D01*
X125552Y111653D01*
D02*
G37*
G36*
X131552Y112153D02*
X131546D01*
X131524D01*
X131497D01*
X131452Y112147D01*
X131402D01*
X131347Y112142D01*
X131280Y112136D01*
X131213Y112131D01*
X131064Y112103D01*
X130908Y112070D01*
X130764Y112020D01*
X130692Y111986D01*
X130631Y111953D01*
X130625D01*
X130614Y111942D01*
X130597Y111931D01*
X130575Y111920D01*
X130520Y111875D01*
X130453Y111820D01*
X130381Y111748D01*
X130309Y111664D01*
X130248Y111570D01*
X130198Y111470D01*
X130192Y111459D01*
X130187Y111431D01*
X130170Y111381D01*
X130153Y111309D01*
X130142Y111221D01*
X130126Y111109D01*
X130120Y111043D01*
Y110971D01*
X130114Y110899D01*
Y110011D01*
X133045D01*
Y110921D01*
X133039Y110960D01*
X133034Y111043D01*
X133028Y111137D01*
X133017Y111237D01*
X133001Y111337D01*
X132978Y111420D01*
X132973Y111431D01*
X132967Y111459D01*
X132950Y111498D01*
X132928Y111548D01*
X132895Y111603D01*
X132862Y111659D01*
X132823Y111714D01*
X132779Y111770D01*
X132767Y111776D01*
X132745Y111798D01*
X132706Y111831D01*
X132651Y111870D01*
X132579Y111914D01*
X132495Y111964D01*
X132401Y112009D01*
X132296Y112048D01*
X132290D01*
X132279Y112053D01*
X132262Y112058D01*
X132240Y112064D01*
X132212Y112070D01*
X132174Y112081D01*
X132135Y112092D01*
X132090Y112103D01*
X131979Y112120D01*
X131852Y112136D01*
X131707Y112147D01*
X131552Y112153D01*
D02*
G37*
G36*
X145714Y88547D02*
X145708D01*
X145703D01*
X145669Y88542D01*
X145620Y88536D01*
X145553Y88525D01*
X145486Y88498D01*
X145409Y88464D01*
X145336Y88414D01*
X145264Y88348D01*
X145259Y88336D01*
X145237Y88309D01*
X145209Y88264D01*
X145176Y88192D01*
X145142Y88109D01*
X145115Y87998D01*
X145092Y87870D01*
X145087Y87721D01*
Y86511D01*
X146358D01*
Y87654D01*
X146352Y87721D01*
X146347Y87798D01*
X146341Y87887D01*
X146330Y87976D01*
X146313Y88065D01*
X146291Y88142D01*
X146285Y88153D01*
X146274Y88176D01*
X146258Y88209D01*
X146236Y88253D01*
X146202Y88303D01*
X146163Y88353D01*
X146114Y88403D01*
X146058Y88442D01*
X146052Y88448D01*
X146030Y88459D01*
X145997Y88475D01*
X145952Y88498D01*
X145903Y88514D01*
X145847Y88531D01*
X145781Y88542D01*
X145714Y88547D01*
D02*
G37*
G36*
X125214Y78548D02*
X125208D01*
X125203D01*
X125170Y78542D01*
X125120Y78536D01*
X125053Y78525D01*
X124986Y78497D01*
X124909Y78464D01*
X124837Y78414D01*
X124764Y78348D01*
X124759Y78337D01*
X124737Y78309D01*
X124709Y78264D01*
X124676Y78192D01*
X124642Y78109D01*
X124615Y77998D01*
X124592Y77870D01*
X124587Y77720D01*
Y76511D01*
X125858D01*
Y77654D01*
X125852Y77720D01*
X125847Y77798D01*
X125841Y77887D01*
X125830Y77976D01*
X125813Y78065D01*
X125791Y78142D01*
X125786Y78153D01*
X125775Y78176D01*
X125758Y78209D01*
X125736Y78253D01*
X125702Y78303D01*
X125663Y78353D01*
X125613Y78403D01*
X125558Y78442D01*
X125552Y78448D01*
X125530Y78459D01*
X125497Y78475D01*
X125452Y78497D01*
X125403Y78514D01*
X125347Y78531D01*
X125280Y78542D01*
X125214Y78548D01*
D02*
G37*
G36*
X124214Y64511D02*
X124208D01*
X124203D01*
X124170Y64506D01*
X124120Y64500D01*
X124053Y64489D01*
X123986Y64461D01*
X123909Y64428D01*
X123837Y64378D01*
X123764Y64311D01*
X123759Y64300D01*
X123737Y64272D01*
X123709Y64228D01*
X123676Y64156D01*
X123642Y64073D01*
X123615Y63962D01*
X123592Y63834D01*
X123587Y63684D01*
Y62474D01*
X124858D01*
Y63618D01*
X124852Y63684D01*
X124847Y63762D01*
X124841Y63851D01*
X124830Y63939D01*
X124813Y64028D01*
X124791Y64106D01*
X124785Y64117D01*
X124775Y64139D01*
X124758Y64173D01*
X124736Y64217D01*
X124702Y64267D01*
X124663Y64317D01*
X124613Y64367D01*
X124558Y64406D01*
X124552Y64411D01*
X124530Y64422D01*
X124497Y64439D01*
X124452Y64461D01*
X124403Y64478D01*
X124347Y64495D01*
X124281Y64506D01*
X124214Y64511D01*
D02*
G37*
G36*
X77720Y72413D02*
X76511D01*
Y71142D01*
X77654D01*
X77720Y71148D01*
X77798Y71153D01*
X77887Y71159D01*
X77976Y71170D01*
X78065Y71187D01*
X78142Y71209D01*
X78153Y71214D01*
X78176Y71226D01*
X78209Y71242D01*
X78253Y71264D01*
X78303Y71298D01*
X78353Y71337D01*
X78403Y71386D01*
X78442Y71442D01*
X78448Y71448D01*
X78459Y71470D01*
X78475Y71503D01*
X78497Y71548D01*
X78514Y71597D01*
X78531Y71653D01*
X78542Y71719D01*
X78548Y71786D01*
Y71792D01*
Y71797D01*
X78542Y71830D01*
X78536Y71880D01*
X78525Y71947D01*
X78497Y72014D01*
X78464Y72091D01*
X78414Y72163D01*
X78348Y72236D01*
X78337Y72241D01*
X78309Y72263D01*
X78264Y72291D01*
X78192Y72325D01*
X78109Y72358D01*
X77998Y72386D01*
X77870Y72408D01*
X77720Y72413D01*
D02*
G37*
G36*
X56184Y82413D02*
X54974D01*
Y81142D01*
X56118D01*
X56184Y81148D01*
X56262Y81153D01*
X56351Y81159D01*
X56440Y81170D01*
X56528Y81187D01*
X56606Y81209D01*
X56617Y81214D01*
X56639Y81226D01*
X56673Y81242D01*
X56717Y81264D01*
X56767Y81298D01*
X56817Y81336D01*
X56867Y81387D01*
X56906Y81442D01*
X56911Y81448D01*
X56922Y81470D01*
X56939Y81503D01*
X56961Y81547D01*
X56978Y81597D01*
X56994Y81653D01*
X57006Y81719D01*
X57011Y81786D01*
Y81792D01*
Y81797D01*
X57006Y81831D01*
X57000Y81880D01*
X56989Y81947D01*
X56961Y82014D01*
X56928Y82091D01*
X56878Y82164D01*
X56811Y82236D01*
X56800Y82241D01*
X56773Y82263D01*
X56728Y82291D01*
X56656Y82324D01*
X56573Y82358D01*
X56462Y82385D01*
X56334Y82408D01*
X56184Y82413D01*
D02*
G37*
G36*
X27899Y89885D02*
X27011D01*
Y86955D01*
X27921D01*
X27960Y86961D01*
X28043Y86966D01*
X28137Y86972D01*
X28237Y86983D01*
X28337Y86999D01*
X28420Y87022D01*
X28431Y87027D01*
X28459Y87033D01*
X28498Y87050D01*
X28548Y87072D01*
X28603Y87105D01*
X28659Y87138D01*
X28714Y87177D01*
X28770Y87221D01*
X28776Y87233D01*
X28798Y87255D01*
X28831Y87294D01*
X28870Y87349D01*
X28914Y87421D01*
X28964Y87505D01*
X29009Y87599D01*
X29047Y87704D01*
Y87710D01*
X29053Y87721D01*
X29059Y87738D01*
X29064Y87760D01*
X29070Y87788D01*
X29081Y87826D01*
X29092Y87865D01*
X29103Y87910D01*
X29120Y88021D01*
X29136Y88148D01*
X29147Y88293D01*
X29153Y88448D01*
Y88454D01*
Y88476D01*
Y88503D01*
X29147Y88548D01*
Y88598D01*
X29142Y88653D01*
X29136Y88720D01*
X29131Y88787D01*
X29103Y88937D01*
X29070Y89092D01*
X29020Y89236D01*
X28986Y89308D01*
X28953Y89369D01*
Y89375D01*
X28942Y89386D01*
X28931Y89403D01*
X28920Y89425D01*
X28875Y89480D01*
X28820Y89547D01*
X28748Y89619D01*
X28664Y89691D01*
X28570Y89752D01*
X28470Y89802D01*
X28459Y89808D01*
X28431Y89813D01*
X28381Y89830D01*
X28309Y89847D01*
X28220Y89858D01*
X28109Y89874D01*
X28043Y89880D01*
X27971D01*
X27899Y89885D01*
D02*
G37*
G36*
X23921Y61885D02*
X23011D01*
Y60731D01*
X23954D01*
X24026Y60737D01*
X24104Y60742D01*
X24182Y60748D01*
X24259Y60759D01*
X24320Y60770D01*
X24331Y60776D01*
X24354Y60781D01*
X24387Y60798D01*
X24431Y60820D01*
X24476Y60842D01*
X24526Y60875D01*
X24576Y60920D01*
X24614Y60964D01*
X24620Y60970D01*
X24631Y60986D01*
X24648Y61020D01*
X24665Y61059D01*
X24681Y61103D01*
X24698Y61159D01*
X24709Y61225D01*
X24714Y61297D01*
Y61308D01*
Y61330D01*
X24709Y61364D01*
X24703Y61408D01*
X24692Y61464D01*
X24676Y61519D01*
X24653Y61575D01*
X24620Y61630D01*
X24614Y61636D01*
X24603Y61652D01*
X24581Y61680D01*
X24554Y61708D01*
X24515Y61741D01*
X24470Y61774D01*
X24415Y61808D01*
X24354Y61830D01*
X24348D01*
X24320Y61841D01*
X24282Y61847D01*
X24220Y61858D01*
X24137Y61869D01*
X24043Y61874D01*
X23921Y61885D01*
D02*
G37*
G36*
X24021Y60276D02*
X23011D01*
Y58955D01*
X24104D01*
X24220Y58961D01*
X24270Y58966D01*
X24315Y58972D01*
X24320D01*
X24343Y58977D01*
X24376Y58983D01*
X24415Y58994D01*
X24509Y59027D01*
X24603Y59072D01*
X24609Y59077D01*
X24626Y59088D01*
X24648Y59105D01*
X24676Y59127D01*
X24703Y59161D01*
X24742Y59194D01*
X24770Y59238D01*
X24803Y59288D01*
X24809Y59294D01*
X24814Y59310D01*
X24825Y59344D01*
X24842Y59382D01*
X24859Y59427D01*
X24870Y59482D01*
X24875Y59549D01*
X24881Y59615D01*
Y59627D01*
Y59649D01*
X24875Y59693D01*
X24864Y59743D01*
X24853Y59799D01*
X24831Y59860D01*
X24803Y59921D01*
X24764Y59982D01*
X24759Y59987D01*
X24742Y60010D01*
X24720Y60037D01*
X24687Y60071D01*
X24642Y60110D01*
X24587Y60148D01*
X24526Y60182D01*
X24454Y60209D01*
X24442Y60215D01*
X24420Y60220D01*
X24370Y60232D01*
X24309Y60243D01*
X24232Y60254D01*
X24137Y60265D01*
X24021Y60276D01*
D02*
G37*
G36*
X61221Y33913D02*
X60011D01*
Y32642D01*
X61154D01*
X61221Y32648D01*
X61298Y32653D01*
X61387Y32659D01*
X61476Y32670D01*
X61565Y32687D01*
X61642Y32709D01*
X61653Y32714D01*
X61676Y32726D01*
X61709Y32742D01*
X61753Y32764D01*
X61803Y32798D01*
X61853Y32836D01*
X61903Y32886D01*
X61942Y32942D01*
X61948Y32948D01*
X61959Y32970D01*
X61975Y33003D01*
X61997Y33047D01*
X62014Y33097D01*
X62031Y33153D01*
X62042Y33220D01*
X62047Y33286D01*
Y33292D01*
Y33297D01*
X62042Y33331D01*
X62036Y33380D01*
X62025Y33447D01*
X61997Y33514D01*
X61964Y33591D01*
X61914Y33663D01*
X61848Y33736D01*
X61836Y33741D01*
X61809Y33763D01*
X61764Y33791D01*
X61692Y33825D01*
X61609Y33858D01*
X61498Y33885D01*
X61370Y33908D01*
X61221Y33913D01*
D02*
G37*
G36*
X128785Y174711D02*
X128779D01*
X128768D01*
X128746D01*
X128718Y174705D01*
X128685D01*
X128646Y174700D01*
X128557Y174683D01*
X128457Y174661D01*
X128352Y174622D01*
X128252Y174567D01*
X128157Y174495D01*
X128146Y174483D01*
X128119Y174456D01*
X128085Y174411D01*
X128041Y174350D01*
X127997Y174273D01*
X127963Y174184D01*
X127935Y174078D01*
X127924Y173962D01*
Y173928D01*
X127930Y173906D01*
X127935Y173851D01*
X127952Y173773D01*
X127980Y173690D01*
X128024Y173595D01*
X128080Y173507D01*
X128157Y173418D01*
X128168Y173407D01*
X128196Y173384D01*
X128246Y173346D01*
X128318Y173307D01*
X128402Y173268D01*
X128507Y173229D01*
X128624Y173207D01*
X128757Y173196D01*
X128768D01*
X128796D01*
X128846Y173201D01*
X128907Y173207D01*
X128979Y173218D01*
X129057Y173240D01*
X129140Y173262D01*
X129223Y173296D01*
X129234Y173301D01*
X129262Y173318D01*
X129301Y173340D01*
X129351Y173373D01*
X129401Y173412D01*
X129462Y173462D01*
X129512Y173518D01*
X129562Y173584D01*
X129567Y173595D01*
X129578Y173618D01*
X129600Y173656D01*
X129617Y173706D01*
X129639Y173762D01*
X129661Y173828D01*
X129673Y173901D01*
X129678Y173978D01*
Y174006D01*
X129673Y174028D01*
X129667Y174084D01*
X129650Y174156D01*
X129617Y174234D01*
X129578Y174322D01*
X129517Y174411D01*
X129484Y174456D01*
X129439Y174495D01*
X129434D01*
X129428Y174506D01*
X129395Y174528D01*
X129340Y174561D01*
X129267Y174606D01*
X129173Y174644D01*
X129062Y174678D01*
X128934Y174700D01*
X128785Y174711D01*
D02*
G37*
G36*
X127214Y171547D02*
X127208D01*
X127203D01*
X127170Y171542D01*
X127120Y171536D01*
X127053Y171525D01*
X126986Y171497D01*
X126909Y171464D01*
X126837Y171414D01*
X126764Y171348D01*
X126759Y171337D01*
X126737Y171309D01*
X126709Y171264D01*
X126675Y171192D01*
X126642Y171109D01*
X126614Y170998D01*
X126592Y170870D01*
X126587Y170721D01*
Y169511D01*
X127858D01*
Y170654D01*
X127852Y170721D01*
X127847Y170798D01*
X127841Y170887D01*
X127830Y170976D01*
X127813Y171065D01*
X127791Y171142D01*
X127786Y171153D01*
X127775Y171176D01*
X127758Y171209D01*
X127736Y171253D01*
X127702Y171303D01*
X127663Y171353D01*
X127613Y171403D01*
X127558Y171442D01*
X127552Y171448D01*
X127530Y171459D01*
X127497Y171475D01*
X127453Y171497D01*
X127403Y171514D01*
X127347Y171531D01*
X127280Y171542D01*
X127214Y171547D01*
D02*
G37*
G36*
X145295Y147413D02*
X144085D01*
Y146142D01*
X145228D01*
X145295Y146148D01*
X145372Y146153D01*
X145461Y146159D01*
X145550Y146170D01*
X145639Y146187D01*
X145717Y146209D01*
X145728Y146214D01*
X145750Y146226D01*
X145783Y146242D01*
X145827Y146264D01*
X145877Y146298D01*
X145927Y146337D01*
X145977Y146387D01*
X146016Y146442D01*
X146022Y146448D01*
X146033Y146470D01*
X146049Y146503D01*
X146072Y146547D01*
X146088Y146597D01*
X146105Y146653D01*
X146116Y146720D01*
X146122Y146786D01*
Y146792D01*
Y146797D01*
X146116Y146830D01*
X146110Y146880D01*
X146099Y146947D01*
X146072Y147014D01*
X146038Y147091D01*
X145988Y147163D01*
X145922Y147236D01*
X145911Y147241D01*
X145883Y147263D01*
X145839Y147291D01*
X145766Y147325D01*
X145683Y147358D01*
X145572Y147386D01*
X145445Y147408D01*
X145295Y147413D01*
D02*
G37*
G36*
X156780Y192686D02*
X156607D01*
X156602D01*
X156596D01*
X156569D01*
X156519D01*
X156452Y192680D01*
X156380D01*
X156291Y192675D01*
X156197Y192669D01*
X156091Y192658D01*
X155880Y192630D01*
X155775Y192614D01*
X155675Y192591D01*
X155581Y192569D01*
X155492Y192536D01*
X155414Y192503D01*
X155348Y192464D01*
X155342D01*
X155336Y192453D01*
X155320Y192442D01*
X155298Y192425D01*
X155248Y192375D01*
X155187Y192314D01*
X155131Y192231D01*
X155081Y192136D01*
X155059Y192086D01*
X155042Y192031D01*
X155037Y191970D01*
X155031Y191909D01*
Y191876D01*
X155037Y191853D01*
X155048Y191792D01*
X155065Y191720D01*
X155098Y191637D01*
X155148Y191548D01*
X155181Y191504D01*
X155214Y191459D01*
X155259Y191420D01*
X155309Y191382D01*
X155314D01*
X155325Y191370D01*
X155348Y191359D01*
X155375Y191343D01*
X155420Y191326D01*
X155470Y191304D01*
X155531Y191287D01*
X155603Y191265D01*
X155686Y191243D01*
X155780Y191221D01*
X155886Y191198D01*
X156002Y191182D01*
X156136Y191165D01*
X156280Y191154D01*
X156435Y191148D01*
X156607Y191143D01*
X156619D01*
X156646D01*
X156696D01*
X156763Y191148D01*
X156835D01*
X156924Y191154D01*
X157018Y191159D01*
X157118Y191171D01*
X157334Y191198D01*
X157440Y191215D01*
X157540Y191237D01*
X157634Y191259D01*
X157723Y191293D01*
X157801Y191326D01*
X157867Y191365D01*
X157873D01*
X157878Y191376D01*
X157917Y191404D01*
X157967Y191454D01*
X158023Y191515D01*
X158078Y191598D01*
X158128Y191692D01*
X158167Y191798D01*
X158173Y191853D01*
X158178Y191914D01*
Y191948D01*
X158173Y191970D01*
X158161Y192025D01*
X158139Y192103D01*
X158100Y192186D01*
X158045Y192281D01*
X158012Y192325D01*
X157967Y192369D01*
X157923Y192414D01*
X157867Y192458D01*
X157862D01*
X157851Y192469D01*
X157834Y192480D01*
X157806Y192491D01*
X157767Y192514D01*
X157718Y192530D01*
X157662Y192552D01*
X157595Y192575D01*
X157512Y192591D01*
X157423Y192614D01*
X157318Y192636D01*
X157207Y192652D01*
X157074Y192664D01*
X156935Y192675D01*
X156780Y192686D01*
D02*
G37*
G36*
X155714Y186548D02*
X155708D01*
X155703D01*
X155669Y186542D01*
X155620Y186536D01*
X155553Y186525D01*
X155486Y186497D01*
X155409Y186464D01*
X155336Y186414D01*
X155264Y186348D01*
X155259Y186337D01*
X155237Y186309D01*
X155209Y186264D01*
X155175Y186192D01*
X155142Y186109D01*
X155114Y185998D01*
X155092Y185870D01*
X155087Y185721D01*
Y184511D01*
X156358D01*
Y185654D01*
X156352Y185721D01*
X156347Y185798D01*
X156341Y185887D01*
X156330Y185976D01*
X156313Y186065D01*
X156291Y186142D01*
X156286Y186153D01*
X156274Y186176D01*
X156258Y186209D01*
X156236Y186253D01*
X156202Y186303D01*
X156163Y186353D01*
X156114Y186403D01*
X156058Y186442D01*
X156052Y186448D01*
X156030Y186459D01*
X155997Y186475D01*
X155953Y186497D01*
X155903Y186514D01*
X155847Y186531D01*
X155780Y186542D01*
X155714Y186548D01*
D02*
G37*
%LPD*%
D10*
X69247Y48552D02*
G03*
X69247Y48552I-800J0D01*
G01*
X50157Y49937D02*
X69842D01*
X50157Y42063D02*
X69842D01*
Y49937D01*
X50157Y42063D02*
Y49937D01*
X105000Y106700D02*
Y112200D01*
X107500D01*
X112500D02*
X115000D01*
Y106700D02*
Y112200D01*
X89000Y106500D02*
X89000Y112000D01*
X91500D01*
X96500D02*
X99000D01*
X99000Y106500D01*
X123500Y95500D02*
X128500D01*
X123500Y84500D02*
Y95500D01*
Y84500D02*
X128500D01*
Y95500D01*
X123500Y96500D02*
X128500D01*
X123500D02*
Y101000D01*
X128500Y96500D02*
Y101000D01*
X124000Y107500D02*
X128000D01*
X129500Y96500D02*
X134500D01*
X129500D02*
Y101000D01*
X134500Y96500D02*
Y101000D01*
X130000Y107500D02*
X134000D01*
X129500Y95500D02*
X134500D01*
X129500Y84500D02*
Y95500D01*
Y84500D02*
X134500D01*
Y95500D01*
X129600Y59500D02*
Y80500D01*
X138400D01*
Y59500D02*
Y80500D01*
X129600Y59500D02*
X138400D01*
X86267Y60001D02*
X87400D01*
X92500D02*
X93632D01*
X94000Y49500D02*
Y70500D01*
X86000Y49500D02*
X94000D01*
X86000D02*
Y70500D01*
X94000D01*
X94267Y60001D02*
X95400D01*
X100500D02*
X101631D01*
X102000Y49500D02*
Y70500D01*
X94000Y49500D02*
X102000D01*
X94000D02*
Y70500D01*
X102000D01*
X71500Y68600D02*
Y77400D01*
X50500D02*
X71500D01*
X50500Y68600D02*
Y77400D01*
Y68600D02*
X71500D01*
X21500Y31100D02*
X30500D01*
X21500Y56900D02*
X30500D01*
X37000Y33500D02*
Y54500D01*
X15000Y33500D02*
Y54500D01*
X131600Y169500D02*
X140400D01*
Y190500D01*
X131600D02*
X140400D01*
X131600Y169500D02*
Y190500D01*
X160600Y205500D02*
X169400D01*
X160600Y184500D02*
Y205500D01*
Y184500D02*
X169400D01*
Y205500D01*
D11*
X98500Y30000D02*
G03*
X93500Y30000I-2500J0D01*
G01*
X104800Y32000D02*
G03*
X104800Y32000I-800J0D01*
G01*
X129000Y143500D02*
G03*
X129000Y148500I0J2500D01*
G01*
X130000Y131000D02*
G03*
X130000Y131000I-1000J0D01*
G01*
X132500Y138500D02*
G03*
X132500Y138500I-1000J0D01*
G01*
X25200Y75900D02*
Y84100D01*
X46800Y75900D02*
Y84100D01*
X40500Y75900D02*
X46800D01*
X40500Y84100D02*
X46800D01*
X25200Y75900D02*
X31500D01*
X25200Y84100D02*
X31500D01*
X36750Y77750D02*
Y82150D01*
X34850Y80250D02*
X36750Y82150D01*
X34850Y79650D02*
Y80250D01*
Y79650D02*
X36750Y77750D01*
X34850D02*
Y79650D01*
Y80250D02*
Y82150D01*
X127445Y21110D02*
Y34890D01*
X120555Y21110D02*
X127445D01*
X120555D02*
Y34890D01*
X127445D01*
X106433Y30000D02*
Y46000D01*
X85567Y30000D02*
Y46000D01*
X98500Y30000D02*
X106433D01*
X85567D02*
X93500D01*
X85567Y46000D02*
X106433D01*
X103110Y118555D02*
X116890D01*
X103110D02*
Y125445D01*
X116890D01*
Y118555D02*
Y125445D01*
X103110Y92255D02*
X116890D01*
X103110D02*
X103110Y99145D01*
X116890D01*
X116890Y92255D01*
X87110Y92055D02*
X100890D01*
X87110Y98945D02*
X87110Y92055D01*
X87110Y98945D02*
X100890D01*
X100890Y92055D02*
X100890Y98945D01*
X95110Y84055D02*
X108890D01*
X95110D02*
X95110Y90945D01*
X108890D01*
X108890Y84055D01*
X78110Y84055D02*
X91890D01*
X78110Y90945D02*
X78110Y84055D01*
X78110Y90945D02*
X91890D01*
X91890Y84055D02*
X91890Y90945D01*
X143445Y85110D02*
Y98890D01*
X136555Y85110D02*
X143445D01*
X136555D02*
Y98890D01*
X143445D01*
X69110Y67445D02*
X82890D01*
Y60555D02*
Y67445D01*
X69110Y60555D02*
X82890D01*
X69110D02*
Y67445D01*
X59110Y22555D02*
X72890D01*
X59110D02*
Y29445D01*
X72890D01*
Y22555D02*
Y29445D01*
X129000Y135567D02*
X159000D01*
X129000Y156433D02*
X159000D01*
X129000Y135567D02*
Y143500D01*
Y148500D02*
Y156433D01*
X159000Y135567D02*
Y156433D01*
D12*
X112492Y28000D02*
G03*
X112492Y28000I-492J0D01*
G01*
D13*
X32000Y44000D02*
G03*
X32000Y44000I-6000J0D01*
G01*
M02*
