G04*
G04 #@! TF.GenerationSoftware,Altium Limited,Altium Designer,20.2.5 (213)*
G04*
G04 Layer_Color=32896*
%FSLAX25Y25*%
%MOIN*%
G70*
G04*
G04 #@! TF.SameCoordinates,D46C28A9-7DA0-4B25-B7FC-F21E02E80399*
G04*
G04*
G04 #@! TF.FilePolarity,Positive*
G04*
G01*
G75*
%ADD10C,0.00800*%
%ADD11C,0.00400*%
%ADD13C,0.01000*%
%ADD58C,0.00200*%
D10*
X142000Y170000D02*
G03*
X142000Y170000I-2000J0D01*
G01*
X15707Y15000D02*
G03*
X15707Y15000I-707J0D01*
G01*
X15000D02*
Y25000D01*
X75000Y25000D01*
Y15000D02*
Y25000D01*
X15000Y15000D02*
X75000Y15000D01*
D11*
X115800Y25000D02*
G03*
X115800Y25000I-800J0D01*
G01*
X34000Y115000D02*
G03*
X28000Y115000I-3000J0D01*
G01*
X40000D02*
G03*
X34000Y115000I-3000J0D01*
G01*
X46000D02*
G03*
X40000Y115000I-3000J0D01*
G01*
X52000D02*
G03*
X46000Y115000I-3000J0D01*
G01*
X58000D02*
G03*
X52000Y115000I-3000J0D01*
G01*
X64000D02*
G03*
X58000Y115000I-3000J0D01*
G01*
X155500Y211000D02*
G03*
X155500Y211000I-1500J0D01*
G01*
X115000Y15000D02*
Y25000D01*
X85000Y15000D02*
X115000D01*
X85000D02*
Y25000D01*
X115000D01*
X15000Y170000D02*
X135000D01*
X15000D02*
Y220000D01*
X135000Y170000D02*
Y220000D01*
X15000D02*
X135000D01*
X28000Y108000D02*
Y115000D01*
X64000Y108000D02*
Y115000D01*
X77000Y90000D02*
Y165000D01*
X15000Y90000D02*
X77000D01*
X15000D02*
Y165000D01*
X77000D01*
X140500Y214500D02*
X158500D01*
X158500Y175500D02*
X158500Y214500D01*
X140500Y175500D02*
X158500Y175500D01*
X140500Y175500D02*
Y214500D01*
D13*
X115000Y34998D02*
X111001Y29000D01*
Y34998D02*
X115000Y29000D01*
X109002D02*
X107003D01*
X108002D01*
Y34998D01*
X109002Y33998D01*
X107156Y121598D02*
X108156Y122598D01*
Y124597D01*
X109155Y125597D01*
X102157Y131595D02*
Y127596D01*
X106156Y131595D01*
X107156D01*
X108156Y130596D01*
Y128596D01*
X107156Y127596D01*
X102157Y137593D02*
Y133595D01*
X106156Y137593D01*
X107156D01*
X108156Y136594D01*
Y134594D01*
X107156Y133595D01*
Y139593D02*
X108156Y140592D01*
Y142592D01*
X107156Y143591D01*
X103157D01*
X102157Y142592D01*
Y140592D01*
X103157Y139593D01*
X107156D01*
X152401Y66480D02*
Y70479D01*
X154400Y68480D02*
X150401D01*
X155400Y76477D02*
Y72478D01*
X152401D01*
X153400Y74478D01*
Y75477D01*
X152401Y76477D01*
X150401D01*
X149402Y75477D01*
Y73478D01*
X150401Y72478D01*
X155400Y78476D02*
X151401D01*
X149402Y80476D01*
X151401Y82475D01*
X155400D01*
X115030Y70479D02*
X116030Y69479D01*
Y67480D01*
X115030Y66480D01*
X111031D01*
X110031Y67480D01*
Y69479D01*
X111031Y70479D01*
X113031D01*
Y68480D01*
X110031Y72478D02*
X116030D01*
X110031Y76477D01*
X116030D01*
Y78476D02*
X110031D01*
Y81476D01*
X111031Y82475D01*
X115030D01*
X116030Y81476D01*
Y78476D01*
X141400Y229798D02*
X137401Y223800D01*
Y229798D02*
X141400Y223800D01*
X135402Y228798D02*
X134402Y229798D01*
X132403D01*
X131403Y228798D01*
Y227799D01*
X132403Y226799D01*
X133403D01*
X132403D01*
X131403Y225799D01*
Y224800D01*
X132403Y223800D01*
X134402D01*
X135402Y224800D01*
X76200Y174198D02*
Y168200D01*
Y170199D01*
X72201Y174198D01*
X75200Y171199D01*
X72201Y168200D01*
X70202D02*
X68203D01*
X69202D01*
Y174198D01*
X70202Y173198D01*
X157700Y223698D02*
X153701D01*
X155701D01*
Y217700D01*
X151702D02*
Y223698D01*
X148703D01*
X147703Y222698D01*
Y220699D01*
X148703Y219699D01*
X151702D01*
X149703D02*
X147703Y217700D01*
X141705D02*
X145704D01*
X141705Y221699D01*
Y222698D01*
X142705Y223698D01*
X144704D01*
X145704Y222698D01*
X74400Y34398D02*
X70401Y28400D01*
Y34398D02*
X74400Y28400D01*
X64403D02*
X68402D01*
X64403Y32399D01*
Y33398D01*
X65403Y34398D01*
X67402D01*
X68402Y33398D01*
X160442Y168150D02*
Y174148D01*
X158443Y172149D01*
X156444Y174148D01*
Y168150D01*
X151445Y174148D02*
X153445D01*
X154445Y173149D01*
Y169150D01*
X153445Y168150D01*
X151445D01*
X150446Y169150D01*
Y173149D01*
X151445Y174148D01*
X148446D02*
Y168150D01*
X145447D01*
X144448Y169150D01*
Y173149D01*
X145447Y174148D01*
X148446D01*
X142448Y168150D02*
X140449D01*
X141449D01*
Y174148D01*
X142448Y173149D01*
D58*
X102157Y62543D02*
X161213D01*
X102157Y46795D02*
Y62543D01*
X121843Y149158D02*
Y164906D01*
X82472Y149158D02*
X121843D01*
X82472D02*
X121843D01*
X161213Y46795D02*
Y164906D01*
X82472Y46795D02*
X161213D01*
X82472D02*
Y164906D01*
X161213D01*
M02*
