%TF.GenerationSoftware,Altium Limited,Altium Designer,20.2.5 (213)*%
G04 Layer_Color=128*
%FSLAX26Y26*%
%MOIN*%
%TF.SameCoordinates,777CE05A-463F-4341-A6E9-F235672CD6F8*%
%TF.FilePolarity,Positive*%
%TF.FileFunction,Drillmap*%
%TF.Part,Single*%
G01*
G75*
%TA.AperFunction,NonConductor*%
%ADD70C,0.005000*%
D70*
X882000Y200000D02*
X918000D01*
X900000Y182000D02*
Y218000D01*
X982000Y200000D02*
X1018000D01*
X1000000Y182000D02*
Y218000D01*
X1082000Y200000D02*
X1118000D01*
X1100000Y182000D02*
Y218000D01*
X860000Y1800000D02*
X940000D01*
X900000Y1760000D02*
Y1840000D01*
X1160000Y1800000D02*
X1240000D01*
X1200000Y1760000D02*
Y1840000D01*
X560000Y1800000D02*
X640000D01*
X600000Y1760000D02*
Y1840000D01*
X260000Y1800000D02*
X340000D01*
X300000Y1760000D02*
Y1840000D01*
X193780Y1513465D02*
X253780D01*
X223780Y1483465D02*
Y1543465D01*
X430000Y954409D02*
X490000D01*
X460000Y924409D02*
Y984409D01*
X193780Y1033150D02*
X253780D01*
X223780Y1003150D02*
Y1063150D01*
X666221Y1033150D02*
X726221D01*
X696221Y1003150D02*
Y1063150D01*
X1479997Y1850003D02*
X1519997D01*
X1499997Y1830003D02*
Y1870003D01*
X1480000Y1950000D02*
X1520000D01*
X1500000Y1930000D02*
Y1970000D01*
X1479997Y2050003D02*
X1519997D01*
X1499997Y2030003D02*
Y2070003D01*
X682000Y200000D02*
X718000D01*
X700000Y182000D02*
Y218000D01*
X582000Y200000D02*
X618000D01*
X600000Y182000D02*
Y218000D01*
X482000Y200000D02*
X518000D01*
X500000Y182000D02*
Y218000D01*
X382000Y200000D02*
X418000D01*
X400000Y182000D02*
Y218000D01*
X282000Y200000D02*
X318000D01*
X300000Y182000D02*
Y218000D01*
X182000Y200000D02*
X218000D01*
X200000Y182000D02*
Y218000D01*
X1100000Y527008D02*
X1140000D01*
X1120000Y507008D02*
Y547008D01*
X1493701Y527008D02*
X1533701D01*
X1513701Y507008D02*
Y547008D01*
X1100000Y1590000D02*
X1140000D01*
X1120000Y1570000D02*
Y1610000D01*
X903149Y1590000D02*
X943149D01*
X923149Y1570000D02*
Y1610000D01*
%TF.MD5,50f87504babc3c88b1c12d23d2cda651*%
M02*
