%TF.GenerationSoftware,Altium Limited,Altium Designer,20.2.5 (213)*%
G04 Layer_Color=8421504*
%FSLAX26Y26*%
%MOIN*%
%TF.SameCoordinates,777CE05A-463F-4341-A6E9-F235672CD6F8*%
%TF.FilePolarity,Positive*%
%TF.FileFunction,Other,Mechanical_2*%
%TF.Part,Single*%
G01*
G75*
%TA.AperFunction,NonConductor*%
%ADD36C,0.004000*%
%ADD38C,0.002000*%
D36*
X1070000Y170000D02*
Y230000D01*
X1130000D01*
Y170000D02*
Y230000D01*
X870000Y170000D02*
X1130000D01*
X870000D02*
Y230000D01*
X1130000D01*
X159449Y1733465D02*
X1340551D01*
X159449D02*
Y1875000D01*
X1340551D01*
Y1733465D02*
Y1875000D01*
X175000Y175000D02*
Y225000D01*
X725000D01*
Y175000D02*
Y225000D01*
X175000Y175000D02*
X725000D01*
X250000D02*
Y225000D01*
D38*
X824724Y1491575D02*
X1218425D01*
Y1649055D01*
X1021575Y467953D02*
Y625433D01*
X1612126D01*
X824724Y467953D02*
X1612126D01*
X824724D02*
Y1649055D01*
X1612126D01*
Y467953D02*
Y1649055D01*
X901424Y202852D02*
X899996Y205709D01*
X897139Y208565D01*
X894283Y209994D01*
X888570D01*
X885713Y208565D01*
X882856Y205709D01*
X881428Y202852D01*
X880000Y198567D01*
Y191426D01*
X881428Y187141D01*
X882856Y184285D01*
X885713Y181428D01*
X888570Y180000D01*
X894283D01*
X897139Y181428D01*
X899996Y184285D01*
X901424Y187141D01*
X918420Y209994D02*
X915564Y208565D01*
X912707Y205709D01*
X911279Y202852D01*
X909851Y198567D01*
Y191426D01*
X911279Y187141D01*
X912707Y184285D01*
X915564Y181428D01*
X918420Y180000D01*
X924133D01*
X926990Y181428D01*
X929846Y184285D01*
X931275Y187141D01*
X932703Y191426D01*
Y198567D01*
X931275Y202852D01*
X929846Y205709D01*
X926990Y208565D01*
X924133Y209994D01*
X918420D01*
X939701D02*
Y180000D01*
Y209994D02*
X959697Y180000D01*
Y209994D02*
Y180000D01*
X977979Y209994D02*
Y180000D01*
X967981Y209994D02*
X987977D01*
X991548D02*
Y180000D01*
Y209994D02*
X1004402D01*
X1008687Y208565D01*
X1010115Y207137D01*
X1011543Y204280D01*
Y201424D01*
X1010115Y198567D01*
X1008687Y197139D01*
X1004402Y195711D01*
X991548D01*
X1001545D02*
X1011543Y180000D01*
X1026826Y209994D02*
X1023969Y208565D01*
X1021113Y205709D01*
X1019684Y202852D01*
X1018256Y198567D01*
Y191426D01*
X1019684Y187141D01*
X1021113Y184285D01*
X1023969Y181428D01*
X1026826Y180000D01*
X1032539D01*
X1035395Y181428D01*
X1038252Y184285D01*
X1039680Y187141D01*
X1041108Y191426D01*
Y198567D01*
X1039680Y202852D01*
X1038252Y205709D01*
X1035395Y208565D01*
X1032539Y209994D01*
X1026826D01*
X1048107D02*
Y180000D01*
X1065246D01*
X197852Y1750000D02*
X186426Y1779994D01*
X175000Y1750000D01*
X179285Y1759998D02*
X193567D01*
X226275Y1772852D02*
X224846Y1775709D01*
X221990Y1778565D01*
X219133Y1779994D01*
X213420D01*
X210564Y1778565D01*
X207707Y1775709D01*
X206279Y1772852D01*
X204851Y1768567D01*
Y1761426D01*
X206279Y1757141D01*
X207707Y1754285D01*
X210564Y1751428D01*
X213420Y1750000D01*
X219133D01*
X221990Y1751428D01*
X224846Y1754285D01*
X226275Y1757141D01*
X175000Y1854994D02*
X194996Y1825000D01*
Y1854994D02*
X175000Y1825000D01*
X204565Y1854994D02*
X220276D01*
X211707Y1843568D01*
X215991D01*
X218848Y1842139D01*
X220276Y1840711D01*
X221704Y1836426D01*
Y1833570D01*
X220276Y1829285D01*
X217419Y1826428D01*
X213135Y1825000D01*
X208850D01*
X204565Y1826428D01*
X203137Y1827857D01*
X201709Y1830713D01*
%TF.MD5,759b2a9aa781c3ee224d38602619dc21*%
M02*
