%TF.GenerationSoftware,Altium Limited,Altium Designer,20.2.5 (213)*%
G04 Layer_Color=65535*
%FSLAX26Y26*%
%MOIN*%
%TF.SameCoordinates,777CE05A-463F-4341-A6E9-F235672CD6F8*%
%TF.FilePolarity,Positive*%
%TF.FileFunction,Legend,Top*%
%TF.Part,Single*%
G01*
G75*
%TA.AperFunction,NonConductor*%
%ADD24C,0.010000*%
%ADD36C,0.004000*%
%ADD37C,0.008000*%
%ADD46C,0.009842*%
G36*
X1195000Y246075D02*
X1194945D01*
X1194723D01*
X1194389D01*
X1193946Y246131D01*
X1193446Y246186D01*
X1192891Y246297D01*
X1192336Y246408D01*
X1191726Y246630D01*
X1191670D01*
X1191614Y246685D01*
X1191282Y246797D01*
X1190782Y247018D01*
X1190116Y247351D01*
X1189339Y247796D01*
X1188451Y248351D01*
X1187563Y248961D01*
X1186620Y249738D01*
X1186564D01*
X1186508Y249849D01*
X1186176Y250126D01*
X1185676Y250626D01*
X1184955Y251347D01*
X1184122Y252180D01*
X1183123Y253234D01*
X1182013Y254511D01*
X1180848Y255899D01*
X1180792Y255954D01*
X1180626Y256176D01*
X1180348Y256509D01*
X1180015Y256897D01*
X1179571Y257397D01*
X1179072Y258007D01*
X1178516Y258618D01*
X1177906Y259339D01*
X1176574Y260727D01*
X1175242Y262115D01*
X1174576Y262781D01*
X1173910Y263391D01*
X1173300Y263946D01*
X1172689Y264390D01*
X1172633D01*
X1172578Y264501D01*
X1172411Y264612D01*
X1172189Y264723D01*
X1171579Y265111D01*
X1170858Y265555D01*
X1169969Y265944D01*
X1169026Y266332D01*
X1167972Y266555D01*
X1166973Y266666D01*
X1166917D01*
X1166861D01*
X1166528Y266610D01*
X1165974Y266555D01*
X1165363Y266388D01*
X1164586Y266166D01*
X1163809Y265777D01*
X1163032Y265278D01*
X1162255Y264612D01*
X1162144Y264501D01*
X1161922Y264224D01*
X1161645Y263835D01*
X1161256Y263224D01*
X1160923Y262447D01*
X1160590Y261560D01*
X1160368Y260505D01*
X1160312Y259339D01*
Y259007D01*
X1160368Y258784D01*
X1160424Y258118D01*
X1160590Y257341D01*
X1160812Y256509D01*
X1161200Y255565D01*
X1161700Y254678D01*
X1162366Y253845D01*
X1162477Y253734D01*
X1162755Y253512D01*
X1163198Y253179D01*
X1163864Y252846D01*
X1164641Y252458D01*
X1165640Y252125D01*
X1166751Y251903D01*
X1168027Y251792D01*
X1167527Y246963D01*
X1167472D01*
X1167305Y247018D01*
X1167028D01*
X1166639Y247074D01*
X1166196Y247185D01*
X1165696Y247296D01*
X1165085Y247463D01*
X1164475Y247629D01*
X1163143Y248073D01*
X1161811Y248739D01*
X1161145Y249127D01*
X1160479Y249627D01*
X1159869Y250126D01*
X1159313Y250681D01*
X1159258Y250737D01*
X1159203Y250848D01*
X1159036Y251014D01*
X1158870Y251292D01*
X1158648Y251625D01*
X1158426Y252013D01*
X1158148Y252458D01*
X1157870Y253012D01*
X1157593Y253623D01*
X1157315Y254289D01*
X1157093Y255011D01*
X1156871Y255787D01*
X1156705Y256620D01*
X1156539Y257508D01*
X1156483Y258452D01*
X1156428Y259450D01*
Y260005D01*
X1156483Y260394D01*
X1156539Y260838D01*
X1156594Y261393D01*
X1156705Y262003D01*
X1156816Y262614D01*
X1157205Y264057D01*
X1157759Y265500D01*
X1158092Y266221D01*
X1158481Y266943D01*
X1158980Y267609D01*
X1159535Y268219D01*
X1159591Y268275D01*
X1159647Y268386D01*
X1159869Y268497D01*
X1160091Y268719D01*
X1160368Y268997D01*
X1160756Y269274D01*
X1161145Y269551D01*
X1161645Y269885D01*
X1162699Y270440D01*
X1164031Y270995D01*
X1164697Y271216D01*
X1165474Y271327D01*
X1166251Y271438D01*
X1167083Y271494D01*
X1167195D01*
X1167472D01*
X1167916Y271438D01*
X1168526Y271383D01*
X1169193Y271272D01*
X1169969Y271050D01*
X1170802Y270828D01*
X1171634Y270495D01*
X1171745Y270440D01*
X1172023Y270329D01*
X1172467Y270106D01*
X1173078Y269774D01*
X1173744Y269329D01*
X1174576Y268774D01*
X1175409Y268108D01*
X1176352Y267332D01*
X1176463Y267221D01*
X1176796Y266943D01*
X1177073Y266666D01*
X1177351Y266388D01*
X1177684Y266055D01*
X1178128Y265611D01*
X1178572Y265167D01*
X1179072Y264612D01*
X1179627Y264057D01*
X1180237Y263391D01*
X1180848Y262670D01*
X1181569Y261892D01*
X1182291Y261005D01*
X1183068Y260116D01*
X1183123Y260061D01*
X1183234Y259950D01*
X1183400Y259728D01*
X1183622Y259450D01*
X1183956Y259118D01*
X1184289Y258729D01*
X1185010Y257841D01*
X1185842Y256897D01*
X1186675Y256010D01*
X1187397Y255232D01*
X1187674Y254899D01*
X1187951Y254622D01*
X1188007Y254566D01*
X1188174Y254400D01*
X1188396Y254178D01*
X1188728Y253900D01*
X1189117Y253623D01*
X1189505Y253290D01*
X1190449Y252624D01*
Y271550D01*
X1195000D01*
Y246075D01*
D02*
G37*
G36*
Y237417D02*
X1187008Y232367D01*
X1186953D01*
X1186841Y232256D01*
X1186675Y232144D01*
X1186453Y231978D01*
X1185842Y231589D01*
X1185065Y231090D01*
X1184233Y230480D01*
X1183345Y229869D01*
X1182513Y229258D01*
X1181736Y228703D01*
X1181680Y228648D01*
X1181458Y228482D01*
X1181125Y228204D01*
X1180736Y227815D01*
X1179904Y226983D01*
X1179515Y226539D01*
X1179182Y226095D01*
X1179127Y226040D01*
X1179072Y225929D01*
X1178960Y225707D01*
X1178794Y225374D01*
X1178628Y225041D01*
X1178461Y224652D01*
X1178184Y223764D01*
Y223708D01*
X1178128Y223597D01*
Y223375D01*
X1178072Y223098D01*
X1178017Y222709D01*
Y222266D01*
X1177961Y221655D01*
Y215106D01*
X1195000D01*
Y210000D01*
X1156594D01*
Y227815D01*
X1156649Y228260D01*
Y228759D01*
X1156705Y229924D01*
X1156871Y231145D01*
X1157038Y232477D01*
X1157315Y233698D01*
X1157482Y234309D01*
X1157649Y234809D01*
Y234864D01*
X1157704Y234919D01*
X1157870Y235252D01*
X1158092Y235752D01*
X1158481Y236363D01*
X1158980Y237029D01*
X1159647Y237750D01*
X1160424Y238416D01*
X1161312Y239082D01*
X1161367D01*
X1161422Y239137D01*
X1161755Y239359D01*
X1162311Y239582D01*
X1163032Y239915D01*
X1163864Y240192D01*
X1164863Y240470D01*
X1165918Y240636D01*
X1167083Y240691D01*
X1167139D01*
X1167250D01*
X1167472D01*
X1167749Y240636D01*
X1168138D01*
X1168526Y240581D01*
X1169470Y240358D01*
X1170580Y240025D01*
X1171745Y239582D01*
X1172911Y238916D01*
X1173466Y238471D01*
X1174021Y238028D01*
X1174076Y237972D01*
X1174132Y237917D01*
X1174299Y237750D01*
X1174465Y237528D01*
X1174687Y237250D01*
X1174909Y236917D01*
X1175187Y236474D01*
X1175520Y236030D01*
X1175797Y235475D01*
X1176074Y234864D01*
X1176408Y234198D01*
X1176685Y233476D01*
X1176907Y232644D01*
X1177185Y231811D01*
X1177351Y230868D01*
X1177517Y229869D01*
X1177573Y229980D01*
X1177684Y230202D01*
X1177906Y230535D01*
X1178128Y230979D01*
X1178738Y231978D01*
X1179127Y232477D01*
X1179460Y232922D01*
X1179571Y233032D01*
X1179849Y233310D01*
X1180293Y233754D01*
X1180848Y234309D01*
X1181624Y234919D01*
X1182457Y235641D01*
X1183456Y236363D01*
X1184566Y237139D01*
X1195000Y243744D01*
Y237417D01*
D02*
G37*
G36*
X986908Y360000D02*
X982191D01*
Y390026D01*
X982135Y389970D01*
X981857Y389748D01*
X981524Y389415D01*
X980970Y389026D01*
X980359Y388527D01*
X979582Y387972D01*
X978694Y387361D01*
X977695Y386751D01*
X977639D01*
X977584Y386695D01*
X977251Y386474D01*
X976696Y386196D01*
X976030Y385863D01*
X975253Y385474D01*
X974420Y385086D01*
X973588Y384697D01*
X972755Y384365D01*
Y388916D01*
X972811D01*
X972922Y389026D01*
X973144Y389082D01*
X973422Y389248D01*
X973755Y389415D01*
X974143Y389637D01*
X975087Y390192D01*
X976197Y390803D01*
X977307Y391579D01*
X978472Y392467D01*
X979638Y393411D01*
X979693Y393466D01*
X979749Y393522D01*
X979915Y393688D01*
X980137Y393855D01*
X980636Y394410D01*
X981303Y395076D01*
X981968Y395853D01*
X982690Y396741D01*
X983301Y397629D01*
X983856Y398572D01*
X986908D01*
Y360000D01*
D02*
G37*
G36*
X965818Y393855D02*
X953164D01*
Y360000D01*
X948058D01*
Y393855D01*
X935404D01*
Y398406D01*
X965818D01*
Y393855D01*
D02*
G37*
G36*
X914259Y399017D02*
X914758D01*
X915258Y398961D01*
X915923Y398850D01*
X916590Y398739D01*
X918033Y398462D01*
X919697Y398017D01*
X921307Y397351D01*
X922139Y396963D01*
X922972Y396519D01*
X923028Y396464D01*
X923139Y396408D01*
X923361Y396241D01*
X923693Y396075D01*
X924027Y395798D01*
X924471Y395464D01*
X925414Y394688D01*
X926413Y393688D01*
X927523Y392467D01*
X928577Y391024D01*
X929466Y389415D01*
Y389360D01*
X929577Y389193D01*
X929688Y388971D01*
X929798Y388638D01*
X930020Y388194D01*
X930187Y387695D01*
X930409Y387084D01*
X930631Y386418D01*
X930798Y385697D01*
X931019Y384920D01*
X931241Y384031D01*
X931408Y383144D01*
X931630Y381201D01*
X931741Y379092D01*
Y379036D01*
Y378815D01*
Y378537D01*
X931686Y378093D01*
Y377594D01*
X931630Y376983D01*
X931519Y376317D01*
X931463Y375596D01*
X931186Y373986D01*
X930742Y372210D01*
X930131Y370434D01*
X929798Y369546D01*
X929355Y368658D01*
Y368603D01*
X929244Y368436D01*
X929133Y368214D01*
X928910Y367881D01*
X928688Y367493D01*
X928411Y367104D01*
X927634Y366050D01*
X926691Y364940D01*
X925581Y363774D01*
X924249Y362664D01*
X922694Y361665D01*
X922639D01*
X922528Y361554D01*
X922250Y361443D01*
X921918Y361276D01*
X921529Y361110D01*
X921085Y360943D01*
X920530Y360721D01*
X919919Y360500D01*
X919254Y360277D01*
X918532Y360055D01*
X916923Y359723D01*
X915202Y359445D01*
X913370Y359334D01*
X912816D01*
X912482Y359389D01*
X911983D01*
X911428Y359500D01*
X910817Y359556D01*
X910096Y359667D01*
X908597Y360000D01*
X906988Y360444D01*
X905323Y361110D01*
X904490Y361498D01*
X903658Y361942D01*
X903602Y361998D01*
X903491Y362053D01*
X903269Y362220D01*
X902937Y362442D01*
X902604Y362664D01*
X902215Y362997D01*
X901271Y363829D01*
X900217Y364829D01*
X899107Y366050D01*
X898108Y367437D01*
X897164Y369046D01*
Y369102D01*
X897053Y369269D01*
X896942Y369490D01*
X896832Y369824D01*
X896665Y370267D01*
X896499Y370767D01*
X896277Y371322D01*
X896110Y371933D01*
X895888Y372654D01*
X895666Y373375D01*
X895333Y375041D01*
X895111Y376761D01*
X895000Y378648D01*
Y378704D01*
Y378759D01*
Y379092D01*
X895056Y379591D01*
Y380257D01*
X895167Y381034D01*
X895278Y381978D01*
X895444Y383033D01*
X895666Y384142D01*
X895888Y385308D01*
X896221Y386529D01*
X896665Y387750D01*
X897164Y389026D01*
X897720Y390248D01*
X898441Y391469D01*
X899218Y392579D01*
X900106Y393633D01*
X900162Y393688D01*
X900328Y393855D01*
X900661Y394132D01*
X901049Y394466D01*
X901549Y394909D01*
X902159Y395353D01*
X902881Y395853D01*
X903713Y396353D01*
X904601Y396852D01*
X905601Y397351D01*
X906711Y397796D01*
X907876Y398240D01*
X909153Y398572D01*
X910485Y398850D01*
X911872Y399017D01*
X913370Y399072D01*
X913870D01*
X914259Y399017D01*
D02*
G37*
G36*
X1060278Y1168517D02*
X1060722Y1168461D01*
X1061277Y1168406D01*
X1061888Y1168295D01*
X1062498Y1168184D01*
X1063941Y1167795D01*
X1065384Y1167241D01*
X1066105Y1166908D01*
X1066827Y1166519D01*
X1067493Y1166020D01*
X1068103Y1165465D01*
X1068159Y1165409D01*
X1068270Y1165353D01*
X1068381Y1165131D01*
X1068603Y1164909D01*
X1068880Y1164632D01*
X1069158Y1164244D01*
X1069436Y1163855D01*
X1069768Y1163355D01*
X1070323Y1162301D01*
X1070879Y1160969D01*
X1071101Y1160303D01*
X1071211Y1159526D01*
X1071322Y1158749D01*
X1071378Y1157917D01*
Y1157805D01*
Y1157528D01*
X1071322Y1157084D01*
X1071267Y1156474D01*
X1071156Y1155807D01*
X1070934Y1155031D01*
X1070712Y1154198D01*
X1070379Y1153366D01*
X1070323Y1153255D01*
X1070213Y1152977D01*
X1069991Y1152533D01*
X1069658Y1151922D01*
X1069214Y1151256D01*
X1068659Y1150424D01*
X1067993Y1149591D01*
X1067216Y1148648D01*
X1067104Y1148537D01*
X1066827Y1148204D01*
X1066550Y1147927D01*
X1066272Y1147649D01*
X1065939Y1147316D01*
X1065495Y1146872D01*
X1065051Y1146428D01*
X1064496Y1145928D01*
X1063941Y1145373D01*
X1063275Y1144763D01*
X1062553Y1144152D01*
X1061776Y1143431D01*
X1060889Y1142709D01*
X1060001Y1141932D01*
X1059945Y1141877D01*
X1059834Y1141766D01*
X1059612Y1141600D01*
X1059334Y1141378D01*
X1059002Y1141044D01*
X1058613Y1140711D01*
X1057725Y1139990D01*
X1056782Y1139158D01*
X1055893Y1138325D01*
X1055117Y1137603D01*
X1054784Y1137326D01*
X1054506Y1137049D01*
X1054450Y1136993D01*
X1054284Y1136826D01*
X1054062Y1136604D01*
X1053784Y1136272D01*
X1053507Y1135883D01*
X1053174Y1135495D01*
X1052508Y1134551D01*
X1071434D01*
Y1130000D01*
X1045959D01*
Y1130055D01*
Y1130277D01*
Y1130611D01*
X1046014Y1131054D01*
X1046070Y1131554D01*
X1046181Y1132109D01*
X1046292Y1132664D01*
X1046514Y1133274D01*
Y1133330D01*
X1046570Y1133386D01*
X1046680Y1133718D01*
X1046902Y1134218D01*
X1047236Y1134884D01*
X1047679Y1135661D01*
X1048235Y1136549D01*
X1048845Y1137437D01*
X1049622Y1138380D01*
Y1138436D01*
X1049733Y1138492D01*
X1050011Y1138824D01*
X1050510Y1139324D01*
X1051232Y1140045D01*
X1052064Y1140878D01*
X1053119Y1141877D01*
X1054395Y1142987D01*
X1055783Y1144152D01*
X1055838Y1144208D01*
X1056060Y1144374D01*
X1056393Y1144652D01*
X1056782Y1144985D01*
X1057281Y1145429D01*
X1057891Y1145928D01*
X1058502Y1146484D01*
X1059224Y1147094D01*
X1060611Y1148426D01*
X1061998Y1149758D01*
X1062665Y1150424D01*
X1063275Y1151090D01*
X1063830Y1151700D01*
X1064274Y1152311D01*
Y1152367D01*
X1064385Y1152422D01*
X1064496Y1152589D01*
X1064607Y1152811D01*
X1064995Y1153421D01*
X1065439Y1154142D01*
X1065828Y1155031D01*
X1066216Y1155974D01*
X1066438Y1157028D01*
X1066550Y1158027D01*
Y1158083D01*
Y1158139D01*
X1066494Y1158472D01*
X1066438Y1159026D01*
X1066272Y1159637D01*
X1066050Y1160414D01*
X1065661Y1161191D01*
X1065162Y1161968D01*
X1064496Y1162745D01*
X1064385Y1162856D01*
X1064108Y1163078D01*
X1063719Y1163355D01*
X1063109Y1163744D01*
X1062332Y1164077D01*
X1061444Y1164410D01*
X1060389Y1164632D01*
X1059224Y1164688D01*
X1058890D01*
X1058668Y1164632D01*
X1058003Y1164576D01*
X1057226Y1164410D01*
X1056393Y1164188D01*
X1055449Y1163800D01*
X1054562Y1163300D01*
X1053729Y1162634D01*
X1053618Y1162523D01*
X1053396Y1162245D01*
X1053063Y1161802D01*
X1052730Y1161136D01*
X1052341Y1160359D01*
X1052008Y1159360D01*
X1051786Y1158249D01*
X1051676Y1156973D01*
X1046847Y1157473D01*
Y1157528D01*
X1046902Y1157695D01*
Y1157972D01*
X1046958Y1158361D01*
X1047069Y1158804D01*
X1047180Y1159304D01*
X1047347Y1159915D01*
X1047513Y1160525D01*
X1047957Y1161857D01*
X1048623Y1163189D01*
X1049012Y1163855D01*
X1049511Y1164521D01*
X1050011Y1165131D01*
X1050565Y1165687D01*
X1050621Y1165742D01*
X1050732Y1165797D01*
X1050899Y1165964D01*
X1051176Y1166130D01*
X1051509Y1166352D01*
X1051898Y1166574D01*
X1052341Y1166852D01*
X1052897Y1167130D01*
X1053507Y1167407D01*
X1054173Y1167685D01*
X1054895Y1167907D01*
X1055671Y1168129D01*
X1056504Y1168295D01*
X1057392Y1168461D01*
X1058335Y1168517D01*
X1059334Y1168572D01*
X1059889D01*
X1060278Y1168517D01*
D02*
G37*
G36*
X1024258Y1169016D02*
X1024758D01*
X1025257Y1168961D01*
X1025924Y1168850D01*
X1026590Y1168739D01*
X1028033Y1168461D01*
X1029697Y1168017D01*
X1031307Y1167351D01*
X1032139Y1166963D01*
X1032972Y1166519D01*
X1033027Y1166464D01*
X1033139Y1166408D01*
X1033361Y1166242D01*
X1033694Y1166075D01*
X1034026Y1165797D01*
X1034470Y1165465D01*
X1035414Y1164688D01*
X1036413Y1163688D01*
X1037523Y1162467D01*
X1038578Y1161024D01*
X1039466Y1159415D01*
Y1159360D01*
X1039576Y1159193D01*
X1039688Y1158971D01*
X1039799Y1158638D01*
X1040021Y1158194D01*
X1040187Y1157695D01*
X1040409Y1157084D01*
X1040631Y1156418D01*
X1040797Y1155697D01*
X1041020Y1154919D01*
X1041242Y1154087D01*
X1041408Y1153199D01*
X1041630Y1151256D01*
X1041741Y1149203D01*
Y1149148D01*
Y1148981D01*
Y1148759D01*
Y1148426D01*
X1041686Y1147982D01*
Y1147483D01*
X1041630Y1146928D01*
X1041574Y1146372D01*
X1041408Y1145041D01*
X1041130Y1143598D01*
X1040797Y1142099D01*
X1040298Y1140656D01*
Y1140601D01*
X1040243Y1140489D01*
X1040131Y1140267D01*
X1040021Y1140045D01*
X1039854Y1139713D01*
X1039688Y1139324D01*
X1039244Y1138436D01*
X1038633Y1137381D01*
X1037856Y1136272D01*
X1036968Y1135161D01*
X1035969Y1134052D01*
X1036024D01*
X1036136Y1133940D01*
X1036302Y1133830D01*
X1036580Y1133663D01*
X1036857Y1133441D01*
X1037245Y1133219D01*
X1038078Y1132719D01*
X1039077Y1132109D01*
X1040187Y1131498D01*
X1041352Y1130999D01*
X1042463Y1130499D01*
X1040964Y1127003D01*
X1040909D01*
X1040797Y1127059D01*
X1040575Y1127169D01*
X1040243Y1127281D01*
X1039854Y1127447D01*
X1039410Y1127669D01*
X1038910Y1127891D01*
X1038355Y1128168D01*
X1037134Y1128834D01*
X1035747Y1129611D01*
X1034248Y1130611D01*
X1032695Y1131720D01*
X1032639D01*
X1032528Y1131610D01*
X1032251Y1131498D01*
X1031973Y1131332D01*
X1031529Y1131166D01*
X1031085Y1130944D01*
X1030530Y1130777D01*
X1029919Y1130555D01*
X1029254Y1130333D01*
X1028532Y1130111D01*
X1026922Y1129723D01*
X1025147Y1129445D01*
X1024203Y1129389D01*
X1023260Y1129334D01*
X1022760D01*
X1022371Y1129389D01*
X1021928D01*
X1021372Y1129445D01*
X1020762Y1129556D01*
X1020096Y1129667D01*
X1018653Y1129945D01*
X1017043Y1130389D01*
X1015379Y1130999D01*
X1014601Y1131388D01*
X1013769Y1131832D01*
X1013713Y1131887D01*
X1013602Y1131943D01*
X1013380Y1132109D01*
X1013103Y1132275D01*
X1012715Y1132553D01*
X1012326Y1132886D01*
X1011383Y1133663D01*
X1010328Y1134662D01*
X1009274Y1135883D01*
X1008219Y1137271D01*
X1007275Y1138880D01*
Y1138936D01*
X1007164Y1139102D01*
X1007053Y1139324D01*
X1006942Y1139657D01*
X1006776Y1140101D01*
X1006554Y1140601D01*
X1006332Y1141211D01*
X1006165Y1141877D01*
X1005943Y1142599D01*
X1005721Y1143376D01*
X1005555Y1144208D01*
X1005333Y1145151D01*
X1005111Y1147094D01*
X1005000Y1149148D01*
Y1149203D01*
Y1149425D01*
Y1149703D01*
X1005056Y1150091D01*
Y1150591D01*
X1005111Y1151201D01*
X1005167Y1151867D01*
X1005278Y1152589D01*
X1005555Y1154198D01*
X1005943Y1155918D01*
X1006499Y1157750D01*
X1007275Y1159526D01*
X1007331Y1159582D01*
X1007386Y1159748D01*
X1007497Y1159970D01*
X1007720Y1160303D01*
X1007942Y1160691D01*
X1008219Y1161136D01*
X1008996Y1162190D01*
X1009884Y1163300D01*
X1011049Y1164466D01*
X1012326Y1165631D01*
X1013824Y1166630D01*
X1013880Y1166686D01*
X1014047Y1166741D01*
X1014269Y1166852D01*
X1014601Y1167018D01*
X1014990Y1167185D01*
X1015434Y1167407D01*
X1015989Y1167629D01*
X1016600Y1167851D01*
X1017321Y1168073D01*
X1018043Y1168295D01*
X1019652Y1168684D01*
X1021428Y1168961D01*
X1022371Y1169072D01*
X1023870D01*
X1024258Y1169016D01*
D02*
G37*
G36*
X904385Y1125000D02*
X899668D01*
Y1155025D01*
X899612Y1154970D01*
X899335Y1154748D01*
X899001Y1154415D01*
X898447Y1154026D01*
X897836Y1153527D01*
X897059Y1152972D01*
X896171Y1152361D01*
X895172Y1151751D01*
X895116D01*
X895061Y1151696D01*
X894728Y1151474D01*
X894173Y1151196D01*
X893507Y1150863D01*
X892730Y1150475D01*
X891898Y1150086D01*
X891065Y1149697D01*
X890232Y1149364D01*
Y1153916D01*
X890288D01*
X890399Y1154026D01*
X890621Y1154082D01*
X890899Y1154248D01*
X891231Y1154415D01*
X891620Y1154637D01*
X892563Y1155192D01*
X893673Y1155803D01*
X894784Y1156580D01*
X895949Y1157467D01*
X897115Y1158411D01*
X897170Y1158466D01*
X897226Y1158522D01*
X897392Y1158688D01*
X897614Y1158855D01*
X898114Y1159410D01*
X898779Y1160076D01*
X899446Y1160853D01*
X900167Y1161741D01*
X900778Y1162629D01*
X901332Y1163572D01*
X904385D01*
Y1125000D01*
D02*
G37*
G36*
X864259Y1164016D02*
X864758D01*
X865258Y1163961D01*
X865923Y1163850D01*
X866590Y1163739D01*
X868033Y1163461D01*
X869697Y1163017D01*
X871307Y1162351D01*
X872139Y1161963D01*
X872972Y1161519D01*
X873028Y1161464D01*
X873139Y1161408D01*
X873361Y1161242D01*
X873693Y1161075D01*
X874027Y1160797D01*
X874471Y1160465D01*
X875414Y1159688D01*
X876413Y1158688D01*
X877523Y1157467D01*
X878577Y1156024D01*
X879466Y1154415D01*
Y1154360D01*
X879577Y1154193D01*
X879688Y1153971D01*
X879798Y1153638D01*
X880020Y1153194D01*
X880187Y1152695D01*
X880409Y1152084D01*
X880631Y1151418D01*
X880798Y1150697D01*
X881019Y1149919D01*
X881241Y1149087D01*
X881408Y1148199D01*
X881630Y1146256D01*
X881741Y1144203D01*
Y1144148D01*
Y1143981D01*
Y1143759D01*
Y1143426D01*
X881686Y1142982D01*
Y1142483D01*
X881630Y1141928D01*
X881574Y1141372D01*
X881408Y1140041D01*
X881130Y1138598D01*
X880798Y1137099D01*
X880298Y1135656D01*
Y1135601D01*
X880242Y1135489D01*
X880131Y1135267D01*
X880020Y1135045D01*
X879854Y1134713D01*
X879688Y1134324D01*
X879244Y1133436D01*
X878633Y1132381D01*
X877856Y1131272D01*
X876968Y1130161D01*
X875969Y1129052D01*
X876024D01*
X876135Y1128940D01*
X876302Y1128830D01*
X876580Y1128663D01*
X876857Y1128441D01*
X877245Y1128219D01*
X878078Y1127719D01*
X879077Y1127109D01*
X880187Y1126498D01*
X881352Y1125999D01*
X882462Y1125499D01*
X880964Y1122003D01*
X880909D01*
X880798Y1122059D01*
X880576Y1122169D01*
X880242Y1122281D01*
X879854Y1122447D01*
X879410Y1122669D01*
X878910Y1122891D01*
X878356Y1123168D01*
X877135Y1123834D01*
X875747Y1124611D01*
X874249Y1125611D01*
X872694Y1126720D01*
X872639D01*
X872528Y1126610D01*
X872250Y1126498D01*
X871973Y1126332D01*
X871529Y1126166D01*
X871085Y1125944D01*
X870530Y1125777D01*
X869919Y1125555D01*
X869254Y1125333D01*
X868532Y1125111D01*
X866923Y1124723D01*
X865146Y1124445D01*
X864203Y1124389D01*
X863260Y1124334D01*
X862760D01*
X862371Y1124389D01*
X861928D01*
X861372Y1124445D01*
X860762Y1124556D01*
X860096Y1124667D01*
X858653Y1124945D01*
X857043Y1125389D01*
X855379Y1125999D01*
X854601Y1126388D01*
X853769Y1126832D01*
X853713Y1126887D01*
X853602Y1126943D01*
X853380Y1127109D01*
X853103Y1127275D01*
X852715Y1127553D01*
X852326Y1127886D01*
X851383Y1128663D01*
X850328Y1129662D01*
X849274Y1130883D01*
X848219Y1132271D01*
X847275Y1133880D01*
Y1133936D01*
X847164Y1134102D01*
X847053Y1134324D01*
X846942Y1134657D01*
X846776Y1135101D01*
X846554Y1135601D01*
X846332Y1136211D01*
X846165Y1136877D01*
X845943Y1137599D01*
X845721Y1138376D01*
X845555Y1139208D01*
X845333Y1140151D01*
X845111Y1142094D01*
X845000Y1144148D01*
Y1144203D01*
Y1144425D01*
Y1144703D01*
X845056Y1145091D01*
Y1145591D01*
X845111Y1146201D01*
X845167Y1146867D01*
X845278Y1147589D01*
X845555Y1149198D01*
X845943Y1150918D01*
X846499Y1152750D01*
X847275Y1154526D01*
X847331Y1154582D01*
X847386Y1154748D01*
X847497Y1154970D01*
X847720Y1155303D01*
X847942Y1155691D01*
X848219Y1156136D01*
X848996Y1157190D01*
X849884Y1158300D01*
X851049Y1159466D01*
X852326Y1160631D01*
X853824Y1161630D01*
X853880Y1161686D01*
X854047Y1161741D01*
X854269Y1161852D01*
X854601Y1162018D01*
X854990Y1162185D01*
X855434Y1162407D01*
X855989Y1162629D01*
X856600Y1162851D01*
X857321Y1163073D01*
X858043Y1163295D01*
X859652Y1163684D01*
X861428Y1163961D01*
X862371Y1164072D01*
X863870D01*
X864259Y1164016D01*
D02*
G37*
G36*
X1264587Y1233517D02*
X1265309Y1233406D01*
X1266197Y1233239D01*
X1267196Y1232962D01*
X1268195Y1232629D01*
X1269194Y1232185D01*
X1269249D01*
X1269304Y1232130D01*
X1269638Y1231963D01*
X1270137Y1231630D01*
X1270692Y1231242D01*
X1271358Y1230687D01*
X1272024Y1230076D01*
X1272690Y1229354D01*
X1273245Y1228522D01*
X1273301Y1228411D01*
X1273467Y1228133D01*
X1273689Y1227634D01*
X1273966Y1227024D01*
X1274244Y1226302D01*
X1274466Y1225469D01*
X1274632Y1224526D01*
X1274688Y1223582D01*
Y1223472D01*
Y1223139D01*
X1274632Y1222695D01*
X1274522Y1222084D01*
X1274355Y1221362D01*
X1274078Y1220585D01*
X1273745Y1219809D01*
X1273301Y1219032D01*
X1273245Y1218920D01*
X1273079Y1218698D01*
X1272745Y1218310D01*
X1272302Y1217866D01*
X1271746Y1217367D01*
X1271081Y1216812D01*
X1270303Y1216312D01*
X1269360Y1215812D01*
X1269416D01*
X1269526Y1215757D01*
X1269693Y1215701D01*
X1269915Y1215646D01*
X1270525Y1215424D01*
X1271303Y1215091D01*
X1272190Y1214647D01*
X1273079Y1214092D01*
X1273911Y1213370D01*
X1274688Y1212538D01*
X1274744Y1212427D01*
X1274966Y1212094D01*
X1275299Y1211539D01*
X1275631Y1210818D01*
X1275965Y1209929D01*
X1276297Y1208875D01*
X1276520Y1207654D01*
X1276575Y1206322D01*
Y1206266D01*
Y1206100D01*
Y1205822D01*
X1276520Y1205489D01*
X1276464Y1205045D01*
X1276353Y1204546D01*
X1276242Y1203991D01*
X1276131Y1203380D01*
X1275687Y1202049D01*
X1275354Y1201327D01*
X1275021Y1200661D01*
X1274577Y1199939D01*
X1274078Y1199218D01*
X1273523Y1198496D01*
X1272857Y1197831D01*
X1272801Y1197775D01*
X1272690Y1197664D01*
X1272468Y1197497D01*
X1272190Y1197275D01*
X1271858Y1196998D01*
X1271414Y1196720D01*
X1270914Y1196388D01*
X1270303Y1196110D01*
X1269693Y1195777D01*
X1268972Y1195444D01*
X1268250Y1195167D01*
X1267418Y1194889D01*
X1266530Y1194667D01*
X1265586Y1194501D01*
X1264642Y1194389D01*
X1263588Y1194334D01*
X1263089D01*
X1262755Y1194389D01*
X1262312Y1194445D01*
X1261812Y1194501D01*
X1261257Y1194611D01*
X1260647Y1194723D01*
X1259314Y1195055D01*
X1257927Y1195611D01*
X1257206Y1195944D01*
X1256540Y1196332D01*
X1255873Y1196832D01*
X1255207Y1197331D01*
X1255152Y1197387D01*
X1255041Y1197497D01*
X1254874Y1197664D01*
X1254708Y1197886D01*
X1254430Y1198164D01*
X1254153Y1198552D01*
X1253820Y1198940D01*
X1253487Y1199440D01*
X1253154Y1199995D01*
X1252821Y1200550D01*
X1252210Y1201882D01*
X1251711Y1203436D01*
X1251544Y1204268D01*
X1251434Y1205157D01*
X1256151Y1205767D01*
Y1205711D01*
X1256207Y1205601D01*
X1256262Y1205379D01*
X1256318Y1205101D01*
X1256373Y1204768D01*
X1256484Y1204380D01*
X1256762Y1203547D01*
X1257150Y1202548D01*
X1257649Y1201604D01*
X1258205Y1200716D01*
X1258870Y1199939D01*
X1258982Y1199884D01*
X1259204Y1199662D01*
X1259648Y1199384D01*
X1260203Y1199107D01*
X1260869Y1198774D01*
X1261701Y1198496D01*
X1262645Y1198274D01*
X1263643Y1198219D01*
X1263976D01*
X1264198Y1198274D01*
X1264809Y1198330D01*
X1265586Y1198496D01*
X1266474Y1198774D01*
X1267418Y1199162D01*
X1268361Y1199717D01*
X1269249Y1200495D01*
X1269360Y1200605D01*
X1269638Y1200938D01*
X1269970Y1201438D01*
X1270415Y1202104D01*
X1270859Y1202937D01*
X1271191Y1203880D01*
X1271469Y1204990D01*
X1271580Y1206211D01*
Y1206266D01*
Y1206378D01*
Y1206544D01*
X1271524Y1206766D01*
X1271469Y1207377D01*
X1271303Y1208098D01*
X1271081Y1208986D01*
X1270692Y1209874D01*
X1270137Y1210762D01*
X1269416Y1211594D01*
X1269304Y1211706D01*
X1269027Y1211928D01*
X1268583Y1212261D01*
X1267973Y1212649D01*
X1267196Y1213037D01*
X1266252Y1213370D01*
X1265197Y1213592D01*
X1264032Y1213704D01*
X1263533D01*
X1263144Y1213648D01*
X1262645Y1213592D01*
X1262090Y1213482D01*
X1261424Y1213370D01*
X1260702Y1213204D01*
X1261257Y1217367D01*
X1261534D01*
X1261756Y1217311D01*
X1262478D01*
X1263089Y1217422D01*
X1263810Y1217533D01*
X1264642Y1217699D01*
X1265586Y1217977D01*
X1266474Y1218366D01*
X1267418Y1218865D01*
X1267473D01*
X1267528Y1218920D01*
X1267806Y1219142D01*
X1268195Y1219531D01*
X1268639Y1220031D01*
X1269082Y1220752D01*
X1269471Y1221584D01*
X1269748Y1222528D01*
X1269860Y1223083D01*
Y1223694D01*
Y1223749D01*
Y1223804D01*
Y1224138D01*
X1269748Y1224582D01*
X1269638Y1225192D01*
X1269416Y1225858D01*
X1269138Y1226580D01*
X1268694Y1227301D01*
X1268083Y1227967D01*
X1268028Y1228023D01*
X1267751Y1228245D01*
X1267362Y1228522D01*
X1266862Y1228855D01*
X1266197Y1229132D01*
X1265419Y1229410D01*
X1264532Y1229632D01*
X1263533Y1229688D01*
X1263089D01*
X1262589Y1229576D01*
X1261923Y1229466D01*
X1261201Y1229244D01*
X1260480Y1228966D01*
X1259703Y1228522D01*
X1258982Y1227967D01*
X1258926Y1227911D01*
X1258704Y1227634D01*
X1258371Y1227245D01*
X1257983Y1226690D01*
X1257594Y1225969D01*
X1257206Y1225081D01*
X1256872Y1224026D01*
X1256650Y1222805D01*
X1251933Y1223638D01*
Y1223694D01*
X1251988Y1223860D01*
X1252044Y1224082D01*
X1252100Y1224415D01*
X1252210Y1224803D01*
X1252377Y1225247D01*
X1252710Y1226302D01*
X1253265Y1227523D01*
X1253931Y1228744D01*
X1254764Y1229909D01*
X1255818Y1230964D01*
X1255873Y1231020D01*
X1255985Y1231075D01*
X1256151Y1231186D01*
X1256373Y1231352D01*
X1256650Y1231574D01*
X1257039Y1231796D01*
X1257428Y1232018D01*
X1257927Y1232296D01*
X1259037Y1232740D01*
X1260313Y1233184D01*
X1261812Y1233461D01*
X1262589Y1233572D01*
X1263976D01*
X1264587Y1233517D01*
D02*
G37*
G36*
X1206256Y1207210D02*
Y1207155D01*
Y1206988D01*
Y1206766D01*
Y1206433D01*
X1206201Y1205989D01*
Y1205545D01*
X1206090Y1204491D01*
X1205979Y1203270D01*
X1205757Y1201993D01*
X1205424Y1200828D01*
X1205035Y1199717D01*
Y1199662D01*
X1204980Y1199607D01*
X1204813Y1199274D01*
X1204536Y1198830D01*
X1204148Y1198219D01*
X1203592Y1197609D01*
X1202982Y1196943D01*
X1202205Y1196276D01*
X1201317Y1195722D01*
X1201206Y1195666D01*
X1200873Y1195499D01*
X1200373Y1195277D01*
X1199652Y1195055D01*
X1198764Y1194778D01*
X1197765Y1194556D01*
X1196655Y1194389D01*
X1195434Y1194334D01*
X1194935D01*
X1194601Y1194389D01*
X1194158Y1194445D01*
X1193714Y1194501D01*
X1192548Y1194723D01*
X1191327Y1195055D01*
X1190051Y1195555D01*
X1189384Y1195888D01*
X1188774Y1196276D01*
X1188219Y1196720D01*
X1187664Y1197220D01*
X1187609Y1197275D01*
X1187553Y1197331D01*
X1187442Y1197553D01*
X1187275Y1197775D01*
X1187053Y1198053D01*
X1186832Y1198441D01*
X1186610Y1198885D01*
X1186332Y1199384D01*
X1186110Y1199939D01*
X1185888Y1200605D01*
X1185666Y1201272D01*
X1185444Y1202049D01*
X1185333Y1202881D01*
X1185167Y1203824D01*
X1185111Y1204768D01*
Y1205822D01*
X1189717Y1206488D01*
Y1206433D01*
Y1206322D01*
Y1206100D01*
X1189773Y1205767D01*
X1189829Y1205434D01*
Y1205045D01*
X1189995Y1204102D01*
X1190161Y1203103D01*
X1190495Y1202104D01*
X1190828Y1201216D01*
X1191050Y1200828D01*
X1191327Y1200495D01*
X1191382Y1200439D01*
X1191604Y1200273D01*
X1191938Y1199995D01*
X1192381Y1199717D01*
X1192992Y1199384D01*
X1193658Y1199162D01*
X1194491Y1198940D01*
X1195379Y1198885D01*
X1195711D01*
X1196044Y1198940D01*
X1196544Y1198996D01*
X1197043Y1199107D01*
X1197599Y1199218D01*
X1198153Y1199440D01*
X1198708Y1199717D01*
X1198764Y1199773D01*
X1198930Y1199884D01*
X1199152Y1200106D01*
X1199486Y1200328D01*
X1199763Y1200716D01*
X1200096Y1201105D01*
X1200373Y1201549D01*
X1200595Y1202104D01*
Y1202159D01*
X1200707Y1202381D01*
X1200762Y1202770D01*
X1200873Y1203270D01*
X1200984Y1203936D01*
X1201040Y1204768D01*
X1201150Y1205767D01*
Y1206932D01*
Y1233406D01*
X1206256D01*
Y1207210D01*
D02*
G37*
G36*
X1232897Y1233351D02*
X1233396D01*
X1234562Y1233295D01*
X1235783Y1233129D01*
X1237114Y1232962D01*
X1238335Y1232685D01*
X1238946Y1232518D01*
X1239446Y1232351D01*
X1239501D01*
X1239556Y1232296D01*
X1239889Y1232130D01*
X1240389Y1231908D01*
X1240999Y1231519D01*
X1241666Y1231020D01*
X1242387Y1230353D01*
X1243053Y1229576D01*
X1243719Y1228688D01*
Y1228633D01*
X1243774Y1228578D01*
X1243996Y1228245D01*
X1244218Y1227689D01*
X1244552Y1226968D01*
X1244829Y1226136D01*
X1245107Y1225137D01*
X1245273Y1224082D01*
X1245329Y1222917D01*
Y1222861D01*
Y1222750D01*
Y1222528D01*
X1245273Y1222251D01*
Y1221862D01*
X1245217Y1221474D01*
X1244995Y1220530D01*
X1244662Y1219420D01*
X1244218Y1218255D01*
X1243553Y1217089D01*
X1243109Y1216534D01*
X1242665Y1215979D01*
X1242609Y1215924D01*
X1242553Y1215868D01*
X1242387Y1215701D01*
X1242165Y1215535D01*
X1241888Y1215313D01*
X1241554Y1215091D01*
X1241111Y1214813D01*
X1240667Y1214480D01*
X1240111Y1214203D01*
X1239501Y1213926D01*
X1238835Y1213592D01*
X1238113Y1213315D01*
X1237281Y1213093D01*
X1236448Y1212815D01*
X1235505Y1212649D01*
X1234506Y1212483D01*
X1234617Y1212427D01*
X1234839Y1212316D01*
X1235172Y1212094D01*
X1235616Y1211872D01*
X1236615Y1211262D01*
X1237114Y1210873D01*
X1237559Y1210540D01*
X1237669Y1210429D01*
X1237947Y1210151D01*
X1238391Y1209707D01*
X1238946Y1209152D01*
X1239556Y1208376D01*
X1240278Y1207543D01*
X1240999Y1206544D01*
X1241776Y1205434D01*
X1248381Y1195000D01*
X1242054D01*
X1237004Y1202992D01*
Y1203047D01*
X1236892Y1203159D01*
X1236782Y1203325D01*
X1236615Y1203547D01*
X1236226Y1204158D01*
X1235727Y1204935D01*
X1235117Y1205767D01*
X1234506Y1206655D01*
X1233896Y1207487D01*
X1233341Y1208264D01*
X1233285Y1208320D01*
X1233119Y1208542D01*
X1232841Y1208875D01*
X1232453Y1209264D01*
X1231620Y1210096D01*
X1231176Y1210485D01*
X1230732Y1210818D01*
X1230677Y1210873D01*
X1230565Y1210928D01*
X1230343Y1211040D01*
X1230011Y1211206D01*
X1229678Y1211372D01*
X1229289Y1211539D01*
X1228401Y1211816D01*
X1228345D01*
X1228235Y1211872D01*
X1228013D01*
X1227735Y1211928D01*
X1227347Y1211983D01*
X1226902D01*
X1226292Y1212039D01*
X1219743D01*
Y1195000D01*
X1214637D01*
Y1233406D01*
X1232453D01*
X1232897Y1233351D01*
D02*
G37*
G36*
X1120253Y1033517D02*
X1120697Y1033461D01*
X1121252Y1033406D01*
X1121862Y1033295D01*
X1122473Y1033184D01*
X1123916Y1032795D01*
X1125359Y1032241D01*
X1126081Y1031908D01*
X1126802Y1031519D01*
X1127468Y1031020D01*
X1128079Y1030465D01*
X1128134Y1030409D01*
X1128245Y1030353D01*
X1128356Y1030131D01*
X1128578Y1029909D01*
X1128855Y1029632D01*
X1129133Y1029244D01*
X1129410Y1028855D01*
X1129744Y1028355D01*
X1130299Y1027301D01*
X1130853Y1025969D01*
X1131075Y1025303D01*
X1131187Y1024526D01*
X1131297Y1023749D01*
X1131353Y1022917D01*
Y1022806D01*
Y1022528D01*
X1131297Y1022084D01*
X1131242Y1021473D01*
X1131131Y1020808D01*
X1130909Y1020030D01*
X1130687Y1019198D01*
X1130354Y1018365D01*
X1130299Y1018255D01*
X1130188Y1017977D01*
X1129966Y1017533D01*
X1129632Y1016923D01*
X1129188Y1016256D01*
X1128633Y1015424D01*
X1127967Y1014591D01*
X1127190Y1013648D01*
X1127080Y1013537D01*
X1126802Y1013204D01*
X1126524Y1012927D01*
X1126247Y1012649D01*
X1125914Y1012316D01*
X1125470Y1011872D01*
X1125026Y1011428D01*
X1124471Y1010928D01*
X1123916Y1010374D01*
X1123250Y1009763D01*
X1122528Y1009153D01*
X1121752Y1008431D01*
X1120863Y1007710D01*
X1119976Y1006933D01*
X1119920Y1006877D01*
X1119809Y1006766D01*
X1119587Y1006600D01*
X1119310Y1006378D01*
X1118976Y1006044D01*
X1118588Y1005712D01*
X1117700Y1004990D01*
X1116756Y1004158D01*
X1115869Y1003325D01*
X1115091Y1002604D01*
X1114758Y1002326D01*
X1114481Y1002048D01*
X1114426Y1001993D01*
X1114259Y1001827D01*
X1114037Y1001605D01*
X1113759Y1001271D01*
X1113482Y1000883D01*
X1113149Y1000495D01*
X1112483Y999551D01*
X1131409D01*
Y995000D01*
X1105934D01*
Y995056D01*
Y995278D01*
Y995611D01*
X1105989Y996054D01*
X1106045Y996554D01*
X1106156Y997109D01*
X1106267Y997664D01*
X1106489Y998274D01*
Y998330D01*
X1106544Y998385D01*
X1106656Y998718D01*
X1106878Y999218D01*
X1107210Y999884D01*
X1107655Y1000661D01*
X1108209Y1001549D01*
X1108820Y1002437D01*
X1109597Y1003380D01*
Y1003436D01*
X1109708Y1003491D01*
X1109986Y1003824D01*
X1110485Y1004324D01*
X1111207Y1005045D01*
X1112039Y1005878D01*
X1113093Y1006877D01*
X1114370Y1007987D01*
X1115757Y1009153D01*
X1115813Y1009208D01*
X1116035Y1009375D01*
X1116368Y1009652D01*
X1116756Y1009985D01*
X1117256Y1010429D01*
X1117867Y1010928D01*
X1118477Y1011484D01*
X1119198Y1012094D01*
X1120586Y1013426D01*
X1121974Y1014758D01*
X1122639Y1015424D01*
X1123250Y1016090D01*
X1123805Y1016701D01*
X1124249Y1017311D01*
Y1017366D01*
X1124360Y1017422D01*
X1124471Y1017588D01*
X1124582Y1017811D01*
X1124970Y1018421D01*
X1125415Y1019143D01*
X1125803Y1020030D01*
X1126191Y1020974D01*
X1126414Y1022029D01*
X1126524Y1023028D01*
Y1023083D01*
Y1023139D01*
X1126469Y1023471D01*
X1126414Y1024026D01*
X1126247Y1024637D01*
X1126025Y1025414D01*
X1125637Y1026191D01*
X1125137Y1026968D01*
X1124471Y1027745D01*
X1124360Y1027856D01*
X1124082Y1028078D01*
X1123694Y1028355D01*
X1123083Y1028744D01*
X1122306Y1029077D01*
X1121418Y1029410D01*
X1120364Y1029632D01*
X1119198Y1029688D01*
X1118866D01*
X1118643Y1029632D01*
X1117977Y1029576D01*
X1117200Y1029410D01*
X1116368Y1029188D01*
X1115425Y1028800D01*
X1114536Y1028300D01*
X1113704Y1027634D01*
X1113593Y1027523D01*
X1113371Y1027245D01*
X1113038Y1026802D01*
X1112705Y1026136D01*
X1112316Y1025359D01*
X1111984Y1024360D01*
X1111762Y1023250D01*
X1111650Y1021973D01*
X1106822Y1022472D01*
Y1022528D01*
X1106878Y1022694D01*
Y1022972D01*
X1106933Y1023361D01*
X1107044Y1023804D01*
X1107155Y1024304D01*
X1107322Y1024915D01*
X1107488Y1025525D01*
X1107932Y1026857D01*
X1108598Y1028189D01*
X1108986Y1028855D01*
X1109486Y1029521D01*
X1109986Y1030131D01*
X1110541Y1030687D01*
X1110596Y1030742D01*
X1110707Y1030797D01*
X1110873Y1030964D01*
X1111151Y1031130D01*
X1111484Y1031352D01*
X1111872Y1031574D01*
X1112316Y1031852D01*
X1112871Y1032130D01*
X1113482Y1032407D01*
X1114148Y1032685D01*
X1114870Y1032907D01*
X1115647Y1033129D01*
X1116479Y1033295D01*
X1117367Y1033461D01*
X1118311Y1033517D01*
X1119310Y1033572D01*
X1119864D01*
X1120253Y1033517D01*
D02*
G37*
G36*
X1094501Y995000D02*
X1089784D01*
Y1025025D01*
X1089728Y1024970D01*
X1089450Y1024748D01*
X1089118Y1024415D01*
X1088562Y1024026D01*
X1087952Y1023527D01*
X1087175Y1022972D01*
X1086287Y1022361D01*
X1085288Y1021751D01*
X1085233D01*
X1085177Y1021696D01*
X1084844Y1021473D01*
X1084289Y1021196D01*
X1083623Y1020863D01*
X1082846Y1020475D01*
X1082014Y1020086D01*
X1081181Y1019697D01*
X1080349Y1019365D01*
Y1023915D01*
X1080404D01*
X1080515Y1024026D01*
X1080737Y1024082D01*
X1081014Y1024248D01*
X1081348Y1024415D01*
X1081736Y1024637D01*
X1082679Y1025192D01*
X1083790Y1025803D01*
X1084899Y1026580D01*
X1086065Y1027467D01*
X1087230Y1028411D01*
X1087286Y1028466D01*
X1087341Y1028522D01*
X1087508Y1028688D01*
X1087730Y1028855D01*
X1088229Y1029410D01*
X1088896Y1030076D01*
X1089562Y1030853D01*
X1090283Y1031741D01*
X1090893Y1032629D01*
X1091448Y1033572D01*
X1094501D01*
Y995000D01*
D02*
G37*
G36*
X1058259Y1033351D02*
X1058759D01*
X1059925Y1033295D01*
X1061146Y1033129D01*
X1062477Y1032962D01*
X1063698Y1032685D01*
X1064309Y1032518D01*
X1064809Y1032351D01*
X1064864D01*
X1064919Y1032296D01*
X1065253Y1032130D01*
X1065752Y1031908D01*
X1066362Y1031519D01*
X1067028Y1031020D01*
X1067750Y1030353D01*
X1068416Y1029576D01*
X1069082Y1028688D01*
Y1028633D01*
X1069138Y1028578D01*
X1069360Y1028245D01*
X1069582Y1027689D01*
X1069915Y1026968D01*
X1070192Y1026136D01*
X1070469Y1025137D01*
X1070636Y1024082D01*
X1070691Y1022917D01*
Y1022861D01*
Y1022750D01*
Y1022528D01*
X1070636Y1022250D01*
Y1021862D01*
X1070581Y1021473D01*
X1070359Y1020530D01*
X1070025Y1019420D01*
X1069582Y1018255D01*
X1068916Y1017089D01*
X1068472Y1016534D01*
X1068027Y1015979D01*
X1067972Y1015923D01*
X1067917Y1015868D01*
X1067750Y1015702D01*
X1067528Y1015535D01*
X1067251Y1015313D01*
X1066918Y1015091D01*
X1066474Y1014813D01*
X1066030Y1014481D01*
X1065475Y1014203D01*
X1064864Y1013926D01*
X1064198Y1013592D01*
X1063476Y1013315D01*
X1062644Y1013093D01*
X1061812Y1012816D01*
X1060868Y1012649D01*
X1059869Y1012482D01*
X1059980Y1012427D01*
X1060202Y1012316D01*
X1060535Y1012094D01*
X1060979Y1011872D01*
X1061978Y1011261D01*
X1062477Y1010873D01*
X1062921Y1010540D01*
X1063033Y1010429D01*
X1063310Y1010152D01*
X1063754Y1009707D01*
X1064309Y1009153D01*
X1064919Y1008375D01*
X1065641Y1007543D01*
X1066362Y1006544D01*
X1067139Y1005434D01*
X1073744Y995000D01*
X1067417D01*
X1062367Y1002992D01*
Y1003048D01*
X1062255Y1003159D01*
X1062145Y1003325D01*
X1061978Y1003547D01*
X1061590Y1004158D01*
X1061090Y1004934D01*
X1060479Y1005767D01*
X1059869Y1006655D01*
X1059258Y1007487D01*
X1058704Y1008264D01*
X1058648Y1008320D01*
X1058482Y1008542D01*
X1058204Y1008875D01*
X1057815Y1009264D01*
X1056983Y1010096D01*
X1056539Y1010485D01*
X1056095Y1010817D01*
X1056040Y1010873D01*
X1055928Y1010928D01*
X1055707Y1011039D01*
X1055373Y1011206D01*
X1055041Y1011372D01*
X1054652Y1011539D01*
X1053764Y1011817D01*
X1053708D01*
X1053598Y1011872D01*
X1053376D01*
X1053098Y1011928D01*
X1052709Y1011983D01*
X1052265D01*
X1051655Y1012038D01*
X1045106D01*
Y995000D01*
X1040000D01*
Y1033406D01*
X1057815D01*
X1058259Y1033351D01*
D02*
G37*
G36*
X959360Y995000D02*
X954643D01*
Y1025025D01*
X954587Y1024970D01*
X954309Y1024748D01*
X953976Y1024415D01*
X953422Y1024026D01*
X952811Y1023527D01*
X952034Y1022972D01*
X951146Y1022361D01*
X950147Y1021751D01*
X950091D01*
X950036Y1021696D01*
X949703Y1021473D01*
X949148Y1021196D01*
X948482Y1020863D01*
X947705Y1020475D01*
X946872Y1020086D01*
X946040Y1019697D01*
X945207Y1019365D01*
Y1023915D01*
X945263D01*
X945374Y1024026D01*
X945596Y1024082D01*
X945874Y1024248D01*
X946207Y1024415D01*
X946595Y1024637D01*
X947538Y1025192D01*
X948649Y1025803D01*
X949759Y1026580D01*
X950924Y1027467D01*
X952090Y1028411D01*
X952145Y1028466D01*
X952201Y1028522D01*
X952367Y1028688D01*
X952589Y1028855D01*
X953088Y1029410D01*
X953755Y1030076D01*
X954420Y1030853D01*
X955142Y1031741D01*
X955753Y1032629D01*
X956308Y1033572D01*
X959360D01*
Y995000D01*
D02*
G37*
G36*
X929501D02*
X924784D01*
Y1025025D01*
X924728Y1024970D01*
X924451Y1024748D01*
X924117Y1024415D01*
X923562Y1024026D01*
X922952Y1023527D01*
X922175Y1022972D01*
X921287Y1022361D01*
X920288Y1021751D01*
X920232D01*
X920177Y1021696D01*
X919844Y1021473D01*
X919289Y1021196D01*
X918623Y1020863D01*
X917846Y1020475D01*
X917014Y1020086D01*
X916181Y1019697D01*
X915348Y1019365D01*
Y1023915D01*
X915404D01*
X915515Y1024026D01*
X915737Y1024082D01*
X916014Y1024248D01*
X916347Y1024415D01*
X916736Y1024637D01*
X917679Y1025192D01*
X918789Y1025803D01*
X919899Y1026580D01*
X921065Y1027467D01*
X922231Y1028411D01*
X922286Y1028466D01*
X922341Y1028522D01*
X922508Y1028688D01*
X922730Y1028855D01*
X923230Y1029410D01*
X923895Y1030076D01*
X924562Y1030853D01*
X925283Y1031741D01*
X925894Y1032629D01*
X926448Y1033572D01*
X929501D01*
Y995000D01*
D02*
G37*
G36*
X893260Y1033351D02*
X893759D01*
X894924Y1033295D01*
X896145Y1033129D01*
X897477Y1032962D01*
X898698Y1032685D01*
X899309Y1032518D01*
X899808Y1032351D01*
X899864D01*
X899919Y1032296D01*
X900253Y1032130D01*
X900752Y1031908D01*
X901362Y1031519D01*
X902029Y1031020D01*
X902750Y1030353D01*
X903416Y1029576D01*
X904082Y1028688D01*
Y1028633D01*
X904138Y1028578D01*
X904360Y1028245D01*
X904582Y1027689D01*
X904914Y1026968D01*
X905192Y1026136D01*
X905470Y1025137D01*
X905636Y1024082D01*
X905692Y1022917D01*
Y1022861D01*
Y1022750D01*
Y1022528D01*
X905636Y1022250D01*
Y1021862D01*
X905581Y1021473D01*
X905359Y1020530D01*
X905025Y1019420D01*
X904582Y1018255D01*
X903915Y1017089D01*
X903471Y1016534D01*
X903028Y1015979D01*
X902972Y1015923D01*
X902917Y1015868D01*
X902750Y1015702D01*
X902528Y1015535D01*
X902250Y1015313D01*
X901918Y1015091D01*
X901473Y1014813D01*
X901029Y1014481D01*
X900475Y1014203D01*
X899864Y1013926D01*
X899198Y1013592D01*
X898476Y1013315D01*
X897644Y1013093D01*
X896812Y1012816D01*
X895868Y1012649D01*
X894869Y1012482D01*
X894980Y1012427D01*
X895202Y1012316D01*
X895535Y1012094D01*
X895979Y1011872D01*
X896978Y1011261D01*
X897477Y1010873D01*
X897922Y1010540D01*
X898033Y1010429D01*
X898310Y1010152D01*
X898754Y1009707D01*
X899309Y1009153D01*
X899919Y1008375D01*
X900641Y1007543D01*
X901362Y1006544D01*
X902139Y1005434D01*
X908744Y995000D01*
X902417D01*
X897366Y1002992D01*
Y1003048D01*
X897255Y1003159D01*
X897144Y1003325D01*
X896978Y1003547D01*
X896590Y1004158D01*
X896090Y1004934D01*
X895480Y1005767D01*
X894869Y1006655D01*
X894259Y1007487D01*
X893703Y1008264D01*
X893648Y1008320D01*
X893481Y1008542D01*
X893204Y1008875D01*
X892816Y1009264D01*
X891983Y1010096D01*
X891539Y1010485D01*
X891095Y1010817D01*
X891039Y1010873D01*
X890928Y1010928D01*
X890707Y1011039D01*
X890374Y1011206D01*
X890040Y1011372D01*
X889652Y1011539D01*
X888764Y1011817D01*
X888708D01*
X888597Y1011872D01*
X888375D01*
X888098Y1011928D01*
X887710Y1011983D01*
X887265D01*
X886655Y1012038D01*
X880106D01*
Y995000D01*
X875000D01*
Y1033406D01*
X892816D01*
X893260Y1033351D01*
D02*
G37*
G36*
X1159450Y903517D02*
X1159728D01*
X1160117Y903462D01*
X1161060Y903295D01*
X1162114Y903073D01*
X1163280Y902684D01*
X1164446Y902185D01*
X1165611Y901519D01*
X1165667D01*
X1165722Y901408D01*
X1165889Y901297D01*
X1166111Y901130D01*
X1166666Y900687D01*
X1167387Y900076D01*
X1168109Y899244D01*
X1168941Y898245D01*
X1169662Y897079D01*
X1170329Y895747D01*
Y895692D01*
X1170384Y895581D01*
X1170495Y895359D01*
X1170606Y895081D01*
X1170717Y894692D01*
X1170883Y894193D01*
X1170995Y893638D01*
X1171161Y893028D01*
X1171328Y892306D01*
X1171494Y891473D01*
X1171605Y890586D01*
X1171716Y889642D01*
X1171827Y888587D01*
X1171938Y887477D01*
X1171994Y886256D01*
Y884980D01*
Y884924D01*
Y884647D01*
Y884259D01*
Y883759D01*
X1171938Y883149D01*
Y882427D01*
X1171882Y881595D01*
X1171772Y880762D01*
X1171605Y878875D01*
X1171328Y876877D01*
X1170939Y874990D01*
X1170661Y874047D01*
X1170384Y873214D01*
Y873159D01*
X1170329Y873048D01*
X1170217Y872826D01*
X1170107Y872492D01*
X1169940Y872159D01*
X1169718Y871716D01*
X1169163Y870772D01*
X1168497Y869717D01*
X1167720Y868607D01*
X1166721Y867553D01*
X1165611Y866610D01*
X1165555D01*
X1165445Y866499D01*
X1165278Y866388D01*
X1165056Y866277D01*
X1164723Y866110D01*
X1164390Y865888D01*
X1163946Y865666D01*
X1163502Y865500D01*
X1162447Y865056D01*
X1161171Y864667D01*
X1159784Y864445D01*
X1158229Y864334D01*
X1157785D01*
X1157508Y864389D01*
X1157120D01*
X1156676Y864445D01*
X1155621Y864667D01*
X1154456Y864944D01*
X1153235Y865389D01*
X1152014Y865999D01*
X1151403Y866388D01*
X1150848Y866832D01*
X1150793Y866887D01*
X1150737Y866942D01*
X1150571Y867109D01*
X1150404Y867275D01*
X1150182Y867553D01*
X1149905Y867886D01*
X1149350Y868663D01*
X1148794Y869662D01*
X1148239Y870883D01*
X1147795Y872270D01*
X1147463Y873880D01*
X1152014Y874269D01*
Y874213D01*
X1152069Y874102D01*
Y873991D01*
X1152124Y873769D01*
X1152291Y873159D01*
X1152513Y872492D01*
X1152791Y871716D01*
X1153179Y870938D01*
X1153623Y870217D01*
X1154178Y869606D01*
X1154234Y869551D01*
X1154456Y869385D01*
X1154844Y869163D01*
X1155288Y868941D01*
X1155899Y868663D01*
X1156620Y868441D01*
X1157453Y868274D01*
X1158341Y868219D01*
X1158729D01*
X1159118Y868274D01*
X1159617Y868330D01*
X1160227Y868441D01*
X1160838Y868607D01*
X1161504Y868830D01*
X1162114Y869163D01*
X1162170Y869218D01*
X1162392Y869329D01*
X1162725Y869551D01*
X1163058Y869884D01*
X1163502Y870273D01*
X1163946Y870716D01*
X1164390Y871216D01*
X1164834Y871827D01*
X1164889Y871882D01*
X1165001Y872159D01*
X1165223Y872548D01*
X1165445Y873048D01*
X1165722Y873713D01*
X1165999Y874490D01*
X1166277Y875379D01*
X1166554Y876378D01*
Y876433D01*
X1166610Y876489D01*
Y876655D01*
X1166666Y876877D01*
X1166776Y877432D01*
X1166943Y878154D01*
X1167054Y879042D01*
X1167165Y879985D01*
X1167220Y881039D01*
X1167276Y882149D01*
Y882205D01*
Y882371D01*
Y882649D01*
Y883093D01*
X1167220Y882982D01*
X1166998Y882705D01*
X1166666Y882316D01*
X1166277Y881761D01*
X1165722Y881206D01*
X1165056Y880596D01*
X1164279Y879985D01*
X1163391Y879430D01*
X1163280Y879375D01*
X1162947Y879208D01*
X1162447Y878986D01*
X1161837Y878764D01*
X1161005Y878486D01*
X1160117Y878264D01*
X1159118Y878098D01*
X1158063Y878043D01*
X1157619D01*
X1157286Y878098D01*
X1156842Y878154D01*
X1156398Y878209D01*
X1155843Y878320D01*
X1155288Y878486D01*
X1154012Y878875D01*
X1153345Y879153D01*
X1152679Y879486D01*
X1151958Y879874D01*
X1151292Y880374D01*
X1150626Y880873D01*
X1150015Y881484D01*
X1149960Y881539D01*
X1149849Y881650D01*
X1149738Y881817D01*
X1149516Y882094D01*
X1149238Y882482D01*
X1148961Y882871D01*
X1148684Y883370D01*
X1148406Y883926D01*
X1148073Y884536D01*
X1147795Y885202D01*
X1147518Y885979D01*
X1147241Y886756D01*
X1147018Y887644D01*
X1146908Y888587D01*
X1146796Y889531D01*
X1146741Y890586D01*
Y890641D01*
Y890863D01*
Y891140D01*
X1146796Y891529D01*
X1146852Y892029D01*
X1146908Y892639D01*
X1147018Y893250D01*
X1147185Y893971D01*
X1147573Y895414D01*
X1147851Y896191D01*
X1148184Y897024D01*
X1148572Y897801D01*
X1149072Y898522D01*
X1149572Y899299D01*
X1150182Y899965D01*
X1150237Y900020D01*
X1150349Y900131D01*
X1150515Y900298D01*
X1150793Y900520D01*
X1151126Y900798D01*
X1151570Y901130D01*
X1152014Y901408D01*
X1152569Y901797D01*
X1153123Y902130D01*
X1153790Y902407D01*
X1155288Y903018D01*
X1156065Y903240D01*
X1156953Y903406D01*
X1157841Y903517D01*
X1158784Y903572D01*
X1159173D01*
X1159450Y903517D01*
D02*
G37*
G36*
X1128259Y903351D02*
X1128759D01*
X1129925Y903295D01*
X1131146Y903129D01*
X1132477Y902962D01*
X1133698Y902684D01*
X1134309Y902518D01*
X1134809Y902351D01*
X1134864D01*
X1134919Y902296D01*
X1135253Y902130D01*
X1135752Y901908D01*
X1136362Y901519D01*
X1137028Y901019D01*
X1137750Y900354D01*
X1138416Y899577D01*
X1139082Y898688D01*
Y898633D01*
X1139138Y898577D01*
X1139360Y898245D01*
X1139582Y897689D01*
X1139915Y896968D01*
X1140192Y896135D01*
X1140469Y895136D01*
X1140636Y894082D01*
X1140691Y892917D01*
Y892861D01*
Y892750D01*
Y892528D01*
X1140636Y892250D01*
Y891862D01*
X1140581Y891473D01*
X1140359Y890530D01*
X1140025Y889420D01*
X1139582Y888255D01*
X1138916Y887089D01*
X1138472Y886534D01*
X1138027Y885979D01*
X1137972Y885923D01*
X1137917Y885868D01*
X1137750Y885702D01*
X1137528Y885535D01*
X1137251Y885313D01*
X1136918Y885091D01*
X1136474Y884813D01*
X1136030Y884481D01*
X1135475Y884203D01*
X1134864Y883926D01*
X1134198Y883592D01*
X1133476Y883315D01*
X1132644Y883093D01*
X1131812Y882816D01*
X1130868Y882649D01*
X1129869Y882482D01*
X1129980Y882427D01*
X1130202Y882316D01*
X1130535Y882094D01*
X1130979Y881872D01*
X1131978Y881261D01*
X1132477Y880873D01*
X1132921Y880540D01*
X1133033Y880429D01*
X1133310Y880152D01*
X1133754Y879707D01*
X1134309Y879153D01*
X1134919Y878375D01*
X1135641Y877543D01*
X1136362Y876544D01*
X1137139Y875434D01*
X1143744Y865000D01*
X1137417D01*
X1132367Y872992D01*
Y873048D01*
X1132255Y873159D01*
X1132145Y873325D01*
X1131978Y873547D01*
X1131590Y874158D01*
X1131090Y874934D01*
X1130479Y875767D01*
X1129869Y876655D01*
X1129258Y877487D01*
X1128704Y878264D01*
X1128648Y878320D01*
X1128482Y878542D01*
X1128204Y878875D01*
X1127815Y879264D01*
X1126983Y880096D01*
X1126539Y880485D01*
X1126095Y880817D01*
X1126040Y880873D01*
X1125928Y880928D01*
X1125707Y881039D01*
X1125373Y881206D01*
X1125041Y881372D01*
X1124652Y881539D01*
X1123764Y881817D01*
X1123708D01*
X1123598Y881872D01*
X1123376D01*
X1123098Y881928D01*
X1122709Y881983D01*
X1122265D01*
X1121655Y882038D01*
X1115106D01*
Y865000D01*
X1110000D01*
Y903406D01*
X1127815D01*
X1128259Y903351D01*
D02*
G37*
G36*
X698260Y888351D02*
X698759D01*
X699924Y888295D01*
X701145Y888129D01*
X702477Y887962D01*
X703698Y887684D01*
X704309Y887518D01*
X704808Y887351D01*
X704864D01*
X704919Y887296D01*
X705253Y887130D01*
X705752Y886908D01*
X706362Y886519D01*
X707029Y886019D01*
X707750Y885354D01*
X708416Y884577D01*
X709082Y883688D01*
Y883633D01*
X709138Y883577D01*
X709360Y883245D01*
X709582Y882689D01*
X709914Y881968D01*
X710192Y881135D01*
X710470Y880136D01*
X710636Y879082D01*
X710692Y877917D01*
Y877861D01*
Y877750D01*
Y877528D01*
X710636Y877250D01*
Y876862D01*
X710581Y876473D01*
X710359Y875530D01*
X710025Y874420D01*
X709582Y873255D01*
X708915Y872089D01*
X708471Y871534D01*
X708028Y870979D01*
X707972Y870923D01*
X707917Y870868D01*
X707750Y870702D01*
X707528Y870535D01*
X707250Y870313D01*
X706918Y870091D01*
X706473Y869813D01*
X706029Y869481D01*
X705475Y869203D01*
X704864Y868926D01*
X704198Y868592D01*
X703476Y868315D01*
X702644Y868093D01*
X701812Y867816D01*
X700868Y867649D01*
X699869Y867482D01*
X699980Y867427D01*
X700202Y867316D01*
X700535Y867094D01*
X700979Y866872D01*
X701978Y866261D01*
X702477Y865873D01*
X702922Y865540D01*
X703033Y865429D01*
X703310Y865152D01*
X703754Y864707D01*
X704309Y864153D01*
X704919Y863375D01*
X705641Y862543D01*
X706362Y861544D01*
X707139Y860434D01*
X713744Y850000D01*
X707417D01*
X702366Y857992D01*
Y858048D01*
X702255Y858159D01*
X702144Y858325D01*
X701978Y858547D01*
X701590Y859158D01*
X701090Y859934D01*
X700480Y860767D01*
X699869Y861655D01*
X699259Y862487D01*
X698703Y863264D01*
X698648Y863320D01*
X698481Y863542D01*
X698204Y863875D01*
X697816Y864264D01*
X696983Y865096D01*
X696539Y865485D01*
X696095Y865817D01*
X696039Y865873D01*
X695928Y865928D01*
X695707Y866039D01*
X695374Y866206D01*
X695040Y866372D01*
X694652Y866539D01*
X693764Y866817D01*
X693708D01*
X693597Y866872D01*
X693375D01*
X693098Y866928D01*
X692710Y866983D01*
X692265D01*
X691655Y867038D01*
X685106D01*
Y850000D01*
X680000D01*
Y888406D01*
X697816D01*
X698260Y888351D01*
D02*
G37*
G36*
X730061Y888517D02*
X730505Y888462D01*
X731005Y888406D01*
X731559Y888351D01*
X732115Y888184D01*
X733447Y887851D01*
X734779Y887351D01*
X735444Y887019D01*
X736111Y886630D01*
X736721Y886130D01*
X737332Y885631D01*
X737387Y885576D01*
X737442Y885520D01*
X737609Y885354D01*
X737831Y885131D01*
X738053Y884798D01*
X738331Y884466D01*
X738885Y883633D01*
X739441Y882578D01*
X739940Y881357D01*
X740328Y879970D01*
X740384Y879249D01*
X740439Y878471D01*
Y878416D01*
Y878361D01*
Y878028D01*
X740384Y877528D01*
X740273Y876918D01*
X740106Y876140D01*
X739829Y875364D01*
X739496Y874587D01*
X738996Y873809D01*
X738941Y873698D01*
X738719Y873476D01*
X738386Y873144D01*
X737942Y872699D01*
X737332Y872200D01*
X736610Y871701D01*
X735778Y871201D01*
X734779Y870757D01*
X734834D01*
X734945Y870702D01*
X735111Y870646D01*
X735333Y870535D01*
X736000Y870258D01*
X736777Y869869D01*
X737609Y869314D01*
X738497Y868703D01*
X739330Y867927D01*
X740106Y867038D01*
Y866983D01*
X740162Y866928D01*
X740384Y866595D01*
X740717Y866039D01*
X741050Y865318D01*
X741383Y864430D01*
X741716Y863375D01*
X741938Y862210D01*
X741994Y860933D01*
Y860878D01*
Y860712D01*
Y860434D01*
X741938Y860101D01*
X741883Y859712D01*
X741827Y859213D01*
X741716Y858658D01*
X741549Y858048D01*
X741161Y856771D01*
X740884Y856049D01*
X740495Y855384D01*
X740106Y854662D01*
X739663Y853996D01*
X739107Y853330D01*
X738497Y852664D01*
X738442Y852609D01*
X738331Y852497D01*
X738164Y852331D01*
X737886Y852164D01*
X737498Y851887D01*
X737110Y851610D01*
X736610Y851332D01*
X736055Y850999D01*
X735444Y850666D01*
X734723Y850389D01*
X733946Y850111D01*
X733169Y849833D01*
X732281Y849667D01*
X731337Y849500D01*
X730394Y849389D01*
X729340Y849334D01*
X728784D01*
X728396Y849389D01*
X727896Y849445D01*
X727341Y849500D01*
X726731Y849611D01*
X726065Y849778D01*
X724567Y850167D01*
X723789Y850444D01*
X723068Y850721D01*
X722291Y851110D01*
X721514Y851554D01*
X720793Y852053D01*
X720126Y852664D01*
X720071Y852720D01*
X719960Y852831D01*
X719793Y852997D01*
X719572Y853274D01*
X719350Y853607D01*
X719016Y853996D01*
X718739Y854440D01*
X718406Y854995D01*
X718073Y855550D01*
X717795Y856216D01*
X717240Y857604D01*
X717019Y858436D01*
X716852Y859269D01*
X716741Y860157D01*
X716686Y861044D01*
Y861100D01*
Y861211D01*
Y861433D01*
X716741Y861655D01*
Y861988D01*
X716797Y862376D01*
X716908Y863264D01*
X717130Y864264D01*
X717462Y865263D01*
X717962Y866317D01*
X718572Y867316D01*
Y867371D01*
X718683Y867427D01*
X718905Y867705D01*
X719350Y868149D01*
X719960Y868703D01*
X720737Y869259D01*
X721681Y869869D01*
X722735Y870369D01*
X724011Y870757D01*
X723956D01*
X723900Y870812D01*
X723734Y870868D01*
X723512Y870979D01*
X723013Y871201D01*
X722346Y871534D01*
X721625Y871978D01*
X720904Y872533D01*
X720237Y873144D01*
X719627Y873809D01*
X719572Y873920D01*
X719405Y874143D01*
X719183Y874587D01*
X718961Y875141D01*
X718683Y875863D01*
X718462Y876696D01*
X718295Y877639D01*
X718240Y878638D01*
Y878693D01*
Y878804D01*
Y879027D01*
X718295Y879360D01*
X718351Y879692D01*
X718406Y880136D01*
X718628Y881080D01*
X718961Y882190D01*
X719516Y883356D01*
X719849Y883966D01*
X720237Y884577D01*
X720737Y885131D01*
X721236Y885687D01*
X721292Y885742D01*
X721403Y885798D01*
X721569Y885964D01*
X721792Y886130D01*
X722069Y886352D01*
X722457Y886574D01*
X722902Y886852D01*
X723346Y887130D01*
X723900Y887407D01*
X724511Y887684D01*
X725177Y887907D01*
X725899Y888129D01*
X727452Y888462D01*
X728341Y888517D01*
X729229Y888572D01*
X729728D01*
X730061Y888517D01*
D02*
G37*
G36*
X1220787Y811554D02*
X1230000D01*
Y806837D01*
X1220787D01*
Y790131D01*
X1216458D01*
X1191594Y807725D01*
Y811554D01*
X1216458D01*
Y816771D01*
X1220787D01*
Y811554D01*
D02*
G37*
G36*
X1230000Y782417D02*
X1222008Y777366D01*
X1221953D01*
X1221841Y777255D01*
X1221675Y777144D01*
X1221453Y776978D01*
X1220842Y776590D01*
X1220065Y776090D01*
X1219233Y775480D01*
X1218345Y774869D01*
X1217513Y774259D01*
X1216736Y773703D01*
X1216680Y773648D01*
X1216458Y773481D01*
X1216125Y773204D01*
X1215736Y772816D01*
X1214904Y771983D01*
X1214515Y771539D01*
X1214182Y771095D01*
X1214127Y771039D01*
X1214072Y770928D01*
X1213960Y770707D01*
X1213794Y770374D01*
X1213628Y770040D01*
X1213461Y769652D01*
X1213184Y768764D01*
Y768708D01*
X1213128Y768597D01*
Y768375D01*
X1213072Y768098D01*
X1213017Y767710D01*
Y767265D01*
X1212961Y766655D01*
Y760106D01*
X1230000D01*
Y755000D01*
X1191594D01*
Y772816D01*
X1191649Y773260D01*
Y773759D01*
X1191705Y774924D01*
X1191871Y776145D01*
X1192038Y777477D01*
X1192315Y778698D01*
X1192482Y779309D01*
X1192649Y779808D01*
Y779864D01*
X1192704Y779919D01*
X1192870Y780253D01*
X1193092Y780752D01*
X1193481Y781362D01*
X1193980Y782029D01*
X1194647Y782750D01*
X1195424Y783416D01*
X1196312Y784082D01*
X1196367D01*
X1196422Y784138D01*
X1196755Y784360D01*
X1197311Y784582D01*
X1198032Y784914D01*
X1198864Y785192D01*
X1199863Y785470D01*
X1200918Y785636D01*
X1202083Y785692D01*
X1202139D01*
X1202250D01*
X1202472D01*
X1202749Y785636D01*
X1203138D01*
X1203526Y785581D01*
X1204470Y785359D01*
X1205580Y785025D01*
X1206745Y784582D01*
X1207911Y783915D01*
X1208466Y783471D01*
X1209021Y783028D01*
X1209076Y782972D01*
X1209132Y782917D01*
X1209299Y782750D01*
X1209465Y782528D01*
X1209687Y782250D01*
X1209909Y781918D01*
X1210187Y781473D01*
X1210520Y781029D01*
X1210797Y780475D01*
X1211074Y779864D01*
X1211408Y779198D01*
X1211685Y778476D01*
X1211907Y777644D01*
X1212185Y776812D01*
X1212351Y775868D01*
X1212517Y774869D01*
X1212573Y774980D01*
X1212684Y775202D01*
X1212906Y775535D01*
X1213128Y775979D01*
X1213738Y776978D01*
X1214127Y777477D01*
X1214460Y777922D01*
X1214571Y778033D01*
X1214849Y778310D01*
X1215293Y778754D01*
X1215848Y779309D01*
X1216624Y779919D01*
X1217457Y780641D01*
X1218456Y781362D01*
X1219566Y782139D01*
X1230000Y788744D01*
Y782417D01*
D02*
G37*
G36*
X1275000Y1139839D02*
X1244975D01*
X1245030Y1139784D01*
X1245252Y1139506D01*
X1245585Y1139173D01*
X1245974Y1138618D01*
X1246473Y1138007D01*
X1247028Y1137230D01*
X1247639Y1136342D01*
X1248249Y1135343D01*
Y1135288D01*
X1248304Y1135233D01*
X1248526Y1134899D01*
X1248804Y1134344D01*
X1249137Y1133678D01*
X1249525Y1132901D01*
X1249914Y1132069D01*
X1250303Y1131236D01*
X1250636Y1130404D01*
X1246084D01*
Y1130459D01*
X1245974Y1130571D01*
X1245918Y1130793D01*
X1245752Y1131070D01*
X1245585Y1131403D01*
X1245363Y1131792D01*
X1244808Y1132735D01*
X1244197Y1133845D01*
X1243420Y1134955D01*
X1242533Y1136120D01*
X1241589Y1137286D01*
X1241534Y1137341D01*
X1241478Y1137397D01*
X1241312Y1137563D01*
X1241145Y1137785D01*
X1240590Y1138285D01*
X1239924Y1138951D01*
X1239147Y1139617D01*
X1238259Y1140339D01*
X1237371Y1140949D01*
X1236428Y1141504D01*
Y1144556D01*
X1275000D01*
Y1139839D01*
D02*
G37*
G36*
X1256741Y1121690D02*
X1257185D01*
X1258239Y1121635D01*
X1259460Y1121468D01*
X1260736Y1121302D01*
X1262069Y1121024D01*
X1263400Y1120691D01*
X1263456D01*
X1263567Y1120636D01*
X1263734Y1120581D01*
X1263956Y1120525D01*
X1264566Y1120303D01*
X1265343Y1119970D01*
X1266231Y1119637D01*
X1267119Y1119193D01*
X1268062Y1118638D01*
X1268950Y1118083D01*
X1269062Y1118027D01*
X1269339Y1117805D01*
X1269727Y1117473D01*
X1270227Y1117028D01*
X1270782Y1116529D01*
X1271337Y1115918D01*
X1271947Y1115308D01*
X1272447Y1114586D01*
X1272503Y1114476D01*
X1272669Y1114254D01*
X1272891Y1113865D01*
X1273168Y1113310D01*
X1273502Y1112644D01*
X1273779Y1111867D01*
X1274112Y1110979D01*
X1274389Y1109980D01*
Y1109869D01*
X1274445Y1109703D01*
X1274501Y1109536D01*
X1274556Y1108981D01*
X1274667Y1108204D01*
X1274778Y1107316D01*
X1274889Y1106262D01*
X1274945Y1105096D01*
X1275000Y1103820D01*
Y1090000D01*
X1236594D01*
Y1104763D01*
X1236649Y1105762D01*
X1236705Y1106872D01*
X1236816Y1107982D01*
X1236983Y1109092D01*
X1237149Y1110035D01*
Y1110091D01*
X1237205Y1110202D01*
Y1110369D01*
X1237315Y1110591D01*
X1237482Y1111201D01*
X1237759Y1111978D01*
X1238148Y1112866D01*
X1238648Y1113810D01*
X1239203Y1114753D01*
X1239924Y1115641D01*
X1239979Y1115697D01*
X1240035Y1115752D01*
X1240201Y1115918D01*
X1240368Y1116140D01*
X1240923Y1116696D01*
X1241700Y1117361D01*
X1242643Y1118083D01*
X1243754Y1118860D01*
X1245030Y1119582D01*
X1246473Y1120192D01*
X1246528D01*
X1246639Y1120247D01*
X1246861Y1120359D01*
X1247195Y1120414D01*
X1247583Y1120581D01*
X1248027Y1120691D01*
X1248526Y1120803D01*
X1249137Y1120969D01*
X1249747Y1121136D01*
X1250469Y1121246D01*
X1252023Y1121524D01*
X1253744Y1121690D01*
X1255630Y1121746D01*
X1255686D01*
X1255797D01*
X1256074D01*
X1256352D01*
X1256741Y1121690D01*
D02*
G37*
G36*
X1335000Y1131130D02*
X1334945D01*
X1334723D01*
X1334389D01*
X1333946Y1131186D01*
X1333446Y1131242D01*
X1332891Y1131352D01*
X1332336Y1131464D01*
X1331726Y1131686D01*
X1331670D01*
X1331614Y1131741D01*
X1331282Y1131852D01*
X1330782Y1132074D01*
X1330116Y1132407D01*
X1329339Y1132851D01*
X1328451Y1133406D01*
X1327563Y1134016D01*
X1326620Y1134793D01*
X1326564D01*
X1326508Y1134905D01*
X1326176Y1135182D01*
X1325676Y1135681D01*
X1324955Y1136403D01*
X1324122Y1137236D01*
X1323123Y1138290D01*
X1322013Y1139566D01*
X1320848Y1140954D01*
X1320792Y1141009D01*
X1320626Y1141232D01*
X1320348Y1141564D01*
X1320015Y1141953D01*
X1319571Y1142453D01*
X1319072Y1143063D01*
X1318516Y1143674D01*
X1317906Y1144395D01*
X1316574Y1145783D01*
X1315242Y1147170D01*
X1314576Y1147836D01*
X1313910Y1148447D01*
X1313300Y1149002D01*
X1312689Y1149446D01*
X1312633D01*
X1312578Y1149556D01*
X1312411Y1149668D01*
X1312189Y1149778D01*
X1311579Y1150167D01*
X1310858Y1150611D01*
X1309969Y1150999D01*
X1309026Y1151388D01*
X1307972Y1151610D01*
X1306973Y1151721D01*
X1306917D01*
X1306861D01*
X1306528Y1151666D01*
X1305974Y1151610D01*
X1305363Y1151444D01*
X1304586Y1151222D01*
X1303809Y1150833D01*
X1303032Y1150333D01*
X1302255Y1149668D01*
X1302144Y1149556D01*
X1301922Y1149279D01*
X1301645Y1148890D01*
X1301256Y1148280D01*
X1300923Y1147503D01*
X1300590Y1146615D01*
X1300368Y1145561D01*
X1300312Y1144395D01*
Y1144062D01*
X1300368Y1143840D01*
X1300424Y1143174D01*
X1300590Y1142397D01*
X1300812Y1141564D01*
X1301200Y1140621D01*
X1301700Y1139733D01*
X1302366Y1138900D01*
X1302477Y1138790D01*
X1302755Y1138568D01*
X1303198Y1138235D01*
X1303864Y1137901D01*
X1304641Y1137513D01*
X1305640Y1137180D01*
X1306751Y1136958D01*
X1308027Y1136847D01*
X1307527Y1132018D01*
X1307472D01*
X1307305Y1132074D01*
X1307028D01*
X1306639Y1132130D01*
X1306196Y1132241D01*
X1305696Y1132351D01*
X1305085Y1132518D01*
X1304475Y1132685D01*
X1303143Y1133129D01*
X1301811Y1133794D01*
X1301145Y1134183D01*
X1300479Y1134682D01*
X1299869Y1135182D01*
X1299313Y1135737D01*
X1299258Y1135793D01*
X1299203Y1135903D01*
X1299036Y1136070D01*
X1298870Y1136348D01*
X1298648Y1136680D01*
X1298426Y1137069D01*
X1298148Y1137513D01*
X1297870Y1138068D01*
X1297593Y1138678D01*
X1297315Y1139344D01*
X1297093Y1140066D01*
X1296871Y1140843D01*
X1296705Y1141676D01*
X1296539Y1142563D01*
X1296483Y1143507D01*
X1296428Y1144506D01*
Y1145061D01*
X1296483Y1145449D01*
X1296539Y1145893D01*
X1296594Y1146448D01*
X1296705Y1147059D01*
X1296816Y1147669D01*
X1297205Y1149112D01*
X1297759Y1150555D01*
X1298092Y1151277D01*
X1298481Y1151998D01*
X1298980Y1152665D01*
X1299535Y1153275D01*
X1299591Y1153331D01*
X1299647Y1153441D01*
X1299869Y1153553D01*
X1300091Y1153774D01*
X1300368Y1154052D01*
X1300756Y1154330D01*
X1301145Y1154607D01*
X1301645Y1154940D01*
X1302699Y1155495D01*
X1304031Y1156050D01*
X1304697Y1156272D01*
X1305474Y1156383D01*
X1306251Y1156494D01*
X1307083Y1156550D01*
X1307195D01*
X1307472D01*
X1307916Y1156494D01*
X1308526Y1156438D01*
X1309193Y1156328D01*
X1309969Y1156105D01*
X1310802Y1155883D01*
X1311634Y1155551D01*
X1311745Y1155495D01*
X1312023Y1155384D01*
X1312467Y1155162D01*
X1313078Y1154829D01*
X1313744Y1154385D01*
X1314576Y1153830D01*
X1315409Y1153164D01*
X1316352Y1152387D01*
X1316463Y1152276D01*
X1316796Y1151998D01*
X1317073Y1151721D01*
X1317351Y1151444D01*
X1317684Y1151111D01*
X1318128Y1150667D01*
X1318572Y1150223D01*
X1319072Y1149668D01*
X1319627Y1149112D01*
X1320237Y1148447D01*
X1320848Y1147725D01*
X1321569Y1146948D01*
X1322291Y1146060D01*
X1323068Y1145172D01*
X1323123Y1145117D01*
X1323234Y1145005D01*
X1323400Y1144784D01*
X1323622Y1144506D01*
X1323956Y1144173D01*
X1324289Y1143784D01*
X1325010Y1142897D01*
X1325842Y1141953D01*
X1326675Y1141065D01*
X1327397Y1140288D01*
X1327674Y1139955D01*
X1327951Y1139678D01*
X1328007Y1139622D01*
X1328174Y1139456D01*
X1328396Y1139234D01*
X1328728Y1138956D01*
X1329117Y1138678D01*
X1329505Y1138345D01*
X1330449Y1137679D01*
Y1156605D01*
X1335000D01*
Y1131130D01*
D02*
G37*
G36*
X1316741Y1126690D02*
X1317185D01*
X1318239Y1126635D01*
X1319460Y1126468D01*
X1320736Y1126302D01*
X1322069Y1126024D01*
X1323400Y1125691D01*
X1323456D01*
X1323567Y1125636D01*
X1323734Y1125581D01*
X1323956Y1125525D01*
X1324566Y1125303D01*
X1325343Y1124970D01*
X1326231Y1124637D01*
X1327119Y1124193D01*
X1328062Y1123638D01*
X1328950Y1123083D01*
X1329062Y1123027D01*
X1329339Y1122805D01*
X1329727Y1122473D01*
X1330227Y1122028D01*
X1330782Y1121529D01*
X1331337Y1120918D01*
X1331947Y1120308D01*
X1332447Y1119586D01*
X1332503Y1119476D01*
X1332669Y1119254D01*
X1332891Y1118865D01*
X1333168Y1118310D01*
X1333502Y1117644D01*
X1333779Y1116867D01*
X1334112Y1115979D01*
X1334389Y1114980D01*
Y1114869D01*
X1334445Y1114703D01*
X1334501Y1114536D01*
X1334556Y1113981D01*
X1334667Y1113204D01*
X1334778Y1112316D01*
X1334889Y1111262D01*
X1334945Y1110096D01*
X1335000Y1108820D01*
Y1095000D01*
X1296594D01*
Y1109763D01*
X1296649Y1110762D01*
X1296705Y1111872D01*
X1296816Y1112982D01*
X1296983Y1114092D01*
X1297149Y1115035D01*
Y1115091D01*
X1297205Y1115202D01*
Y1115369D01*
X1297315Y1115591D01*
X1297482Y1116201D01*
X1297759Y1116978D01*
X1298148Y1117866D01*
X1298648Y1118810D01*
X1299203Y1119753D01*
X1299924Y1120641D01*
X1299979Y1120697D01*
X1300035Y1120752D01*
X1300201Y1120918D01*
X1300368Y1121140D01*
X1300923Y1121696D01*
X1301700Y1122361D01*
X1302643Y1123083D01*
X1303754Y1123860D01*
X1305030Y1124582D01*
X1306473Y1125192D01*
X1306528D01*
X1306639Y1125247D01*
X1306861Y1125359D01*
X1307195Y1125414D01*
X1307583Y1125581D01*
X1308027Y1125691D01*
X1308526Y1125803D01*
X1309137Y1125969D01*
X1309747Y1126136D01*
X1310469Y1126246D01*
X1312023Y1126524D01*
X1313744Y1126690D01*
X1315630Y1126746D01*
X1315686D01*
X1315797D01*
X1316074D01*
X1316352D01*
X1316741Y1126690D01*
D02*
G37*
G36*
X1450868Y921883D02*
X1450978Y921771D01*
X1451200Y921549D01*
X1451534Y921327D01*
X1451922Y920995D01*
X1452366Y920551D01*
X1452921Y920106D01*
X1453587Y919607D01*
X1454253Y919107D01*
X1455030Y918497D01*
X1455918Y917886D01*
X1456806Y917276D01*
X1457805Y916610D01*
X1458860Y915944D01*
X1460025Y915278D01*
X1461190Y914612D01*
X1461246Y914557D01*
X1461468Y914446D01*
X1461801Y914279D01*
X1462301Y914001D01*
X1462911Y913724D01*
X1463577Y913391D01*
X1464354Y913003D01*
X1465242Y912614D01*
X1466241Y912170D01*
X1467240Y911670D01*
X1468350Y911226D01*
X1469515Y910783D01*
X1471902Y909894D01*
X1474455Y909062D01*
X1474511D01*
X1474677Y909006D01*
X1474955Y908951D01*
X1475287Y908840D01*
X1475732Y908729D01*
X1476286Y908618D01*
X1476897Y908452D01*
X1477563Y908341D01*
X1478340Y908174D01*
X1479172Y908008D01*
X1480948Y907730D01*
X1482891Y907452D01*
X1485000Y907286D01*
Y902457D01*
X1484945D01*
X1484778D01*
X1484556D01*
X1484223Y902513D01*
X1483779D01*
X1483224Y902568D01*
X1482613Y902624D01*
X1481947Y902679D01*
X1481170Y902790D01*
X1480393Y902902D01*
X1479450Y903068D01*
X1478506Y903235D01*
X1477507Y903401D01*
X1476398Y903623D01*
X1474122Y904178D01*
X1474066D01*
X1473844Y904234D01*
X1473512Y904345D01*
X1473012Y904511D01*
X1472457Y904678D01*
X1471791Y904899D01*
X1471014Y905121D01*
X1470181Y905455D01*
X1469238Y905788D01*
X1468294Y906120D01*
X1466186Y906953D01*
X1463966Y907952D01*
X1461745Y909062D01*
X1461690Y909117D01*
X1461468Y909229D01*
X1461190Y909395D01*
X1460746Y909617D01*
X1460247Y909894D01*
X1459637Y910283D01*
X1458970Y910672D01*
X1458249Y911115D01*
X1456639Y912170D01*
X1454975Y913280D01*
X1453254Y914557D01*
X1451645Y915889D01*
Y897074D01*
X1447093D01*
Y921938D01*
X1450812D01*
X1450868Y921883D01*
D02*
G37*
G36*
X1485000Y887417D02*
X1477008Y882366D01*
X1476953D01*
X1476841Y882255D01*
X1476675Y882144D01*
X1476453Y881978D01*
X1475842Y881590D01*
X1475065Y881090D01*
X1474233Y880480D01*
X1473345Y879869D01*
X1472513Y879259D01*
X1471736Y878703D01*
X1471680Y878648D01*
X1471458Y878481D01*
X1471125Y878204D01*
X1470736Y877816D01*
X1469904Y876983D01*
X1469515Y876539D01*
X1469182Y876095D01*
X1469127Y876039D01*
X1469072Y875928D01*
X1468960Y875707D01*
X1468794Y875374D01*
X1468628Y875040D01*
X1468461Y874652D01*
X1468184Y873764D01*
Y873708D01*
X1468128Y873597D01*
Y873375D01*
X1468072Y873098D01*
X1468017Y872710D01*
Y872265D01*
X1467961Y871655D01*
Y865106D01*
X1485000D01*
Y860000D01*
X1446594D01*
Y877816D01*
X1446649Y878260D01*
Y878759D01*
X1446705Y879924D01*
X1446871Y881145D01*
X1447038Y882477D01*
X1447315Y883698D01*
X1447482Y884309D01*
X1447649Y884808D01*
Y884864D01*
X1447704Y884919D01*
X1447870Y885253D01*
X1448092Y885752D01*
X1448481Y886362D01*
X1448980Y887029D01*
X1449647Y887750D01*
X1450424Y888416D01*
X1451312Y889082D01*
X1451367D01*
X1451422Y889138D01*
X1451755Y889360D01*
X1452311Y889582D01*
X1453032Y889914D01*
X1453864Y890192D01*
X1454863Y890470D01*
X1455918Y890636D01*
X1457083Y890692D01*
X1457139D01*
X1457250D01*
X1457472D01*
X1457749Y890636D01*
X1458138D01*
X1458526Y890581D01*
X1459470Y890359D01*
X1460580Y890025D01*
X1461745Y889582D01*
X1462911Y888915D01*
X1463466Y888471D01*
X1464021Y888028D01*
X1464076Y887972D01*
X1464132Y887917D01*
X1464299Y887750D01*
X1464465Y887528D01*
X1464687Y887250D01*
X1464909Y886918D01*
X1465187Y886473D01*
X1465520Y886029D01*
X1465797Y885475D01*
X1466074Y884864D01*
X1466408Y884198D01*
X1466685Y883476D01*
X1466907Y882644D01*
X1467185Y881812D01*
X1467351Y880868D01*
X1467517Y879869D01*
X1467573Y879980D01*
X1467684Y880202D01*
X1467906Y880535D01*
X1468128Y880979D01*
X1468738Y881978D01*
X1469127Y882477D01*
X1469460Y882922D01*
X1469571Y883033D01*
X1469849Y883310D01*
X1470293Y883754D01*
X1470848Y884309D01*
X1471624Y884919D01*
X1472457Y885641D01*
X1473456Y886362D01*
X1474566Y887139D01*
X1485000Y893744D01*
Y887417D01*
D02*
G37*
G36*
X1267901Y822160D02*
X1268345Y822105D01*
X1268844Y822049D01*
X1269455Y821938D01*
X1270065Y821827D01*
X1271508Y821494D01*
X1273007Y820939D01*
X1273784Y820606D01*
X1274505Y820162D01*
X1275283Y819718D01*
X1276004Y819163D01*
X1276060Y819107D01*
X1276226Y818996D01*
X1276448Y818774D01*
X1276726Y818497D01*
X1277059Y818109D01*
X1277503Y817664D01*
X1277891Y817110D01*
X1278335Y816499D01*
X1278779Y815833D01*
X1279168Y815056D01*
X1279556Y814223D01*
X1279945Y813336D01*
X1280222Y812392D01*
X1280444Y811337D01*
X1280611Y810227D01*
X1280666Y809062D01*
Y808562D01*
X1280611Y808174D01*
X1280555Y807730D01*
X1280499Y807231D01*
X1280444Y806620D01*
X1280277Y806010D01*
X1279945Y804622D01*
X1279445Y803235D01*
X1279112Y802513D01*
X1278724Y801792D01*
X1278280Y801125D01*
X1277780Y800460D01*
X1277725Y800404D01*
X1277669Y800293D01*
X1277447Y800182D01*
X1277225Y799960D01*
X1276947Y799683D01*
X1276614Y799405D01*
X1276170Y799072D01*
X1275671Y798794D01*
X1275171Y798462D01*
X1274561Y798129D01*
X1273229Y797518D01*
X1271675Y797019D01*
X1270842Y796852D01*
X1269955Y796741D01*
X1269566Y801681D01*
X1269621D01*
X1269733D01*
X1269899Y801736D01*
X1270177Y801792D01*
X1270787Y801958D01*
X1271620Y802180D01*
X1272452Y802513D01*
X1273396Y802957D01*
X1274228Y803512D01*
X1275005Y804178D01*
X1275061Y804289D01*
X1275283Y804511D01*
X1275560Y804955D01*
X1275893Y805566D01*
X1276226Y806231D01*
X1276504Y807064D01*
X1276726Y808008D01*
X1276781Y809062D01*
Y809395D01*
X1276726Y809617D01*
X1276670Y810283D01*
X1276448Y811060D01*
X1276170Y812004D01*
X1275726Y812947D01*
X1275061Y813946D01*
X1274672Y814390D01*
X1274228Y814834D01*
X1274172Y814889D01*
X1274117Y814945D01*
X1273950Y815056D01*
X1273784Y815222D01*
X1273174Y815611D01*
X1272397Y816055D01*
X1271453Y816443D01*
X1270287Y816832D01*
X1268900Y817110D01*
X1268178Y817221D01*
X1267401D01*
X1267346D01*
X1267235D01*
X1267013D01*
X1266736Y817165D01*
X1266402D01*
X1266014Y817110D01*
X1265126Y816943D01*
X1264072Y816665D01*
X1263017Y816277D01*
X1262018Y815722D01*
X1261074Y814945D01*
X1261019D01*
X1260964Y814834D01*
X1260686Y814557D01*
X1260297Y814057D01*
X1259853Y813391D01*
X1259465Y812503D01*
X1259076Y811504D01*
X1258799Y810338D01*
X1258688Y809673D01*
Y808618D01*
X1258744Y808174D01*
X1258799Y807619D01*
X1258966Y806953D01*
X1259132Y806287D01*
X1259409Y805566D01*
X1259743Y804844D01*
X1259798Y804788D01*
X1259909Y804567D01*
X1260187Y804234D01*
X1260464Y803789D01*
X1260852Y803346D01*
X1261352Y802902D01*
X1261851Y802402D01*
X1262462Y802014D01*
X1261851Y797573D01*
X1242093Y801292D01*
Y820384D01*
X1246589D01*
Y805010D01*
X1256967Y802957D01*
X1256912Y803013D01*
X1256857Y803124D01*
X1256745Y803290D01*
X1256579Y803567D01*
X1256412Y803900D01*
X1256190Y804289D01*
X1255746Y805177D01*
X1255303Y806287D01*
X1254914Y807508D01*
X1254637Y808840D01*
X1254525Y809506D01*
Y810727D01*
X1254581Y811060D01*
X1254637Y811504D01*
X1254692Y812004D01*
X1254803Y812558D01*
X1254969Y813169D01*
X1255358Y814501D01*
X1255636Y815222D01*
X1256024Y815944D01*
X1256412Y816665D01*
X1256857Y817387D01*
X1257411Y818053D01*
X1258022Y818719D01*
X1258078Y818774D01*
X1258188Y818885D01*
X1258355Y819052D01*
X1258632Y819274D01*
X1259021Y819552D01*
X1259409Y819829D01*
X1259909Y820162D01*
X1260464Y820495D01*
X1261074Y820773D01*
X1261741Y821106D01*
X1262517Y821383D01*
X1263294Y821660D01*
X1264127Y821883D01*
X1265071Y822049D01*
X1266014Y822160D01*
X1267013Y822216D01*
X1267069D01*
X1267235D01*
X1267513D01*
X1267901Y822160D01*
D02*
G37*
G36*
X1280000Y787417D02*
X1272008Y782366D01*
X1271953D01*
X1271841Y782255D01*
X1271675Y782144D01*
X1271453Y781978D01*
X1270842Y781590D01*
X1270065Y781090D01*
X1269233Y780480D01*
X1268345Y779869D01*
X1267513Y779259D01*
X1266736Y778703D01*
X1266680Y778648D01*
X1266458Y778481D01*
X1266125Y778204D01*
X1265736Y777816D01*
X1264904Y776983D01*
X1264515Y776539D01*
X1264182Y776095D01*
X1264127Y776039D01*
X1264072Y775928D01*
X1263960Y775707D01*
X1263794Y775374D01*
X1263628Y775040D01*
X1263461Y774652D01*
X1263184Y773764D01*
Y773708D01*
X1263128Y773597D01*
Y773375D01*
X1263072Y773098D01*
X1263017Y772710D01*
Y772265D01*
X1262961Y771655D01*
Y765106D01*
X1280000D01*
Y760000D01*
X1241594D01*
Y777816D01*
X1241649Y778260D01*
Y778759D01*
X1241705Y779924D01*
X1241871Y781145D01*
X1242038Y782477D01*
X1242315Y783698D01*
X1242482Y784309D01*
X1242649Y784808D01*
Y784864D01*
X1242704Y784919D01*
X1242870Y785253D01*
X1243092Y785752D01*
X1243481Y786362D01*
X1243980Y787029D01*
X1244647Y787750D01*
X1245424Y788416D01*
X1246312Y789082D01*
X1246367D01*
X1246422Y789138D01*
X1246755Y789360D01*
X1247311Y789582D01*
X1248032Y789914D01*
X1248864Y790192D01*
X1249863Y790470D01*
X1250918Y790636D01*
X1252083Y790692D01*
X1252139D01*
X1252250D01*
X1252472D01*
X1252749Y790636D01*
X1253138D01*
X1253526Y790581D01*
X1254470Y790359D01*
X1255580Y790025D01*
X1256745Y789582D01*
X1257911Y788915D01*
X1258466Y788471D01*
X1259021Y788028D01*
X1259076Y787972D01*
X1259132Y787917D01*
X1259299Y787750D01*
X1259465Y787528D01*
X1259687Y787250D01*
X1259909Y786918D01*
X1260187Y786473D01*
X1260520Y786029D01*
X1260797Y785475D01*
X1261074Y784864D01*
X1261408Y784198D01*
X1261685Y783476D01*
X1261907Y782644D01*
X1262185Y781812D01*
X1262351Y780868D01*
X1262517Y779869D01*
X1262573Y779980D01*
X1262684Y780202D01*
X1262906Y780535D01*
X1263128Y780979D01*
X1263738Y781978D01*
X1264127Y782477D01*
X1264460Y782922D01*
X1264571Y783033D01*
X1264849Y783310D01*
X1265293Y783754D01*
X1265848Y784309D01*
X1266624Y784919D01*
X1267457Y785641D01*
X1268456Y786362D01*
X1269566Y787139D01*
X1280000Y793744D01*
Y787417D01*
D02*
G37*
G36*
X1270000Y669420D02*
X1239975D01*
X1240030Y669365D01*
X1240252Y669087D01*
X1240585Y668755D01*
X1240974Y668199D01*
X1241473Y667589D01*
X1242028Y666812D01*
X1242639Y665924D01*
X1243249Y664925D01*
Y664870D01*
X1243304Y664814D01*
X1243526Y664481D01*
X1243804Y663926D01*
X1244137Y663260D01*
X1244525Y662483D01*
X1244914Y661650D01*
X1245303Y660818D01*
X1245636Y659986D01*
X1241084D01*
Y660041D01*
X1240974Y660152D01*
X1240918Y660374D01*
X1240752Y660652D01*
X1240585Y660985D01*
X1240363Y661373D01*
X1239808Y662317D01*
X1239197Y663427D01*
X1238420Y664537D01*
X1237533Y665702D01*
X1236589Y666867D01*
X1236534Y666923D01*
X1236478Y666979D01*
X1236312Y667145D01*
X1236145Y667367D01*
X1235590Y667866D01*
X1234924Y668533D01*
X1234147Y669198D01*
X1233259Y669920D01*
X1232371Y670530D01*
X1231428Y671086D01*
Y674138D01*
X1270000D01*
Y669420D01*
D02*
G37*
G36*
Y647054D02*
X1262008Y642004D01*
X1261953D01*
X1261841Y641893D01*
X1261675Y641782D01*
X1261453Y641615D01*
X1260842Y641226D01*
X1260065Y640727D01*
X1259233Y640116D01*
X1258345Y639506D01*
X1257513Y638895D01*
X1256736Y638341D01*
X1256680Y638285D01*
X1256458Y638119D01*
X1256125Y637841D01*
X1255736Y637452D01*
X1254904Y636620D01*
X1254515Y636176D01*
X1254182Y635732D01*
X1254127Y635677D01*
X1254072Y635566D01*
X1253960Y635343D01*
X1253794Y635010D01*
X1253628Y634678D01*
X1253461Y634289D01*
X1253184Y633401D01*
Y633346D01*
X1253128Y633235D01*
Y633013D01*
X1253072Y632735D01*
X1253017Y632346D01*
Y631903D01*
X1252961Y631292D01*
Y624743D01*
X1270000D01*
Y619637D01*
X1231594D01*
Y637452D01*
X1231649Y637896D01*
Y638396D01*
X1231705Y639562D01*
X1231871Y640783D01*
X1232038Y642115D01*
X1232315Y643336D01*
X1232482Y643946D01*
X1232649Y644446D01*
Y644501D01*
X1232704Y644557D01*
X1232870Y644889D01*
X1233092Y645389D01*
X1233481Y646000D01*
X1233980Y646665D01*
X1234647Y647387D01*
X1235424Y648053D01*
X1236312Y648719D01*
X1236367D01*
X1236422Y648774D01*
X1236755Y648996D01*
X1237311Y649218D01*
X1238032Y649552D01*
X1238864Y649829D01*
X1239863Y650106D01*
X1240918Y650273D01*
X1242083Y650328D01*
X1242139D01*
X1242250D01*
X1242472D01*
X1242749Y650273D01*
X1243138D01*
X1243526Y650217D01*
X1244470Y649995D01*
X1245580Y649663D01*
X1246745Y649218D01*
X1247911Y648553D01*
X1248466Y648109D01*
X1249021Y647664D01*
X1249076Y647609D01*
X1249132Y647553D01*
X1249299Y647387D01*
X1249465Y647165D01*
X1249687Y646888D01*
X1249909Y646554D01*
X1250187Y646111D01*
X1250520Y645667D01*
X1250797Y645111D01*
X1251074Y644501D01*
X1251408Y643835D01*
X1251685Y643114D01*
X1251907Y642281D01*
X1252185Y641448D01*
X1252351Y640505D01*
X1252517Y639506D01*
X1252573Y639617D01*
X1252684Y639839D01*
X1252906Y640172D01*
X1253128Y640616D01*
X1253738Y641615D01*
X1254127Y642115D01*
X1254460Y642558D01*
X1254571Y642669D01*
X1254849Y642947D01*
X1255293Y643391D01*
X1255848Y643946D01*
X1256624Y644557D01*
X1257457Y645278D01*
X1258456Y646000D01*
X1259566Y646777D01*
X1270000Y653381D01*
Y647054D01*
D02*
G37*
G36*
X1259011Y611201D02*
X1259455D01*
X1260509Y611090D01*
X1261730Y610979D01*
X1263007Y610757D01*
X1264172Y610424D01*
X1265283Y610035D01*
X1265338D01*
X1265393Y609980D01*
X1265726Y609813D01*
X1266170Y609536D01*
X1266781Y609148D01*
X1267391Y608592D01*
X1268057Y607982D01*
X1268724Y607205D01*
X1269278Y606317D01*
X1269334Y606206D01*
X1269501Y605873D01*
X1269723Y605374D01*
X1269945Y604652D01*
X1270222Y603764D01*
X1270444Y602765D01*
X1270611Y601655D01*
X1270666Y600434D01*
Y599934D01*
X1270611Y599601D01*
X1270555Y599158D01*
X1270499Y598713D01*
X1270277Y597548D01*
X1269945Y596327D01*
X1269445Y595051D01*
X1269112Y594385D01*
X1268724Y593774D01*
X1268280Y593219D01*
X1267780Y592664D01*
X1267725Y592609D01*
X1267669Y592553D01*
X1267447Y592442D01*
X1267225Y592275D01*
X1266947Y592053D01*
X1266559Y591832D01*
X1266115Y591610D01*
X1265616Y591332D01*
X1265061Y591110D01*
X1264395Y590888D01*
X1263728Y590666D01*
X1262951Y590444D01*
X1262119Y590333D01*
X1261176Y590167D01*
X1260232Y590111D01*
X1259178D01*
X1258512Y594717D01*
X1258567D01*
X1258678D01*
X1258900D01*
X1259233Y594773D01*
X1259566Y594828D01*
X1259955D01*
X1260898Y594995D01*
X1261897Y595162D01*
X1262896Y595495D01*
X1263784Y595827D01*
X1264172Y596049D01*
X1264505Y596327D01*
X1264561Y596383D01*
X1264727Y596605D01*
X1265005Y596938D01*
X1265283Y597381D01*
X1265616Y597992D01*
X1265838Y598658D01*
X1266060Y599490D01*
X1266115Y600379D01*
Y600712D01*
X1266060Y601044D01*
X1266004Y601544D01*
X1265893Y602043D01*
X1265782Y602598D01*
X1265560Y603154D01*
X1265283Y603708D01*
X1265227Y603764D01*
X1265116Y603931D01*
X1264894Y604153D01*
X1264672Y604486D01*
X1264284Y604763D01*
X1263895Y605096D01*
X1263451Y605374D01*
X1262896Y605596D01*
X1262841D01*
X1262619Y605707D01*
X1262230Y605762D01*
X1261730Y605873D01*
X1261064Y605984D01*
X1260232Y606039D01*
X1259233Y606150D01*
X1258068D01*
X1231594D01*
Y611256D01*
X1257790D01*
X1257845D01*
X1258012D01*
X1258234D01*
X1258567D01*
X1259011Y611201D01*
D02*
G37*
G36*
X884037Y764016D02*
X884536Y763961D01*
X885146Y763905D01*
X885757Y763850D01*
X886479Y763683D01*
X887977Y763351D01*
X889642Y762851D01*
X890475Y762518D01*
X891251Y762130D01*
X892029Y761630D01*
X892806Y761130D01*
X892861Y761075D01*
X892972Y761019D01*
X893194Y760853D01*
X893471Y760576D01*
X893749Y760298D01*
X894138Y759909D01*
X894526Y759466D01*
X894970Y759021D01*
X895414Y758466D01*
X895858Y757801D01*
X896357Y757135D01*
X896802Y756413D01*
X897190Y755581D01*
X897634Y754748D01*
X897967Y753860D01*
X898300Y752861D01*
X893305Y751696D01*
Y751751D01*
X893250Y751862D01*
X893139Y752084D01*
X893028Y752361D01*
X892917Y752694D01*
X892750Y753139D01*
X892306Y754027D01*
X891751Y755025D01*
X891085Y756024D01*
X890253Y756968D01*
X889365Y757801D01*
X889254Y757912D01*
X888920Y758134D01*
X888365Y758411D01*
X887644Y758799D01*
X886701Y759133D01*
X885646Y759466D01*
X884370Y759688D01*
X882982Y759743D01*
X882538D01*
X882260Y759688D01*
X881872D01*
X881428Y759632D01*
X880374Y759466D01*
X879208Y759244D01*
X877987Y758855D01*
X876711Y758300D01*
X875545Y757578D01*
X875490D01*
X875434Y757467D01*
X875045Y757190D01*
X874546Y756746D01*
X873936Y756080D01*
X873214Y755247D01*
X872548Y754304D01*
X871938Y753139D01*
X871383Y751862D01*
Y751807D01*
X871327Y751696D01*
X871271Y751529D01*
X871216Y751251D01*
X871105Y750918D01*
X870994Y750530D01*
X870827Y749587D01*
X870606Y748476D01*
X870384Y747255D01*
X870273Y745923D01*
X870217Y744481D01*
Y744425D01*
Y744259D01*
Y743981D01*
Y743648D01*
X870273Y743260D01*
Y742760D01*
X870328Y742205D01*
X870384Y741595D01*
X870550Y740263D01*
X870827Y738819D01*
X871160Y737376D01*
X871605Y735933D01*
Y735878D01*
X871660Y735767D01*
X871771Y735601D01*
X871882Y735323D01*
X872215Y734657D01*
X872715Y733880D01*
X873325Y732992D01*
X874102Y732048D01*
X874990Y731216D01*
X876044Y730439D01*
X876100D01*
X876211Y730384D01*
X876378Y730273D01*
X876600Y730162D01*
X876877Y730051D01*
X877210Y729884D01*
X877987Y729551D01*
X878986Y729218D01*
X880096Y728941D01*
X881317Y728718D01*
X882593Y728663D01*
X882982D01*
X883315Y728718D01*
X883703D01*
X884092Y728774D01*
X885091Y728996D01*
X886256Y729274D01*
X887422Y729717D01*
X888643Y730328D01*
X889254Y730661D01*
X889808Y731105D01*
X889864Y731160D01*
X889919Y731216D01*
X890086Y731383D01*
X890308Y731549D01*
X890530Y731827D01*
X890808Y732159D01*
X891140Y732492D01*
X891418Y732937D01*
X891751Y733436D01*
X892139Y733991D01*
X892472Y734546D01*
X892806Y735212D01*
X893083Y735933D01*
X893361Y736711D01*
X893638Y737543D01*
X893860Y738431D01*
X898966Y737154D01*
Y737099D01*
X898910Y736877D01*
X898799Y736544D01*
X898633Y736100D01*
X898466Y735601D01*
X898245Y734990D01*
X897967Y734324D01*
X897634Y733602D01*
X896857Y732048D01*
X895858Y730495D01*
X895247Y729717D01*
X894637Y728941D01*
X893971Y728274D01*
X893194Y727609D01*
X893139Y727553D01*
X893028Y727442D01*
X892750Y727331D01*
X892472Y727109D01*
X892029Y726832D01*
X891585Y726554D01*
X890974Y726277D01*
X890364Y725999D01*
X889642Y725666D01*
X888865Y725389D01*
X888033Y725111D01*
X887144Y724833D01*
X886201Y724611D01*
X885202Y724500D01*
X884148Y724389D01*
X883038Y724334D01*
X882427D01*
X881983Y724389D01*
X881484D01*
X880873Y724445D01*
X880207Y724556D01*
X879430Y724667D01*
X877821Y724944D01*
X876155Y725389D01*
X874490Y725999D01*
X873713Y726388D01*
X872937Y726832D01*
X872881Y726887D01*
X872770Y726942D01*
X872548Y727109D01*
X872326Y727331D01*
X871993Y727553D01*
X871605Y727886D01*
X871160Y728274D01*
X870716Y728718D01*
X870273Y729218D01*
X869773Y729717D01*
X868774Y730994D01*
X867831Y732492D01*
X866998Y734158D01*
Y734213D01*
X866887Y734380D01*
X866832Y734657D01*
X866665Y734990D01*
X866554Y735434D01*
X866388Y735989D01*
X866165Y736600D01*
X865999Y737265D01*
X865832Y737987D01*
X865611Y738819D01*
X865333Y740540D01*
X865111Y742482D01*
X865000Y744481D01*
Y744536D01*
Y744758D01*
Y745091D01*
X865056Y745480D01*
Y746034D01*
X865111Y746590D01*
X865167Y747311D01*
X865278Y748033D01*
X865555Y749642D01*
X865943Y751418D01*
X866499Y753194D01*
X867275Y754914D01*
X867331Y754970D01*
X867386Y755136D01*
X867497Y755359D01*
X867720Y755636D01*
X867942Y756024D01*
X868219Y756468D01*
X868941Y757467D01*
X869884Y758577D01*
X870994Y759688D01*
X872270Y760798D01*
X873769Y761741D01*
X873824Y761797D01*
X873991Y761852D01*
X874213Y761963D01*
X874490Y762130D01*
X874934Y762296D01*
X875379Y762462D01*
X875933Y762684D01*
X876544Y762907D01*
X877210Y763129D01*
X877932Y763351D01*
X879486Y763683D01*
X881261Y763961D01*
X883093Y764072D01*
X883648D01*
X884037Y764016D01*
D02*
G37*
G36*
X921055Y725000D02*
X916337D01*
Y755025D01*
X916282Y754970D01*
X916005Y754748D01*
X915672Y754415D01*
X915116Y754027D01*
X914506Y753527D01*
X913729Y752972D01*
X912841Y752361D01*
X911842Y751751D01*
X911787D01*
X911731Y751696D01*
X911398Y751473D01*
X910843Y751196D01*
X910177Y750863D01*
X909400Y750475D01*
X908567Y750086D01*
X907735Y749697D01*
X906903Y749365D01*
Y753915D01*
X906958D01*
X907069Y754027D01*
X907291Y754082D01*
X907568Y754249D01*
X907902Y754415D01*
X908290Y754637D01*
X909234Y755192D01*
X910343Y755803D01*
X911453Y756580D01*
X912619Y757467D01*
X913784Y758411D01*
X913840Y758466D01*
X913895Y758522D01*
X914062Y758688D01*
X914284Y758855D01*
X914784Y759410D01*
X915449Y760076D01*
X916115Y760853D01*
X916837Y761741D01*
X917447Y762629D01*
X918003Y763572D01*
X921055D01*
Y725000D01*
D02*
G37*
G36*
X974037Y764016D02*
X974536Y763961D01*
X975146Y763905D01*
X975757Y763850D01*
X976479Y763683D01*
X977977Y763351D01*
X979642Y762851D01*
X980475Y762518D01*
X981251Y762130D01*
X982029Y761630D01*
X982806Y761130D01*
X982861Y761075D01*
X982972Y761019D01*
X983194Y760853D01*
X983471Y760576D01*
X983749Y760298D01*
X984138Y759909D01*
X984526Y759466D01*
X984970Y759021D01*
X985414Y758466D01*
X985858Y757801D01*
X986357Y757135D01*
X986802Y756413D01*
X987190Y755581D01*
X987634Y754748D01*
X987967Y753860D01*
X988300Y752861D01*
X983305Y751696D01*
Y751751D01*
X983250Y751862D01*
X983139Y752084D01*
X983028Y752361D01*
X982917Y752694D01*
X982750Y753139D01*
X982306Y754027D01*
X981751Y755025D01*
X981085Y756024D01*
X980253Y756968D01*
X979365Y757801D01*
X979254Y757912D01*
X978920Y758134D01*
X978365Y758411D01*
X977644Y758799D01*
X976701Y759133D01*
X975646Y759466D01*
X974370Y759688D01*
X972982Y759743D01*
X972538D01*
X972260Y759688D01*
X971872D01*
X971428Y759632D01*
X970374Y759466D01*
X969208Y759244D01*
X967987Y758855D01*
X966711Y758300D01*
X965545Y757578D01*
X965490D01*
X965434Y757467D01*
X965045Y757190D01*
X964546Y756746D01*
X963936Y756080D01*
X963214Y755247D01*
X962548Y754304D01*
X961938Y753139D01*
X961383Y751862D01*
Y751807D01*
X961327Y751696D01*
X961271Y751529D01*
X961216Y751251D01*
X961105Y750918D01*
X960994Y750530D01*
X960827Y749587D01*
X960606Y748476D01*
X960384Y747255D01*
X960273Y745923D01*
X960217Y744481D01*
Y744425D01*
Y744259D01*
Y743981D01*
Y743648D01*
X960273Y743260D01*
Y742760D01*
X960328Y742205D01*
X960384Y741595D01*
X960550Y740263D01*
X960827Y738819D01*
X961160Y737376D01*
X961605Y735933D01*
Y735878D01*
X961660Y735767D01*
X961771Y735601D01*
X961882Y735323D01*
X962215Y734657D01*
X962715Y733880D01*
X963325Y732992D01*
X964102Y732048D01*
X964990Y731216D01*
X966044Y730439D01*
X966100D01*
X966211Y730384D01*
X966378Y730273D01*
X966600Y730162D01*
X966877Y730051D01*
X967210Y729884D01*
X967987Y729551D01*
X968986Y729218D01*
X970096Y728941D01*
X971317Y728718D01*
X972593Y728663D01*
X972982D01*
X973315Y728718D01*
X973703D01*
X974092Y728774D01*
X975091Y728996D01*
X976256Y729274D01*
X977422Y729717D01*
X978643Y730328D01*
X979254Y730661D01*
X979808Y731105D01*
X979864Y731160D01*
X979919Y731216D01*
X980086Y731383D01*
X980308Y731549D01*
X980530Y731827D01*
X980808Y732159D01*
X981140Y732492D01*
X981418Y732937D01*
X981751Y733436D01*
X982139Y733991D01*
X982472Y734546D01*
X982806Y735212D01*
X983083Y735933D01*
X983361Y736711D01*
X983638Y737543D01*
X983860Y738431D01*
X988966Y737154D01*
Y737099D01*
X988910Y736877D01*
X988799Y736544D01*
X988633Y736100D01*
X988466Y735601D01*
X988245Y734990D01*
X987967Y734324D01*
X987634Y733602D01*
X986857Y732048D01*
X985858Y730495D01*
X985247Y729717D01*
X984637Y728941D01*
X983971Y728274D01*
X983194Y727609D01*
X983139Y727553D01*
X983028Y727442D01*
X982750Y727331D01*
X982472Y727109D01*
X982029Y726832D01*
X981585Y726554D01*
X980974Y726277D01*
X980364Y725999D01*
X979642Y725666D01*
X978865Y725389D01*
X978033Y725111D01*
X977144Y724833D01*
X976201Y724611D01*
X975202Y724500D01*
X974148Y724389D01*
X973038Y724334D01*
X972427D01*
X971983Y724389D01*
X971484D01*
X970873Y724445D01*
X970207Y724556D01*
X969430Y724667D01*
X967821Y724944D01*
X966155Y725389D01*
X964490Y725999D01*
X963713Y726388D01*
X962937Y726832D01*
X962881Y726887D01*
X962770Y726942D01*
X962548Y727109D01*
X962326Y727331D01*
X961993Y727553D01*
X961605Y727886D01*
X961160Y728274D01*
X960716Y728718D01*
X960273Y729218D01*
X959773Y729717D01*
X958774Y730994D01*
X957831Y732492D01*
X956998Y734158D01*
Y734213D01*
X956887Y734380D01*
X956832Y734657D01*
X956665Y734990D01*
X956554Y735434D01*
X956388Y735989D01*
X956165Y736600D01*
X955999Y737265D01*
X955832Y737987D01*
X955611Y738819D01*
X955333Y740540D01*
X955111Y742482D01*
X955000Y744481D01*
Y744536D01*
Y744758D01*
Y745091D01*
X955056Y745480D01*
Y746034D01*
X955111Y746590D01*
X955167Y747311D01*
X955278Y748033D01*
X955555Y749642D01*
X955943Y751418D01*
X956499Y753194D01*
X957275Y754914D01*
X957331Y754970D01*
X957386Y755136D01*
X957497Y755359D01*
X957720Y755636D01*
X957942Y756024D01*
X958219Y756468D01*
X958941Y757467D01*
X959884Y758577D01*
X960994Y759688D01*
X962270Y760798D01*
X963769Y761741D01*
X963824Y761797D01*
X963991Y761852D01*
X964213Y761963D01*
X964490Y762130D01*
X964934Y762296D01*
X965379Y762462D01*
X965933Y762684D01*
X966544Y762907D01*
X967210Y763129D01*
X967932Y763351D01*
X969486Y763683D01*
X971261Y763961D01*
X973093Y764072D01*
X973648D01*
X974037Y764016D01*
D02*
G37*
G36*
X1006948Y763517D02*
X1007392Y763462D01*
X1007947Y763406D01*
X1008558Y763295D01*
X1009168Y763184D01*
X1010611Y762795D01*
X1012054Y762240D01*
X1012775Y761908D01*
X1013497Y761519D01*
X1014163Y761019D01*
X1014774Y760465D01*
X1014829Y760409D01*
X1014940Y760354D01*
X1015051Y760131D01*
X1015273Y759909D01*
X1015551Y759632D01*
X1015828Y759244D01*
X1016106Y758855D01*
X1016438Y758356D01*
X1016994Y757301D01*
X1017548Y755969D01*
X1017770Y755303D01*
X1017881Y754526D01*
X1017992Y753749D01*
X1018048Y752917D01*
Y752806D01*
Y752528D01*
X1017992Y752084D01*
X1017937Y751473D01*
X1017826Y750808D01*
X1017604Y750030D01*
X1017382Y749198D01*
X1017049Y748365D01*
X1016994Y748255D01*
X1016883Y747977D01*
X1016660Y747533D01*
X1016327Y746923D01*
X1015884Y746256D01*
X1015328Y745424D01*
X1014663Y744591D01*
X1013885Y743648D01*
X1013774Y743537D01*
X1013497Y743204D01*
X1013220Y742927D01*
X1012942Y742649D01*
X1012609Y742316D01*
X1012165Y741872D01*
X1011721Y741428D01*
X1011166Y740928D01*
X1010611Y740374D01*
X1009945Y739763D01*
X1009223Y739153D01*
X1008447Y738431D01*
X1007558Y737710D01*
X1006670Y736933D01*
X1006615Y736877D01*
X1006504Y736766D01*
X1006282Y736600D01*
X1006005Y736378D01*
X1005672Y736044D01*
X1005283Y735712D01*
X1004395Y734990D01*
X1003452Y734158D01*
X1002563Y733325D01*
X1001787Y732604D01*
X1001453Y732326D01*
X1001176Y732048D01*
X1001120Y731993D01*
X1000954Y731827D01*
X1000732Y731605D01*
X1000455Y731271D01*
X1000177Y730883D01*
X999844Y730495D01*
X999178Y729551D01*
X1018104D01*
Y725000D01*
X992629D01*
Y725056D01*
Y725278D01*
Y725611D01*
X992684Y726054D01*
X992740Y726554D01*
X992851Y727109D01*
X992962Y727664D01*
X993184Y728274D01*
Y728330D01*
X993240Y728385D01*
X993351Y728718D01*
X993572Y729218D01*
X993905Y729884D01*
X994350Y730661D01*
X994904Y731549D01*
X995515Y732437D01*
X996292Y733380D01*
Y733436D01*
X996403Y733491D01*
X996681Y733824D01*
X997180Y734324D01*
X997902Y735045D01*
X998734Y735878D01*
X999788Y736877D01*
X1001065Y737987D01*
X1002452Y739153D01*
X1002508Y739208D01*
X1002730Y739375D01*
X1003063Y739652D01*
X1003452Y739985D01*
X1003951Y740429D01*
X1004562Y740928D01*
X1005172Y741484D01*
X1005894Y742094D01*
X1007281Y743426D01*
X1008668Y744758D01*
X1009335Y745424D01*
X1009945Y746090D01*
X1010500Y746701D01*
X1010944Y747311D01*
Y747366D01*
X1011055Y747422D01*
X1011166Y747588D01*
X1011277Y747811D01*
X1011665Y748421D01*
X1012110Y749143D01*
X1012498Y750030D01*
X1012886Y750974D01*
X1013109Y752029D01*
X1013220Y753028D01*
Y753083D01*
Y753139D01*
X1013164Y753471D01*
X1013109Y754027D01*
X1012942Y754637D01*
X1012720Y755414D01*
X1012332Y756191D01*
X1011832Y756968D01*
X1011166Y757745D01*
X1011055Y757856D01*
X1010778Y758078D01*
X1010389Y758356D01*
X1009779Y758744D01*
X1009001Y759077D01*
X1008114Y759410D01*
X1007059Y759632D01*
X1005894Y759688D01*
X1005561D01*
X1005338Y759632D01*
X1004673Y759577D01*
X1003895Y759410D01*
X1003063Y759188D01*
X1002120Y758799D01*
X1001231Y758300D01*
X1000399Y757634D01*
X1000288Y757523D01*
X1000066Y757245D01*
X999733Y756802D01*
X999400Y756135D01*
X999011Y755359D01*
X998678Y754360D01*
X998457Y753250D01*
X998346Y751973D01*
X993517Y752472D01*
Y752528D01*
X993572Y752694D01*
Y752972D01*
X993628Y753361D01*
X993739Y753804D01*
X993850Y754304D01*
X994016Y754914D01*
X994183Y755525D01*
X994627Y756857D01*
X995293Y758189D01*
X995682Y758855D01*
X996181Y759521D01*
X996681Y760131D01*
X997236Y760687D01*
X997291Y760742D01*
X997402Y760798D01*
X997568Y760964D01*
X997846Y761130D01*
X998179Y761352D01*
X998567Y761574D01*
X999011Y761852D01*
X999567Y762130D01*
X1000177Y762407D01*
X1000843Y762684D01*
X1001564Y762907D01*
X1002341Y763129D01*
X1003174Y763295D01*
X1004062Y763462D01*
X1005005Y763517D01*
X1006005Y763572D01*
X1006559D01*
X1006948Y763517D01*
D02*
G37*
G36*
X809950Y728517D02*
X810672Y728406D01*
X811559Y728240D01*
X812558Y727962D01*
X813558Y727629D01*
X814557Y727185D01*
X814612D01*
X814668Y727130D01*
X815000Y726963D01*
X815500Y726630D01*
X816055Y726241D01*
X816721Y725687D01*
X817387Y725076D01*
X818053Y724355D01*
X818608Y723522D01*
X818663Y723411D01*
X818830Y723134D01*
X819052Y722634D01*
X819330Y722024D01*
X819607Y721302D01*
X819829Y720470D01*
X819995Y719526D01*
X820051Y718582D01*
Y718471D01*
Y718139D01*
X819995Y717694D01*
X819885Y717084D01*
X819718Y716362D01*
X819441Y715586D01*
X819107Y714808D01*
X818663Y714032D01*
X818608Y713920D01*
X818442Y713698D01*
X818109Y713310D01*
X817664Y712866D01*
X817110Y712366D01*
X816443Y711812D01*
X815667Y711312D01*
X814723Y710812D01*
X814779D01*
X814889Y710757D01*
X815056Y710702D01*
X815278Y710646D01*
X815889Y710424D01*
X816665Y710091D01*
X817553Y709647D01*
X818442Y709092D01*
X819274Y708370D01*
X820051Y707538D01*
X820106Y707427D01*
X820328Y707094D01*
X820662Y706539D01*
X820995Y705817D01*
X821327Y704929D01*
X821660Y703875D01*
X821883Y702654D01*
X821938Y701322D01*
Y701266D01*
Y701100D01*
Y700822D01*
X821883Y700490D01*
X821827Y700045D01*
X821716Y699546D01*
X821605Y698991D01*
X821494Y698380D01*
X821050Y697048D01*
X820717Y696327D01*
X820384Y695661D01*
X819940Y694939D01*
X819441Y694218D01*
X818885Y693496D01*
X818220Y692831D01*
X818164Y692775D01*
X818053Y692664D01*
X817831Y692497D01*
X817553Y692275D01*
X817221Y691998D01*
X816777Y691721D01*
X816277Y691388D01*
X815667Y691110D01*
X815056Y690777D01*
X814335Y690444D01*
X813613Y690167D01*
X812780Y689889D01*
X811893Y689667D01*
X810949Y689500D01*
X810005Y689389D01*
X808951Y689334D01*
X808452D01*
X808119Y689389D01*
X807674Y689445D01*
X807175Y689500D01*
X806620Y689611D01*
X806010Y689722D01*
X804678Y690056D01*
X803290Y690611D01*
X802568Y690943D01*
X801903Y691332D01*
X801236Y691832D01*
X800571Y692331D01*
X800515Y692386D01*
X800404Y692497D01*
X800237Y692664D01*
X800071Y692886D01*
X799793Y693163D01*
X799516Y693552D01*
X799183Y693941D01*
X798850Y694440D01*
X798517Y694995D01*
X798184Y695550D01*
X797573Y696882D01*
X797074Y698436D01*
X796908Y699269D01*
X796797Y700157D01*
X801514Y700767D01*
Y700712D01*
X801569Y700601D01*
X801625Y700379D01*
X801681Y700101D01*
X801736Y699768D01*
X801847Y699380D01*
X802125Y698547D01*
X802513Y697548D01*
X803013Y696605D01*
X803567Y695716D01*
X804234Y694939D01*
X804345Y694884D01*
X804567Y694662D01*
X805010Y694385D01*
X805566Y694107D01*
X806231Y693774D01*
X807064Y693496D01*
X808008Y693274D01*
X809006Y693219D01*
X809340D01*
X809562Y693274D01*
X810172Y693330D01*
X810949Y693496D01*
X811837Y693774D01*
X812780Y694163D01*
X813724Y694717D01*
X814612Y695495D01*
X814723Y695606D01*
X815000Y695938D01*
X815333Y696438D01*
X815778Y697104D01*
X816221Y697937D01*
X816554Y698880D01*
X816832Y699990D01*
X816943Y701211D01*
Y701266D01*
Y701378D01*
Y701544D01*
X816888Y701766D01*
X816832Y702376D01*
X816665Y703098D01*
X816443Y703986D01*
X816055Y704874D01*
X815500Y705762D01*
X814779Y706595D01*
X814668Y706706D01*
X814390Y706928D01*
X813946Y707260D01*
X813336Y707649D01*
X812558Y708038D01*
X811615Y708370D01*
X810561Y708592D01*
X809395Y708703D01*
X808895D01*
X808507Y708648D01*
X808008Y708592D01*
X807452Y708481D01*
X806787Y708370D01*
X806065Y708204D01*
X806620Y712366D01*
X806898D01*
X807120Y712311D01*
X807841D01*
X808452Y712422D01*
X809173Y712533D01*
X810005Y712699D01*
X810949Y712977D01*
X811837Y713365D01*
X812780Y713865D01*
X812836D01*
X812891Y713920D01*
X813169Y714143D01*
X813558Y714531D01*
X814001Y715030D01*
X814446Y715752D01*
X814834Y716585D01*
X815111Y717528D01*
X815222Y718083D01*
Y718693D01*
Y718749D01*
Y718804D01*
Y719138D01*
X815111Y719582D01*
X815000Y720192D01*
X814779Y720858D01*
X814501Y721580D01*
X814057Y722301D01*
X813447Y722967D01*
X813391Y723023D01*
X813114Y723245D01*
X812725Y723522D01*
X812226Y723855D01*
X811559Y724133D01*
X810783Y724410D01*
X809894Y724632D01*
X808895Y724688D01*
X808452D01*
X807952Y724577D01*
X807286Y724466D01*
X806564Y724244D01*
X805843Y723966D01*
X805066Y723522D01*
X804345Y722967D01*
X804289Y722912D01*
X804067Y722634D01*
X803734Y722245D01*
X803346Y721691D01*
X802957Y720969D01*
X802568Y720081D01*
X802236Y719027D01*
X802014Y717806D01*
X797296Y718638D01*
Y718693D01*
X797351Y718860D01*
X797407Y719082D01*
X797462Y719415D01*
X797573Y719803D01*
X797740Y720247D01*
X798073Y721302D01*
X798628Y722523D01*
X799294Y723744D01*
X800126Y724909D01*
X801181Y725964D01*
X801236Y726019D01*
X801347Y726075D01*
X801514Y726186D01*
X801736Y726352D01*
X802014Y726574D01*
X802402Y726797D01*
X802790Y727019D01*
X803290Y727296D01*
X804400Y727740D01*
X805677Y728184D01*
X807175Y728462D01*
X807952Y728572D01*
X809340D01*
X809950Y728517D01*
D02*
G37*
G36*
X778260Y728351D02*
X778759D01*
X779924Y728295D01*
X781145Y728129D01*
X782477Y727962D01*
X783698Y727684D01*
X784309Y727518D01*
X784808Y727351D01*
X784864D01*
X784919Y727296D01*
X785253Y727130D01*
X785752Y726908D01*
X786362Y726519D01*
X787029Y726019D01*
X787750Y725354D01*
X788416Y724577D01*
X789082Y723688D01*
Y723633D01*
X789138Y723577D01*
X789360Y723245D01*
X789582Y722689D01*
X789914Y721968D01*
X790192Y721135D01*
X790470Y720136D01*
X790636Y719082D01*
X790692Y717917D01*
Y717861D01*
Y717750D01*
Y717528D01*
X790636Y717250D01*
Y716862D01*
X790581Y716473D01*
X790359Y715530D01*
X790025Y714420D01*
X789582Y713255D01*
X788915Y712089D01*
X788471Y711534D01*
X788028Y710979D01*
X787972Y710923D01*
X787917Y710868D01*
X787750Y710702D01*
X787528Y710535D01*
X787250Y710313D01*
X786918Y710091D01*
X786473Y709813D01*
X786029Y709481D01*
X785475Y709203D01*
X784864Y708926D01*
X784198Y708592D01*
X783476Y708315D01*
X782644Y708093D01*
X781812Y707816D01*
X780868Y707649D01*
X779869Y707482D01*
X779980Y707427D01*
X780202Y707316D01*
X780535Y707094D01*
X780979Y706872D01*
X781978Y706261D01*
X782477Y705873D01*
X782922Y705540D01*
X783033Y705429D01*
X783310Y705152D01*
X783754Y704707D01*
X784309Y704153D01*
X784919Y703375D01*
X785641Y702543D01*
X786362Y701544D01*
X787139Y700434D01*
X793744Y690000D01*
X787417D01*
X782366Y697992D01*
Y698048D01*
X782255Y698159D01*
X782144Y698325D01*
X781978Y698547D01*
X781590Y699158D01*
X781090Y699934D01*
X780480Y700767D01*
X779869Y701655D01*
X779259Y702487D01*
X778703Y703264D01*
X778648Y703320D01*
X778481Y703542D01*
X778204Y703875D01*
X777816Y704264D01*
X776983Y705096D01*
X776539Y705485D01*
X776095Y705817D01*
X776039Y705873D01*
X775928Y705928D01*
X775707Y706039D01*
X775374Y706206D01*
X775040Y706372D01*
X774652Y706539D01*
X773764Y706817D01*
X773708D01*
X773597Y706872D01*
X773375D01*
X773098Y706928D01*
X772710Y706983D01*
X772265D01*
X771655Y707038D01*
X765106D01*
Y690000D01*
X760000D01*
Y728406D01*
X777816D01*
X778260Y728351D01*
D02*
G37*
G36*
X536256Y802210D02*
Y802154D01*
Y801988D01*
Y801766D01*
Y801433D01*
X536201Y800989D01*
Y800545D01*
X536090Y799490D01*
X535979Y798269D01*
X535757Y796993D01*
X535424Y795827D01*
X535035Y794717D01*
Y794662D01*
X534980Y794606D01*
X534813Y794274D01*
X534536Y793830D01*
X534148Y793219D01*
X533592Y792609D01*
X532982Y791942D01*
X532205Y791277D01*
X531317Y790721D01*
X531206Y790666D01*
X530873Y790500D01*
X530374Y790278D01*
X529652Y790056D01*
X528764Y789778D01*
X527765Y789556D01*
X526655Y789389D01*
X525434Y789334D01*
X524934D01*
X524601Y789389D01*
X524158Y789445D01*
X523713Y789500D01*
X522548Y789722D01*
X521327Y790056D01*
X520051Y790555D01*
X519385Y790888D01*
X518774Y791277D01*
X518219Y791721D01*
X517664Y792220D01*
X517609Y792275D01*
X517553Y792331D01*
X517442Y792553D01*
X517275Y792775D01*
X517053Y793053D01*
X516832Y793441D01*
X516610Y793885D01*
X516332Y794385D01*
X516110Y794939D01*
X515888Y795606D01*
X515666Y796271D01*
X515444Y797048D01*
X515333Y797881D01*
X515167Y798824D01*
X515111Y799768D01*
Y800822D01*
X519717Y801489D01*
Y801433D01*
Y801322D01*
Y801100D01*
X519773Y800767D01*
X519828Y800434D01*
Y800045D01*
X519995Y799102D01*
X520162Y798103D01*
X520495Y797104D01*
X520827Y796216D01*
X521049Y795827D01*
X521327Y795495D01*
X521383Y795439D01*
X521605Y795273D01*
X521938Y794995D01*
X522381Y794717D01*
X522992Y794385D01*
X523658Y794163D01*
X524490Y793941D01*
X525379Y793885D01*
X525712D01*
X526044Y793941D01*
X526544Y793996D01*
X527043Y794107D01*
X527598Y794218D01*
X528154Y794440D01*
X528708Y794717D01*
X528764Y794773D01*
X528931Y794884D01*
X529153Y795106D01*
X529486Y795328D01*
X529763Y795716D01*
X530096Y796105D01*
X530374Y796549D01*
X530596Y797104D01*
Y797159D01*
X530707Y797381D01*
X530762Y797770D01*
X530873Y798269D01*
X530984Y798936D01*
X531039Y799768D01*
X531150Y800767D01*
Y801933D01*
Y828406D01*
X536256D01*
Y802210D01*
D02*
G37*
G36*
X595031Y828517D02*
X595475Y828462D01*
X596030Y828406D01*
X596640Y828295D01*
X597251Y828184D01*
X598694Y827795D01*
X600137Y827240D01*
X600859Y826908D01*
X601580Y826519D01*
X602246Y826019D01*
X602856Y825465D01*
X602912Y825409D01*
X603023Y825354D01*
X603134Y825131D01*
X603356Y824909D01*
X603634Y824632D01*
X603911Y824244D01*
X604188Y823855D01*
X604521Y823356D01*
X605077Y822301D01*
X605631Y820969D01*
X605854Y820303D01*
X605965Y819526D01*
X606076Y818749D01*
X606131Y817917D01*
Y817806D01*
Y817528D01*
X606076Y817084D01*
X606020Y816473D01*
X605909Y815808D01*
X605687Y815030D01*
X605465Y814198D01*
X605132Y813365D01*
X605077Y813255D01*
X604966Y812977D01*
X604744Y812533D01*
X604410Y811923D01*
X603966Y811256D01*
X603412Y810424D01*
X602745Y809591D01*
X601968Y808648D01*
X601857Y808537D01*
X601580Y808204D01*
X601303Y807927D01*
X601025Y807649D01*
X600692Y807316D01*
X600248Y806872D01*
X599804Y806428D01*
X599249Y805928D01*
X598694Y805374D01*
X598028Y804763D01*
X597307Y804153D01*
X596529Y803431D01*
X595641Y802710D01*
X594754Y801933D01*
X594698Y801877D01*
X594587Y801766D01*
X594365Y801600D01*
X594087Y801378D01*
X593755Y801044D01*
X593366Y800712D01*
X592478Y799990D01*
X591534Y799158D01*
X590646Y798325D01*
X589870Y797604D01*
X589537Y797326D01*
X589259Y797048D01*
X589203Y796993D01*
X589037Y796827D01*
X588815Y796605D01*
X588538Y796271D01*
X588260Y795883D01*
X587927Y795495D01*
X587261Y794551D01*
X606187D01*
Y790000D01*
X580712D01*
Y790056D01*
Y790278D01*
Y790611D01*
X580768Y791054D01*
X580823Y791554D01*
X580934Y792109D01*
X581045Y792664D01*
X581267Y793274D01*
Y793330D01*
X581322Y793385D01*
X581433Y793718D01*
X581655Y794218D01*
X581989Y794884D01*
X582433Y795661D01*
X582987Y796549D01*
X583598Y797437D01*
X584375Y798380D01*
Y798436D01*
X584486Y798491D01*
X584764Y798824D01*
X585263Y799324D01*
X585985Y800045D01*
X586817Y800878D01*
X587871Y801877D01*
X589148Y802987D01*
X590535Y804153D01*
X590591Y804208D01*
X590813Y804375D01*
X591146Y804652D01*
X591534Y804985D01*
X592034Y805429D01*
X592644Y805928D01*
X593255Y806484D01*
X593976Y807094D01*
X595364Y808426D01*
X596751Y809758D01*
X597418Y810424D01*
X598028Y811090D01*
X598583Y811701D01*
X599027Y812311D01*
Y812366D01*
X599138Y812422D01*
X599249Y812588D01*
X599360Y812811D01*
X599749Y813421D01*
X600192Y814143D01*
X600581Y815030D01*
X600970Y815974D01*
X601192Y817029D01*
X601303Y818028D01*
Y818083D01*
Y818139D01*
X601247Y818471D01*
X601192Y819027D01*
X601025Y819637D01*
X600803Y820414D01*
X600414Y821191D01*
X599915Y821968D01*
X599249Y822745D01*
X599138Y822856D01*
X598861Y823078D01*
X598472Y823356D01*
X597861Y823744D01*
X597085Y824077D01*
X596197Y824410D01*
X595142Y824632D01*
X593976Y824688D01*
X593644D01*
X593422Y824632D01*
X592755Y824577D01*
X591979Y824410D01*
X591146Y824188D01*
X590202Y823799D01*
X589314Y823300D01*
X588482Y822634D01*
X588371Y822523D01*
X588149Y822245D01*
X587816Y821802D01*
X587483Y821135D01*
X587095Y820359D01*
X586761Y819360D01*
X586539Y818250D01*
X586428Y816973D01*
X581600Y817472D01*
Y817528D01*
X581655Y817694D01*
Y817972D01*
X581711Y818361D01*
X581822Y818804D01*
X581933Y819304D01*
X582100Y819914D01*
X582266Y820525D01*
X582710Y821857D01*
X583376Y823189D01*
X583764Y823855D01*
X584264Y824521D01*
X584764Y825131D01*
X585318Y825687D01*
X585374Y825742D01*
X585485Y825798D01*
X585652Y825964D01*
X585929Y826130D01*
X586262Y826352D01*
X586650Y826574D01*
X587095Y826852D01*
X587649Y827130D01*
X588260Y827407D01*
X588926Y827684D01*
X589648Y827907D01*
X590424Y828129D01*
X591257Y828295D01*
X592145Y828462D01*
X593088Y828517D01*
X594087Y828572D01*
X594643D01*
X595031Y828517D01*
D02*
G37*
G36*
X562896Y828351D02*
X563396D01*
X564562Y828295D01*
X565783Y828129D01*
X567115Y827962D01*
X568336Y827684D01*
X568946Y827518D01*
X569446Y827351D01*
X569501D01*
X569557Y827296D01*
X569889Y827130D01*
X570389Y826908D01*
X571000Y826519D01*
X571665Y826019D01*
X572387Y825354D01*
X573053Y824577D01*
X573719Y823688D01*
Y823633D01*
X573774Y823577D01*
X573996Y823245D01*
X574218Y822689D01*
X574552Y821968D01*
X574829Y821135D01*
X575106Y820136D01*
X575273Y819082D01*
X575328Y817917D01*
Y817861D01*
Y817750D01*
Y817528D01*
X575273Y817250D01*
Y816862D01*
X575217Y816473D01*
X574995Y815530D01*
X574663Y814420D01*
X574218Y813255D01*
X573553Y812089D01*
X573109Y811534D01*
X572664Y810979D01*
X572609Y810923D01*
X572553Y810868D01*
X572387Y810702D01*
X572165Y810535D01*
X571888Y810313D01*
X571554Y810091D01*
X571111Y809813D01*
X570667Y809481D01*
X570111Y809203D01*
X569501Y808926D01*
X568835Y808592D01*
X568114Y808315D01*
X567281Y808093D01*
X566448Y807816D01*
X565505Y807649D01*
X564506Y807482D01*
X564617Y807427D01*
X564839Y807316D01*
X565172Y807094D01*
X565616Y806872D01*
X566615Y806261D01*
X567115Y805873D01*
X567558Y805540D01*
X567669Y805429D01*
X567947Y805152D01*
X568391Y804707D01*
X568946Y804153D01*
X569557Y803375D01*
X570278Y802543D01*
X571000Y801544D01*
X571777Y800434D01*
X578381Y790000D01*
X572054D01*
X567004Y797992D01*
Y798048D01*
X566893Y798159D01*
X566782Y798325D01*
X566615Y798547D01*
X566226Y799158D01*
X565727Y799934D01*
X565116Y800767D01*
X564506Y801655D01*
X563895Y802487D01*
X563341Y803264D01*
X563285Y803320D01*
X563119Y803542D01*
X562841Y803875D01*
X562452Y804264D01*
X561620Y805096D01*
X561176Y805485D01*
X560732Y805817D01*
X560677Y805873D01*
X560566Y805928D01*
X560343Y806039D01*
X560010Y806206D01*
X559678Y806372D01*
X559289Y806539D01*
X558401Y806817D01*
X558346D01*
X558235Y806872D01*
X558013D01*
X557735Y806928D01*
X557346Y806983D01*
X556903D01*
X556292Y807038D01*
X549743D01*
Y790000D01*
X544637D01*
Y828406D01*
X562452D01*
X562896Y828351D01*
D02*
G37*
G36*
X535192Y531206D02*
Y531150D01*
Y530928D01*
Y530651D01*
Y530263D01*
X535136Y529763D01*
Y529208D01*
X535081Y528542D01*
X535025Y527876D01*
X534859Y526378D01*
X534637Y524823D01*
X534304Y523325D01*
X534082Y522604D01*
X533860Y521938D01*
Y521882D01*
X533804Y521771D01*
X533693Y521605D01*
X533582Y521383D01*
X533250Y520772D01*
X532750Y519995D01*
X532084Y519107D01*
X531307Y518219D01*
X530308Y517275D01*
X529087Y516443D01*
X529032D01*
X528920Y516332D01*
X528754Y516277D01*
X528476Y516110D01*
X528144Y515943D01*
X527699Y515777D01*
X527255Y515611D01*
X526701Y515389D01*
X526090Y515167D01*
X525424Y515000D01*
X524702Y514833D01*
X523870Y514667D01*
X523038Y514556D01*
X522149Y514445D01*
X520152Y514334D01*
X519652D01*
X519264Y514389D01*
X518819D01*
X518264Y514445D01*
X517654Y514500D01*
X517043Y514556D01*
X515656Y514778D01*
X514158Y515111D01*
X512715Y515555D01*
X511327Y516165D01*
X511272D01*
X511161Y516277D01*
X510994Y516388D01*
X510772Y516499D01*
X510161Y516942D01*
X509440Y517553D01*
X508608Y518330D01*
X507830Y519218D01*
X507053Y520328D01*
X506443Y521549D01*
Y521605D01*
X506387Y521716D01*
X506332Y521938D01*
X506221Y522215D01*
X506110Y522548D01*
X505999Y522992D01*
X505832Y523491D01*
X505721Y524102D01*
X505611Y524768D01*
X505444Y525490D01*
X505333Y526266D01*
X505222Y527099D01*
X505111Y528043D01*
X505055Y529042D01*
X505000Y530096D01*
Y531206D01*
Y553406D01*
X510106D01*
Y531206D01*
Y531150D01*
Y530984D01*
Y530707D01*
Y530374D01*
X510161Y529985D01*
Y529486D01*
X510217Y528431D01*
X510328Y527210D01*
X510495Y525989D01*
X510716Y524823D01*
X510827Y524324D01*
X510994Y523824D01*
X511050Y523713D01*
X511161Y523436D01*
X511438Y523048D01*
X511771Y522492D01*
X512159Y521938D01*
X512715Y521327D01*
X513380Y520716D01*
X514158Y520217D01*
X514269Y520162D01*
X514546Y519995D01*
X515045Y519828D01*
X515712Y519606D01*
X516489Y519329D01*
X517487Y519163D01*
X518542Y518996D01*
X519707Y518941D01*
X520263D01*
X520596Y518996D01*
X521095D01*
X521595Y519052D01*
X522816Y519274D01*
X524148Y519551D01*
X525424Y519995D01*
X526645Y520606D01*
X527200Y520994D01*
X527699Y521438D01*
X527755Y521494D01*
X527811Y521549D01*
X527922Y521716D01*
X528088Y521938D01*
X528255Y522270D01*
X528476Y522604D01*
X528698Y523103D01*
X528920Y523602D01*
X529143Y524213D01*
X529309Y524934D01*
X529531Y525767D01*
X529697Y526655D01*
X529864Y527654D01*
X529975Y528708D01*
X530086Y529929D01*
Y531206D01*
Y553406D01*
X535192D01*
Y531206D01*
D02*
G37*
G36*
X559501Y515000D02*
X554784D01*
Y545025D01*
X554728Y544970D01*
X554451Y544748D01*
X554117Y544415D01*
X553562Y544027D01*
X552952Y543527D01*
X552175Y542972D01*
X551287Y542361D01*
X550288Y541751D01*
X550232D01*
X550177Y541696D01*
X549844Y541473D01*
X549289Y541196D01*
X548623Y540863D01*
X547846Y540475D01*
X547014Y540086D01*
X546181Y539697D01*
X545348Y539365D01*
Y543915D01*
X545404D01*
X545515Y544027D01*
X545737Y544082D01*
X546014Y544249D01*
X546347Y544415D01*
X546736Y544637D01*
X547679Y545192D01*
X548789Y545803D01*
X549899Y546580D01*
X551065Y547467D01*
X552231Y548411D01*
X552286Y548466D01*
X552341Y548522D01*
X552508Y548688D01*
X552730Y548855D01*
X553230Y549410D01*
X553895Y550076D01*
X554562Y550853D01*
X555283Y551741D01*
X555894Y552629D01*
X556448Y553572D01*
X559501D01*
Y515000D01*
D02*
G37*
G36*
X315005Y903517D02*
X315727Y903406D01*
X316615Y903240D01*
X317614Y902962D01*
X318613Y902629D01*
X319612Y902185D01*
X319668D01*
X319723Y902130D01*
X320056Y901963D01*
X320555Y901630D01*
X321111Y901241D01*
X321776Y900687D01*
X322442Y900076D01*
X323108Y899355D01*
X323663Y898522D01*
X323719Y898411D01*
X323885Y898134D01*
X324108Y897634D01*
X324385Y897024D01*
X324663Y896302D01*
X324885Y895470D01*
X325051Y894526D01*
X325106Y893582D01*
Y893471D01*
Y893139D01*
X325051Y892694D01*
X324940Y892084D01*
X324774Y891362D01*
X324496Y890586D01*
X324163Y889808D01*
X323719Y889032D01*
X323663Y888920D01*
X323497Y888698D01*
X323164Y888310D01*
X322720Y887866D01*
X322165Y887366D01*
X321499Y886812D01*
X320722Y886312D01*
X319779Y885812D01*
X319834D01*
X319945Y885757D01*
X320111Y885702D01*
X320334Y885646D01*
X320944Y885424D01*
X321721Y885091D01*
X322609Y884647D01*
X323497Y884092D01*
X324329Y883370D01*
X325106Y882538D01*
X325162Y882427D01*
X325384Y882094D01*
X325717Y881539D01*
X326050Y880817D01*
X326383Y879929D01*
X326716Y878875D01*
X326938Y877654D01*
X326993Y876322D01*
Y876266D01*
Y876100D01*
Y875822D01*
X326938Y875490D01*
X326882Y875045D01*
X326772Y874546D01*
X326661Y873991D01*
X326550Y873380D01*
X326106Y872048D01*
X325772Y871327D01*
X325440Y870661D01*
X324995Y869939D01*
X324496Y869218D01*
X323941Y868496D01*
X323275Y867831D01*
X323219Y867775D01*
X323108Y867664D01*
X322887Y867497D01*
X322609Y867275D01*
X322276Y866998D01*
X321832Y866721D01*
X321332Y866388D01*
X320722Y866110D01*
X320111Y865777D01*
X319390Y865444D01*
X318668Y865167D01*
X317836Y864889D01*
X316948Y864667D01*
X316005Y864500D01*
X315061Y864389D01*
X314007Y864334D01*
X313507D01*
X313174Y864389D01*
X312730Y864445D01*
X312231Y864500D01*
X311675Y864611D01*
X311065Y864722D01*
X309733Y865056D01*
X308346Y865611D01*
X307624Y865943D01*
X306958Y866332D01*
X306292Y866832D01*
X305626Y867331D01*
X305570Y867386D01*
X305459Y867497D01*
X305293Y867664D01*
X305127Y867886D01*
X304849Y868163D01*
X304572Y868552D01*
X304238Y868941D01*
X303906Y869440D01*
X303572Y869995D01*
X303240Y870550D01*
X302629Y871882D01*
X302130Y873436D01*
X301963Y874269D01*
X301852Y875157D01*
X306570Y875767D01*
Y875712D01*
X306625Y875601D01*
X306680Y875379D01*
X306736Y875101D01*
X306791Y874768D01*
X306902Y874380D01*
X307180Y873547D01*
X307568Y872548D01*
X308068Y871605D01*
X308623Y870716D01*
X309289Y869939D01*
X309400Y869884D01*
X309622Y869662D01*
X310066Y869385D01*
X310621Y869107D01*
X311287Y868774D01*
X312120Y868496D01*
X313063Y868274D01*
X314062Y868219D01*
X314395D01*
X314617Y868274D01*
X315228Y868330D01*
X316005Y868496D01*
X316892Y868774D01*
X317836Y869163D01*
X318779Y869717D01*
X319668Y870495D01*
X319779Y870606D01*
X320056Y870938D01*
X320389Y871438D01*
X320833Y872104D01*
X321277Y872937D01*
X321610Y873880D01*
X321887Y874990D01*
X321998Y876211D01*
Y876266D01*
Y876378D01*
Y876544D01*
X321943Y876766D01*
X321887Y877376D01*
X321721Y878098D01*
X321499Y878986D01*
X321111Y879874D01*
X320555Y880762D01*
X319834Y881595D01*
X319723Y881706D01*
X319445Y881928D01*
X319002Y882260D01*
X318391Y882649D01*
X317614Y883038D01*
X316671Y883370D01*
X315616Y883592D01*
X314450Y883703D01*
X313951D01*
X313562Y883648D01*
X313063Y883592D01*
X312508Y883481D01*
X311842Y883370D01*
X311120Y883204D01*
X311675Y887366D01*
X311953D01*
X312175Y887311D01*
X312897D01*
X313507Y887422D01*
X314228Y887533D01*
X315061Y887699D01*
X316005Y887977D01*
X316892Y888365D01*
X317836Y888865D01*
X317892D01*
X317947Y888920D01*
X318224Y889143D01*
X318613Y889531D01*
X319057Y890030D01*
X319501Y890752D01*
X319889Y891585D01*
X320167Y892528D01*
X320278Y893083D01*
Y893693D01*
Y893749D01*
Y893804D01*
Y894138D01*
X320167Y894582D01*
X320056Y895192D01*
X319834Y895858D01*
X319557Y896580D01*
X319113Y897301D01*
X318502Y897967D01*
X318447Y898023D01*
X318169Y898245D01*
X317781Y898522D01*
X317281Y898855D01*
X316615Y899133D01*
X315838Y899410D01*
X314950Y899632D01*
X313951Y899688D01*
X313507D01*
X313007Y899577D01*
X312341Y899466D01*
X311620Y899244D01*
X310899Y898966D01*
X310122Y898522D01*
X309400Y897967D01*
X309344Y897912D01*
X309123Y897634D01*
X308789Y897245D01*
X308401Y896691D01*
X308012Y895969D01*
X307624Y895081D01*
X307291Y894027D01*
X307069Y892806D01*
X302351Y893638D01*
Y893693D01*
X302407Y893860D01*
X302462Y894082D01*
X302518Y894415D01*
X302629Y894803D01*
X302796Y895247D01*
X303128Y896302D01*
X303683Y897523D01*
X304349Y898744D01*
X305182Y899909D01*
X306236Y900964D01*
X306292Y901019D01*
X306403Y901075D01*
X306570Y901186D01*
X306791Y901352D01*
X307069Y901574D01*
X307457Y901797D01*
X307846Y902019D01*
X308346Y902296D01*
X309455Y902740D01*
X310732Y903184D01*
X312231Y903462D01*
X313007Y903572D01*
X314395D01*
X315005Y903517D01*
D02*
G37*
G36*
X280762Y903351D02*
X281872Y903295D01*
X282982Y903184D01*
X284092Y903018D01*
X285036Y902851D01*
X285091D01*
X285202Y902795D01*
X285368D01*
X285591Y902684D01*
X286201Y902518D01*
X286978Y902240D01*
X287866Y901852D01*
X288810Y901352D01*
X289753Y900798D01*
X290641Y900076D01*
X290697Y900020D01*
X290752Y899965D01*
X290918Y899798D01*
X291140Y899632D01*
X291695Y899077D01*
X292361Y898300D01*
X293083Y897356D01*
X293860Y896246D01*
X294582Y894970D01*
X295192Y893527D01*
Y893471D01*
X295248Y893361D01*
X295358Y893139D01*
X295414Y892806D01*
X295580Y892417D01*
X295692Y891973D01*
X295803Y891473D01*
X295969Y890863D01*
X296135Y890253D01*
X296247Y889531D01*
X296524Y887977D01*
X296690Y886256D01*
X296746Y884370D01*
Y884314D01*
Y884203D01*
Y883926D01*
Y883648D01*
X296690Y883260D01*
Y882816D01*
X296635Y881761D01*
X296469Y880540D01*
X296302Y879264D01*
X296024Y877932D01*
X295692Y876600D01*
Y876544D01*
X295636Y876433D01*
X295580Y876266D01*
X295525Y876044D01*
X295303Y875434D01*
X294970Y874657D01*
X294637Y873769D01*
X294193Y872881D01*
X293638Y871938D01*
X293083Y871049D01*
X293027Y870938D01*
X292805Y870661D01*
X292473Y870273D01*
X292029Y869773D01*
X291529Y869218D01*
X290918Y868663D01*
X290308Y868053D01*
X289587Y867553D01*
X289476Y867497D01*
X289253Y867331D01*
X288865Y867109D01*
X288310Y866832D01*
X287644Y866499D01*
X286867Y866221D01*
X285979Y865888D01*
X284980Y865611D01*
X284869D01*
X284702Y865555D01*
X284536Y865500D01*
X283981Y865444D01*
X283204Y865333D01*
X282316Y865222D01*
X281262Y865111D01*
X280096Y865056D01*
X278820Y865000D01*
X265000D01*
Y903406D01*
X279763D01*
X280762Y903351D01*
D02*
G37*
G36*
X276837Y585000D02*
X272120D01*
Y615025D01*
X272064Y614970D01*
X271786Y614748D01*
X271454Y614415D01*
X270899Y614027D01*
X270288Y613527D01*
X269511Y612972D01*
X268623Y612361D01*
X267624Y611751D01*
X267568D01*
X267513Y611696D01*
X267180Y611473D01*
X266625Y611196D01*
X265959Y610863D01*
X265182Y610475D01*
X264349Y610086D01*
X263517Y609697D01*
X262685Y609365D01*
Y613915D01*
X262740D01*
X262851Y614027D01*
X263073Y614082D01*
X263351Y614249D01*
X263683Y614415D01*
X264072Y614637D01*
X265015Y615192D01*
X266125Y615803D01*
X267236Y616580D01*
X268401Y617467D01*
X269567Y618411D01*
X269622Y618466D01*
X269678Y618522D01*
X269844Y618688D01*
X270066Y618855D01*
X270565Y619410D01*
X271231Y620076D01*
X271897Y620853D01*
X272619Y621741D01*
X273229Y622629D01*
X273784Y623572D01*
X276837D01*
Y585000D01*
D02*
G37*
G36*
X240484Y623351D02*
X240929D01*
X241928Y623240D01*
X243037Y623129D01*
X244203Y622907D01*
X245369Y622629D01*
X246423Y622240D01*
X246478D01*
X246534Y622185D01*
X246867Y622019D01*
X247367Y621741D01*
X247922Y621352D01*
X248588Y620853D01*
X249309Y620242D01*
X249975Y619466D01*
X250585Y618633D01*
X250641Y618522D01*
X250808Y618189D01*
X251085Y617745D01*
X251363Y617079D01*
X251640Y616302D01*
X251917Y615470D01*
X252084Y614526D01*
X252139Y613582D01*
Y613471D01*
Y613194D01*
X252084Y612694D01*
X251973Y612084D01*
X251806Y611362D01*
X251529Y610586D01*
X251196Y609808D01*
X250752Y608976D01*
X250696Y608865D01*
X250530Y608643D01*
X250197Y608199D01*
X249753Y607755D01*
X249198Y607200D01*
X248532Y606590D01*
X247700Y606034D01*
X246756Y605480D01*
X246811D01*
X246923Y605424D01*
X247089Y605369D01*
X247311Y605258D01*
X247977Y605035D01*
X248754Y604647D01*
X249587Y604148D01*
X250530Y603537D01*
X251363Y602816D01*
X252139Y601928D01*
X252195Y601817D01*
X252417Y601484D01*
X252750Y600984D01*
X253083Y600318D01*
X253416Y599430D01*
X253749Y598486D01*
X253971Y597376D01*
X254026Y596155D01*
Y596100D01*
Y596044D01*
Y595712D01*
X253971Y595157D01*
X253860Y594490D01*
X253749Y593713D01*
X253527Y592881D01*
X253250Y591993D01*
X252861Y591105D01*
X252805Y590994D01*
X252639Y590716D01*
X252417Y590328D01*
X252084Y589773D01*
X251640Y589218D01*
X251196Y588607D01*
X250641Y587997D01*
X250030Y587497D01*
X249975Y587442D01*
X249753Y587275D01*
X249364Y587053D01*
X248865Y586832D01*
X248255Y586499D01*
X247533Y586165D01*
X246756Y585888D01*
X245812Y585611D01*
X245702D01*
X245369Y585500D01*
X244814Y585444D01*
X244092Y585333D01*
X243204Y585222D01*
X242149Y585111D01*
X240984Y585056D01*
X239652Y585000D01*
X225000D01*
Y623406D01*
X240096D01*
X240484Y623351D01*
D02*
G37*
G36*
X649501Y305000D02*
X644784D01*
Y335026D01*
X644728Y334970D01*
X644451Y334748D01*
X644117Y334415D01*
X643562Y334026D01*
X642952Y333527D01*
X642175Y332972D01*
X641287Y332361D01*
X640288Y331751D01*
X640232D01*
X640177Y331695D01*
X639844Y331474D01*
X639289Y331196D01*
X638623Y330863D01*
X637846Y330474D01*
X637014Y330086D01*
X636181Y329697D01*
X635348Y329365D01*
Y333916D01*
X635404D01*
X635515Y334026D01*
X635737Y334082D01*
X636014Y334248D01*
X636347Y334415D01*
X636736Y334637D01*
X637679Y335192D01*
X638789Y335803D01*
X639899Y336579D01*
X641065Y337467D01*
X642231Y338411D01*
X642286Y338466D01*
X642341Y338522D01*
X642508Y338688D01*
X642730Y338855D01*
X643230Y339410D01*
X643895Y340076D01*
X644562Y340853D01*
X645283Y341741D01*
X645894Y342629D01*
X646448Y343572D01*
X649501D01*
Y305000D01*
D02*
G37*
G36*
X613260Y343351D02*
X613759D01*
X614924Y343295D01*
X616145Y343128D01*
X617477Y342962D01*
X618698Y342685D01*
X619309Y342518D01*
X619808Y342351D01*
X619864D01*
X619919Y342296D01*
X620253Y342130D01*
X620752Y341908D01*
X621362Y341519D01*
X622029Y341019D01*
X622750Y340353D01*
X623416Y339577D01*
X624082Y338688D01*
Y338633D01*
X624138Y338577D01*
X624360Y338245D01*
X624582Y337690D01*
X624914Y336968D01*
X625192Y336135D01*
X625470Y335137D01*
X625636Y334082D01*
X625692Y332916D01*
Y332861D01*
Y332750D01*
Y332528D01*
X625636Y332250D01*
Y331862D01*
X625581Y331474D01*
X625359Y330530D01*
X625025Y329420D01*
X624582Y328255D01*
X623915Y327089D01*
X623471Y326534D01*
X623028Y325979D01*
X622972Y325923D01*
X622917Y325868D01*
X622750Y325702D01*
X622528Y325535D01*
X622250Y325313D01*
X621918Y325091D01*
X621473Y324813D01*
X621029Y324481D01*
X620475Y324203D01*
X619864Y323925D01*
X619198Y323592D01*
X618476Y323315D01*
X617644Y323093D01*
X616812Y322815D01*
X615868Y322649D01*
X614869Y322483D01*
X614980Y322427D01*
X615202Y322316D01*
X615535Y322094D01*
X615979Y321872D01*
X616978Y321262D01*
X617477Y320873D01*
X617922Y320540D01*
X618033Y320429D01*
X618310Y320151D01*
X618754Y319707D01*
X619309Y319152D01*
X619919Y318375D01*
X620641Y317543D01*
X621362Y316544D01*
X622139Y315434D01*
X628744Y305000D01*
X622417D01*
X617366Y312992D01*
Y313048D01*
X617255Y313159D01*
X617144Y313325D01*
X616978Y313547D01*
X616590Y314158D01*
X616090Y314935D01*
X615480Y315767D01*
X614869Y316655D01*
X614259Y317488D01*
X613703Y318264D01*
X613648Y318320D01*
X613481Y318542D01*
X613204Y318875D01*
X612816Y319264D01*
X611983Y320096D01*
X611539Y320485D01*
X611095Y320817D01*
X611039Y320873D01*
X610928Y320928D01*
X610707Y321039D01*
X610374Y321206D01*
X610040Y321373D01*
X609652Y321539D01*
X608764Y321817D01*
X608708D01*
X608597Y321872D01*
X608375D01*
X608098Y321928D01*
X607710Y321983D01*
X607265D01*
X606655Y322038D01*
X600106D01*
Y305000D01*
X595000D01*
Y343406D01*
X612816D01*
X613260Y343351D01*
D02*
G37*
G36*
X1288512Y1751882D02*
X1288844D01*
X1289733Y1751716D01*
X1290787Y1751550D01*
X1291897Y1751272D01*
X1293118Y1750883D01*
X1294284Y1750329D01*
X1294339D01*
X1294395Y1750273D01*
X1294561Y1750162D01*
X1294783Y1750051D01*
X1295338Y1749718D01*
X1296060Y1749218D01*
X1296836Y1748608D01*
X1297613Y1747887D01*
X1298390Y1746998D01*
X1299056Y1746055D01*
Y1745999D01*
X1299112Y1745944D01*
X1299223Y1745777D01*
X1299278Y1745555D01*
X1299556Y1745001D01*
X1299833Y1744279D01*
X1300167Y1743335D01*
X1300389Y1742281D01*
X1300611Y1741116D01*
X1300666Y1739839D01*
Y1739562D01*
X1300611Y1739284D01*
Y1738840D01*
X1300555Y1738341D01*
X1300444Y1737785D01*
X1300277Y1737120D01*
X1300111Y1736454D01*
X1299889Y1735677D01*
X1299611Y1734899D01*
X1299278Y1734122D01*
X1298834Y1733290D01*
X1298335Y1732513D01*
X1297780Y1731736D01*
X1297114Y1730959D01*
X1296337Y1730237D01*
X1296282Y1730182D01*
X1296115Y1730071D01*
X1295893Y1729905D01*
X1295505Y1729682D01*
X1295005Y1729350D01*
X1294450Y1729072D01*
X1293728Y1728739D01*
X1292951Y1728406D01*
X1292008Y1728017D01*
X1290954Y1727685D01*
X1289788Y1727407D01*
X1288512Y1727130D01*
X1287069Y1726852D01*
X1285514Y1726686D01*
X1283850Y1726574D01*
X1282073Y1726519D01*
X1282018D01*
X1281963D01*
X1281796D01*
X1281574D01*
X1281019Y1726574D01*
X1280242D01*
X1279354Y1726630D01*
X1278300Y1726741D01*
X1277134Y1726852D01*
X1275858Y1727018D01*
X1274581Y1727241D01*
X1273194Y1727518D01*
X1271861Y1727851D01*
X1270530Y1728239D01*
X1269253Y1728739D01*
X1268032Y1729294D01*
X1266867Y1729905D01*
X1265868Y1730626D01*
X1265812Y1730681D01*
X1265701Y1730793D01*
X1265479Y1731014D01*
X1265146Y1731292D01*
X1264813Y1731625D01*
X1264480Y1732069D01*
X1264036Y1732624D01*
X1263648Y1733179D01*
X1263259Y1733845D01*
X1262815Y1734566D01*
X1262482Y1735399D01*
X1262093Y1736232D01*
X1261816Y1737175D01*
X1261594Y1738174D01*
X1261483Y1739228D01*
X1261428Y1740339D01*
Y1740783D01*
X1261483Y1741116D01*
Y1741504D01*
X1261539Y1741948D01*
X1261761Y1743003D01*
X1262038Y1744168D01*
X1262482Y1745389D01*
X1263148Y1746610D01*
X1263536Y1747220D01*
X1263980Y1747775D01*
X1264036Y1747831D01*
X1264091Y1747887D01*
X1264258Y1748053D01*
X1264425Y1748219D01*
X1264702Y1748497D01*
X1265035Y1748719D01*
X1265812Y1749330D01*
X1266811Y1749940D01*
X1268032Y1750495D01*
X1269419Y1750995D01*
X1270974Y1751328D01*
X1271362Y1746610D01*
X1271306D01*
X1271251Y1746554D01*
X1270918Y1746499D01*
X1270418Y1746332D01*
X1269808Y1746111D01*
X1269142Y1745889D01*
X1268476Y1745555D01*
X1267866Y1745167D01*
X1267366Y1744778D01*
X1267255Y1744668D01*
X1267033Y1744446D01*
X1266700Y1744057D01*
X1266312Y1743502D01*
X1265978Y1742781D01*
X1265646Y1742004D01*
X1265424Y1741060D01*
X1265312Y1740061D01*
Y1739672D01*
X1265368Y1739228D01*
X1265479Y1738729D01*
X1265646Y1738063D01*
X1265868Y1737397D01*
X1266145Y1736731D01*
X1266589Y1736065D01*
X1266645Y1735954D01*
X1266867Y1735677D01*
X1267255Y1735288D01*
X1267810Y1734789D01*
X1268476Y1734234D01*
X1269253Y1733623D01*
X1270252Y1733068D01*
X1271362Y1732513D01*
X1271418D01*
X1271528Y1732457D01*
X1271695Y1732402D01*
X1271917Y1732291D01*
X1272250Y1732236D01*
X1272639Y1732124D01*
X1273082Y1732014D01*
X1273638Y1731902D01*
X1274248Y1731736D01*
X1274914Y1731625D01*
X1275636Y1731514D01*
X1276412Y1731458D01*
X1277301Y1731348D01*
X1278188Y1731292D01*
X1279188Y1731236D01*
X1280187D01*
X1280131Y1731292D01*
X1279798Y1731514D01*
X1279354Y1731902D01*
X1278799Y1732402D01*
X1278133Y1732957D01*
X1277523Y1733678D01*
X1276912Y1734456D01*
X1276357Y1735343D01*
Y1735399D01*
X1276302Y1735455D01*
X1276135Y1735787D01*
X1275968Y1736287D01*
X1275691Y1736953D01*
X1275469Y1737730D01*
X1275303Y1738618D01*
X1275136Y1739562D01*
X1275081Y1740561D01*
Y1741005D01*
X1275136Y1741338D01*
X1275191Y1741782D01*
X1275247Y1742226D01*
X1275358Y1742781D01*
X1275524Y1743335D01*
X1275913Y1744612D01*
X1276190Y1745278D01*
X1276579Y1745944D01*
X1276967Y1746610D01*
X1277411Y1747332D01*
X1277966Y1747997D01*
X1278577Y1748608D01*
X1278632Y1748664D01*
X1278744Y1748774D01*
X1278910Y1748941D01*
X1279188Y1749108D01*
X1279576Y1749385D01*
X1279965Y1749662D01*
X1280464Y1749940D01*
X1281019Y1750273D01*
X1281630Y1750606D01*
X1282295Y1750883D01*
X1283072Y1751161D01*
X1283850Y1751438D01*
X1284682Y1751605D01*
X1285626Y1751772D01*
X1286569Y1751882D01*
X1287568Y1751938D01*
X1287623D01*
X1287735D01*
X1287901D01*
X1288178D01*
X1288512Y1751882D01*
D02*
G37*
G36*
X1300000Y1717417D02*
X1292008Y1712367D01*
X1291953D01*
X1291841Y1712255D01*
X1291675Y1712145D01*
X1291453Y1711978D01*
X1290842Y1711590D01*
X1290065Y1711090D01*
X1289233Y1710479D01*
X1288345Y1709869D01*
X1287513Y1709258D01*
X1286736Y1708704D01*
X1286680Y1708648D01*
X1286458Y1708482D01*
X1286125Y1708204D01*
X1285736Y1707815D01*
X1284904Y1706983D01*
X1284515Y1706539D01*
X1284182Y1706095D01*
X1284127Y1706040D01*
X1284072Y1705928D01*
X1283960Y1705707D01*
X1283794Y1705373D01*
X1283628Y1705041D01*
X1283461Y1704652D01*
X1283184Y1703764D01*
Y1703708D01*
X1283128Y1703598D01*
Y1703376D01*
X1283072Y1703098D01*
X1283017Y1702709D01*
Y1702265D01*
X1282961Y1701655D01*
Y1695106D01*
X1300000D01*
Y1690000D01*
X1261594D01*
Y1707815D01*
X1261649Y1708259D01*
Y1708759D01*
X1261705Y1709925D01*
X1261871Y1711146D01*
X1262038Y1712477D01*
X1262315Y1713698D01*
X1262482Y1714309D01*
X1262649Y1714809D01*
Y1714864D01*
X1262704Y1714919D01*
X1262870Y1715253D01*
X1263092Y1715752D01*
X1263481Y1716362D01*
X1263980Y1717028D01*
X1264647Y1717750D01*
X1265424Y1718416D01*
X1266312Y1719082D01*
X1266367D01*
X1266422Y1719138D01*
X1266755Y1719360D01*
X1267311Y1719582D01*
X1268032Y1719915D01*
X1268864Y1720192D01*
X1269863Y1720469D01*
X1270918Y1720636D01*
X1272083Y1720691D01*
X1272139D01*
X1272250D01*
X1272472D01*
X1272749Y1720636D01*
X1273138D01*
X1273526Y1720581D01*
X1274470Y1720359D01*
X1275580Y1720025D01*
X1276745Y1719582D01*
X1277911Y1718916D01*
X1278466Y1718472D01*
X1279021Y1718027D01*
X1279076Y1717972D01*
X1279132Y1717917D01*
X1279299Y1717750D01*
X1279465Y1717528D01*
X1279687Y1717251D01*
X1279909Y1716918D01*
X1280187Y1716474D01*
X1280520Y1716030D01*
X1280797Y1715475D01*
X1281074Y1714864D01*
X1281408Y1714198D01*
X1281685Y1713476D01*
X1281907Y1712644D01*
X1282185Y1711812D01*
X1282351Y1710868D01*
X1282517Y1709869D01*
X1282573Y1709980D01*
X1282684Y1710202D01*
X1282906Y1710535D01*
X1283128Y1710979D01*
X1283738Y1711978D01*
X1284127Y1712477D01*
X1284460Y1712921D01*
X1284571Y1713033D01*
X1284849Y1713310D01*
X1285293Y1713754D01*
X1285848Y1714309D01*
X1286624Y1714919D01*
X1287457Y1715641D01*
X1288456Y1716362D01*
X1289566Y1717139D01*
X1300000Y1723744D01*
Y1717417D01*
D02*
G37*
G36*
X1490243Y1440000D02*
X1485525D01*
Y1470025D01*
X1485470Y1469970D01*
X1485193Y1469748D01*
X1484860Y1469415D01*
X1484304Y1469026D01*
X1483694Y1468527D01*
X1482917Y1467972D01*
X1482029Y1467361D01*
X1481030Y1466751D01*
X1480975D01*
X1480919Y1466696D01*
X1480586Y1466474D01*
X1480031Y1466196D01*
X1479365Y1465863D01*
X1478588Y1465475D01*
X1477755Y1465086D01*
X1476923Y1464697D01*
X1476091Y1464364D01*
Y1468916D01*
X1476146D01*
X1476257Y1469026D01*
X1476479Y1469082D01*
X1476756Y1469248D01*
X1477090Y1469415D01*
X1477478Y1469637D01*
X1478421Y1470192D01*
X1479532Y1470803D01*
X1480641Y1471580D01*
X1481807Y1472467D01*
X1482973Y1473411D01*
X1483028Y1473466D01*
X1483083Y1473522D01*
X1483250Y1473688D01*
X1483472Y1473855D01*
X1483972Y1474410D01*
X1484638Y1475076D01*
X1485303Y1475853D01*
X1486025Y1476741D01*
X1486636Y1477629D01*
X1487190Y1478572D01*
X1490243D01*
Y1440000D01*
D02*
G37*
G36*
X1454002Y1478351D02*
X1454501D01*
X1455667Y1478295D01*
X1456888Y1478129D01*
X1458219Y1477962D01*
X1459440Y1477685D01*
X1460051Y1477518D01*
X1460551Y1477351D01*
X1460606D01*
X1460661Y1477296D01*
X1460995Y1477130D01*
X1461494Y1476908D01*
X1462104Y1476519D01*
X1462771Y1476020D01*
X1463492Y1475353D01*
X1464158Y1474576D01*
X1464824Y1473688D01*
Y1473633D01*
X1464880Y1473578D01*
X1465101Y1473245D01*
X1465323Y1472689D01*
X1465657Y1471968D01*
X1465934Y1471136D01*
X1466211Y1470137D01*
X1466378Y1469082D01*
X1466434Y1467917D01*
Y1467861D01*
Y1467750D01*
Y1467528D01*
X1466378Y1467251D01*
Y1466862D01*
X1466322Y1466474D01*
X1466101Y1465530D01*
X1465767Y1464420D01*
X1465323Y1463255D01*
X1464658Y1462089D01*
X1464214Y1461534D01*
X1463770Y1460979D01*
X1463714Y1460924D01*
X1463659Y1460868D01*
X1463492Y1460701D01*
X1463270Y1460535D01*
X1462993Y1460313D01*
X1462659Y1460091D01*
X1462216Y1459813D01*
X1461772Y1459480D01*
X1461216Y1459203D01*
X1460606Y1458926D01*
X1459940Y1458592D01*
X1459218Y1458315D01*
X1458386Y1458093D01*
X1457553Y1457815D01*
X1456610Y1457649D01*
X1455611Y1457483D01*
X1455722Y1457427D01*
X1455944Y1457316D01*
X1456277Y1457094D01*
X1456721Y1456872D01*
X1457720Y1456262D01*
X1458219Y1455873D01*
X1458664Y1455540D01*
X1458774Y1455429D01*
X1459052Y1455151D01*
X1459496Y1454707D01*
X1460051Y1454152D01*
X1460661Y1453376D01*
X1461383Y1452543D01*
X1462104Y1451544D01*
X1462881Y1450434D01*
X1469486Y1440000D01*
X1463159D01*
X1458109Y1447992D01*
Y1448047D01*
X1457997Y1448159D01*
X1457887Y1448325D01*
X1457720Y1448547D01*
X1457332Y1449158D01*
X1456832Y1449935D01*
X1456222Y1450767D01*
X1455611Y1451655D01*
X1455001Y1452487D01*
X1454446Y1453264D01*
X1454390Y1453320D01*
X1454224Y1453542D01*
X1453946Y1453875D01*
X1453557Y1454264D01*
X1452725Y1455096D01*
X1452281Y1455485D01*
X1451837Y1455818D01*
X1451782Y1455873D01*
X1451670Y1455928D01*
X1451448Y1456040D01*
X1451116Y1456206D01*
X1450783Y1456372D01*
X1450394Y1456539D01*
X1449506Y1456816D01*
X1449450D01*
X1449340Y1456872D01*
X1449118D01*
X1448840Y1456928D01*
X1448451Y1456983D01*
X1448007D01*
X1447397Y1457039D01*
X1440848D01*
Y1440000D01*
X1435742D01*
Y1478406D01*
X1453557D01*
X1454002Y1478351D01*
D02*
G37*
G36*
X1430414Y1473855D02*
X1417760D01*
Y1440000D01*
X1412654D01*
Y1473855D01*
X1400000D01*
Y1478406D01*
X1430414D01*
Y1473855D01*
D02*
G37*
G36*
X1567795Y1931630D02*
X1568461D01*
X1569182Y1931575D01*
X1569959Y1931520D01*
X1571736Y1931353D01*
X1573567Y1931075D01*
X1575343Y1930743D01*
X1576176Y1930521D01*
X1577008Y1930243D01*
X1577063D01*
X1577175Y1930188D01*
X1577397Y1930076D01*
X1577674Y1929966D01*
X1578062Y1929854D01*
X1578451Y1929632D01*
X1579395Y1929188D01*
X1580393Y1928633D01*
X1581504Y1927912D01*
X1582503Y1927080D01*
X1583446Y1926081D01*
Y1926025D01*
X1583557Y1925969D01*
X1583668Y1925803D01*
X1583779Y1925581D01*
X1583946Y1925303D01*
X1584168Y1925026D01*
X1584556Y1924194D01*
X1584945Y1923195D01*
X1585333Y1922029D01*
X1585555Y1920641D01*
X1585666Y1919143D01*
Y1918588D01*
X1585611Y1918199D01*
X1585555Y1917755D01*
X1585444Y1917200D01*
X1585333Y1916590D01*
X1585167Y1915924D01*
X1584945Y1915258D01*
X1584723Y1914536D01*
X1584389Y1913815D01*
X1584001Y1913093D01*
X1583557Y1912372D01*
X1583002Y1911650D01*
X1582391Y1910985D01*
X1581726Y1910374D01*
X1581670Y1910319D01*
X1581504Y1910207D01*
X1581226Y1910041D01*
X1580782Y1909764D01*
X1580283Y1909486D01*
X1579617Y1909208D01*
X1578840Y1908820D01*
X1577951Y1908487D01*
X1576953Y1908154D01*
X1575787Y1907821D01*
X1574511Y1907488D01*
X1573068Y1907210D01*
X1571514Y1906933D01*
X1569849Y1906766D01*
X1568017Y1906656D01*
X1566074Y1906600D01*
X1566019D01*
X1565797D01*
X1565409D01*
X1564965D01*
X1564354Y1906656D01*
X1563688D01*
X1562966Y1906711D01*
X1562134Y1906766D01*
X1560414Y1906933D01*
X1558582Y1907210D01*
X1556751Y1907543D01*
X1555918Y1907765D01*
X1555085Y1907987D01*
X1555030D01*
X1554919Y1908043D01*
X1554697Y1908154D01*
X1554419Y1908265D01*
X1554031Y1908376D01*
X1553642Y1908598D01*
X1552699Y1909042D01*
X1551700Y1909597D01*
X1550646Y1910319D01*
X1549591Y1911151D01*
X1548703Y1912150D01*
Y1912206D01*
X1548592Y1912261D01*
X1548481Y1912428D01*
X1548370Y1912649D01*
X1548148Y1912927D01*
X1547982Y1913260D01*
X1547537Y1914092D01*
X1547149Y1915091D01*
X1546761Y1916257D01*
X1546539Y1917645D01*
X1546428Y1919143D01*
Y1919642D01*
X1546483Y1920253D01*
X1546594Y1920975D01*
X1546761Y1921807D01*
X1546983Y1922695D01*
X1547260Y1923639D01*
X1547704Y1924526D01*
Y1924582D01*
X1547759Y1924638D01*
X1547926Y1924915D01*
X1548204Y1925359D01*
X1548592Y1925914D01*
X1549147Y1926524D01*
X1549757Y1927190D01*
X1550479Y1927801D01*
X1551312Y1928411D01*
X1551422Y1928467D01*
X1551700Y1928689D01*
X1552199Y1928911D01*
X1552921Y1929300D01*
X1553754Y1929632D01*
X1554697Y1930076D01*
X1555807Y1930465D01*
X1557028Y1930798D01*
X1557083D01*
X1557195Y1930853D01*
X1557361Y1930909D01*
X1557639Y1930965D01*
X1557972Y1931020D01*
X1558360Y1931075D01*
X1558860Y1931187D01*
X1559415Y1931242D01*
X1560025Y1931353D01*
X1560691Y1931409D01*
X1561468Y1931464D01*
X1562245Y1931575D01*
X1563133Y1931630D01*
X1564021D01*
X1565020Y1931686D01*
X1566074D01*
X1566130D01*
X1566352D01*
X1566741D01*
X1567185D01*
X1567795Y1931630D01*
D02*
G37*
G36*
X1585000Y1889784D02*
X1554975D01*
X1555030Y1889728D01*
X1555252Y1889450D01*
X1555585Y1889118D01*
X1555974Y1888562D01*
X1556473Y1887952D01*
X1557028Y1887175D01*
X1557639Y1886287D01*
X1558249Y1885288D01*
Y1885233D01*
X1558304Y1885177D01*
X1558526Y1884844D01*
X1558804Y1884289D01*
X1559137Y1883623D01*
X1559525Y1882846D01*
X1559914Y1882014D01*
X1560303Y1881181D01*
X1560636Y1880349D01*
X1556084D01*
Y1880404D01*
X1555974Y1880515D01*
X1555918Y1880737D01*
X1555752Y1881014D01*
X1555585Y1881348D01*
X1555363Y1881736D01*
X1554808Y1882679D01*
X1554197Y1883790D01*
X1553420Y1884899D01*
X1552533Y1886065D01*
X1551589Y1887230D01*
X1551534Y1887286D01*
X1551478Y1887341D01*
X1551312Y1887508D01*
X1551145Y1887730D01*
X1550590Y1888229D01*
X1549924Y1888896D01*
X1549147Y1889562D01*
X1548259Y1890283D01*
X1547371Y1890893D01*
X1546428Y1891448D01*
Y1894501D01*
X1585000D01*
Y1889784D01*
D02*
G37*
G36*
Y1867417D02*
X1577008Y1862367D01*
X1576953D01*
X1576841Y1862255D01*
X1576675Y1862145D01*
X1576453Y1861978D01*
X1575842Y1861590D01*
X1575065Y1861090D01*
X1574233Y1860479D01*
X1573345Y1859869D01*
X1572513Y1859258D01*
X1571736Y1858704D01*
X1571680Y1858648D01*
X1571458Y1858482D01*
X1571125Y1858204D01*
X1570736Y1857815D01*
X1569904Y1856983D01*
X1569515Y1856539D01*
X1569182Y1856095D01*
X1569127Y1856040D01*
X1569072Y1855928D01*
X1568960Y1855707D01*
X1568794Y1855373D01*
X1568628Y1855041D01*
X1568461Y1854652D01*
X1568184Y1853764D01*
Y1853708D01*
X1568128Y1853598D01*
Y1853376D01*
X1568072Y1853098D01*
X1568017Y1852709D01*
Y1852265D01*
X1567961Y1851655D01*
Y1845106D01*
X1585000D01*
Y1840000D01*
X1546594D01*
Y1857815D01*
X1546649Y1858259D01*
Y1858759D01*
X1546705Y1859925D01*
X1546871Y1861146D01*
X1547038Y1862477D01*
X1547315Y1863698D01*
X1547482Y1864309D01*
X1547649Y1864809D01*
Y1864864D01*
X1547704Y1864919D01*
X1547870Y1865253D01*
X1548092Y1865752D01*
X1548481Y1866362D01*
X1548980Y1867028D01*
X1549647Y1867750D01*
X1550424Y1868416D01*
X1551312Y1869082D01*
X1551367D01*
X1551422Y1869138D01*
X1551755Y1869360D01*
X1552311Y1869582D01*
X1553032Y1869915D01*
X1553864Y1870192D01*
X1554863Y1870469D01*
X1555918Y1870636D01*
X1557083Y1870691D01*
X1557139D01*
X1557250D01*
X1557472D01*
X1557749Y1870636D01*
X1558138D01*
X1558526Y1870581D01*
X1559470Y1870359D01*
X1560580Y1870025D01*
X1561745Y1869582D01*
X1562911Y1868916D01*
X1563466Y1868472D01*
X1564021Y1868027D01*
X1564076Y1867972D01*
X1564132Y1867917D01*
X1564299Y1867750D01*
X1564465Y1867528D01*
X1564687Y1867251D01*
X1564909Y1866918D01*
X1565187Y1866474D01*
X1565520Y1866030D01*
X1565797Y1865475D01*
X1566074Y1864864D01*
X1566408Y1864198D01*
X1566685Y1863476D01*
X1566907Y1862644D01*
X1567185Y1861812D01*
X1567351Y1860868D01*
X1567517Y1859869D01*
X1567573Y1859980D01*
X1567684Y1860202D01*
X1567906Y1860535D01*
X1568128Y1860979D01*
X1568738Y1861978D01*
X1569127Y1862477D01*
X1569460Y1862921D01*
X1569571Y1863033D01*
X1569849Y1863310D01*
X1570293Y1863754D01*
X1570848Y1864309D01*
X1571624Y1864919D01*
X1572457Y1865641D01*
X1573456Y1866362D01*
X1574566Y1867139D01*
X1585000Y1873744D01*
Y1867417D01*
D02*
G37*
%LPC*%
G36*
X1167139Y235475D02*
X1167083D01*
X1167028D01*
X1166695Y235419D01*
X1166196Y235363D01*
X1165530Y235252D01*
X1164863Y234975D01*
X1164086Y234642D01*
X1163365Y234143D01*
X1162643Y233476D01*
X1162588Y233365D01*
X1162366Y233088D01*
X1162089Y232644D01*
X1161755Y231923D01*
X1161422Y231090D01*
X1161145Y229980D01*
X1160923Y228703D01*
X1160868Y227205D01*
Y215106D01*
X1173577D01*
Y226539D01*
X1173522Y227205D01*
X1173466Y227982D01*
X1173410Y228870D01*
X1173300Y229758D01*
X1173133Y230646D01*
X1172911Y231423D01*
X1172855Y231534D01*
X1172745Y231756D01*
X1172578Y232089D01*
X1172356Y232533D01*
X1172023Y233032D01*
X1171634Y233532D01*
X1171135Y234031D01*
X1170580Y234420D01*
X1170524Y234476D01*
X1170303Y234587D01*
X1169969Y234753D01*
X1169525Y234975D01*
X1169026Y235142D01*
X1168471Y235308D01*
X1167805Y235419D01*
X1167139Y235475D01*
D02*
G37*
G36*
X913370Y394688D02*
X912871D01*
X912482Y394632D01*
X911983Y394577D01*
X911484Y394466D01*
X910873Y394354D01*
X910207Y394243D01*
X908764Y393800D01*
X907987Y393466D01*
X907210Y393134D01*
X906378Y392690D01*
X905601Y392190D01*
X904823Y391635D01*
X904102Y390969D01*
X904047Y390913D01*
X903936Y390803D01*
X903769Y390580D01*
X903491Y390248D01*
X903214Y389859D01*
X902881Y389360D01*
X902548Y388749D01*
X902159Y388027D01*
X901827Y387250D01*
X901438Y386307D01*
X901105Y385308D01*
X900827Y384198D01*
X900550Y382977D01*
X900384Y381589D01*
X900273Y380147D01*
X900217Y378592D01*
Y378537D01*
Y378315D01*
Y377926D01*
X900273Y377427D01*
X900328Y376872D01*
X900439Y376206D01*
X900550Y375429D01*
X900661Y374652D01*
X901105Y372876D01*
X901438Y371988D01*
X901771Y371045D01*
X902215Y370156D01*
X902715Y369269D01*
X903269Y368436D01*
X903936Y367659D01*
X903991Y367603D01*
X904102Y367493D01*
X904324Y367271D01*
X904601Y367048D01*
X904990Y366716D01*
X905434Y366382D01*
X905933Y366050D01*
X906489Y365661D01*
X907154Y365272D01*
X907876Y364940D01*
X908653Y364606D01*
X909486Y364274D01*
X910374Y364051D01*
X911261Y363829D01*
X912260Y363719D01*
X913315Y363663D01*
X913592D01*
X913870Y363719D01*
X914259D01*
X914758Y363774D01*
X915313Y363885D01*
X915979Y363996D01*
X916645Y364163D01*
X917422Y364385D01*
X918144Y364662D01*
X918976Y364940D01*
X919753Y365328D01*
X920530Y365827D01*
X921307Y366327D01*
X922084Y366938D01*
X922806Y367659D01*
X922861Y367714D01*
X922972Y367825D01*
X923139Y368103D01*
X923416Y368436D01*
X923693Y368825D01*
X923971Y369324D01*
X924304Y369935D01*
X924692Y370601D01*
X925025Y371377D01*
X925359Y372265D01*
X925636Y373209D01*
X925969Y374208D01*
X926191Y375318D01*
X926357Y376539D01*
X926468Y377815D01*
X926524Y379147D01*
Y379203D01*
Y379370D01*
Y379591D01*
Y379925D01*
X926468Y380313D01*
Y380812D01*
X926413Y381312D01*
X926302Y381923D01*
X926135Y383199D01*
X925858Y384531D01*
X925470Y385974D01*
X924914Y387306D01*
Y387361D01*
X924859Y387473D01*
X924748Y387639D01*
X924637Y387861D01*
X924249Y388527D01*
X923749Y389304D01*
X923083Y390192D01*
X922250Y391080D01*
X921307Y391968D01*
X920253Y392745D01*
X920197D01*
X920141Y392856D01*
X919975Y392911D01*
X919697Y393078D01*
X919420Y393189D01*
X919087Y393356D01*
X918255Y393744D01*
X917255Y394077D01*
X916090Y394410D01*
X914758Y394632D01*
X913370Y394688D01*
D02*
G37*
G36*
X1023370Y1164688D02*
X1022816D01*
X1022427Y1164632D01*
X1021928Y1164576D01*
X1021372Y1164466D01*
X1020762Y1164354D01*
X1020096Y1164188D01*
X1019319Y1163966D01*
X1018597Y1163744D01*
X1017821Y1163411D01*
X1016988Y1163023D01*
X1016211Y1162579D01*
X1015434Y1162024D01*
X1014657Y1161468D01*
X1013936Y1160747D01*
X1013880Y1160691D01*
X1013769Y1160581D01*
X1013602Y1160359D01*
X1013380Y1160025D01*
X1013048Y1159637D01*
X1012770Y1159138D01*
X1012437Y1158527D01*
X1012104Y1157861D01*
X1011716Y1157084D01*
X1011383Y1156196D01*
X1011105Y1155253D01*
X1010827Y1154198D01*
X1010550Y1153088D01*
X1010384Y1151867D01*
X1010273Y1150535D01*
X1010217Y1149148D01*
Y1149036D01*
Y1148814D01*
Y1148426D01*
X1010273Y1147927D01*
X1010328Y1147316D01*
X1010439Y1146594D01*
X1010550Y1145762D01*
X1010661Y1144929D01*
X1011105Y1143043D01*
X1011383Y1142099D01*
X1011771Y1141156D01*
X1012159Y1140212D01*
X1012659Y1139324D01*
X1013214Y1138436D01*
X1013880Y1137659D01*
X1013936Y1137603D01*
X1014047Y1137493D01*
X1014269Y1137271D01*
X1014546Y1137049D01*
X1014934Y1136716D01*
X1015379Y1136382D01*
X1015878Y1136050D01*
X1016489Y1135661D01*
X1017099Y1135273D01*
X1017821Y1134939D01*
X1018597Y1134607D01*
X1019430Y1134274D01*
X1020374Y1134052D01*
X1021317Y1133830D01*
X1022316Y1133718D01*
X1023370Y1133663D01*
X1023870D01*
X1024370Y1133718D01*
X1025035Y1133774D01*
X1025868Y1133885D01*
X1026700Y1134107D01*
X1027644Y1134329D01*
X1028532Y1134662D01*
X1028421Y1134717D01*
X1028143Y1134939D01*
X1027644Y1135217D01*
X1027034Y1135550D01*
X1026256Y1135883D01*
X1025424Y1136272D01*
X1024480Y1136604D01*
X1023481Y1136882D01*
X1024758Y1140545D01*
X1024813D01*
X1024980Y1140489D01*
X1025202Y1140434D01*
X1025479Y1140323D01*
X1025868Y1140212D01*
X1026312Y1140045D01*
X1027311Y1139657D01*
X1028476Y1139102D01*
X1029697Y1138492D01*
X1030863Y1137770D01*
X1032028Y1136882D01*
X1032084Y1136938D01*
X1032251Y1137049D01*
X1032473Y1137326D01*
X1032750Y1137659D01*
X1033083Y1138103D01*
X1033472Y1138602D01*
X1033860Y1139213D01*
X1034304Y1139935D01*
X1034693Y1140767D01*
X1035081Y1141710D01*
X1035469Y1142709D01*
X1035803Y1143764D01*
X1036136Y1144985D01*
X1036358Y1146262D01*
X1036468Y1147649D01*
X1036524Y1149148D01*
Y1149203D01*
Y1149370D01*
Y1149591D01*
Y1149925D01*
X1036468Y1150369D01*
Y1150812D01*
X1036413Y1151368D01*
X1036302Y1151922D01*
X1036136Y1153199D01*
X1035858Y1154586D01*
X1035469Y1155974D01*
X1034915Y1157306D01*
Y1157361D01*
X1034859Y1157473D01*
X1034748Y1157639D01*
X1034637Y1157861D01*
X1034248Y1158527D01*
X1033749Y1159304D01*
X1033083Y1160192D01*
X1032251Y1161080D01*
X1031307Y1161968D01*
X1030253Y1162745D01*
X1030197D01*
X1030141Y1162856D01*
X1029975Y1162911D01*
X1029697Y1163078D01*
X1029420Y1163189D01*
X1029087Y1163355D01*
X1028255Y1163744D01*
X1027255Y1164077D01*
X1026090Y1164410D01*
X1024758Y1164632D01*
X1023370Y1164688D01*
D02*
G37*
G36*
X863370Y1159688D02*
X862816D01*
X862427Y1159632D01*
X861928Y1159576D01*
X861372Y1159466D01*
X860762Y1159354D01*
X860096Y1159188D01*
X859319Y1158966D01*
X858597Y1158744D01*
X857821Y1158411D01*
X856988Y1158023D01*
X856211Y1157579D01*
X855434Y1157024D01*
X854657Y1156468D01*
X853936Y1155747D01*
X853880Y1155691D01*
X853769Y1155581D01*
X853602Y1155359D01*
X853380Y1155025D01*
X853048Y1154637D01*
X852770Y1154138D01*
X852437Y1153527D01*
X852104Y1152861D01*
X851716Y1152084D01*
X851383Y1151196D01*
X851105Y1150253D01*
X850827Y1149198D01*
X850550Y1148088D01*
X850384Y1146867D01*
X850273Y1145535D01*
X850217Y1144148D01*
Y1144036D01*
Y1143814D01*
Y1143426D01*
X850273Y1142927D01*
X850328Y1142316D01*
X850439Y1141594D01*
X850550Y1140762D01*
X850661Y1139929D01*
X851105Y1138043D01*
X851383Y1137099D01*
X851771Y1136156D01*
X852159Y1135212D01*
X852659Y1134324D01*
X853214Y1133436D01*
X853880Y1132659D01*
X853936Y1132603D01*
X854047Y1132493D01*
X854269Y1132271D01*
X854546Y1132049D01*
X854934Y1131716D01*
X855379Y1131382D01*
X855878Y1131050D01*
X856489Y1130661D01*
X857099Y1130273D01*
X857821Y1129939D01*
X858597Y1129607D01*
X859430Y1129274D01*
X860374Y1129052D01*
X861317Y1128830D01*
X862316Y1128718D01*
X863370Y1128663D01*
X863870D01*
X864370Y1128718D01*
X865035Y1128774D01*
X865868Y1128885D01*
X866701Y1129107D01*
X867644Y1129329D01*
X868532Y1129662D01*
X868421Y1129717D01*
X868144Y1129939D01*
X867644Y1130217D01*
X867034Y1130550D01*
X866256Y1130883D01*
X865424Y1131272D01*
X864481Y1131604D01*
X863481Y1131882D01*
X864758Y1135545D01*
X864813D01*
X864980Y1135489D01*
X865202Y1135434D01*
X865480Y1135323D01*
X865868Y1135212D01*
X866312Y1135045D01*
X867311Y1134657D01*
X868476Y1134102D01*
X869697Y1133492D01*
X870863Y1132770D01*
X872029Y1131882D01*
X872084Y1131938D01*
X872250Y1132049D01*
X872472Y1132326D01*
X872750Y1132659D01*
X873083Y1133103D01*
X873471Y1133602D01*
X873860Y1134213D01*
X874304Y1134935D01*
X874692Y1135767D01*
X875081Y1136710D01*
X875470Y1137709D01*
X875803Y1138764D01*
X876135Y1139985D01*
X876357Y1141262D01*
X876468Y1142649D01*
X876524Y1144148D01*
Y1144203D01*
Y1144370D01*
Y1144591D01*
Y1144925D01*
X876468Y1145369D01*
Y1145812D01*
X876413Y1146368D01*
X876302Y1146922D01*
X876135Y1148199D01*
X875858Y1149586D01*
X875470Y1150974D01*
X874914Y1152306D01*
Y1152361D01*
X874859Y1152473D01*
X874748Y1152639D01*
X874637Y1152861D01*
X874249Y1153527D01*
X873749Y1154304D01*
X873083Y1155192D01*
X872250Y1156080D01*
X871307Y1156968D01*
X870253Y1157745D01*
X870197D01*
X870141Y1157856D01*
X869975Y1157911D01*
X869697Y1158078D01*
X869420Y1158189D01*
X869087Y1158355D01*
X868255Y1158744D01*
X867255Y1159077D01*
X866090Y1159410D01*
X864758Y1159632D01*
X863370Y1159688D01*
D02*
G37*
G36*
X1231842Y1229132D02*
X1219743D01*
Y1216423D01*
X1231176D01*
X1231842Y1216478D01*
X1232619Y1216534D01*
X1233507Y1216590D01*
X1234395Y1216700D01*
X1235283Y1216867D01*
X1236060Y1217089D01*
X1236171Y1217145D01*
X1236393Y1217255D01*
X1236726Y1217422D01*
X1237170Y1217644D01*
X1237669Y1217977D01*
X1238169Y1218366D01*
X1238668Y1218865D01*
X1239057Y1219420D01*
X1239112Y1219476D01*
X1239224Y1219697D01*
X1239390Y1220031D01*
X1239612Y1220475D01*
X1239778Y1220974D01*
X1239945Y1221529D01*
X1240056Y1222195D01*
X1240111Y1222861D01*
Y1222917D01*
Y1222972D01*
X1240056Y1223305D01*
X1240001Y1223804D01*
X1239889Y1224470D01*
X1239612Y1225137D01*
X1239279Y1225914D01*
X1238780Y1226635D01*
X1238113Y1227357D01*
X1238003Y1227412D01*
X1237725Y1227634D01*
X1237281Y1227911D01*
X1236560Y1228245D01*
X1235727Y1228578D01*
X1234617Y1228855D01*
X1233341Y1229077D01*
X1231842Y1229132D01*
D02*
G37*
G36*
X1057205Y1029132D02*
X1045106D01*
Y1016423D01*
X1056539D01*
X1057205Y1016479D01*
X1057982Y1016534D01*
X1058870Y1016590D01*
X1059758Y1016701D01*
X1060646Y1016867D01*
X1061423Y1017089D01*
X1061534Y1017144D01*
X1061756Y1017255D01*
X1062089Y1017422D01*
X1062533Y1017644D01*
X1063033Y1017977D01*
X1063532Y1018365D01*
X1064032Y1018865D01*
X1064420Y1019420D01*
X1064476Y1019476D01*
X1064586Y1019697D01*
X1064753Y1020030D01*
X1064975Y1020475D01*
X1065141Y1020974D01*
X1065308Y1021529D01*
X1065419Y1022195D01*
X1065475Y1022861D01*
Y1022917D01*
Y1022972D01*
X1065419Y1023305D01*
X1065363Y1023804D01*
X1065253Y1024470D01*
X1064975Y1025137D01*
X1064642Y1025914D01*
X1064142Y1026635D01*
X1063476Y1027357D01*
X1063366Y1027412D01*
X1063088Y1027634D01*
X1062644Y1027911D01*
X1061922Y1028245D01*
X1061090Y1028578D01*
X1059980Y1028855D01*
X1058704Y1029077D01*
X1057205Y1029132D01*
D02*
G37*
G36*
X892205D02*
X880106D01*
Y1016423D01*
X891539D01*
X892205Y1016479D01*
X892982Y1016534D01*
X893870Y1016590D01*
X894758Y1016701D01*
X895646Y1016867D01*
X896423Y1017089D01*
X896534Y1017144D01*
X896756Y1017255D01*
X897089Y1017422D01*
X897533Y1017644D01*
X898033Y1017977D01*
X898532Y1018365D01*
X899032Y1018865D01*
X899420Y1019420D01*
X899476Y1019476D01*
X899587Y1019697D01*
X899753Y1020030D01*
X899975Y1020475D01*
X900141Y1020974D01*
X900308Y1021529D01*
X900419Y1022195D01*
X900475Y1022861D01*
Y1022917D01*
Y1022972D01*
X900419Y1023305D01*
X900364Y1023804D01*
X900253Y1024470D01*
X899975Y1025137D01*
X899642Y1025914D01*
X899143Y1026635D01*
X898476Y1027357D01*
X898365Y1027412D01*
X898088Y1027634D01*
X897644Y1027911D01*
X896923Y1028245D01*
X896090Y1028578D01*
X894980Y1028855D01*
X893703Y1029077D01*
X892205Y1029132D01*
D02*
G37*
G36*
X1159950Y899688D02*
X1159062D01*
X1158840Y899632D01*
X1158229Y899577D01*
X1157508Y899355D01*
X1156620Y899077D01*
X1155677Y898577D01*
X1154733Y897967D01*
X1154289Y897523D01*
X1153845Y897079D01*
Y897024D01*
X1153734Y896968D01*
X1153623Y896802D01*
X1153512Y896635D01*
X1153123Y896080D01*
X1152735Y895303D01*
X1152291Y894360D01*
X1151902Y893194D01*
X1151680Y891862D01*
X1151570Y890419D01*
Y890364D01*
Y890253D01*
Y890086D01*
X1151625Y889808D01*
Y889476D01*
X1151680Y889143D01*
X1151847Y888310D01*
X1152124Y887366D01*
X1152457Y886367D01*
X1153013Y885369D01*
X1153734Y884481D01*
X1153845Y884370D01*
X1154122Y884148D01*
X1154622Y883759D01*
X1155233Y883370D01*
X1156065Y882927D01*
X1157008Y882538D01*
X1158063Y882316D01*
X1159228Y882205D01*
X1159562D01*
X1159784Y882260D01*
X1160394Y882316D01*
X1161116Y882482D01*
X1162004Y882760D01*
X1162891Y883149D01*
X1163780Y883703D01*
X1164612Y884481D01*
X1164723Y884591D01*
X1164945Y884924D01*
X1165278Y885424D01*
X1165722Y886145D01*
X1166111Y887034D01*
X1166444Y888088D01*
X1166666Y889365D01*
X1166776Y890808D01*
Y890863D01*
Y890974D01*
Y891196D01*
X1166721Y891473D01*
Y891862D01*
X1166666Y892250D01*
X1166499Y893139D01*
X1166277Y894193D01*
X1165889Y895303D01*
X1165333Y896357D01*
X1164612Y897301D01*
Y897356D01*
X1164501Y897412D01*
X1164224Y897689D01*
X1163780Y898078D01*
X1163169Y898522D01*
X1162392Y898910D01*
X1161504Y899299D01*
X1160505Y899577D01*
X1159950Y899688D01*
D02*
G37*
G36*
X1127205Y899133D02*
X1115106D01*
Y886423D01*
X1126539D01*
X1127205Y886479D01*
X1127982Y886534D01*
X1128870Y886590D01*
X1129758Y886701D01*
X1130646Y886867D01*
X1131423Y887089D01*
X1131534Y887144D01*
X1131756Y887255D01*
X1132089Y887422D01*
X1132533Y887644D01*
X1133033Y887977D01*
X1133532Y888365D01*
X1134032Y888865D01*
X1134420Y889420D01*
X1134476Y889476D01*
X1134586Y889697D01*
X1134753Y890030D01*
X1134975Y890475D01*
X1135141Y890974D01*
X1135308Y891529D01*
X1135419Y892195D01*
X1135475Y892861D01*
Y892917D01*
Y892972D01*
X1135419Y893305D01*
X1135363Y893804D01*
X1135253Y894471D01*
X1134975Y895136D01*
X1134642Y895913D01*
X1134142Y896635D01*
X1133476Y897356D01*
X1133366Y897412D01*
X1133088Y897634D01*
X1132644Y897912D01*
X1131922Y898245D01*
X1131090Y898577D01*
X1129980Y898855D01*
X1128704Y899077D01*
X1127205Y899133D01*
D02*
G37*
G36*
X697205Y884133D02*
X685106D01*
Y871423D01*
X696539D01*
X697205Y871479D01*
X697982Y871534D01*
X698870Y871590D01*
X699758Y871701D01*
X700646Y871867D01*
X701423Y872089D01*
X701534Y872144D01*
X701756Y872255D01*
X702089Y872422D01*
X702533Y872644D01*
X703033Y872977D01*
X703532Y873365D01*
X704032Y873865D01*
X704420Y874420D01*
X704476Y874476D01*
X704587Y874697D01*
X704753Y875030D01*
X704975Y875475D01*
X705141Y875974D01*
X705308Y876529D01*
X705419Y877195D01*
X705475Y877861D01*
Y877917D01*
Y877972D01*
X705419Y878305D01*
X705364Y878804D01*
X705253Y879471D01*
X704975Y880136D01*
X704642Y880913D01*
X704143Y881635D01*
X703476Y882356D01*
X703365Y882412D01*
X703088Y882634D01*
X702644Y882912D01*
X701923Y883245D01*
X701090Y883577D01*
X699980Y883855D01*
X698703Y884077D01*
X697205Y884133D01*
D02*
G37*
G36*
X729340Y884688D02*
X728895D01*
X728396Y884577D01*
X727730Y884466D01*
X727009Y884244D01*
X726231Y883966D01*
X725510Y883522D01*
X724788Y882912D01*
X724733Y882856D01*
X724511Y882634D01*
X724234Y882245D01*
X723956Y881746D01*
X723623Y881135D01*
X723346Y880414D01*
X723124Y879637D01*
X723068Y878749D01*
Y878693D01*
Y878638D01*
X723124Y878305D01*
X723179Y877806D01*
X723290Y877195D01*
X723512Y876473D01*
X723789Y875752D01*
X724234Y874975D01*
X724788Y874309D01*
X724844Y874254D01*
X725121Y874032D01*
X725510Y873754D01*
X726010Y873476D01*
X726676Y873144D01*
X727452Y872866D01*
X728341Y872644D01*
X729340Y872588D01*
X729451D01*
X729784Y872644D01*
X730283Y872699D01*
X730949Y872811D01*
X731670Y873033D01*
X732392Y873310D01*
X733169Y873754D01*
X733835Y874309D01*
X733890Y874365D01*
X734112Y874642D01*
X734390Y874975D01*
X734723Y875475D01*
X735056Y876085D01*
X735333Y876807D01*
X735556Y877639D01*
X735611Y878527D01*
Y878582D01*
Y878638D01*
Y878971D01*
X735500Y879471D01*
X735389Y880081D01*
X735167Y880747D01*
X734834Y881468D01*
X734390Y882190D01*
X733779Y882912D01*
X733724Y882967D01*
X733447Y883189D01*
X733058Y883466D01*
X732558Y883799D01*
X731893Y884133D01*
X731171Y884410D01*
X730283Y884632D01*
X729340Y884688D01*
D02*
G37*
G36*
X729173Y868759D02*
X728840D01*
X728618Y868703D01*
X728008Y868648D01*
X727231Y868481D01*
X726342Y868204D01*
X725455Y867816D01*
X724511Y867260D01*
X723678Y866539D01*
X723567Y866428D01*
X723346Y866150D01*
X723013Y865651D01*
X722624Y865040D01*
X722180Y864208D01*
X721847Y863264D01*
X721625Y862210D01*
X721514Y861044D01*
Y860933D01*
Y860712D01*
X721569Y860323D01*
X721625Y859823D01*
X721736Y859213D01*
X721903Y858547D01*
X722125Y857881D01*
X722402Y857159D01*
X722457Y857104D01*
X722568Y856827D01*
X722790Y856494D01*
X723124Y856105D01*
X723512Y855606D01*
X724011Y855106D01*
X724567Y854662D01*
X725232Y854218D01*
X725343Y854163D01*
X725566Y854052D01*
X725954Y853885D01*
X726453Y853718D01*
X727064Y853552D01*
X727785Y853385D01*
X728562Y853274D01*
X729340Y853219D01*
X729673D01*
X729894Y853274D01*
X730561Y853330D01*
X731337Y853496D01*
X732226Y853774D01*
X733169Y854107D01*
X734057Y854662D01*
X734945Y855384D01*
X735056Y855495D01*
X735278Y855772D01*
X735667Y856271D01*
X736055Y856882D01*
X736443Y857659D01*
X736832Y858602D01*
X737054Y859712D01*
X737165Y860878D01*
Y860933D01*
Y861044D01*
Y861211D01*
X737110Y861433D01*
X737054Y862043D01*
X736888Y862876D01*
X736610Y863708D01*
X736221Y864652D01*
X735667Y865596D01*
X734889Y866484D01*
X734779Y866595D01*
X734501Y866817D01*
X734001Y867205D01*
X733336Y867649D01*
X732503Y868038D01*
X731504Y868426D01*
X730394Y868648D01*
X729173Y868759D01*
D02*
G37*
G36*
X1216458Y806837D02*
X1199253D01*
X1216458Y794738D01*
Y806837D01*
D02*
G37*
G36*
X1202139Y780475D02*
X1202083D01*
X1202028D01*
X1201695Y780419D01*
X1201196Y780364D01*
X1200530Y780253D01*
X1199863Y779975D01*
X1199086Y779642D01*
X1198365Y779143D01*
X1197643Y778476D01*
X1197588Y778365D01*
X1197366Y778088D01*
X1197089Y777644D01*
X1196755Y776923D01*
X1196422Y776090D01*
X1196145Y774980D01*
X1195923Y773703D01*
X1195868Y772205D01*
Y760106D01*
X1208577D01*
Y771539D01*
X1208522Y772205D01*
X1208466Y772982D01*
X1208410Y773870D01*
X1208300Y774758D01*
X1208133Y775646D01*
X1207911Y776423D01*
X1207855Y776534D01*
X1207745Y776756D01*
X1207578Y777089D01*
X1207356Y777533D01*
X1207023Y778033D01*
X1206634Y778532D01*
X1206135Y779032D01*
X1205580Y779420D01*
X1205524Y779476D01*
X1205303Y779587D01*
X1204969Y779753D01*
X1204525Y779975D01*
X1204026Y780141D01*
X1203471Y780308D01*
X1202805Y780419D01*
X1202139Y780475D01*
D02*
G37*
G36*
X1255520Y1116529D02*
X1255464D01*
X1255242D01*
X1254965D01*
X1254521Y1116474D01*
X1254021D01*
X1253466Y1116418D01*
X1252800Y1116362D01*
X1252134Y1116307D01*
X1250636Y1116030D01*
X1249082Y1115697D01*
X1247639Y1115197D01*
X1246917Y1114864D01*
X1246306Y1114531D01*
X1246251D01*
X1246140Y1114420D01*
X1245974Y1114309D01*
X1245752Y1114198D01*
X1245197Y1113754D01*
X1244531Y1113199D01*
X1243809Y1112477D01*
X1243088Y1111645D01*
X1242477Y1110701D01*
X1241977Y1109703D01*
X1241922Y1109591D01*
X1241867Y1109314D01*
X1241700Y1108814D01*
X1241534Y1108093D01*
X1241422Y1107205D01*
X1241256Y1106095D01*
X1241200Y1105429D01*
Y1104707D01*
X1241145Y1103986D01*
Y1095106D01*
X1270449D01*
Y1104208D01*
X1270393Y1104597D01*
X1270338Y1105429D01*
X1270283Y1106372D01*
X1270171Y1107371D01*
X1270005Y1108370D01*
X1269783Y1109203D01*
X1269727Y1109314D01*
X1269672Y1109591D01*
X1269505Y1109980D01*
X1269284Y1110479D01*
X1268950Y1111034D01*
X1268618Y1111590D01*
X1268229Y1112145D01*
X1267785Y1112699D01*
X1267674Y1112755D01*
X1267452Y1112977D01*
X1267063Y1113310D01*
X1266508Y1113698D01*
X1265787Y1114142D01*
X1264955Y1114642D01*
X1264011Y1115086D01*
X1262957Y1115475D01*
X1262901D01*
X1262790Y1115530D01*
X1262623Y1115585D01*
X1262401Y1115641D01*
X1262124Y1115697D01*
X1261736Y1115807D01*
X1261347Y1115918D01*
X1260903Y1116030D01*
X1259793Y1116196D01*
X1258516Y1116362D01*
X1257073Y1116474D01*
X1255520Y1116529D01*
D02*
G37*
G36*
X1315520Y1121529D02*
X1315464D01*
X1315242D01*
X1314965D01*
X1314521Y1121474D01*
X1314021D01*
X1313466Y1121418D01*
X1312800Y1121362D01*
X1312134Y1121307D01*
X1310636Y1121030D01*
X1309082Y1120697D01*
X1307639Y1120197D01*
X1306917Y1119864D01*
X1306306Y1119531D01*
X1306251D01*
X1306140Y1119420D01*
X1305974Y1119309D01*
X1305752Y1119198D01*
X1305197Y1118754D01*
X1304531Y1118199D01*
X1303809Y1117477D01*
X1303088Y1116645D01*
X1302477Y1115701D01*
X1301977Y1114703D01*
X1301922Y1114591D01*
X1301867Y1114314D01*
X1301700Y1113814D01*
X1301534Y1113093D01*
X1301422Y1112205D01*
X1301256Y1111095D01*
X1301200Y1110429D01*
Y1109707D01*
X1301145Y1108986D01*
Y1100106D01*
X1330449D01*
Y1109208D01*
X1330393Y1109597D01*
X1330338Y1110429D01*
X1330283Y1111372D01*
X1330171Y1112371D01*
X1330005Y1113370D01*
X1329783Y1114203D01*
X1329727Y1114314D01*
X1329672Y1114591D01*
X1329505Y1114980D01*
X1329284Y1115479D01*
X1328950Y1116034D01*
X1328618Y1116590D01*
X1328229Y1117145D01*
X1327785Y1117699D01*
X1327674Y1117755D01*
X1327452Y1117977D01*
X1327063Y1118310D01*
X1326508Y1118698D01*
X1325787Y1119142D01*
X1324955Y1119642D01*
X1324011Y1120086D01*
X1322957Y1120475D01*
X1322901D01*
X1322790Y1120530D01*
X1322623Y1120585D01*
X1322401Y1120641D01*
X1322124Y1120697D01*
X1321736Y1120807D01*
X1321347Y1120918D01*
X1320903Y1121030D01*
X1319793Y1121196D01*
X1318516Y1121362D01*
X1317073Y1121474D01*
X1315520Y1121529D01*
D02*
G37*
G36*
X1457139Y885475D02*
X1457083D01*
X1457028D01*
X1456695Y885419D01*
X1456196Y885364D01*
X1455530Y885253D01*
X1454863Y884975D01*
X1454086Y884642D01*
X1453365Y884143D01*
X1452643Y883476D01*
X1452588Y883365D01*
X1452366Y883088D01*
X1452089Y882644D01*
X1451755Y881923D01*
X1451422Y881090D01*
X1451145Y879980D01*
X1450923Y878703D01*
X1450868Y877205D01*
Y865106D01*
X1463577D01*
Y876539D01*
X1463522Y877205D01*
X1463466Y877982D01*
X1463410Y878870D01*
X1463300Y879758D01*
X1463133Y880646D01*
X1462911Y881423D01*
X1462855Y881534D01*
X1462745Y881756D01*
X1462578Y882089D01*
X1462356Y882533D01*
X1462023Y883033D01*
X1461634Y883532D01*
X1461135Y884032D01*
X1460580Y884420D01*
X1460524Y884476D01*
X1460303Y884587D01*
X1459969Y884753D01*
X1459525Y884975D01*
X1459026Y885141D01*
X1458471Y885308D01*
X1457805Y885419D01*
X1457139Y885475D01*
D02*
G37*
G36*
X1252139Y785475D02*
X1252083D01*
X1252028D01*
X1251695Y785419D01*
X1251196Y785364D01*
X1250530Y785253D01*
X1249863Y784975D01*
X1249086Y784642D01*
X1248365Y784143D01*
X1247643Y783476D01*
X1247588Y783365D01*
X1247366Y783088D01*
X1247089Y782644D01*
X1246755Y781923D01*
X1246422Y781090D01*
X1246145Y779980D01*
X1245923Y778703D01*
X1245868Y777205D01*
Y765106D01*
X1258577D01*
Y776539D01*
X1258522Y777205D01*
X1258466Y777982D01*
X1258410Y778870D01*
X1258300Y779758D01*
X1258133Y780646D01*
X1257911Y781423D01*
X1257855Y781534D01*
X1257745Y781756D01*
X1257578Y782089D01*
X1257356Y782533D01*
X1257023Y783033D01*
X1256634Y783532D01*
X1256135Y784032D01*
X1255580Y784420D01*
X1255524Y784476D01*
X1255303Y784587D01*
X1254969Y784753D01*
X1254525Y784975D01*
X1254026Y785141D01*
X1253471Y785308D01*
X1252805Y785419D01*
X1252139Y785475D01*
D02*
G37*
G36*
X1242139Y645111D02*
X1242083D01*
X1242028D01*
X1241695Y645056D01*
X1241196Y645000D01*
X1240530Y644889D01*
X1239863Y644612D01*
X1239086Y644279D01*
X1238365Y643779D01*
X1237643Y643114D01*
X1237588Y643003D01*
X1237366Y642725D01*
X1237089Y642281D01*
X1236755Y641559D01*
X1236422Y640727D01*
X1236145Y639617D01*
X1235923Y638341D01*
X1235868Y636842D01*
Y624743D01*
X1248577D01*
Y636176D01*
X1248522Y636842D01*
X1248466Y637619D01*
X1248410Y638507D01*
X1248300Y639395D01*
X1248133Y640283D01*
X1247911Y641060D01*
X1247855Y641171D01*
X1247745Y641393D01*
X1247578Y641726D01*
X1247356Y642170D01*
X1247023Y642669D01*
X1246634Y643169D01*
X1246135Y643668D01*
X1245580Y644057D01*
X1245524Y644112D01*
X1245303Y644223D01*
X1244969Y644390D01*
X1244525Y644612D01*
X1244026Y644779D01*
X1243471Y644945D01*
X1242805Y645056D01*
X1242139Y645111D01*
D02*
G37*
G36*
X777205Y724133D02*
X765106D01*
Y711423D01*
X776539D01*
X777205Y711479D01*
X777982Y711534D01*
X778870Y711590D01*
X779758Y711701D01*
X780646Y711867D01*
X781423Y712089D01*
X781534Y712144D01*
X781756Y712255D01*
X782089Y712422D01*
X782533Y712644D01*
X783033Y712977D01*
X783532Y713365D01*
X784032Y713865D01*
X784420Y714420D01*
X784476Y714476D01*
X784587Y714697D01*
X784753Y715030D01*
X784975Y715475D01*
X785141Y715974D01*
X785308Y716529D01*
X785419Y717195D01*
X785475Y717861D01*
Y717917D01*
Y717972D01*
X785419Y718305D01*
X785364Y718804D01*
X785253Y719471D01*
X784975Y720136D01*
X784642Y720913D01*
X784143Y721635D01*
X783476Y722356D01*
X783365Y722412D01*
X783088Y722634D01*
X782644Y722912D01*
X781923Y723245D01*
X781090Y723577D01*
X779980Y723855D01*
X778703Y724077D01*
X777205Y724133D01*
D02*
G37*
G36*
X561842Y824133D02*
X549743D01*
Y811423D01*
X561176D01*
X561842Y811479D01*
X562619Y811534D01*
X563507Y811590D01*
X564395Y811701D01*
X565283Y811867D01*
X566060Y812089D01*
X566171Y812144D01*
X566393Y812255D01*
X566726Y812422D01*
X567170Y812644D01*
X567669Y812977D01*
X568169Y813365D01*
X568668Y813865D01*
X569057Y814420D01*
X569112Y814476D01*
X569223Y814697D01*
X569390Y815030D01*
X569612Y815475D01*
X569779Y815974D01*
X569945Y816529D01*
X570056Y817195D01*
X570111Y817861D01*
Y817917D01*
Y817972D01*
X570056Y818305D01*
X570000Y818804D01*
X569889Y819471D01*
X569612Y820136D01*
X569279Y820913D01*
X568779Y821635D01*
X568114Y822356D01*
X568003Y822412D01*
X567725Y822634D01*
X567281Y822912D01*
X566559Y823245D01*
X565727Y823577D01*
X564617Y823855D01*
X563341Y824077D01*
X561842Y824133D01*
D02*
G37*
G36*
X278986Y898855D02*
X270106D01*
Y869551D01*
X279208D01*
X279596Y869606D01*
X280429Y869662D01*
X281373Y869717D01*
X282372Y869828D01*
X283370Y869995D01*
X284203Y870217D01*
X284314Y870273D01*
X284591Y870328D01*
X284980Y870495D01*
X285479Y870716D01*
X286034Y871049D01*
X286589Y871383D01*
X287144Y871771D01*
X287700Y872215D01*
X287755Y872326D01*
X287977Y872548D01*
X288310Y872937D01*
X288699Y873491D01*
X289142Y874213D01*
X289642Y875045D01*
X290086Y875989D01*
X290474Y877043D01*
Y877099D01*
X290530Y877210D01*
X290586Y877376D01*
X290641Y877598D01*
X290697Y877876D01*
X290808Y878264D01*
X290918Y878653D01*
X291029Y879097D01*
X291196Y880207D01*
X291363Y881484D01*
X291474Y882927D01*
X291529Y884481D01*
Y884536D01*
Y884758D01*
Y885035D01*
X291474Y885480D01*
Y885979D01*
X291418Y886534D01*
X291363Y887200D01*
X291307Y887866D01*
X291029Y889365D01*
X290697Y890918D01*
X290197Y892361D01*
X289864Y893083D01*
X289531Y893693D01*
Y893749D01*
X289420Y893860D01*
X289309Y894027D01*
X289198Y894249D01*
X288754Y894803D01*
X288199Y895470D01*
X287478Y896191D01*
X286645Y896913D01*
X285702Y897523D01*
X284702Y898023D01*
X284591Y898078D01*
X284314Y898134D01*
X283815Y898300D01*
X283093Y898466D01*
X282205Y898577D01*
X281095Y898744D01*
X280429Y898799D01*
X279707D01*
X278986Y898855D01*
D02*
G37*
G36*
X239208Y618855D02*
X230106D01*
Y607311D01*
X239541D01*
X240262Y607366D01*
X241040Y607422D01*
X241816Y607477D01*
X242594Y607588D01*
X243204Y607699D01*
X243315Y607755D01*
X243537Y607811D01*
X243870Y607977D01*
X244314Y608199D01*
X244758Y608421D01*
X245257Y608754D01*
X245757Y609198D01*
X246145Y609642D01*
X246201Y609697D01*
X246312Y609864D01*
X246478Y610197D01*
X246645Y610586D01*
X246811Y611029D01*
X246978Y611585D01*
X247089Y612250D01*
X247144Y612972D01*
Y613083D01*
Y613305D01*
X247089Y613638D01*
X247034Y614082D01*
X246923Y614637D01*
X246756Y615192D01*
X246534Y615747D01*
X246201Y616302D01*
X246145Y616357D01*
X246035Y616524D01*
X245812Y616802D01*
X245535Y617079D01*
X245147Y617412D01*
X244702Y617745D01*
X244148Y618078D01*
X243537Y618300D01*
X243482D01*
X243204Y618411D01*
X242815Y618466D01*
X242205Y618577D01*
X241373Y618688D01*
X240429Y618744D01*
X239208Y618855D01*
D02*
G37*
G36*
X240207Y602760D02*
X230106D01*
Y589551D01*
X241040D01*
X242205Y589606D01*
X242704Y589662D01*
X243149Y589717D01*
X243204D01*
X243426Y589773D01*
X243759Y589828D01*
X244148Y589939D01*
X245091Y590273D01*
X246035Y590716D01*
X246090Y590772D01*
X246256Y590883D01*
X246478Y591049D01*
X246756Y591271D01*
X247034Y591605D01*
X247422Y591938D01*
X247700Y592381D01*
X248032Y592881D01*
X248088Y592937D01*
X248143Y593103D01*
X248255Y593436D01*
X248421Y593824D01*
X248588Y594269D01*
X248698Y594823D01*
X248754Y595490D01*
X248810Y596155D01*
Y596266D01*
Y596489D01*
X248754Y596933D01*
X248643Y597432D01*
X248532Y597987D01*
X248310Y598597D01*
X248032Y599208D01*
X247644Y599818D01*
X247589Y599874D01*
X247422Y600096D01*
X247200Y600374D01*
X246867Y600707D01*
X246423Y601095D01*
X245868Y601484D01*
X245257Y601817D01*
X244536Y602094D01*
X244425Y602149D01*
X244203Y602205D01*
X243703Y602316D01*
X243093Y602427D01*
X242316Y602538D01*
X241373Y602649D01*
X240207Y602760D01*
D02*
G37*
G36*
X612205Y339132D02*
X600106D01*
Y326423D01*
X611539D01*
X612205Y326478D01*
X612982Y326534D01*
X613870Y326589D01*
X614758Y326700D01*
X615646Y326867D01*
X616423Y327089D01*
X616534Y327144D01*
X616756Y327255D01*
X617089Y327422D01*
X617533Y327644D01*
X618033Y327977D01*
X618532Y328365D01*
X619032Y328865D01*
X619420Y329420D01*
X619476Y329476D01*
X619587Y329697D01*
X619753Y330031D01*
X619975Y330474D01*
X620141Y330974D01*
X620308Y331529D01*
X620419Y332195D01*
X620475Y332861D01*
Y332916D01*
Y332972D01*
X620419Y333305D01*
X620364Y333805D01*
X620253Y334471D01*
X619975Y335137D01*
X619642Y335913D01*
X619143Y336635D01*
X618476Y337356D01*
X618365Y337412D01*
X618088Y337634D01*
X617644Y337911D01*
X616923Y338245D01*
X616090Y338577D01*
X614980Y338855D01*
X613703Y339077D01*
X612205Y339132D01*
D02*
G37*
G36*
X1287845Y1747110D02*
X1287790D01*
X1287679D01*
X1287457D01*
X1287179Y1747054D01*
X1286847D01*
X1286458Y1746998D01*
X1285570Y1746832D01*
X1284571Y1746610D01*
X1283516Y1746222D01*
X1282517Y1745667D01*
X1281574Y1744945D01*
X1281463Y1744834D01*
X1281186Y1744556D01*
X1280852Y1744112D01*
X1280409Y1743502D01*
X1279965Y1742725D01*
X1279631Y1741837D01*
X1279354Y1740783D01*
X1279243Y1739617D01*
Y1739284D01*
X1279299Y1739062D01*
X1279354Y1738507D01*
X1279521Y1737730D01*
X1279798Y1736898D01*
X1280242Y1735954D01*
X1280797Y1735066D01*
X1281574Y1734178D01*
X1281685Y1734067D01*
X1281963Y1733845D01*
X1282462Y1733457D01*
X1283184Y1733068D01*
X1284016Y1732679D01*
X1285071Y1732291D01*
X1286236Y1732069D01*
X1287568Y1731958D01*
X1287679D01*
X1287957D01*
X1288456Y1732014D01*
X1289066Y1732069D01*
X1289788Y1732180D01*
X1290565Y1732402D01*
X1291398Y1732624D01*
X1292230Y1732957D01*
X1292341Y1733013D01*
X1292619Y1733179D01*
X1293007Y1733401D01*
X1293506Y1733734D01*
X1294006Y1734122D01*
X1294617Y1734622D01*
X1295116Y1735177D01*
X1295616Y1735843D01*
X1295671Y1735954D01*
X1295782Y1736176D01*
X1296004Y1736564D01*
X1296170Y1737064D01*
X1296392Y1737619D01*
X1296614Y1738285D01*
X1296726Y1739006D01*
X1296781Y1739784D01*
Y1740061D01*
X1296726Y1740283D01*
X1296670Y1740838D01*
X1296504Y1741560D01*
X1296170Y1742336D01*
X1295782Y1743225D01*
X1295171Y1744112D01*
X1294839Y1744556D01*
X1294395Y1744945D01*
X1294339D01*
X1294284Y1745056D01*
X1293950Y1745278D01*
X1293396Y1745611D01*
X1292674Y1746055D01*
X1291730Y1746444D01*
X1290620Y1746776D01*
X1289344Y1746998D01*
X1287845Y1747110D01*
D02*
G37*
G36*
X1272139Y1715475D02*
X1272083D01*
X1272028D01*
X1271695Y1715419D01*
X1271196Y1715363D01*
X1270530Y1715253D01*
X1269863Y1714975D01*
X1269086Y1714642D01*
X1268365Y1714142D01*
X1267643Y1713476D01*
X1267588Y1713366D01*
X1267366Y1713088D01*
X1267089Y1712644D01*
X1266755Y1711922D01*
X1266422Y1711090D01*
X1266145Y1709980D01*
X1265923Y1708704D01*
X1265868Y1707205D01*
Y1695106D01*
X1278577D01*
Y1706539D01*
X1278522Y1707205D01*
X1278466Y1707982D01*
X1278410Y1708870D01*
X1278300Y1709758D01*
X1278133Y1710646D01*
X1277911Y1711423D01*
X1277855Y1711534D01*
X1277745Y1711756D01*
X1277578Y1712089D01*
X1277356Y1712533D01*
X1277023Y1713033D01*
X1276634Y1713532D01*
X1276135Y1714032D01*
X1275580Y1714420D01*
X1275524Y1714476D01*
X1275303Y1714586D01*
X1274969Y1714753D01*
X1274525Y1714975D01*
X1274026Y1715141D01*
X1273471Y1715308D01*
X1272805Y1715419D01*
X1272139Y1715475D01*
D02*
G37*
G36*
X1452947Y1474132D02*
X1440848D01*
Y1461423D01*
X1452281D01*
X1452947Y1461478D01*
X1453724Y1461534D01*
X1454612Y1461590D01*
X1455500Y1461700D01*
X1456388Y1461867D01*
X1457165Y1462089D01*
X1457276Y1462145D01*
X1457498Y1462255D01*
X1457831Y1462422D01*
X1458275Y1462644D01*
X1458774Y1462977D01*
X1459274Y1463366D01*
X1459774Y1463865D01*
X1460162Y1464420D01*
X1460217Y1464476D01*
X1460329Y1464697D01*
X1460495Y1465031D01*
X1460717Y1465475D01*
X1460883Y1465974D01*
X1461050Y1466529D01*
X1461161Y1467195D01*
X1461216Y1467861D01*
Y1467917D01*
Y1467972D01*
X1461161Y1468305D01*
X1461105Y1468804D01*
X1460995Y1469470D01*
X1460717Y1470137D01*
X1460384Y1470914D01*
X1459884Y1471635D01*
X1459218Y1472357D01*
X1459108Y1472412D01*
X1458830Y1472634D01*
X1458386Y1472911D01*
X1457665Y1473245D01*
X1456832Y1473578D01*
X1455722Y1473855D01*
X1454446Y1474077D01*
X1452947Y1474132D01*
D02*
G37*
G36*
X1567795Y1926858D02*
X1566074D01*
X1566019D01*
X1565964D01*
X1565686D01*
X1565187D01*
X1564521Y1926802D01*
X1563799D01*
X1562911Y1926746D01*
X1561967Y1926691D01*
X1560913Y1926580D01*
X1558804Y1926303D01*
X1557749Y1926136D01*
X1556751Y1925914D01*
X1555807Y1925692D01*
X1554919Y1925359D01*
X1554142Y1925026D01*
X1553476Y1924638D01*
X1553420D01*
X1553365Y1924526D01*
X1553198Y1924416D01*
X1552976Y1924249D01*
X1552477Y1923749D01*
X1551867Y1923139D01*
X1551312Y1922306D01*
X1550812Y1921363D01*
X1550590Y1920863D01*
X1550424Y1920309D01*
X1550368Y1919698D01*
X1550312Y1919088D01*
Y1918755D01*
X1550368Y1918533D01*
X1550479Y1917922D01*
X1550646Y1917200D01*
X1550978Y1916368D01*
X1551478Y1915480D01*
X1551811Y1915036D01*
X1552144Y1914592D01*
X1552588Y1914204D01*
X1553088Y1913815D01*
X1553143D01*
X1553254Y1913704D01*
X1553476Y1913593D01*
X1553754Y1913427D01*
X1554197Y1913260D01*
X1554697Y1913038D01*
X1555307Y1912871D01*
X1556029Y1912649D01*
X1556861Y1912428D01*
X1557805Y1912206D01*
X1558860Y1911984D01*
X1560025Y1911817D01*
X1561357Y1911650D01*
X1562800Y1911540D01*
X1564354Y1911484D01*
X1566074Y1911428D01*
X1566186D01*
X1566463D01*
X1566963D01*
X1567629Y1911484D01*
X1568350D01*
X1569238Y1911540D01*
X1570181Y1911595D01*
X1571180Y1911706D01*
X1573345Y1911984D01*
X1574399Y1912150D01*
X1575399Y1912372D01*
X1576342Y1912594D01*
X1577230Y1912927D01*
X1578007Y1913260D01*
X1578673Y1913649D01*
X1578728D01*
X1578784Y1913759D01*
X1579172Y1914037D01*
X1579672Y1914536D01*
X1580227Y1915147D01*
X1580782Y1915979D01*
X1581282Y1916923D01*
X1581670Y1917977D01*
X1581726Y1918533D01*
X1581781Y1919143D01*
Y1919476D01*
X1581726Y1919698D01*
X1581614Y1920253D01*
X1581392Y1921030D01*
X1581004Y1921862D01*
X1580449Y1922806D01*
X1580116Y1923250D01*
X1579672Y1923694D01*
X1579228Y1924138D01*
X1578673Y1924582D01*
X1578618D01*
X1578506Y1924693D01*
X1578340Y1924804D01*
X1578062Y1924915D01*
X1577674Y1925137D01*
X1577175Y1925303D01*
X1576620Y1925525D01*
X1575954Y1925747D01*
X1575121Y1925914D01*
X1574233Y1926136D01*
X1573178Y1926358D01*
X1572069Y1926524D01*
X1570736Y1926636D01*
X1569349Y1926746D01*
X1567795Y1926858D01*
D02*
G37*
G36*
X1557139Y1865475D02*
X1557083D01*
X1557028D01*
X1556695Y1865419D01*
X1556196Y1865363D01*
X1555530Y1865253D01*
X1554863Y1864975D01*
X1554086Y1864642D01*
X1553365Y1864142D01*
X1552643Y1863476D01*
X1552588Y1863366D01*
X1552366Y1863088D01*
X1552089Y1862644D01*
X1551755Y1861922D01*
X1551422Y1861090D01*
X1551145Y1859980D01*
X1550923Y1858704D01*
X1550868Y1857205D01*
Y1845106D01*
X1563577D01*
Y1856539D01*
X1563522Y1857205D01*
X1563466Y1857982D01*
X1563410Y1858870D01*
X1563300Y1859758D01*
X1563133Y1860646D01*
X1562911Y1861423D01*
X1562855Y1861534D01*
X1562745Y1861756D01*
X1562578Y1862089D01*
X1562356Y1862533D01*
X1562023Y1863033D01*
X1561634Y1863532D01*
X1561135Y1864032D01*
X1560580Y1864420D01*
X1560524Y1864476D01*
X1560303Y1864586D01*
X1559969Y1864753D01*
X1559525Y1864975D01*
X1559026Y1865141D01*
X1558471Y1865308D01*
X1557805Y1865419D01*
X1557139Y1865475D01*
D02*
G37*
%LPD*%
D24*
X320000Y440000D02*
G03*
X320000Y440000I-60000J0D01*
G01*
D36*
X985000Y300000D02*
G03*
X935000Y300000I-25000J0D01*
G01*
X1048000Y320000D02*
G03*
X1048000Y320000I-8000J0D01*
G01*
X1290000Y1435000D02*
G03*
X1290000Y1485000I0J25000D01*
G01*
X1300000Y1310000D02*
G03*
X1300000Y1310000I-10000J0D01*
G01*
X1325000Y1385000D02*
G03*
X1325000Y1385000I-10000J0D01*
G01*
X252000Y759000D02*
Y841000D01*
X468000Y759000D02*
Y841000D01*
X405000Y759000D02*
X468000D01*
X405000Y841000D02*
X468000D01*
X252000Y759000D02*
X315000D01*
X252000Y841000D02*
X315000D01*
X367500Y777500D02*
Y821500D01*
X348500Y802500D02*
X367500Y821500D01*
X348500Y796500D02*
Y802500D01*
Y796500D02*
X367500Y777500D01*
X348500D02*
Y796500D01*
Y802500D02*
Y821500D01*
X1274449Y211102D02*
Y348898D01*
X1205551Y211102D02*
X1274449D01*
X1205551D02*
Y348898D01*
X1274449D01*
X1064331Y300000D02*
Y460000D01*
X855669Y300000D02*
Y460000D01*
X985000Y300000D02*
X1064331D01*
X855669D02*
X935000D01*
X855669Y460000D02*
X1064331D01*
X1031102Y1185551D02*
X1168898D01*
X1031102D02*
Y1254449D01*
X1168898D01*
Y1185551D02*
Y1254449D01*
X1031102Y922551D02*
X1168898D01*
X1031102D02*
X1031102Y991449D01*
X1168898D01*
X1168898Y922551D01*
X871102Y920551D02*
X1008898D01*
X871102Y989449D02*
X871102Y920551D01*
X871102Y989449D02*
X1008898D01*
X1008898Y920551D02*
X1008898Y989449D01*
X951102Y840551D02*
X1088898D01*
X951102D02*
X951102Y909449D01*
X1088898D01*
X1088898Y840551D01*
X781102Y840551D02*
X918898D01*
X781102Y909449D02*
X781102Y840551D01*
X781102Y909449D02*
X918898D01*
X918898Y840551D02*
X918898Y909449D01*
X1434449Y851102D02*
Y988898D01*
X1365551Y851102D02*
X1434449D01*
X1365551D02*
Y988898D01*
X1434449D01*
X691102Y674449D02*
X828898D01*
Y605551D02*
Y674449D01*
X691102Y605551D02*
X828898D01*
X691102D02*
Y674449D01*
X591102Y225551D02*
X728898D01*
X591102D02*
Y294449D01*
X728898D01*
Y225551D02*
Y294449D01*
X1290000Y1355669D02*
X1590000D01*
X1290000Y1564331D02*
X1590000D01*
X1290000Y1355669D02*
Y1435000D01*
Y1485000D02*
Y1564331D01*
X1590000Y1355669D02*
Y1564331D01*
D37*
X692465Y485520D02*
G03*
X692465Y485520I-8000J0D01*
G01*
X501575Y499370D02*
X698425D01*
X501575Y420630D02*
X698425D01*
Y499370D01*
X501575Y420630D02*
Y499370D01*
X1050000Y1067000D02*
Y1122000D01*
X1075000D01*
X1125000D02*
X1150000D01*
Y1067000D02*
Y1122000D01*
X890000Y1065000D02*
X890000Y1120000D01*
X915000D01*
X965000D02*
X990000D01*
X990000Y1065000D01*
X1235000Y955000D02*
X1285000D01*
X1235000Y845000D02*
Y955000D01*
Y845000D02*
X1285000D01*
Y955000D01*
X1235000Y965000D02*
X1285000D01*
X1235000D02*
Y1010000D01*
X1285000Y965000D02*
Y1010000D01*
X1240000Y1075000D02*
X1280000D01*
X1295000Y965000D02*
X1345000D01*
X1295000D02*
Y1010000D01*
X1345000Y965000D02*
Y1010000D01*
X1300000Y1075000D02*
X1340000D01*
X1295000Y955000D02*
X1345000D01*
X1295000Y845000D02*
Y955000D01*
Y845000D02*
X1345000D01*
Y955000D01*
X1296000Y595000D02*
Y805000D01*
X1384000D01*
Y595000D02*
Y805000D01*
X1296000Y595000D02*
X1384000D01*
X862672Y600010D02*
X874000D01*
X925000D02*
X936315D01*
X940000Y495000D02*
Y705000D01*
X860000Y495000D02*
X940000D01*
X860000D02*
Y705000D01*
X940000D01*
X942672Y600010D02*
X954000D01*
X1005000D02*
X1016315D01*
X1020000Y495000D02*
Y705000D01*
X940000Y495000D02*
X1020000D01*
X940000D02*
Y705000D01*
X1020000D01*
X715000Y686000D02*
Y774000D01*
X505000D02*
X715000D01*
X505000Y686000D02*
Y774000D01*
Y686000D02*
X715000D01*
X215000Y311000D02*
X305000D01*
X215000Y569000D02*
X305000D01*
X370000Y335000D02*
Y545000D01*
X150000Y335000D02*
Y545000D01*
X1316000Y1695000D02*
X1404000D01*
Y1905000D01*
X1316000D02*
X1404000D01*
X1316000Y1695000D02*
Y1905000D01*
X1606000Y2055000D02*
X1694000D01*
X1606000Y1845000D02*
Y2055000D01*
Y1845000D02*
X1694000D01*
Y2055000D01*
D46*
X1124921Y280000D02*
G03*
X1124921Y280000I-4921J0D01*
G01*
%TF.MD5,472604c7e81c29f618a93843eedb291b*%
M02*
