G04 Layer_Physical_Order=1*
G04 Layer_Color=255*
%FSLAX26Y26*%
%MOIN*%
%TF.FileFunction,Copper,L1,Top,Signal*%
%TF.Part,Single*%
G01*
G75*
%TA.AperFunction,NonConductor*%
%ADD10C,0.020000*%
%TA.AperFunction,SMDPad,CuDef*%
%ADD11R,0.068000X0.050000*%
%ADD12R,0.029000X0.050000*%
%ADD13R,0.060000X0.050000*%
%ADD14R,0.044000X0.044000*%
%ADD15R,0.040000X0.050000*%
%ADD16R,0.022000X0.034000*%
%ADD17R,0.032000X0.032000*%
%ADD18R,0.025000X0.075000*%
%ADD19O,0.120000X0.050000*%
%ADD20O,0.050000X0.120000*%
%ADD21R,0.050000X0.040000*%
%ADD22O,0.023622X0.074803*%
%ADD23R,0.050000X0.068000*%
%TA.AperFunction,Conductor*%
%ADD24C,0.020000*%
%ADD25C,0.040000*%
%ADD26C,0.015000*%
%ADD27C,0.060000*%
%TA.AperFunction,NonConductor*%
%ADD28C,0.010000*%
%TA.AperFunction,ComponentPad*%
%ADD29R,0.060000X0.060000*%
%ADD30C,0.060000*%
%ADD31C,0.150000*%
G04:AMPARAMS|DCode=32|XSize=150mil|YSize=150mil|CornerRadius=37.5mil|HoleSize=0mil|Usage=FLASHONLY|Rotation=180.000|XOffset=0mil|YOffset=0mil|HoleType=Round|Shape=RoundedRectangle|*
%AMROUNDEDRECTD32*
21,1,0.150000,0.075000,0,0,180.0*
21,1,0.075000,0.150000,0,0,180.0*
1,1,0.075000,-0.037500,0.037500*
1,1,0.075000,0.037500,0.037500*
1,1,0.075000,0.037500,-0.037500*
1,1,0.075000,-0.037500,-0.037500*
%
%ADD32ROUNDEDRECTD32*%
%ADD33C,0.100000*%
%ADD34C,0.070000*%
%ADD35R,0.070000X0.070000*%
D10*
X150000Y246087D02*
G03*
X150000Y153913I50000J-46087D01*
G01*
D02*
G03*
X153913Y150000I50000J46087D01*
G01*
D02*
G03*
X241120Y145841I46087J50000D01*
G01*
X237550Y150000D02*
G03*
X241120Y145841I62450J50000D01*
G01*
X153913Y250000D02*
G03*
X150000Y246087I46087J-50000D01*
G01*
X240000Y252915D02*
G03*
X237550Y250000I60000J-52915D01*
G01*
X240000Y254991D02*
G03*
X153913Y250000I-40000J-54991D01*
G01*
X257598Y325450D02*
G03*
X240000Y283000I42402J-42450D01*
G01*
X257574Y325426D02*
G03*
X240000Y283000I42426J-42426D01*
G01*
X612574Y102574D02*
G03*
X655000Y85000I42426J42426D01*
G01*
X612550Y102598D02*
G03*
X655000Y85000I42450J42402D01*
G01*
X722782D02*
G03*
X765208Y102574I0J60000D01*
G01*
X722782Y85000D02*
G03*
X765232Y102598I0J60000D01*
G01*
X450000Y137550D02*
G03*
X550000Y137550I50000J62450D01*
G01*
X350000Y137550D02*
G03*
X450000Y137550I50000J62450D01*
G01*
X241120Y145841D02*
G03*
X350000Y137550I58880J54159D01*
G01*
X550000Y137550D02*
G03*
X594990Y120157I50000J62450D01*
G01*
X940000Y269282D02*
G03*
X900897Y279995I-40000J-69282D01*
G01*
D02*
G03*
X920000Y330000I-55897J50005D01*
G01*
X827921Y165292D02*
G03*
X950000Y137550I72079J34708D01*
G01*
D02*
G03*
X1020000Y122540I50000J62450D01*
G01*
X920000Y330000D02*
G03*
X876639Y398000I-75000J0D01*
G01*
X957598Y397450D02*
G03*
X940000Y355000I42402J-42450D01*
G01*
X957574Y397426D02*
G03*
X940000Y355000I42426J-42426D01*
G01*
X515000Y608309D02*
G03*
X493189Y578110I10000J-30198D01*
G01*
X520926Y646000D02*
G03*
X515000Y620000I54074J-26000D01*
G01*
X167289Y840000D02*
G03*
X181377Y817770I56490J20221D01*
G01*
X167289Y840000D02*
G03*
X181353Y817794I56490J20221D01*
G01*
X311574Y687574D02*
G03*
X354000Y670000I42426J42426D01*
G01*
X311550Y687598D02*
G03*
X354000Y670000I42450J42402D01*
G01*
X890000Y430000D02*
G03*
X845000Y475000I-45000J0D01*
G01*
X876639Y398000D02*
G03*
X890000Y430000I-31639J32000D01*
G01*
X842402Y534575D02*
G03*
X850000Y543859I-42402J42450D01*
G01*
X842426Y534599D02*
G03*
X850000Y543859I-42426J42426D01*
G01*
X1024010Y485000D02*
G03*
X1000754Y440607I50990J-55000D01*
G01*
X1030000Y490000D02*
G03*
X1024010Y485000I45000J-60000D01*
G01*
X1054558Y502161D02*
G03*
X1030000Y490000I20442J-72160D01*
G01*
X520926Y646000D02*
G03*
X515000Y620000I54074J-26000D01*
G01*
X1190000Y527008D02*
G03*
X1054558Y502161I-70000J0D01*
G01*
X1190000Y527008D02*
G03*
X1054558Y502161I-70000J0D01*
G01*
X1022402Y792549D02*
G03*
X1028734Y800000I-42402J42450D01*
G01*
X1022426Y792574D02*
G03*
X1028734Y800000I-42426J42426D01*
G01*
X1215000Y160000D02*
G03*
X1248166Y170000I0J60000D01*
G01*
X1215000Y160000D02*
G03*
X1248166Y170000I0J60000D01*
G01*
X1182291Y495072D02*
G03*
X1190000Y527008I-62291J31936D01*
G01*
X1220000Y430000D02*
G03*
X1182291Y495072I-75000J0D01*
G01*
D02*
G03*
X1190000Y527008I-62291J31936D01*
G01*
X1208443Y390000D02*
G03*
X1220000Y430000I-63443J40000D01*
G01*
X1468098Y657463D02*
G03*
X1425648Y675061I-42450J-42402D01*
G01*
X1414706Y541150D02*
G03*
X1613701Y527008I98995J-14142D01*
G01*
X1468074Y657487D02*
G03*
X1425648Y675061I-42426J-42426D01*
G01*
X1613701Y527008D02*
G03*
X1499559Y626003I-100000J0D01*
G01*
X1460000Y1202716D02*
G03*
X1490000Y1219098I-20000J72284D01*
G01*
D02*
G03*
X1615000Y1275000I50000J55902D01*
G01*
Y1345000D02*
G03*
X1610711Y1370000I-75000J0D01*
G01*
X20000Y70093D02*
X90093Y0D01*
X20000Y13524D02*
X33524Y0D01*
X20000Y41808D02*
X61808Y0D01*
X20000Y98377D02*
X118377Y0D01*
X33238D02*
X171499Y138261D01*
X20000Y126661D02*
X146661Y0D01*
X20000Y154945D02*
X174945Y0D01*
X118091D02*
X253205Y135114D01*
X33238Y0D02*
X171499Y138261D01*
X20000Y239798D02*
X259798Y0D01*
X20000Y183230D02*
X203230Y0D01*
X20000Y211514D02*
X231514Y0D01*
X20000Y43331D02*
X141688Y165018D01*
X20000Y71615D02*
X133622Y185237D01*
X141688Y165018D02*
X150000Y173331D01*
X20000Y99899D02*
X133292Y213191D01*
X150000Y229899D01*
X20000Y15046D02*
X154458Y149504D01*
X89807Y0D02*
X227708Y137901D01*
X61522Y0D02*
X193805Y132283D01*
X133622Y185237D02*
X150000Y201615D01*
X133005Y211646D02*
X150000Y194651D01*
X134448Y181919D02*
X150000Y166367D01*
X140328Y232607D02*
X150000Y222935D01*
X171499Y138261D02*
X183238Y150000D01*
X193805Y132283D02*
X211522Y150000D01*
X171499Y138261D02*
X183238Y150000D01*
X166367D02*
X181919Y134448D01*
X150000Y150000D02*
X153913D01*
X194651D02*
X211646Y133005D01*
X227708Y137901D02*
X238565Y148758D01*
X222935Y150000D02*
X232608Y140328D01*
X153913Y150000D02*
X237550D01*
X150000Y246087D02*
Y250000D01*
Y150000D02*
Y153913D01*
Y246087D01*
X168988Y260516D02*
X179504Y250000D01*
X150000D02*
X153913D01*
X226669D02*
X234982Y258312D01*
X153913Y250000D02*
X237550D01*
X234982Y258312D02*
X240000Y263330D01*
X20000Y324651D02*
X133005Y211646D01*
X20000Y296367D02*
X134448Y181919D01*
X20000Y184752D02*
X155500Y320252D01*
X20000Y0D02*
Y840000D01*
Y352935D02*
X140328Y232607D01*
X20000Y381220D02*
X151220Y250000D01*
X20000Y128183D02*
X174317Y282500D01*
X170101Y250000D02*
X186809Y266708D01*
X20000Y241321D02*
X155500Y376821D01*
X20000Y156468D02*
X155500Y291968D01*
X20000Y213036D02*
X155500Y348536D01*
X20000Y466073D02*
X155500Y330573D01*
Y282500D02*
Y397500D01*
X20000Y437788D02*
X155500Y302288D01*
X20000Y522641D02*
X155500Y387141D01*
X20000Y354458D02*
X155500Y489958D01*
X20000Y382742D02*
X155500Y518242D01*
X20000Y326173D02*
X176327Y482500D01*
X20000Y409504D02*
X168988Y260516D01*
X155500Y282500D02*
X220500D01*
X20000Y269605D02*
X269500Y519105D01*
X20000Y607494D02*
X269500Y357994D01*
X20000Y297889D02*
X204611Y482500D01*
X20000Y494357D02*
X155500Y358857D01*
X186809Y266708D02*
X202601Y282500D01*
X198385Y250000D02*
X214763Y266378D01*
X190461Y267328D02*
X207788Y250000D01*
X175288Y282500D02*
X190461Y267328D01*
X203573Y282500D02*
X221592Y264481D01*
X220500Y282500D02*
Y397500D01*
X214763Y266378D02*
X240733Y292347D01*
X221592Y264481D02*
X236073Y250000D01*
X240000Y254991D02*
Y283000D01*
X220500Y293857D02*
X240000Y274357D01*
X220500Y322141D02*
X242500Y300141D01*
X220500Y350426D02*
X251968Y318957D01*
X220500Y328683D02*
X269500Y377683D01*
X220500Y300399D02*
X269500Y349399D01*
X257598Y325450D02*
X269500Y337353D01*
X220500Y356968D02*
X269500Y405968D01*
X173279Y482500D02*
X269500Y386279D01*
X220500Y378710D02*
X265679Y333531D01*
X269500Y337353D02*
Y427500D01*
X174660Y0D02*
X294827Y120167D01*
X372650Y0D02*
X492960Y120310D01*
X287797Y0D02*
X408220Y120423D01*
X259512Y0D02*
X381646Y122134D01*
X308997Y120507D02*
X429504Y0D01*
X278189Y123031D02*
X401220Y0D01*
X20000D02*
X1720000D01*
X457503D02*
X580034Y122531D01*
X394142Y120215D02*
X514357Y0D01*
X400934D02*
X524912Y123978D01*
X475302Y123908D02*
X599210Y0D01*
X420080Y122561D02*
X542641Y0D01*
X514071D02*
X614658Y100587D01*
X542356Y0D02*
X631957Y89601D01*
X485787Y0D02*
X600467Y114680D01*
X507172Y120322D02*
X627494Y0D01*
X594990Y120157D02*
X612550Y102598D01*
X570640Y0D02*
X655640Y85000D01*
X627208Y0D02*
X712208Y85000D01*
X598924Y0D02*
X683924Y85000D01*
X591940Y120407D02*
X712347Y0D01*
X655493D02*
X744600Y89108D01*
X655000Y85000D02*
X722782D01*
X655631D02*
X740631Y0D01*
X712200Y85000D02*
X797200Y0D01*
X683916Y85000D02*
X768916Y0D01*
X738413Y87072D02*
X825484Y0D01*
X772344Y109709D02*
X882053Y0D01*
X757619Y96150D02*
X853769Y0D01*
X768630D02*
X889343Y120713D01*
X903402Y120072D02*
X1023474Y0D01*
X881767D02*
X1001787Y120020D01*
X786486Y123851D02*
X910337Y0D01*
X853483D02*
X976893Y123410D01*
X796914Y0D02*
X919270Y122355D01*
X910051Y0D02*
X1030051Y120000D01*
X927048Y124711D02*
X1051759Y0D01*
X966620D02*
X1086620Y120000D01*
X938336Y0D02*
X1058336Y120000D01*
X994904Y0D02*
X1114904Y120000D01*
X1044896D02*
X1164896Y0D01*
X1023189D02*
X1143189Y120000D01*
X1015162Y121450D02*
X1136612Y0D01*
X987315Y121012D02*
X1108327Y0D01*
X1051473D02*
X1171473Y120000D01*
X1020000D02*
X1180000D01*
X146375Y0D02*
X271590Y125215D01*
X231228Y0D02*
X361243Y130015D01*
X202944Y0D02*
X328006Y125062D01*
X20000Y268083D02*
X288083Y0D01*
X211646Y133005D02*
X344651Y0D01*
X181919Y134448D02*
X316367Y0D01*
X316081D02*
X452046Y135965D01*
X344365Y0D02*
X470145Y125780D01*
X331378Y126410D02*
X457788Y0D01*
X232608Y140328D02*
X372935Y0D01*
X683777D02*
X835904Y152127D01*
X349175Y136898D02*
X486073Y0D01*
X429218D02*
X559960Y130741D01*
X440132Y130794D02*
X570926Y0D01*
X220500Y385252D02*
X272000Y436752D01*
X529958Y125821D02*
X655779Y0D01*
X740346D02*
X867323Y126978D01*
X548036Y136027D02*
X684063Y0D01*
X712061D02*
X849784Y137723D01*
X800628Y137993D02*
X938621Y0D01*
X765232Y102598D02*
X827402Y164768D01*
X929754Y274261D02*
X940000Y284507D01*
X906338Y286842D02*
X914506Y278674D01*
X940000Y269282D02*
Y355000D01*
X915906Y305559D02*
X940000Y281464D01*
X825198Y0D02*
X957452Y132253D01*
X945703Y134340D02*
X1080043Y0D01*
X868896Y126294D02*
X995190Y0D01*
X814770Y152136D02*
X966906Y0D01*
X906909Y279701D02*
X940000Y312792D01*
X909108Y368925D02*
X940000Y338033D01*
X920000Y329749D02*
X940000Y309749D01*
X919392Y320468D02*
X940000Y341076D01*
X888359Y417958D02*
X940910Y365408D01*
X878300Y399733D02*
X883925Y394108D01*
X917970Y347330D02*
X942384Y371744D01*
X885955Y448647D02*
X948619Y385983D01*
X881375Y395588D02*
X970787Y485000D01*
X909917Y367561D02*
X1010316Y467961D01*
X897567Y383495D02*
X999071Y485000D01*
X20000Y439311D02*
X155500Y574811D01*
X20000Y550926D02*
X173426Y397500D01*
X20000Y411026D02*
X155500Y546526D01*
X20000Y579210D02*
X201710Y397500D01*
X220500Y482500D02*
Y597500D01*
X155500Y482500D02*
Y597500D01*
Y397500D02*
X220500D01*
X204464D02*
X269500Y462536D01*
X201563Y482500D02*
X269500Y414563D01*
X176179Y397500D02*
X269500Y490821D01*
X220500Y491847D02*
X272000Y440347D01*
X220500Y520131D02*
X269500Y471131D01*
X20000Y664063D02*
X155500Y528563D01*
X20000Y635779D02*
X155500Y500279D01*
Y482500D02*
X220500D01*
Y498389D02*
X269500Y547389D01*
X220500Y548416D02*
X269500Y499416D01*
X220500Y526673D02*
X269500Y575673D01*
X155500Y597500D02*
X220500D01*
Y576700D02*
X269500Y527700D01*
X220500Y554958D02*
X269500Y603958D01*
Y471131D02*
X272000Y468631D01*
Y427500D02*
Y452500D01*
X269500Y462536D02*
X272000Y465036D01*
X269500Y452500D02*
Y627500D01*
X272000Y452500D02*
Y480000D01*
X394500Y540000D02*
Y627500D01*
Y540000D02*
X493189D01*
X488385D02*
X493189Y544804D01*
X394500Y544121D02*
X398622Y540000D01*
X394500Y572406D02*
X426906Y540000D01*
X493189D02*
Y578110D01*
X394500Y600690D02*
X455190Y540000D01*
X269500Y627500D02*
X394500D01*
X367690D02*
X394500Y600690D01*
X269500Y603958D02*
X293042Y627500D01*
X321327D02*
X363827Y670000D01*
X394500Y559252D02*
X481248Y646000D01*
X394500Y587536D02*
X465000Y658036D01*
X460101Y540000D02*
X493189Y573088D01*
X515000Y608309D02*
Y620000D01*
X431817Y540000D02*
X515089Y623273D01*
X403532Y540000D02*
X509532Y646000D01*
X490612D02*
X515021Y621591D01*
X20000Y552448D02*
X212000Y744448D01*
X20000Y692347D02*
X155500Y556847D01*
X20000Y720631D02*
X155500Y585131D01*
X20000Y609016D02*
X205065Y794082D01*
X20000Y748916D02*
X171416Y597500D01*
X20000Y777200D02*
X199700Y597500D01*
X20000Y495879D02*
X252121Y728000D01*
X20000Y467595D02*
X275776Y723371D01*
X20000Y524164D02*
X223836Y728000D01*
X20000Y833769D02*
X269500Y584269D01*
X20000Y805484D02*
X269500Y555984D01*
X20000Y580732D02*
X212000Y772732D01*
X20000Y835291D02*
X24709Y840000D01*
X20000Y778722D02*
X81278Y840000D01*
X20000Y807007D02*
X52993Y840000D01*
X20000Y750438D02*
X109562Y840000D01*
X20000Y693869D02*
X166131Y840000D01*
X20000Y722154D02*
X137846Y840000D01*
X20000Y637301D02*
X190923Y808224D01*
X42053Y840000D02*
X269500Y612553D01*
X20000Y665585D02*
X177028Y822613D01*
X70337Y840000D02*
X282837Y627500D01*
X20000Y840000D02*
X167289Y840000D01*
X98621D02*
X311122Y627500D01*
X126906Y840000D02*
X212000Y754906D01*
X206474Y597500D02*
X304060Y695087D01*
X220500Y583242D02*
X318724Y681466D01*
X293042Y627500D02*
X337777Y672235D01*
X178189Y597500D02*
X289918Y709229D01*
X267190Y728000D02*
X367690Y627500D01*
X238906Y728000D02*
X339406Y627500D01*
X349611D02*
X392111Y670000D01*
X381759D02*
X493189Y558570D01*
X394500Y615821D02*
X448679Y670000D01*
X353472Y670002D02*
X483474Y540000D01*
X410043Y670000D02*
X494154Y585889D01*
X438327Y670000D02*
X505266Y603061D01*
X181377Y817770D02*
X212000Y787147D01*
Y754906D02*
X238906Y728000D01*
X212000D02*
Y787147D01*
X155190Y840000D02*
X212000Y783190D01*
X354000Y670000D02*
X465000D01*
X377895Y627500D02*
X420395Y670000D01*
X465000Y646000D02*
Y670000D01*
X271147Y728000D02*
X311550Y687598D01*
X212000Y728000D02*
X271147D01*
X782827Y475000D02*
X845000D01*
X791081D02*
X850000Y533919D01*
X821215Y513387D02*
X863647Y470955D01*
X847576Y474926D02*
X857650Y485000D01*
X869000Y468066D02*
X885934Y485000D01*
X877886D02*
X961517Y401369D01*
X889934Y432432D02*
X942503Y485000D01*
X883125Y453906D02*
X914218Y485000D01*
X792930Y485103D02*
X803033Y475000D01*
X819365D02*
X850000Y505635D01*
X807072Y499245D02*
X831317Y475000D01*
X782827D02*
X842402Y534575D01*
X850000Y485000D02*
Y543859D01*
X835357Y527529D02*
X850000Y512886D01*
Y485000D02*
X930000D01*
X870000Y575000D02*
X930000D01*
X859966D02*
X870000D01*
X930000Y485000D02*
X950000D01*
X957598Y397450D02*
X1000754Y440607D01*
X930000Y485000D02*
X950000D01*
X906170D02*
X975659Y415512D01*
X934455Y485000D02*
X989801Y429654D01*
X962739Y485000D02*
X1001729Y446010D01*
X950000Y485000D02*
X1024010D01*
X991023D02*
X1009496Y466527D01*
X1019308Y485000D02*
X1021622Y482686D01*
X930000Y575000D02*
X950000D01*
X930000D02*
X950000D01*
X1030000Y502592D02*
X1037589Y495003D01*
X1037039Y494684D02*
X1052149Y509794D01*
X1030000Y530876D02*
X1052535Y508341D01*
X1030000Y490000D02*
Y575000D01*
X950000D02*
X1030000D01*
Y515929D02*
X1050659Y536587D01*
X1030000Y559160D02*
X1050909Y538251D01*
X862797Y575000D02*
X870000Y582203D01*
Y575000D02*
Y595000D01*
Y577739D02*
X872739Y575000D01*
X881023Y595000D02*
X901023Y575000D01*
X909308Y595000D02*
X929308Y575000D01*
X891081D02*
X911081Y595000D01*
X919365Y575000D02*
X939365Y595000D01*
X947650Y575000D02*
X967650Y595000D01*
X937592D02*
X957592Y575000D01*
X965876Y595000D02*
X985876Y575000D01*
X994160Y595000D02*
X1014160Y575000D01*
X975934D02*
X995934Y595000D01*
X870000Y582203D02*
X882797Y595000D01*
X870000D02*
X980000D01*
X900000Y595000D02*
X980000D01*
X465000Y646000D02*
X520926D01*
X974754Y745000D02*
X980000D01*
X974754Y745000D02*
X1060000D01*
X980000Y595000D02*
X1060000D01*
X980216Y750364D02*
X985580Y745000D01*
X976228D02*
X1031228Y800000D01*
X976877Y747024D02*
X1022402Y792549D01*
X994359Y764506D02*
X1013865Y745000D01*
X1001000Y1105147D02*
X1039000Y1143147D01*
X1004218Y575000D02*
X1024218Y595000D01*
X1022445D02*
X1057980Y559465D01*
X1030000Y572497D02*
X1052503Y595000D01*
X1004513Y745000D02*
X1059512Y800000D01*
X1052503Y595000D02*
X1060000Y602497D01*
X1008501Y778648D02*
X1042149Y745000D01*
X1050729Y595000D02*
X1069867Y575862D01*
X1030000Y544213D02*
X1093287Y607500D01*
X1022642Y792791D02*
X1087933Y727500D01*
X1043717Y800000D02*
X1116217Y727500D01*
X1032797Y745000D02*
X1087797Y800000D01*
X1001598Y1081497D02*
X1021101Y1101000D01*
X1001000Y1069000D02*
Y1105147D01*
X1001598Y1069000D02*
Y1101000D01*
X1011207Y1115354D02*
X1025561Y1101000D01*
X1028734Y800000D02*
X1050000D01*
X1130000D01*
X1028734D02*
X1050000D01*
X1021101Y1101000D02*
X1039000Y1118899D01*
X1001598Y1101000D02*
X1039000D01*
Y1143147D01*
X1025349Y1129496D02*
X1039000Y1115845D01*
X1101465Y120000D02*
X1221465Y0D01*
X1158033Y120000D02*
X1278033Y0D01*
X1129749Y120000D02*
X1249749Y0D01*
X1079757D02*
X1249757Y170000D01*
X1180000Y126317D02*
X1306317Y0D01*
X1108042D02*
X1278042Y170000D01*
X1180000Y154602D02*
X1334602Y0D01*
X1249463D02*
X1401628Y152165D01*
X1202886Y160000D02*
X1362886Y0D01*
X1136326D02*
X1306326Y170000D01*
X1306023D02*
X1476023Y0D01*
X1277739Y170000D02*
X1447739Y0D01*
X1073180Y120000D02*
X1193180Y0D01*
X1180000Y120000D02*
Y160000D01*
X1171473Y120000D02*
X1180000Y128527D01*
Y160000D02*
X1215000D01*
X1180000Y128527D02*
X1211473Y160000D01*
X1180000Y156811D02*
X1183189Y160000D01*
X1277747Y0D02*
X1412544Y134797D01*
X1229413Y161757D02*
X1391170Y0D01*
X1221179D02*
X1393678Y172499D01*
X1249455Y170000D02*
X1419455Y0D01*
X1248166Y170000D02*
X1315000D01*
X1362600Y0D02*
X1461368Y98768D01*
X1447996Y105005D02*
X1452280Y102532D01*
X1443561Y107192D02*
X1447996Y105005D01*
X1306032Y0D02*
X1426077Y120045D01*
X1334316Y0D02*
X1442331Y108015D01*
X1433734Y113759D02*
X1443561Y107192D01*
X1390884Y0D02*
X1483807Y92922D01*
X1484252Y92834D02*
X1489187Y92510D01*
X1472660Y95139D02*
X1484252Y92834D01*
X1452280Y102532D02*
X1463199Y98009D01*
X1467977Y96729D02*
X1472660Y95139D01*
X1463199Y98009D02*
X1467977Y96729D01*
X1394433Y170273D02*
X1395713Y165495D01*
X1400236Y154576D02*
X1402709Y150293D01*
X1395713Y165495D02*
X1400236Y154576D01*
X1306326Y170000D02*
X1315000Y178674D01*
X1392843Y174956D02*
X1394433Y170273D01*
X1390538Y186548D02*
X1392843Y174956D01*
X1417735Y128388D02*
X1426092Y120030D01*
X1430016Y117019D02*
X1433734Y113759D01*
X1426092Y120030D02*
X1430016Y117019D01*
X1404897Y145857D02*
X1411463Y136030D01*
X1402709Y150293D02*
X1404897Y145857D01*
X1414723Y132312D02*
X1417735Y128388D01*
X1411463Y136030D02*
X1414723Y132312D01*
X1192894Y0D02*
X1389569Y196674D01*
X1315000Y170000D02*
Y250000D01*
X1389569Y196386D02*
Y202296D01*
X1315000Y250000D02*
Y310000D01*
Y274160D02*
X1389569Y199592D01*
X1315000Y250000D02*
Y310000D01*
X1164610Y0D02*
X1392495Y227885D01*
X1315000Y245876D02*
X1395948Y164928D01*
X1389569Y196386D02*
X1390214Y191483D01*
X1315000Y263527D02*
X1483235Y431762D01*
X1315000Y302445D02*
X1392008Y225437D01*
X1315000Y330729D02*
X1398911Y246818D01*
X1315000Y310000D02*
Y390000D01*
Y359013D02*
X1409055Y264958D01*
X1315000Y387296D02*
X1421913Y280383D01*
X1215198Y390000D02*
X1380198Y555000D01*
X1312296Y390000D02*
X1315000Y387296D01*
X1271767Y390000D02*
X1413829Y532062D01*
X1315000Y348380D02*
X1433669Y467050D01*
X1315000Y291811D02*
X1463633Y440444D01*
X1315000Y320096D02*
X1447215Y452311D01*
X1151364Y607500D02*
X1455479Y303385D01*
X1179649Y607500D02*
X1476861Y310288D01*
X1188318Y542263D02*
X1437339Y293242D01*
X1315000Y376664D02*
X1423074Y484738D01*
X1389569Y208205D02*
X1390214Y213109D01*
Y191483D02*
X1390538Y186548D01*
X1389569Y202296D02*
Y208205D01*
X1390214Y213109D02*
X1390538Y218044D01*
X1392843Y229636D01*
X1394433Y234319D01*
X1395713Y239096D01*
X1400236Y250016D01*
X1402709Y254299D01*
X1404897Y258735D01*
X1411463Y268562D01*
X1414724Y272280D01*
X1417735Y276204D01*
X1426092Y284561D01*
X1430016Y287572D01*
X1433734Y290833D01*
X1443561Y297399D01*
X1447997Y299587D01*
X1452280Y302060D01*
X1463199Y306583D01*
X1467976Y307863D01*
X1472660Y309452D01*
X1484252Y311758D01*
X1489187Y312082D01*
X1494091Y312727D01*
X1419169Y0D02*
X1511740Y92571D01*
X1497296Y91865D02*
X1589160Y0D01*
X1462632Y98244D02*
X1560876Y0D01*
X1315000Y217592D02*
X1532592Y0D01*
X1447453D02*
X1552900Y105447D01*
X1315000Y189308D02*
X1504307Y0D01*
X1523141Y94304D02*
X1617445Y0D01*
X1562662Y111351D02*
X1674013Y0D01*
X1544522Y101207D02*
X1645729Y0D01*
X1504022D02*
X1720000Y215978D01*
X1560590Y0D02*
X1720000Y159410D01*
X1532306Y0D02*
X1720000Y187694D01*
X1489187Y92510D02*
X1494091Y91865D01*
X1505909D02*
X1510813Y92510D01*
X1494091Y91865D02*
X1505909D01*
X1510813Y92510D02*
X1515748Y92834D01*
X1527340Y95139D01*
X1532023Y96729D01*
X1536800Y98009D01*
X1547720Y102532D01*
X1552003Y105005D01*
X1556439Y107192D01*
X1566266Y113759D01*
X1569984Y117019D01*
X1573908Y120030D01*
X1617159Y0D02*
X1720000Y102841D01*
X1702012Y0D02*
X1720000Y17988D01*
X1673727Y0D02*
X1720000Y46273D01*
X1573908Y120030D02*
X1582265Y128388D01*
X1578087Y124209D02*
X1702296Y0D01*
X1582265Y128388D02*
X1585276Y132311D01*
X1588875Y0D02*
X1720000Y131125D01*
X1645443Y0D02*
X1720000Y74557D01*
X1590946Y139635D02*
X1720000Y10580D01*
X1601089Y157775D02*
X1720000Y38864D01*
X1607992Y179157D02*
X1720000Y67149D01*
X1610431Y205002D02*
X1720000Y95433D01*
X1585276Y132311D02*
X1588537Y136030D01*
X1595103Y145857D01*
X1597291Y150292D01*
X1599764Y154576D01*
X1604287Y165495D01*
X1605567Y170273D01*
X1607157Y174956D01*
X1609462Y186548D01*
X1609786Y191483D01*
X1610431Y196386D01*
X1609786Y213109D02*
X1610431Y208205D01*
Y196386D02*
Y202296D01*
Y208205D01*
X1547720Y302060D02*
X1552004Y299587D01*
X1556439Y297399D02*
X1566266Y290833D01*
X1552004Y299587D02*
X1556439Y297399D01*
X1315000Y178674D02*
X1720000Y583674D01*
X1315000Y206958D02*
X1538062Y430021D01*
X1315000Y235243D02*
X1506990Y427233D01*
X1475737Y0D02*
X1720000Y244263D01*
X1500716Y427854D02*
X1720000Y208570D01*
X1528714Y428141D02*
X1720000Y236855D01*
X1317002Y555000D02*
X1720000Y152002D01*
X1451878Y448408D02*
X1720000Y180286D01*
X1550939Y434200D02*
X1720000Y265139D01*
X1510813Y312082D02*
X1515748Y311758D01*
X1527340Y309452D02*
X1532023Y307863D01*
X1515748Y311758D02*
X1527340Y309452D01*
X1260433Y555000D02*
X1502706Y312727D01*
X1505909D02*
X1510813Y312082D01*
X1494091Y312727D02*
X1505909D01*
X1532023Y307863D02*
X1536801Y306583D01*
X1550131Y300668D02*
X1720000Y470537D01*
X1536801Y306583D02*
X1547720Y302060D01*
X1288717Y555000D02*
X1537371Y306346D01*
X1474411Y309801D02*
X1720000Y555390D01*
X1529797Y308618D02*
X1720000Y498821D01*
X1505622Y312727D02*
X1720000Y527106D01*
X1604287Y239096D02*
X1605567Y234319D01*
X1607157Y229636D02*
X1609462Y218044D01*
X1605567Y234319D02*
X1607157Y229636D01*
X1595103Y258735D02*
X1597291Y254299D01*
X1599764Y250016D02*
X1604287Y239096D01*
X1597291Y254299D02*
X1599764Y250016D01*
X1596848Y149395D02*
X1720000Y272547D01*
X1604050Y239667D02*
X1720000Y123717D01*
X1609462Y218044D02*
X1609786Y213109D01*
X1609374Y218489D02*
X1720000Y329115D01*
X1603528Y240928D02*
X1720000Y357400D01*
Y0D02*
Y1370000D01*
X1609725Y190556D02*
X1720000Y300831D01*
X1582265Y276204D02*
X1585276Y272280D01*
X1588537Y268562D02*
X1595103Y258735D01*
X1585276Y272280D02*
X1588537Y268562D01*
X1566266Y290833D02*
X1569984Y287572D01*
X1573908Y284561D02*
X1582265Y276204D01*
X1569984Y287572D02*
X1573908Y284561D01*
X1567499Y289752D02*
X1720000Y442253D01*
X1594281Y259965D02*
X1720000Y385684D01*
X1582251Y276219D02*
X1720000Y413968D01*
X1569440Y443983D02*
X1720000Y293423D01*
X1584909Y456798D02*
X1720000Y321707D01*
X1597521Y472471D02*
X1720000Y349992D01*
X1607072Y491204D02*
X1720000Y378276D01*
X1060000Y595000D02*
Y607500D01*
X1066513D02*
X1085883Y588131D01*
X1137214Y594858D02*
X1149855Y607500D01*
X1157043Y586403D02*
X1178140Y607500D01*
X1183555Y556347D02*
X1234708Y607500D01*
X1172374Y573450D02*
X1206424Y607500D01*
X1060000Y602497D02*
X1065003Y607500D01*
X1123080D02*
X1135255Y595325D01*
X1094796Y607500D02*
X1106585Y595710D01*
X1060000Y743919D02*
X1116081Y800000D01*
X1110420Y596349D02*
X1121571Y607500D01*
X1060000Y727500D02*
Y745000D01*
Y607500D02*
X1256000D01*
X1128570Y800000D02*
X1201070Y727500D01*
X1060000D02*
X1256000D01*
X1100286Y800000D02*
X1172786Y727500D01*
X1072002Y800000D02*
X1144502Y727500D01*
X1156718D02*
X1235218Y806000D01*
X1128434Y727500D02*
X1206934Y806000D01*
X1208443Y390000D02*
X1230000D01*
X1214824Y402621D02*
X1227445Y390000D01*
X1208443D02*
X1230000D01*
X1219885Y425844D02*
X1255729Y390000D01*
X1213522Y460491D02*
X1284013Y390000D01*
X1188703Y513593D02*
X1312296Y390000D01*
X1243483D02*
X1404669Y551187D01*
X1230000Y390000D02*
X1315000D01*
X1209169Y468824D02*
X1295346Y555000D01*
X1219647Y422733D02*
X1351914Y555000D01*
X1217569Y448939D02*
X1323630Y555000D01*
X1185129Y501352D02*
X1256000Y572223D01*
X1189635Y534143D02*
X1256000Y600507D01*
X1236217Y607500D02*
X1256000Y587717D01*
X1207933Y607500D02*
X1256000Y559433D01*
Y555000D02*
Y607500D01*
X1235707Y806000D02*
X1256000Y785707D01*
X1196543Y484482D02*
X1267061Y555000D01*
X1256000Y559433D02*
X1260433Y555000D01*
X1256000D02*
X1400856D01*
X1185003Y727500D02*
X1256000Y798497D01*
X1207423Y806000D02*
X1256000Y757423D01*
X1241571Y727500D02*
X1256000Y741929D01*
X1213287Y727500D02*
X1256000Y770213D01*
X1071865Y727500D02*
X1194000Y849635D01*
X1100150Y727500D02*
X1194000Y821350D01*
X1116081Y800000D02*
X1130000Y813919D01*
Y870487D02*
X1171512Y912000D01*
X1130000Y800000D02*
Y882000D01*
Y813919D02*
X1194000Y877919D01*
X1130000Y883423D02*
X1194000Y819423D01*
X1130000Y826855D02*
X1229355Y727500D01*
X1130000Y855139D02*
X1256000Y729139D01*
X1130000Y842203D02*
X1194000Y906203D01*
X1130000Y911707D02*
X1194000Y847707D01*
X1157992Y912000D02*
X1194000Y875992D01*
X1130000Y898772D02*
X1143228Y912000D01*
X1130000Y882000D02*
Y912000D01*
Y882000D02*
Y912000D01*
X1180000D01*
X1168401Y1014727D02*
X1194000Y989129D01*
X1168401Y1022026D02*
X1184761Y1038386D01*
X1168401Y1002000D02*
Y1054746D01*
X1194000Y1029147D01*
X1168401Y1043012D02*
X1194000Y1017413D01*
X1168401Y1050311D02*
X1170619Y1052528D01*
X1171512Y912000D02*
X1180000Y920487D01*
X1194000Y806000D02*
Y862000D01*
X1180000Y918276D02*
X1194000Y904276D01*
X1180000Y912000D02*
Y1002000D01*
X1194000Y862000D02*
Y926000D01*
Y862000D02*
Y926000D01*
Y806000D02*
X1254000D01*
X1256000Y727500D02*
Y806000D01*
X1194000Y819423D02*
X1207423Y806000D01*
X1180000Y920487D02*
X1194000Y934487D01*
Y926000D02*
Y938000D01*
Y926000D02*
Y938000D01*
Y926000D02*
Y938000D01*
X1180000Y974845D02*
X1194000Y960845D01*
X1180000Y946560D02*
X1194000Y932560D01*
X1180000Y948772D02*
X1194000Y962772D01*
X1168401Y1002000D02*
X1180000D01*
X1194000Y938000D02*
Y982000D01*
X1180000Y977056D02*
X1194000Y991056D01*
Y982000D02*
Y994000D01*
Y938000D02*
Y982000D01*
Y994000D01*
Y982000D02*
Y994000D01*
X1176659Y1002000D02*
X1194000Y1019340D01*
Y994000D02*
Y1029147D01*
Y994000D02*
Y1029147D01*
X1300051Y390000D02*
X1415953Y505902D01*
X1373570Y555000D02*
X1414547Y514023D01*
X1400856Y555000D02*
X1414706Y541150D01*
X1345286Y555000D02*
X1435101Y465185D01*
X1424000Y702560D02*
X1500436Y626124D01*
X1424000Y759129D02*
X1720000Y463129D01*
X1424000Y730845D02*
X1529017Y625828D01*
X1424000Y787413D02*
X1720000Y491413D01*
X1429698Y810000D02*
X1720000Y519698D01*
X1457982Y810000D02*
X1720000Y547982D01*
X1424000Y695000D02*
Y705000D01*
Y675061D02*
Y695000D01*
Y705000D01*
Y796792D02*
X1437208Y810000D01*
X1424000Y705000D02*
Y810000D01*
Y768507D02*
X1465493Y810000D01*
X1424000D02*
X1475000D01*
X1465493D02*
X1475000Y819507D01*
X1424000Y683654D02*
X1720000Y979654D01*
X1424000Y711939D02*
X1720000Y1007939D01*
X1460683Y663769D02*
X1720000Y923086D01*
X1441546Y672916D02*
X1720000Y951370D01*
X1610688Y502647D02*
X1720000Y611958D01*
X1612817Y513743D02*
X1720000Y406560D01*
X1612521Y542324D02*
X1720000Y434845D01*
X1613475Y533718D02*
X1720000Y640243D01*
X1608947Y557474D02*
X1720000Y668527D01*
X1573659Y607039D02*
X1720000Y753380D01*
X1600264Y577076D02*
X1720000Y696811D01*
X1588398Y593494D02*
X1720000Y725096D01*
X1475000Y849551D02*
X1720000Y604551D01*
X1475000Y821266D02*
X1720000Y576266D01*
X1555971Y617635D02*
X1720000Y781664D01*
X1468098Y657463D02*
X1499559Y626003D01*
X1475000Y877835D02*
X1720000Y632835D01*
X1489522Y636039D02*
X1720000Y866517D01*
X1475000Y890000D02*
Y950000D01*
Y810000D02*
Y890000D01*
Y950000D01*
X1475380Y650181D02*
X1720000Y894802D01*
X1534807Y624755D02*
X1720000Y809949D01*
X1508647Y626880D02*
X1720000Y838233D01*
X1475000Y962688D02*
X1720000Y717688D01*
X1475000Y990972D02*
X1720000Y745972D01*
X1475000Y906119D02*
X1720000Y661119D01*
X1475000Y934403D02*
X1720000Y689403D01*
X1460000Y1147393D02*
X1720000Y887394D01*
X1475000Y876076D02*
X1720000Y1121076D01*
X1475000Y950000D02*
Y1030000D01*
X1460000Y1175678D02*
X1720000Y915678D01*
X1475000Y932644D02*
X1720000Y1177645D01*
X1460971Y1202991D02*
X1720000Y943962D01*
X1424000Y740223D02*
X1720000Y1036223D01*
X1460000Y1062541D02*
X1720000Y802541D01*
X1475000Y819507D02*
X1720000Y1064507D01*
X1460000Y1090825D02*
X1720000Y830825D01*
X1475000Y847792D02*
X1720000Y1092792D01*
X1460000Y1119109D02*
X1720000Y859109D01*
X1460000Y1030000D02*
X1475000D01*
X1464256D02*
X1475000Y1019256D01*
X1460000Y1034256D02*
X1464256Y1030000D01*
X1460000D02*
Y1202716D01*
Y1200487D02*
X1463187Y1203674D01*
X1460000Y1115635D02*
X1544501Y1200135D01*
X1475000Y960929D02*
X1720000Y1205929D01*
X1460000Y1143919D02*
X1519063Y1202982D01*
X1460000Y1059066D02*
X1720000Y1319066D01*
X1460000Y1087350D02*
X1720000Y1347350D01*
X1460000Y1030782D02*
X1720000Y1290782D01*
X1460000Y1172203D02*
X1499605Y1211808D01*
X1570581Y1206518D02*
X1720000Y1057099D01*
X1588006Y1217377D02*
X1720000Y1085384D01*
X1601539Y1232129D02*
X1720000Y1113668D01*
X1611030Y1250922D02*
X1720000Y1141952D01*
X1615000Y1275236D02*
X1720000Y1170236D01*
X1615000Y1303521D02*
X1720000Y1198521D01*
X1475000Y1019256D02*
X1720000Y774256D01*
X1475000Y904360D02*
X1720000Y1149360D01*
X1548349Y1200466D02*
X1720000Y1028815D01*
X1475000Y989213D02*
X1720000Y1234213D01*
X1475000Y1017497D02*
X1720000Y1262497D01*
X1480421Y1211825D02*
X1720000Y972246D01*
X1516877Y1203653D02*
X1720000Y1000531D01*
X1615000Y1275000D02*
Y1345000D01*
X1614352Y1354839D02*
X1629513Y1370000D01*
X1615000Y1298919D02*
X1686081Y1370000D01*
X1615000Y1327203D02*
X1657797Y1370000D01*
X1613035Y1362054D02*
X1720000Y1255089D01*
X1615000Y1331805D02*
X1720000Y1226805D01*
X1614865Y1270499D02*
X1714365Y1370000D01*
X1633374D02*
X1720000Y1283374D01*
X1610711Y1370000D02*
X1720000D01*
X1661658D02*
X1720000Y1311658D01*
X1689942Y1370000D02*
X1720000Y1339942D01*
D11*
X1340000Y770000D02*
D03*
Y630000D02*
D03*
X1360000Y1730000D02*
D03*
Y1870000D02*
D03*
X1650000Y2020000D02*
D03*
Y1880000D02*
D03*
D12*
X1054724Y1220000D02*
D03*
X1145276D02*
D03*
D13*
X980000Y530000D02*
D03*
Y670000D02*
D03*
X900000Y530000D02*
D03*
Y670000D02*
D03*
D14*
X436000Y800000D02*
D03*
X284000D02*
D03*
D15*
X980000Y875000D02*
D03*
X1060000D02*
D03*
Y957000D02*
D03*
X1140000D02*
D03*
X620000Y260000D02*
D03*
X700000D02*
D03*
X810000Y875000D02*
D03*
X890000D02*
D03*
X900000Y955000D02*
D03*
X980000D02*
D03*
X800000Y640000D02*
D03*
X720000D02*
D03*
D16*
X1100000Y1120000D02*
D03*
X1137401Y1034000D02*
D03*
X1062598Y1034000D02*
D03*
X940000Y1118000D02*
D03*
X977402Y1032000D02*
D03*
X902598Y1032000D02*
D03*
D17*
X1260000Y928000D02*
D03*
Y872000D02*
D03*
Y992000D02*
D03*
Y1048000D02*
D03*
X1320000Y928000D02*
D03*
Y872000D02*
D03*
Y992000D02*
D03*
Y1048000D02*
D03*
D18*
X332000Y540000D02*
D03*
Y340000D02*
D03*
X188000D02*
D03*
Y540000D02*
D03*
D19*
X810000Y330000D02*
D03*
Y430000D02*
D03*
X1110000D02*
D03*
Y330000D02*
D03*
D20*
X1339062Y1309994D02*
D03*
X1440000Y1310000D02*
D03*
Y1610000D02*
D03*
X1340000D02*
D03*
X1540000D02*
D03*
Y1310000D02*
D03*
D21*
X1400000Y880000D02*
D03*
Y960000D02*
D03*
X1240000Y240000D02*
D03*
Y320000D02*
D03*
D22*
X675000Y552520D02*
D03*
X625000Y552520D02*
D03*
X575000Y552520D02*
D03*
X525000Y552520D02*
D03*
X675000Y367480D02*
D03*
X625000D02*
D03*
X575000D02*
D03*
X525000D02*
D03*
D23*
X680000Y730000D02*
D03*
X540000D02*
D03*
D24*
X1119581Y528761D02*
X1149169Y535832D01*
X1118504Y528504D02*
X1119581Y528761D01*
X978402Y961598D02*
Y1036000D01*
X873000Y1123000D02*
X940000D01*
X1320000Y876000D02*
X1396000D01*
X1316000Y872000D02*
X1320000Y876000D01*
X800000Y670000D02*
X900000D01*
X982500Y667500D02*
X1293500D01*
X1331000Y630000D01*
X980000Y670000D02*
X982500Y667500D01*
X474630Y627500D02*
X525000Y577130D01*
X250500Y627500D02*
X474630D01*
X188000Y565000D02*
X250500Y627500D01*
X1331473Y186473D02*
Y398481D01*
X1193916Y48916D02*
X1331473Y186473D01*
X351084Y48916D02*
X1193916D01*
X200000Y200000D02*
X351084Y48916D01*
X1149169Y535832D02*
X1319169Y365832D01*
X1240000Y1420000D02*
X1365000D01*
X1100000Y1280000D02*
X1240000Y1420000D01*
X1100000Y1160000D02*
Y1280000D01*
X1365000Y1420000D02*
X1440000Y1345000D01*
X1316000Y872000D02*
X1320000D01*
X1260000D02*
X1316000D01*
X675000Y552520D02*
Y578110D01*
Y525949D02*
Y552520D01*
X332000Y340000D02*
Y480000D01*
Y315000D02*
Y340000D01*
X900000Y530000D02*
X980000D01*
X895000D02*
X900000D01*
X188000Y540000D02*
Y565000D01*
Y340000D02*
Y540000D01*
Y212000D02*
Y340000D01*
Y212000D02*
X200000Y200000D01*
X1061598Y1033000D02*
X1062598Y1034000D01*
X901598Y1036000D02*
X902598Y1037000D01*
X1054724Y1209500D02*
Y1220000D01*
X1050224Y1205000D02*
X1054724Y1209500D01*
X1314000Y1054000D02*
X1320000Y1048000D01*
X1314000Y1054000D02*
Y1061355D01*
X1170355Y1205000D02*
X1314000Y1061355D01*
X710000Y630000D02*
X720000Y640000D01*
X624307Y366787D02*
X625000Y367480D01*
X620000Y255000D02*
Y260000D01*
X607654Y242654D02*
X620000Y255000D01*
X600000Y200000D02*
X655000Y145000D01*
X1425648Y615061D02*
X1513701Y527008D01*
X1339569Y770000D02*
X1340000D01*
X1324569Y785000D02*
X1339569Y770000D01*
X1396000Y876000D02*
X1400000Y880000D01*
X1324569Y785000D02*
Y867432D01*
X1320000Y872000D02*
X1324569Y867432D01*
X1145276Y1209500D02*
X1149776Y1205000D01*
X1440000Y1310000D02*
Y1345000D01*
X1100000Y1160000D02*
X1148000D01*
X1400000Y960000D02*
Y1214056D01*
X1339062Y1274994D02*
Y1309994D01*
X1331000Y630000D02*
X1340000D01*
X1354939Y615061D01*
X1425648D01*
X1149776Y1205000D02*
X1170355D01*
X1145276Y1209500D02*
Y1220000D01*
X1016000Y1205000D02*
X1050224D01*
X940000Y1129000D02*
X1016000Y1205000D01*
X940000Y1123000D02*
Y1129000D01*
X223780Y860221D02*
X284000Y800000D01*
X710000Y613110D02*
Y630000D01*
X1100000Y1120000D02*
Y1160000D01*
X1148000D02*
X1260000Y1048000D01*
X525000Y552520D02*
Y577130D01*
X675000Y578110D02*
X710000Y613110D01*
X850000Y485000D02*
X895000Y530000D01*
X850000Y443858D02*
Y485000D01*
X675000Y452026D02*
X800000Y577025D01*
X700000Y260000D02*
X700000Y260000D01*
X981496Y528504D02*
X1118504D01*
X661811Y511682D02*
Y512760D01*
X785000Y316142D02*
X798858Y330000D01*
X785000Y207218D02*
Y316142D01*
X798858Y330000D02*
X810000D01*
X722782Y145000D02*
X785000Y207218D01*
X655000Y145000D02*
X722782D01*
X700000Y200000D02*
X700000Y200000D01*
X700000Y200000D02*
Y260000D01*
X700000Y260000D02*
Y315910D01*
X675000Y340910D02*
X700000Y315910D01*
X600000Y200000D02*
X607654Y207654D01*
Y242654D01*
X620000Y260000D02*
X624307Y264307D01*
Y366787D01*
X1339062Y1274994D02*
X1400000Y1214056D01*
X980000Y530000D02*
X981496Y528504D01*
X836142Y430000D02*
X850000Y443858D01*
X810000Y430000D02*
X836142D01*
X900000Y670000D02*
X980000D01*
X332000Y480000D02*
Y540000D01*
X661811Y512760D02*
X675000Y525949D01*
X1138401Y958598D02*
Y1031401D01*
X978402Y961598D02*
X980000Y960000D01*
X1235000Y240000D02*
X1240000D01*
X1215000Y220000D02*
X1235000Y240000D01*
X332000Y480000D02*
X630129D01*
X661811Y511682D01*
X1120000Y220000D02*
X1215000D01*
X1100000Y200000D02*
X1120000Y220000D01*
X1230000Y330000D02*
X1240000Y320000D01*
X1110000Y330000D02*
X1230000D01*
X1000000Y200000D02*
Y355000D01*
X1075000Y430000D01*
X223780Y860221D02*
Y1033150D01*
X300000Y283000D02*
X332000Y315000D01*
X300000Y200000D02*
Y283000D01*
X575000Y275000D02*
Y367480D01*
X500000Y200000D02*
X575000Y275000D01*
X524307Y366787D02*
X525000Y367480D01*
X524307Y324307D02*
Y366787D01*
X400000Y200000D02*
X524307Y324307D01*
X1060000Y877000D02*
Y957000D01*
X1138401Y958598D02*
X1140000Y957000D01*
X1060000D02*
X1061598Y958598D01*
Y1033000D01*
X977402Y1037000D02*
X978402Y1036000D01*
X900000Y960000D02*
X901598Y961598D01*
X625000Y552520D02*
Y769355D01*
X645071Y789426D01*
X934426D01*
X900000Y880000D02*
Y955000D01*
Y960000D01*
X901598Y961598D02*
Y1036000D01*
X934426Y789426D02*
X980000Y835000D01*
Y875000D01*
X680000Y721000D02*
Y730000D01*
Y721000D02*
X695000Y706000D01*
X800000Y670000D02*
Y695000D01*
X695000Y706000D02*
X789000D01*
X800000Y695000D01*
X675000Y340910D02*
Y367480D01*
Y452026D01*
X800000Y577025D02*
Y640000D01*
Y670000D01*
X354000Y730000D02*
X540000D01*
X284000Y800000D02*
X354000Y730000D01*
X436000Y800000D02*
X555000D01*
X696221Y941221D01*
Y1033150D01*
X630574Y824426D02*
X759427D01*
X810000Y875000D01*
X696221Y1033150D02*
X783150D01*
X873000Y1123000D01*
X575000Y552520D02*
Y620000D01*
X590000Y635000D01*
Y783853D01*
X630574Y824426D01*
D25*
X1346000Y1725000D02*
X1370000D01*
X1560000Y1799000D02*
X1641000Y1880000D01*
X1540000Y1779000D02*
X1560000Y1799000D01*
X1508997Y1850003D02*
X1560000Y1799000D01*
X1499997Y1850003D02*
X1508997D01*
X1540000Y1610000D02*
Y1779000D01*
X1641000Y1880000D02*
X1650000D01*
X1341913Y1720913D02*
X1346000Y1725000D01*
X1341913Y1611913D02*
Y1720913D01*
X1340000Y1610000D02*
X1341913Y1611913D01*
D26*
X1260000Y700000D02*
X1556811D01*
X1221500Y738500D02*
X1260000Y700000D01*
X1221500Y738500D02*
Y968402D01*
X1556811Y700000D02*
X1656326Y600486D01*
X1331473Y398481D02*
X1359985Y426993D01*
X1656326Y491716D02*
Y600486D01*
X1591603Y426993D02*
X1656326Y491716D01*
X1359985Y426993D02*
X1591603D01*
X1155901Y1034000D02*
X1221500Y968402D01*
X1137401Y1034000D02*
X1155901D01*
X1260000Y928000D02*
Y992000D01*
X1320000Y928000D02*
Y992000D01*
X977402Y1037000D02*
Y1043000D01*
X1103902Y1073500D02*
X1137401Y1040000D01*
X1007901Y1073500D02*
X1103902D01*
X1137401Y1034000D02*
Y1040000D01*
X977402Y1043000D02*
X1007901Y1073500D01*
D27*
X1200000Y1795941D02*
Y1800000D01*
X1360000Y1959997D02*
X1444853D01*
X1452936Y1951913D01*
X1503997Y2046003D02*
X1624997D01*
X1650000Y2021000D01*
X1499997Y2050003D02*
X1503997Y2046003D01*
X1650000Y2020000D02*
Y2021000D01*
X550003Y2050003D02*
X1499997D01*
X1452936Y1951913D02*
X1498087D01*
X759997Y1959997D02*
X1360000D01*
Y1870000D02*
Y1959997D01*
X1498087Y1951913D02*
X1500000Y1950000D01*
X300000Y1800000D02*
X550003Y2050003D01*
X1127654Y1597654D02*
Y1723595D01*
X600000Y1800000D02*
X759997Y1959997D01*
X900000Y1800000D02*
X1200000D01*
X1127654Y1723595D02*
X1200000Y1795941D01*
X600000Y1590000D02*
Y1800000D01*
X300000Y1775646D02*
Y1800000D01*
X223780Y1699426D02*
X300000Y1775646D01*
X223780Y1513465D02*
Y1699426D01*
X460000Y1450000D02*
X600000Y1590000D01*
X460000Y954409D02*
Y1450000D01*
X600000Y1590000D02*
X923149D01*
X1120000Y1590000D02*
X1127654Y1597654D01*
D28*
X160000Y200000D02*
X200000D01*
Y160000D02*
Y200000D01*
Y240000D01*
X165500Y340000D02*
X188000D01*
Y292500D02*
Y340000D01*
X210500D01*
X188000D02*
Y387500D01*
X165500Y540000D02*
X188000D01*
Y492500D02*
Y540000D01*
X210500D01*
X188000D02*
Y587500D01*
X810000Y430000D02*
X880000D01*
X810000D02*
Y465000D01*
X900000Y495000D02*
Y530000D01*
X860000D02*
X900000D01*
Y565000D01*
X980000Y495000D02*
Y530000D01*
X1020000D01*
X980000D02*
Y565000D01*
X1060000Y527008D02*
X1120000D01*
Y587008D01*
Y527008D02*
X1180000D01*
X1137401Y1034000D02*
X1158401D01*
X1140000Y922000D02*
Y957000D01*
X1170000D01*
X91435Y1440000D02*
Y1465709D01*
X88578Y1474278D01*
X85722Y1477135D01*
X80009Y1479991D01*
X71439D01*
X65726Y1477135D01*
X62869Y1474278D01*
X60013Y1465709D01*
Y1440000D01*
X120000D01*
X60013Y1510556D02*
X62869Y1504843D01*
X68582Y1499130D01*
X74296Y1496274D01*
X82865Y1493417D01*
X97148D01*
X105717Y1496274D01*
X111430Y1499130D01*
X117144Y1504843D01*
X120000Y1510556D01*
Y1521982D01*
X117144Y1527696D01*
X111430Y1533409D01*
X105717Y1536265D01*
X97148Y1539122D01*
X82865D01*
X74296Y1536265D01*
X68582Y1533409D01*
X62869Y1527696D01*
X60013Y1521982D01*
Y1510556D01*
Y1553119D02*
X120000Y1567401D01*
X60013Y1581684D02*
X120000Y1567401D01*
X60013Y1581684D02*
X120000Y1595967D01*
X60013Y1610249D02*
X120000Y1595967D01*
X60013Y1659381D02*
Y1622247D01*
X120000D01*
Y1659381D01*
X88578Y1622247D02*
Y1645099D01*
X60013Y1669379D02*
X120000D01*
X60013D02*
Y1695088D01*
X62869Y1703658D01*
X65726Y1706514D01*
X71439Y1709371D01*
X77152D01*
X82865Y1706514D01*
X85722Y1703658D01*
X88578Y1695088D01*
Y1669379D01*
Y1689375D02*
X120000Y1709371D01*
X74296Y1812777D02*
X68582Y1809921D01*
X62869Y1804208D01*
X60013Y1798495D01*
Y1787069D01*
X62869Y1781355D01*
X68582Y1775642D01*
X74296Y1772786D01*
X82865Y1769929D01*
X97148D01*
X105717Y1772786D01*
X111430Y1775642D01*
X117144Y1781355D01*
X120000Y1787069D01*
Y1798495D01*
X117144Y1804208D01*
X111430Y1809921D01*
X105717Y1812777D01*
X60013Y1846770D02*
X62869Y1841057D01*
X68582Y1835344D01*
X74296Y1832487D01*
X82865Y1829631D01*
X97148D01*
X105717Y1832487D01*
X111430Y1835344D01*
X117144Y1841057D01*
X120000Y1846770D01*
Y1858196D01*
X117144Y1863909D01*
X111430Y1869622D01*
X105717Y1872479D01*
X97148Y1875335D01*
X82865D01*
X74296Y1872479D01*
X68582Y1869622D01*
X62869Y1863909D01*
X60013Y1858196D01*
Y1846770D01*
Y1889332D02*
X120000D01*
X60013D02*
X120000Y1929324D01*
X60013D02*
X120000D01*
X60013Y1965887D02*
X120000D01*
X60013Y1945892D02*
Y1985883D01*
Y1993024D02*
X120000D01*
X60013D02*
Y2018733D01*
X62869Y2027303D01*
X65726Y2030159D01*
X71439Y2033016D01*
X77152D01*
X82865Y2030159D01*
X85722Y2027303D01*
X88578Y2018733D01*
Y1993024D01*
Y2013020D02*
X120000Y2033016D01*
X60013Y2063581D02*
X62869Y2057868D01*
X68582Y2052155D01*
X74296Y2049298D01*
X82865Y2046441D01*
X97148D01*
X105717Y2049298D01*
X111430Y2052155D01*
X117144Y2057868D01*
X120000Y2063581D01*
Y2075007D01*
X117144Y2080720D01*
X111430Y2086433D01*
X105717Y2089289D01*
X97148Y2092146D01*
X82865D01*
X74296Y2089289D01*
X68582Y2086433D01*
X62869Y2080720D01*
X60013Y2075007D01*
Y2063581D01*
Y2106143D02*
X120000D01*
Y2140421D01*
D29*
X1100000Y200000D02*
D03*
X200000D02*
D03*
D30*
X1000000D02*
D03*
X900000D02*
D03*
X700000D02*
D03*
X600000D02*
D03*
X500000D02*
D03*
X400000D02*
D03*
X300000D02*
D03*
D31*
X900000Y1800000D02*
D03*
X600000D02*
D03*
X300000D02*
D03*
D32*
X1200000D02*
D03*
D33*
X223780Y1513465D02*
D03*
X460000Y954409D02*
D03*
X223780Y1033150D02*
D03*
X696221D02*
D03*
X1120000Y527008D02*
D03*
X1513701D02*
D03*
X1120000Y1590000D02*
D03*
X923149Y1590000D02*
D03*
D34*
X1499997Y1850003D02*
D03*
X1500000Y1950000D02*
D03*
D35*
X1499997Y2050003D02*
D03*
%TF.MD5,225d99fd62ea81d3c44f2d421285c6c5*%
M02*
