%TF.GenerationSoftware,Altium Limited,Altium Designer,20.2.5 (213)*%
G04 Layer_Color=8388736*
%FSLAX26Y26*%
%MOIN*%
%TF.SameCoordinates,777CE05A-463F-4341-A6E9-F235672CD6F8*%
%TF.FilePolarity,Negative*%
%TF.FileFunction,Soldermask,Top*%
%TF.Part,Single*%
G01*
G75*
%TA.AperFunction,ComponentPad*%
%ADD39C,0.068000*%
%ADD40R,0.068000X0.068000*%
%ADD41C,0.158000*%
G04:AMPARAMS|DCode=42|XSize=158mil|YSize=158mil|CornerRadius=41.5mil|HoleSize=0mil|Usage=FLASHONLY|Rotation=180.000|XOffset=0mil|YOffset=0mil|HoleType=Round|Shape=RoundedRectangle|*
%AMROUNDEDRECTD42*
21,1,0.158000,0.075000,0,0,180.0*
21,1,0.075000,0.158000,0,0,180.0*
1,1,0.083000,-0.037500,0.037500*
1,1,0.083000,0.037500,0.037500*
1,1,0.083000,0.037500,-0.037500*
1,1,0.083000,-0.037500,-0.037500*
%
%ADD42ROUNDEDRECTD42*%
%ADD43C,0.108000*%
%ADD44C,0.078000*%
%ADD45R,0.078000X0.078000*%
%TA.AperFunction,SMDPad,CuDef*%
%ADD47O,0.031622X0.082803*%
%ADD48R,0.052000X0.052000*%
%ADD49R,0.058000X0.048000*%
%ADD50O,0.128000X0.058000*%
%ADD51R,0.030000X0.042000*%
%ADD52R,0.037000X0.058000*%
%ADD53R,0.048000X0.058000*%
%ADD54R,0.040000X0.040000*%
%ADD55R,0.076000X0.058000*%
%ADD56R,0.068000X0.058000*%
%ADD57R,0.058000X0.076000*%
%ADD58R,0.033000X0.083000*%
%ADD59O,0.058000X0.128000*%
D39*
X900000Y200000D02*
D03*
X1000000D02*
D03*
X700000D02*
D03*
X600000D02*
D03*
X500000D02*
D03*
X400000D02*
D03*
X300000D02*
D03*
D40*
X1100000D02*
D03*
X200000D02*
D03*
D41*
X900000Y1800000D02*
D03*
X600000D02*
D03*
X300000D02*
D03*
D42*
X1200000D02*
D03*
D43*
X223780Y1513465D02*
D03*
X460000Y954409D02*
D03*
X223780Y1033150D02*
D03*
X696221D02*
D03*
X1120000Y527008D02*
D03*
X1513701D02*
D03*
X1120000Y1590000D02*
D03*
X923149Y1590000D02*
D03*
D44*
X1499997Y1850003D02*
D03*
X1500000Y1950000D02*
D03*
D45*
X1499997Y2050003D02*
D03*
D47*
X675000Y552520D02*
D03*
X625000D02*
D03*
X575000D02*
D03*
X525000D02*
D03*
X675000Y367480D02*
D03*
X625000D02*
D03*
X575000D02*
D03*
X525000D02*
D03*
D48*
X284000Y800000D02*
D03*
X436000D02*
D03*
D49*
X1240000Y320000D02*
D03*
Y240000D02*
D03*
X1400000Y960000D02*
D03*
Y880000D02*
D03*
D50*
X1110000Y330000D02*
D03*
Y430000D02*
D03*
X810000D02*
D03*
Y330000D02*
D03*
D51*
X1062598Y1034000D02*
D03*
X1137401Y1034000D02*
D03*
X1100000Y1120000D02*
D03*
X902598Y1032000D02*
D03*
X977402Y1032000D02*
D03*
X940000Y1118000D02*
D03*
D52*
X1145276Y1220000D02*
D03*
X1054724D02*
D03*
D53*
X1140000Y957000D02*
D03*
X1060000D02*
D03*
X980000Y955000D02*
D03*
X900000D02*
D03*
X1060000Y875000D02*
D03*
X980000D02*
D03*
X890000D02*
D03*
X810000D02*
D03*
X720000Y640000D02*
D03*
X800000D02*
D03*
X700000Y260000D02*
D03*
X620000D02*
D03*
D54*
X1260000Y872000D02*
D03*
Y928000D02*
D03*
Y1048000D02*
D03*
Y992000D02*
D03*
X1320000Y1048000D02*
D03*
Y992000D02*
D03*
Y872000D02*
D03*
Y928000D02*
D03*
D55*
X1340000Y630000D02*
D03*
Y770000D02*
D03*
X1360000Y1870000D02*
D03*
Y1730000D02*
D03*
X1650000Y1880000D02*
D03*
Y2020000D02*
D03*
D56*
X900000Y670000D02*
D03*
Y530000D02*
D03*
X980000Y670000D02*
D03*
Y530000D02*
D03*
D57*
X540000Y730000D02*
D03*
X680000D02*
D03*
D58*
X188000Y540000D02*
D03*
Y340000D02*
D03*
X332000D02*
D03*
Y540000D02*
D03*
D59*
X1540000Y1310000D02*
D03*
Y1610000D02*
D03*
X1340000D02*
D03*
X1440000D02*
D03*
Y1310000D02*
D03*
X1339062Y1309994D02*
D03*
%TF.MD5,1ff17e332c85783023bf33f682eb000e*%
M02*
