%TF.GenerationSoftware,Altium Limited,Altium Designer,20.2.5 (213)*%
G04 Layer_Color=2752767*
%FSLAX26Y26*%
%MOIN*%
%TF.SameCoordinates,777CE05A-463F-4341-A6E9-F235672CD6F8*%
%TF.FilePolarity,Positive*%
%TF.FileFunction,Drawing*%
%TF.Part,Single*%
G01*
G75*
%TA.AperFunction,NonConductor*%
%ADD70C,0.005000*%
%ADD71C,0.006667*%
D70*
X880000Y180000D02*
Y220000D01*
X920000D01*
Y180000D01*
X880000D01*
X980000D02*
Y220000D01*
X1020000D01*
Y180000D01*
X980000D01*
X1080000D02*
Y220000D01*
X1120000D01*
Y180000D01*
X1080000D01*
X223780Y1493465D02*
X203780Y1533465D01*
X243780D01*
X223780Y1493465D01*
X460000Y934409D02*
X440000Y974409D01*
X480000D01*
X460000Y934409D01*
X223780Y1013150D02*
X203780Y1053150D01*
X243780D01*
X223780Y1013150D01*
X696221D02*
X676221Y1053150D01*
X716221D01*
X696221Y1013150D01*
X1499997Y1830003D02*
X1509997Y1840003D01*
X1519997D01*
X1509997Y1850003D01*
X1519997Y1860003D01*
X1509997D01*
X1499997Y1870003D01*
X1489997Y1860003D01*
X1479997D01*
X1489997Y1850003D01*
X1479997Y1840003D01*
X1489997D01*
X1499997Y1830003D01*
X1500000Y1930000D02*
X1510000Y1940000D01*
X1520000D01*
X1510000Y1950000D01*
X1520000Y1960000D01*
X1510000D01*
X1500000Y1970000D01*
X1490000Y1960000D01*
X1480000D01*
X1490000Y1950000D01*
X1480000Y1940000D01*
X1490000D01*
X1500000Y1930000D01*
X1499997Y2030003D02*
X1509997Y2040003D01*
X1519997D01*
X1509997Y2050003D01*
X1519997Y2060003D01*
X1509997D01*
X1499997Y2070003D01*
X1489997Y2060003D01*
X1479997D01*
X1489997Y2050003D01*
X1479997Y2040003D01*
X1489997D01*
X1499997Y2030003D01*
X680000Y180000D02*
Y220000D01*
X720000D01*
Y180000D01*
X680000D01*
X580000D02*
Y220000D01*
X620000D01*
Y180000D01*
X580000D01*
X480000D02*
Y220000D01*
X520000D01*
Y180000D01*
X480000D01*
X380000D02*
Y220000D01*
X420000D01*
Y180000D01*
X380000D01*
X280000D02*
Y220000D01*
X320000D01*
Y180000D01*
X280000D01*
X180000D02*
Y220000D01*
X220000D01*
Y180000D01*
X180000D01*
X1120000Y507008D02*
X1130000Y517008D01*
X1140000D01*
X1130000Y527008D01*
X1140000Y537008D01*
X1130000D01*
X1120000Y547008D01*
X1110000Y537008D01*
X1100000D01*
X1110000Y527008D01*
X1100000Y517008D01*
X1110000D01*
X1120000Y507008D01*
X1513701D02*
X1523701Y517008D01*
X1533701D01*
X1523701Y527008D01*
X1533701Y537008D01*
X1523701D01*
X1513701Y547008D01*
X1503701Y537008D01*
X1493701D01*
X1503701Y527008D01*
X1493701Y517008D01*
X1503701D01*
X1513701Y507008D01*
X1120000Y1570000D02*
X1130000Y1580000D01*
X1140000D01*
X1130000Y1590000D01*
X1140000Y1600000D01*
X1130000D01*
X1120000Y1610000D01*
X1110000Y1600000D01*
X1100000D01*
X1110000Y1590000D01*
X1100000Y1580000D01*
X1110000D01*
X1120000Y1570000D01*
X923149Y1570000D02*
X933149Y1580000D01*
X943149D01*
X933149Y1590000D01*
X943149Y1600000D01*
X933149D01*
X923149Y1610000D01*
X913149Y1600000D01*
X903149D01*
X913149Y1590000D01*
X903149Y1580000D01*
X913149D01*
X923149Y1570000D01*
D71*
X920000Y1800000D02*
G03*
X920000Y1800000I-20000J0D01*
G01*
X1220000D02*
G03*
X1220000Y1800000I-20000J0D01*
G01*
X620000D02*
G03*
X620000Y1800000I-20000J0D01*
G01*
X320000D02*
G03*
X320000Y1800000I-20000J0D01*
G01*
%TF.MD5,99a77af359d174de1323ce6aeb5c201b*%
M02*
