%TF.GenerationSoftware,Altium Limited,Altium Designer,20.2.5 (213)*%
G04 Layer_Color=32768*
%FSLAX26Y26*%
%MOIN*%
%TF.SameCoordinates,777CE05A-463F-4341-A6E9-F235672CD6F8*%
%TF.FilePolarity,Positive*%
%TF.FileFunction,Other,Mechanical_15*%
%TF.Part,Single*%
G01*
G75*
%TA.AperFunction,NonConductor*%
%ADD36C,0.004000*%
%ADD38C,0.002000*%
%ADD62C,0.003937*%
D36*
X990000Y200000D02*
X1010000D01*
X1000000Y190000D02*
Y210000D01*
X1150000Y150000D02*
Y250000D01*
X850000Y150000D02*
X1150000D01*
X850000D02*
Y250000D01*
X1150000D01*
D38*
X505000Y570000D02*
X695000D01*
X505000Y345000D02*
X695000D01*
Y570000D01*
X505000Y345000D02*
Y570000D01*
X600000Y440315D02*
Y479685D01*
X580315Y460000D02*
X619685D01*
X285000Y767000D02*
X433000D01*
X285000D02*
Y833000D01*
X433000D01*
Y767000D02*
Y833000D01*
X360000Y790000D02*
Y810000D01*
X350000Y800000D02*
X370000D01*
X1265000Y240000D02*
Y320000D01*
X1215000Y240000D02*
X1265000D01*
X1215000Y320000D02*
X1265000D01*
X1215000Y240000D02*
Y320000D01*
X1240000Y275000D02*
Y285000D01*
X1235000Y280000D02*
X1245000D01*
X1041000Y1014000D02*
X1159000D01*
X1041000Y1138000D02*
X1159000D01*
X1041000Y1014000D02*
Y1138000D01*
X1159000Y1014000D02*
Y1138000D01*
X1100000Y1067000D02*
Y1087000D01*
X1090000Y1077000D02*
X1110000D01*
X881000Y1012000D02*
X999000D01*
X881000Y1136000D02*
X999000D01*
X881000Y1012000D02*
Y1136000D01*
X999000Y1012000D02*
Y1136000D01*
X940000Y1065000D02*
Y1085000D01*
X930000Y1075000D02*
X950000D01*
X1090158Y1220000D02*
X1109842D01*
X1100000Y1210158D02*
Y1229842D01*
X1060000Y1246000D02*
X1140000D01*
Y1194000D02*
Y1246000D01*
X1060000Y1194000D02*
Y1246000D01*
Y1194000D02*
X1140000D01*
X1060000Y932000D02*
X1140000D01*
X1060000D02*
Y982000D01*
X1140000Y932000D02*
Y982000D01*
X1060000D02*
X1140000D01*
X1095000Y957000D02*
X1105000D01*
X1100000Y952000D02*
Y962000D01*
X900000Y930000D02*
X980000D01*
X900000D02*
Y980000D01*
X980000Y930000D02*
Y980000D01*
X900000D02*
X980000D01*
X935000Y955000D02*
X945000D01*
X940000Y950000D02*
Y960000D01*
X980000Y850000D02*
X1060000D01*
X980000D02*
Y900000D01*
X1060000Y850000D02*
Y900000D01*
X980000D02*
X1060000D01*
X1015000Y875000D02*
X1025000Y875000D01*
X1020000Y880000D02*
X1020000Y870000D01*
X810000Y850000D02*
X890000D01*
X810000D02*
Y900000D01*
X890000Y850000D02*
Y900000D01*
X810000D02*
X890000D01*
X845000Y875000D02*
X855000D01*
X850000Y870000D02*
Y880000D01*
X1276935Y868494D02*
X1276935Y931490D01*
X1243079Y868494D02*
X1276935D01*
X1243079Y931489D02*
X1276935Y931490D01*
X1243079Y868494D02*
X1243079Y931489D01*
X1255079Y900000D02*
X1264921D01*
X1260000Y895079D02*
Y904921D01*
X1244252Y988109D02*
Y1051891D01*
X1275746D01*
X1244252Y988109D02*
X1275746D01*
X1275746Y1051891D01*
X1255000Y1020000D02*
X1265000D01*
X1260000Y1015000D02*
Y1025000D01*
X1304252Y988109D02*
Y1051891D01*
X1335746D01*
X1304252Y988109D02*
X1335746D01*
Y1051891D01*
X1315000Y1020000D02*
X1325000D01*
X1320000Y1015000D02*
Y1025000D01*
X1425000Y880000D02*
Y960000D01*
X1375000Y880000D02*
X1425000D01*
X1375000Y960000D02*
X1425000D01*
X1375000Y880000D02*
Y960000D01*
X1400000Y915000D02*
Y925000D01*
X1395000Y920000D02*
X1405000D01*
X1336935Y868494D02*
X1336935Y931490D01*
X1303079Y868494D02*
X1336935D01*
X1303079Y931489D02*
X1336935Y931490D01*
X1303079Y868494D02*
X1303079Y931489D01*
X1315079Y900000D02*
X1324921D01*
X1320000Y895079D02*
Y904921D01*
X1308000Y637000D02*
Y764000D01*
X1373000D01*
Y637000D02*
Y764000D01*
X1308000Y637000D02*
X1373000D01*
X1340000Y690158D02*
Y709842D01*
X1330158Y700000D02*
X1349842D01*
X900000Y590158D02*
Y609842D01*
X890158Y600000D02*
X909842D01*
X867000Y537000D02*
Y663000D01*
X933000D01*
X867000Y537000D02*
X933000D01*
Y663000D01*
X980000Y590158D02*
Y609842D01*
X970158Y600000D02*
X989842D01*
X947000Y537000D02*
Y663000D01*
X1013000D01*
X947000Y537000D02*
X1013000D01*
Y663000D01*
X720000Y665000D02*
X800000D01*
Y615000D02*
Y665000D01*
X720000Y615000D02*
Y665000D01*
Y615000D02*
X800000D01*
X755000Y640000D02*
X765000D01*
X760000Y635000D02*
Y645000D01*
X610000Y720158D02*
Y739842D01*
X600158Y730000D02*
X619842D01*
X673000Y698000D02*
Y763000D01*
X546000D02*
X673000D01*
X546000Y698000D02*
Y763000D01*
Y698000D02*
X673000D01*
X260000Y420000D02*
Y460000D01*
X240000Y440000D02*
X280000D01*
X158000Y314000D02*
X363000Y314000D01*
Y566000D01*
X158000Y566000D02*
X363000Y566000D01*
X158000Y314000D02*
Y566000D01*
X620000Y235000D02*
X700000D01*
X620000D02*
Y285000D01*
X700000Y235000D02*
Y285000D01*
X620000D02*
X700000D01*
X655000Y260000D02*
X665000D01*
X660000Y255000D02*
Y265000D01*
X1328000Y1737018D02*
Y1863002D01*
X1393000D01*
X1328000Y1737018D02*
X1393000D01*
Y1863002D01*
X1350158Y1800000D02*
X1369842D01*
X1360000Y1790158D02*
Y1809842D01*
X1440000Y1440315D02*
Y1479685D01*
X1420315Y1460000D02*
X1459685D01*
X1280000Y1302518D02*
X1598112D01*
X1280000D02*
Y1617482D01*
X1598112D01*
Y1302518D02*
Y1617482D01*
X1682000Y1886998D02*
Y2012982D01*
X1617000Y1886998D02*
X1682000D01*
X1617000Y2012982D02*
X1682000D01*
X1617000Y1886998D02*
Y2012982D01*
X1640158Y1950000D02*
X1659842D01*
X1650000Y1940158D02*
Y1959842D01*
X150000Y2207443D02*
X1350000D01*
X150000Y1735002D02*
Y2207443D01*
Y1735002D02*
X1350000D01*
Y2207443D01*
X740000Y1950000D02*
X760000D01*
X750000Y1940000D02*
Y1960000D01*
X420000Y1230000D02*
X500000D01*
X460000Y1190000D02*
Y1270000D01*
X150000Y1650000D02*
X770000D01*
X150000Y900000D02*
Y1650000D01*
Y900000D02*
X770000D01*
Y1650000D01*
X1404997Y2145003D02*
X1584997D01*
X1584997Y1755003D02*
X1584997Y2145003D01*
X1404997Y1755003D02*
X1584997Y1755003D01*
X1404997Y1755003D02*
Y2145003D01*
X1499997Y1920003D02*
Y1980003D01*
X1469997Y1950003D02*
X1529997D01*
X440000Y200000D02*
X460000D01*
X450000Y190000D02*
Y210000D01*
X150000Y150000D02*
Y250000D01*
X750000Y250000D01*
Y150000D02*
Y250000D01*
X150000Y150000D02*
X750000Y150000D01*
X1218425Y1019134D02*
Y1097874D01*
X1179055Y1058504D02*
X1257795D01*
X824724Y467953D02*
Y1649055D01*
X1612126D01*
Y467953D02*
Y1649055D01*
X824724Y467953D02*
X1612126D01*
D62*
X940315Y380000D02*
X979685D01*
X960000Y360315D02*
Y399685D01*
%TF.MD5,17c03a49d1d7318ca383881046bde74f*%
M02*
