M48
;Layer_Color=9474304
;FILE_FORMAT=2:5
INCH,LZ
;TYPE=PLATED
T1F00S00C0.03600
T2F00S00C0.04000
T3F00S00C0.06000
T4F00S00C0.08000
%
T01
X007Y002
X009
X01
X011
X006
X005
X004
X003
X002
T02
X0112Y0052701
X015137
X015Y0185
X0112Y0159
X0092315Y0159
X015Y0195
X015Y0205
T03
X0022378Y0103315
X0046Y0095441
X0022378Y0151347
X0069622Y0103315
T04
X003Y018
X006
X009
X012
M30
